%TF.GenerationSoftware,KiCad,Pcbnew,(5.1.8)-1*%
%TF.CreationDate,2022-03-30T16:17:14-07:00*%
%TF.ProjectId,Alpenglow_ChillySnowCloud_AllSilver_PCB,416c7065-6e67-46c6-9f77-5f4368696c6c,rev?*%
%TF.SameCoordinates,Original*%
%TF.FileFunction,Copper,L2,Bot*%
%TF.FilePolarity,Positive*%
%FSLAX46Y46*%
G04 Gerber Fmt 4.6, Leading zero omitted, Abs format (unit mm)*
G04 Created by KiCad (PCBNEW (5.1.8)-1) date 2022-03-30 16:17:14*
%MOMM*%
%LPD*%
G01*
G04 APERTURE LIST*
%TA.AperFunction,ComponentPad*%
%ADD10C,0.100000*%
%TD*%
%TA.AperFunction,ComponentPad*%
%ADD11O,2.500000X4.000000*%
%TD*%
%TA.AperFunction,SMDPad,CuDef*%
%ADD12C,17.272000*%
%TD*%
%TA.AperFunction,ComponentPad*%
%ADD13R,1.800000X1.800000*%
%TD*%
%TA.AperFunction,ComponentPad*%
%ADD14C,1.800000*%
%TD*%
%TA.AperFunction,Conductor*%
%ADD15C,0.508000*%
%TD*%
%TA.AperFunction,Conductor*%
%ADD16C,0.254000*%
%TD*%
%TA.AperFunction,Conductor*%
%ADD17C,0.100000*%
%TD*%
G04 APERTURE END LIST*
%TO.P,SW1,*%
%TO.N,GND*%
%TA.AperFunction,ComponentPad*%
G36*
G01*
X131978053Y-109161398D02*
X133233757Y-109497862D01*
G75*
G02*
X134011574Y-110845081I-284701J-1062518D01*
G01*
X134011574Y-110845081D01*
G75*
G02*
X132664355Y-111622898I-1062518J284701D01*
G01*
X131408651Y-111286434D01*
G75*
G02*
X130630834Y-109939215I284701J1062518D01*
G01*
X130630834Y-109939215D01*
G75*
G02*
X131978053Y-109161398I1062518J-284701D01*
G01*
G37*
%TD.AperFunction*%
%TA.AperFunction,ComponentPad*%
G36*
G01*
X134100369Y-101240806D02*
X135356073Y-101577270D01*
G75*
G02*
X136133890Y-102924489I-284701J-1062518D01*
G01*
X136133890Y-102924489D01*
G75*
G02*
X134786671Y-103702306I-1062518J284701D01*
G01*
X133530967Y-103365842D01*
G75*
G02*
X132753150Y-102018623I284701J1062518D01*
G01*
X132753150Y-102018623D01*
G75*
G02*
X134100369Y-101240806I1062518J-284701D01*
G01*
G37*
%TD.AperFunction*%
%TO.P,SW1,3*%
%TO.N,/LED+*%
%TA.AperFunction,ComponentPad*%
G36*
G01*
X132575875Y-107509849D02*
X133541801Y-107768669D01*
G75*
G02*
X134072131Y-108687227I-194114J-724444D01*
G01*
X134072131Y-108687227D01*
G75*
G02*
X133153573Y-109217557I-724444J194114D01*
G01*
X132187647Y-108958737D01*
G75*
G02*
X131657317Y-108040179I194114J724444D01*
G01*
X131657317Y-108040179D01*
G75*
G02*
X132575875Y-107509849I724444J-194114D01*
G01*
G37*
%TD.AperFunction*%
%TO.P,SW1,2*%
%TO.N,VCC*%
%TA.AperFunction,ComponentPad*%
G36*
G01*
X133093513Y-105577998D02*
X134059439Y-105836818D01*
G75*
G02*
X134589769Y-106755376I-194114J-724444D01*
G01*
X134589769Y-106755376D01*
G75*
G02*
X133671211Y-107285706I-724444J194114D01*
G01*
X132705285Y-107026886D01*
G75*
G02*
X132174955Y-106108328I194114J724444D01*
G01*
X132174955Y-106108328D01*
G75*
G02*
X133093513Y-105577998I724444J-194114D01*
G01*
G37*
%TD.AperFunction*%
%TA.AperFunction,ComponentPad*%
D10*
%TO.P,SW1,1*%
%TO.N,Net-(SW1-Pad1)*%
G36*
X132886707Y-103452032D02*
G01*
X135301522Y-104099079D01*
X134913293Y-105547968D01*
X132498478Y-104900921D01*
X132886707Y-103452032D01*
G37*
%TD.AperFunction*%
%TD*%
D11*
%TO.P,BT1,1*%
%TO.N,VCC*%
X121716800Y-92583000D03*
X100634800Y-92583000D03*
D12*
%TO.P,BT1,2*%
%TO.N,GND*%
X111175800Y-92583000D03*
%TD*%
D13*
%TO.P,D1,1*%
%TO.N,GND*%
X96088200Y-109397800D03*
D14*
%TO.P,D1,2*%
%TO.N,/LED+*%
X96088200Y-111937800D03*
%TD*%
D13*
%TO.P,D2,1*%
%TO.N,GND*%
X109397800Y-116840000D03*
D14*
%TO.P,D2,2*%
%TO.N,/LED+*%
X109397800Y-119380000D03*
%TD*%
%TO.P,D3,2*%
%TO.N,/LED+*%
X122732800Y-111937800D03*
D13*
%TO.P,D3,1*%
%TO.N,GND*%
X122732800Y-109397800D03*
%TD*%
D15*
%TO.N,VCC*%
X100634800Y-97993200D02*
X100634800Y-92583000D01*
X106959400Y-104317800D02*
X100634800Y-97993200D01*
X115036600Y-104317800D02*
X106959400Y-104317800D01*
X121716800Y-97637600D02*
X115036600Y-104317800D01*
X121716800Y-92583000D02*
X121716800Y-97637600D01*
X121894600Y-92583000D02*
X121716800Y-92583000D01*
X133382362Y-106001978D02*
X132957466Y-106001978D01*
X133382362Y-106431852D02*
X133382362Y-106001978D01*
X133382362Y-106431852D02*
X132568452Y-106431852D01*
X124079000Y-94945200D02*
X121716800Y-92583000D01*
X124079000Y-97942400D02*
X124079000Y-94945200D01*
X132568452Y-106431852D02*
X124079000Y-97942400D01*
%TO.N,/LED+*%
X132864724Y-108363703D02*
X128237297Y-108363703D01*
X124663200Y-111937800D02*
X122732800Y-111937800D01*
X128237297Y-108363703D02*
X124663200Y-111937800D01*
X122732800Y-111937800D02*
X96088200Y-111937800D01*
X96088200Y-111937800D02*
X96088200Y-114325400D01*
X101142800Y-119380000D02*
X109397800Y-119380000D01*
X96088200Y-114325400D02*
X101142800Y-119380000D01*
%TD*%
D16*
%TO.N,GND*%
X114298884Y-75062553D02*
X116277593Y-75375950D01*
X118225613Y-75843628D01*
X120130934Y-76462705D01*
X121981810Y-77229363D01*
X123766829Y-78138875D01*
X125474986Y-79185635D01*
X127095749Y-80363188D01*
X128619126Y-81664275D01*
X130035725Y-83080874D01*
X131336812Y-84604251D01*
X132514365Y-86225014D01*
X133561125Y-87933171D01*
X134470637Y-89718190D01*
X135237295Y-91569066D01*
X135856372Y-93474387D01*
X136324050Y-95422407D01*
X136637447Y-97401116D01*
X136794629Y-99398313D01*
X136794629Y-101401687D01*
X136735759Y-102149703D01*
X136637426Y-101882274D01*
X136459551Y-101591307D01*
X136228328Y-101340633D01*
X135952645Y-101139885D01*
X135643095Y-100996777D01*
X135015244Y-100828545D01*
X134599063Y-102381753D01*
X134618382Y-102386929D01*
X134552641Y-102632275D01*
X134533323Y-102627099D01*
X134528147Y-102646418D01*
X134282801Y-102580677D01*
X134287977Y-102561359D01*
X132265208Y-102019359D01*
X132081527Y-102248757D01*
X132078936Y-102403872D01*
X132131922Y-102740760D01*
X132249614Y-103060838D01*
X132315345Y-103168361D01*
X132314438Y-103169820D01*
X132270377Y-103286887D01*
X131934443Y-104540607D01*
X128877344Y-101483508D01*
X132286574Y-101483508D01*
X132330948Y-101774014D01*
X134353717Y-102316013D01*
X134769898Y-100762805D01*
X134142047Y-100594572D01*
X133802415Y-100563732D01*
X133463292Y-100599744D01*
X133137711Y-100701223D01*
X132838183Y-100864270D01*
X132576220Y-101082619D01*
X132361888Y-101347880D01*
X132286574Y-101483508D01*
X128877344Y-101483508D01*
X124968000Y-97574165D01*
X124968000Y-94988859D01*
X124972300Y-94945199D01*
X124968000Y-94901539D01*
X124968000Y-94901533D01*
X124955136Y-94770926D01*
X124955136Y-94770924D01*
X124904302Y-94603347D01*
X124900589Y-94596400D01*
X124821753Y-94448909D01*
X124710659Y-94313541D01*
X124676736Y-94285701D01*
X123601800Y-93210765D01*
X123601800Y-91740403D01*
X123574525Y-91463476D01*
X123466739Y-91108152D01*
X123291703Y-90780683D01*
X123056145Y-90493655D01*
X122769117Y-90258097D01*
X122441648Y-90083061D01*
X122086324Y-89975275D01*
X121716800Y-89938880D01*
X121347277Y-89975275D01*
X120991953Y-90083061D01*
X120664484Y-90258097D01*
X120377456Y-90493655D01*
X120257041Y-90640381D01*
X119871088Y-89239772D01*
X119051779Y-87607645D01*
X118786436Y-87210530D01*
X117740033Y-86198372D01*
X111355405Y-92583000D01*
X117740033Y-98967628D01*
X118786436Y-97955470D01*
X119688316Y-96367478D01*
X120263065Y-94634051D01*
X120273989Y-94546271D01*
X120377455Y-94672345D01*
X120664483Y-94907903D01*
X120827800Y-94995198D01*
X120827801Y-97269363D01*
X114668365Y-103428800D01*
X107327636Y-103428800D01*
X103046069Y-99147233D01*
X104791172Y-99147233D01*
X105803330Y-100193636D01*
X107391322Y-101095516D01*
X109124749Y-101670265D01*
X110936997Y-101895796D01*
X112758422Y-101763442D01*
X114519028Y-101278288D01*
X116151155Y-100458979D01*
X116548270Y-100193636D01*
X117560428Y-99147233D01*
X111175800Y-92762605D01*
X104791172Y-99147233D01*
X103046069Y-99147233D01*
X101523800Y-97624965D01*
X101523800Y-94995198D01*
X101687117Y-94907903D01*
X101974145Y-94672345D01*
X102094559Y-94525620D01*
X102480512Y-95926228D01*
X103299821Y-97558355D01*
X103565164Y-97955470D01*
X104611567Y-98967628D01*
X110996195Y-92583000D01*
X104611567Y-86198372D01*
X103565164Y-87210530D01*
X102663284Y-88798522D01*
X102088535Y-90531949D01*
X102077611Y-90619729D01*
X101974145Y-90493655D01*
X101687117Y-90258097D01*
X101359648Y-90083061D01*
X101004324Y-89975275D01*
X100634800Y-89938880D01*
X100265277Y-89975275D01*
X99909953Y-90083061D01*
X99582484Y-90258097D01*
X99295456Y-90493655D01*
X99059898Y-90780683D01*
X98884862Y-91108152D01*
X98777075Y-91463476D01*
X98749800Y-91740403D01*
X98749800Y-93425596D01*
X98777075Y-93702523D01*
X98884861Y-94057847D01*
X99059897Y-94385317D01*
X99295455Y-94672345D01*
X99582483Y-94907903D01*
X99745801Y-94995198D01*
X99745800Y-97949540D01*
X99741500Y-97993200D01*
X99745800Y-98036860D01*
X99745800Y-98036866D01*
X99758664Y-98167473D01*
X99809497Y-98335050D01*
X99892047Y-98489490D01*
X100003141Y-98624859D01*
X100037064Y-98652699D01*
X106299906Y-104915542D01*
X106327741Y-104949459D01*
X106463109Y-105060553D01*
X106617549Y-105143103D01*
X106683458Y-105163096D01*
X106785124Y-105193936D01*
X106818324Y-105197206D01*
X106915733Y-105206800D01*
X106915739Y-105206800D01*
X106959399Y-105211100D01*
X107003059Y-105206800D01*
X114992940Y-105206800D01*
X115036600Y-105211100D01*
X115080260Y-105206800D01*
X115080267Y-105206800D01*
X115210874Y-105193936D01*
X115378451Y-105143103D01*
X115532891Y-105060553D01*
X115668259Y-104949459D01*
X115696099Y-104915536D01*
X122314542Y-98297094D01*
X122348459Y-98269259D01*
X122459553Y-98133891D01*
X122542103Y-97979451D01*
X122590797Y-97818926D01*
X122592936Y-97811876D01*
X122597245Y-97768126D01*
X122605800Y-97681267D01*
X122605800Y-97681261D01*
X122610100Y-97637601D01*
X122605800Y-97593941D01*
X122605800Y-94995198D01*
X122769117Y-94907903D01*
X122777548Y-94900983D01*
X123190001Y-95313436D01*
X123190000Y-97898740D01*
X123185700Y-97942400D01*
X123190000Y-97986060D01*
X123190000Y-97986066D01*
X123202864Y-98116673D01*
X123253697Y-98284250D01*
X123336247Y-98438690D01*
X123447341Y-98574059D01*
X123481264Y-98601899D01*
X131567083Y-106687719D01*
X131581555Y-106749788D01*
X131694151Y-106998291D01*
X131708768Y-107018689D01*
X131685912Y-107029045D01*
X131464150Y-107187956D01*
X131277652Y-107387079D01*
X131223163Y-107474703D01*
X128280956Y-107474703D01*
X128237296Y-107470403D01*
X128193636Y-107474703D01*
X128193630Y-107474703D01*
X128096221Y-107484297D01*
X128063021Y-107487567D01*
X127961355Y-107518407D01*
X127895446Y-107538400D01*
X127741006Y-107620950D01*
X127605638Y-107732044D01*
X127577803Y-107765961D01*
X124294965Y-111048800D01*
X123984917Y-111048800D01*
X123925112Y-110959295D01*
X123858673Y-110892856D01*
X123876980Y-110887302D01*
X123987294Y-110828337D01*
X124083985Y-110748985D01*
X124163337Y-110652294D01*
X124222302Y-110541980D01*
X124258612Y-110422282D01*
X124270872Y-110297800D01*
X124267800Y-109683550D01*
X124109050Y-109524800D01*
X122859800Y-109524800D01*
X122859800Y-109544800D01*
X122605800Y-109544800D01*
X122605800Y-109524800D01*
X121356550Y-109524800D01*
X121197800Y-109683550D01*
X121194728Y-110297800D01*
X121206988Y-110422282D01*
X121243298Y-110541980D01*
X121302263Y-110652294D01*
X121381615Y-110748985D01*
X121478306Y-110828337D01*
X121588620Y-110887302D01*
X121606927Y-110892856D01*
X121540488Y-110959295D01*
X121480683Y-111048800D01*
X97340317Y-111048800D01*
X97280512Y-110959295D01*
X97214073Y-110892856D01*
X97232380Y-110887302D01*
X97342694Y-110828337D01*
X97439385Y-110748985D01*
X97518737Y-110652294D01*
X97577702Y-110541980D01*
X97614012Y-110422282D01*
X97626272Y-110297800D01*
X97623200Y-109683550D01*
X97464450Y-109524800D01*
X96215200Y-109524800D01*
X96215200Y-109544800D01*
X95961200Y-109544800D01*
X95961200Y-109524800D01*
X94711950Y-109524800D01*
X94553200Y-109683550D01*
X94550128Y-110297800D01*
X94562388Y-110422282D01*
X94598698Y-110541980D01*
X94657663Y-110652294D01*
X94737015Y-110748985D01*
X94833706Y-110828337D01*
X94944020Y-110887302D01*
X94962327Y-110892856D01*
X94895888Y-110959295D01*
X94727901Y-111210705D01*
X94612189Y-111490057D01*
X94553200Y-111786616D01*
X94553200Y-112088984D01*
X94612189Y-112385543D01*
X94727901Y-112664895D01*
X94895888Y-112916305D01*
X95109695Y-113130112D01*
X95199201Y-113189918D01*
X95199201Y-114281730D01*
X95194900Y-114325400D01*
X95212064Y-114499674D01*
X95262898Y-114667252D01*
X95345448Y-114821691D01*
X95456542Y-114957059D01*
X95490459Y-114984894D01*
X100483306Y-119977742D01*
X100511141Y-120011659D01*
X100646509Y-120122753D01*
X100800949Y-120205303D01*
X100895558Y-120234002D01*
X100968525Y-120256136D01*
X100985125Y-120257771D01*
X101099133Y-120269000D01*
X101099140Y-120269000D01*
X101142800Y-120273300D01*
X101186460Y-120269000D01*
X108145683Y-120269000D01*
X108205488Y-120358505D01*
X108419295Y-120572312D01*
X108670705Y-120740299D01*
X108950057Y-120856011D01*
X109246616Y-120915000D01*
X109548984Y-120915000D01*
X109845543Y-120856011D01*
X110124895Y-120740299D01*
X110376305Y-120572312D01*
X110590112Y-120358505D01*
X110758099Y-120107095D01*
X110873811Y-119827743D01*
X110932800Y-119531184D01*
X110932800Y-119228816D01*
X110873811Y-118932257D01*
X110758099Y-118652905D01*
X110590112Y-118401495D01*
X110523673Y-118335056D01*
X110541980Y-118329502D01*
X110652294Y-118270537D01*
X110748985Y-118191185D01*
X110828337Y-118094494D01*
X110887302Y-117984180D01*
X110923612Y-117864482D01*
X110935872Y-117740000D01*
X110932800Y-117125750D01*
X110774050Y-116967000D01*
X109524800Y-116967000D01*
X109524800Y-116987000D01*
X109270800Y-116987000D01*
X109270800Y-116967000D01*
X108021550Y-116967000D01*
X107862800Y-117125750D01*
X107859728Y-117740000D01*
X107871988Y-117864482D01*
X107908298Y-117984180D01*
X107967263Y-118094494D01*
X108046615Y-118191185D01*
X108143306Y-118270537D01*
X108253620Y-118329502D01*
X108271927Y-118335056D01*
X108205488Y-118401495D01*
X108145683Y-118491000D01*
X101511036Y-118491000D01*
X98960036Y-115940000D01*
X107859728Y-115940000D01*
X107862800Y-116554250D01*
X108021550Y-116713000D01*
X109270800Y-116713000D01*
X109270800Y-115463750D01*
X109524800Y-115463750D01*
X109524800Y-116713000D01*
X110774050Y-116713000D01*
X110932800Y-116554250D01*
X110935872Y-115940000D01*
X110923612Y-115815518D01*
X110887302Y-115695820D01*
X110828337Y-115585506D01*
X110748985Y-115488815D01*
X110652294Y-115409463D01*
X110541980Y-115350498D01*
X110422282Y-115314188D01*
X110297800Y-115301928D01*
X109683550Y-115305000D01*
X109524800Y-115463750D01*
X109270800Y-115463750D01*
X109112050Y-115305000D01*
X108497800Y-115301928D01*
X108373318Y-115314188D01*
X108253620Y-115350498D01*
X108143306Y-115409463D01*
X108046615Y-115488815D01*
X107967263Y-115585506D01*
X107908298Y-115695820D01*
X107871988Y-115815518D01*
X107859728Y-115940000D01*
X98960036Y-115940000D01*
X96977200Y-113957165D01*
X96977200Y-113189917D01*
X97066705Y-113130112D01*
X97280512Y-112916305D01*
X97340317Y-112826800D01*
X121480683Y-112826800D01*
X121540488Y-112916305D01*
X121754295Y-113130112D01*
X122005705Y-113298099D01*
X122285057Y-113413811D01*
X122581616Y-113472800D01*
X122883984Y-113472800D01*
X123180543Y-113413811D01*
X123459895Y-113298099D01*
X123711305Y-113130112D01*
X123925112Y-112916305D01*
X123984917Y-112826800D01*
X124619540Y-112826800D01*
X124663200Y-112831100D01*
X124706860Y-112826800D01*
X124706867Y-112826800D01*
X124837474Y-112813936D01*
X125005051Y-112763103D01*
X125159491Y-112680553D01*
X125294859Y-112569459D01*
X125322699Y-112535536D01*
X127533771Y-110324464D01*
X129956620Y-110324464D01*
X130009606Y-110661352D01*
X130127298Y-110981430D01*
X130305173Y-111272397D01*
X130536396Y-111523071D01*
X130812079Y-111723819D01*
X131121629Y-111866927D01*
X131749480Y-112035159D01*
X132165661Y-110481951D01*
X130142892Y-109939951D01*
X129959211Y-110169349D01*
X129956620Y-110324464D01*
X127533771Y-110324464D01*
X128605533Y-109252703D01*
X130252313Y-109252703D01*
X130239572Y-109268472D01*
X130164258Y-109404100D01*
X130208632Y-109694606D01*
X132231401Y-110236605D01*
X132236577Y-110217286D01*
X132481923Y-110283027D01*
X132476747Y-110302345D01*
X132496066Y-110307521D01*
X132430325Y-110552867D01*
X132411007Y-110547691D01*
X131994826Y-112100899D01*
X132622677Y-112269132D01*
X132962309Y-112299972D01*
X133301432Y-112263960D01*
X133627013Y-112162481D01*
X133926541Y-111999434D01*
X134059590Y-111888537D01*
X133561125Y-112866829D01*
X132514365Y-114574986D01*
X131336812Y-116195749D01*
X130035725Y-117719126D01*
X128619126Y-119135725D01*
X127095749Y-120436812D01*
X125474986Y-121614365D01*
X123766829Y-122661125D01*
X121981810Y-123570637D01*
X120130934Y-124337295D01*
X118225613Y-124956372D01*
X116277593Y-125424050D01*
X114298884Y-125737447D01*
X112301687Y-125894629D01*
X110298313Y-125894629D01*
X108301116Y-125737447D01*
X106322407Y-125424050D01*
X104374387Y-124956372D01*
X102469066Y-124337295D01*
X100618190Y-123570637D01*
X98833171Y-122661125D01*
X97125014Y-121614365D01*
X95504251Y-120436812D01*
X93980874Y-119135725D01*
X92564275Y-117719126D01*
X91263188Y-116195749D01*
X90085635Y-114574986D01*
X89038875Y-112866829D01*
X88129363Y-111081810D01*
X87362705Y-109230934D01*
X87124496Y-108497800D01*
X94550128Y-108497800D01*
X94553200Y-109112050D01*
X94711950Y-109270800D01*
X95961200Y-109270800D01*
X95961200Y-108021550D01*
X96215200Y-108021550D01*
X96215200Y-109270800D01*
X97464450Y-109270800D01*
X97623200Y-109112050D01*
X97626272Y-108497800D01*
X121194728Y-108497800D01*
X121197800Y-109112050D01*
X121356550Y-109270800D01*
X122605800Y-109270800D01*
X122605800Y-108021550D01*
X122859800Y-108021550D01*
X122859800Y-109270800D01*
X124109050Y-109270800D01*
X124267800Y-109112050D01*
X124270872Y-108497800D01*
X124258612Y-108373318D01*
X124222302Y-108253620D01*
X124163337Y-108143306D01*
X124083985Y-108046615D01*
X123987294Y-107967263D01*
X123876980Y-107908298D01*
X123757282Y-107871988D01*
X123632800Y-107859728D01*
X123018550Y-107862800D01*
X122859800Y-108021550D01*
X122605800Y-108021550D01*
X122447050Y-107862800D01*
X121832800Y-107859728D01*
X121708318Y-107871988D01*
X121588620Y-107908298D01*
X121478306Y-107967263D01*
X121381615Y-108046615D01*
X121302263Y-108143306D01*
X121243298Y-108253620D01*
X121206988Y-108373318D01*
X121194728Y-108497800D01*
X97626272Y-108497800D01*
X97614012Y-108373318D01*
X97577702Y-108253620D01*
X97518737Y-108143306D01*
X97439385Y-108046615D01*
X97342694Y-107967263D01*
X97232380Y-107908298D01*
X97112682Y-107871988D01*
X96988200Y-107859728D01*
X96373950Y-107862800D01*
X96215200Y-108021550D01*
X95961200Y-108021550D01*
X95802450Y-107862800D01*
X95188200Y-107859728D01*
X95063718Y-107871988D01*
X94944020Y-107908298D01*
X94833706Y-107967263D01*
X94737015Y-108046615D01*
X94657663Y-108143306D01*
X94598698Y-108253620D01*
X94562388Y-108373318D01*
X94550128Y-108497800D01*
X87124496Y-108497800D01*
X86743628Y-107325613D01*
X86275950Y-105377593D01*
X85962553Y-103398884D01*
X85805371Y-101401687D01*
X85805371Y-99398313D01*
X85962553Y-97401116D01*
X86275950Y-95422407D01*
X86743628Y-93474387D01*
X87362705Y-91569066D01*
X88129363Y-89718190D01*
X89038875Y-87933171D01*
X90085635Y-86225014D01*
X90235482Y-86018767D01*
X104791172Y-86018767D01*
X111175800Y-92403395D01*
X117560428Y-86018767D01*
X116548270Y-84972364D01*
X114960278Y-84070484D01*
X113226851Y-83495735D01*
X111414603Y-83270204D01*
X109593178Y-83402558D01*
X107832572Y-83887712D01*
X106200445Y-84707021D01*
X105803330Y-84972364D01*
X104791172Y-86018767D01*
X90235482Y-86018767D01*
X91263188Y-84604251D01*
X92564275Y-83080874D01*
X93980874Y-81664275D01*
X95504251Y-80363188D01*
X97125014Y-79185635D01*
X98833171Y-78138875D01*
X100618190Y-77229363D01*
X102469066Y-76462705D01*
X104374387Y-75843628D01*
X106322407Y-75375950D01*
X108301116Y-75062553D01*
X110298313Y-74905371D01*
X112301687Y-74905371D01*
X114298884Y-75062553D01*
%TA.AperFunction,Conductor*%
D17*
G36*
X114298884Y-75062553D02*
G01*
X116277593Y-75375950D01*
X118225613Y-75843628D01*
X120130934Y-76462705D01*
X121981810Y-77229363D01*
X123766829Y-78138875D01*
X125474986Y-79185635D01*
X127095749Y-80363188D01*
X128619126Y-81664275D01*
X130035725Y-83080874D01*
X131336812Y-84604251D01*
X132514365Y-86225014D01*
X133561125Y-87933171D01*
X134470637Y-89718190D01*
X135237295Y-91569066D01*
X135856372Y-93474387D01*
X136324050Y-95422407D01*
X136637447Y-97401116D01*
X136794629Y-99398313D01*
X136794629Y-101401687D01*
X136735759Y-102149703D01*
X136637426Y-101882274D01*
X136459551Y-101591307D01*
X136228328Y-101340633D01*
X135952645Y-101139885D01*
X135643095Y-100996777D01*
X135015244Y-100828545D01*
X134599063Y-102381753D01*
X134618382Y-102386929D01*
X134552641Y-102632275D01*
X134533323Y-102627099D01*
X134528147Y-102646418D01*
X134282801Y-102580677D01*
X134287977Y-102561359D01*
X132265208Y-102019359D01*
X132081527Y-102248757D01*
X132078936Y-102403872D01*
X132131922Y-102740760D01*
X132249614Y-103060838D01*
X132315345Y-103168361D01*
X132314438Y-103169820D01*
X132270377Y-103286887D01*
X131934443Y-104540607D01*
X128877344Y-101483508D01*
X132286574Y-101483508D01*
X132330948Y-101774014D01*
X134353717Y-102316013D01*
X134769898Y-100762805D01*
X134142047Y-100594572D01*
X133802415Y-100563732D01*
X133463292Y-100599744D01*
X133137711Y-100701223D01*
X132838183Y-100864270D01*
X132576220Y-101082619D01*
X132361888Y-101347880D01*
X132286574Y-101483508D01*
X128877344Y-101483508D01*
X124968000Y-97574165D01*
X124968000Y-94988859D01*
X124972300Y-94945199D01*
X124968000Y-94901539D01*
X124968000Y-94901533D01*
X124955136Y-94770926D01*
X124955136Y-94770924D01*
X124904302Y-94603347D01*
X124900589Y-94596400D01*
X124821753Y-94448909D01*
X124710659Y-94313541D01*
X124676736Y-94285701D01*
X123601800Y-93210765D01*
X123601800Y-91740403D01*
X123574525Y-91463476D01*
X123466739Y-91108152D01*
X123291703Y-90780683D01*
X123056145Y-90493655D01*
X122769117Y-90258097D01*
X122441648Y-90083061D01*
X122086324Y-89975275D01*
X121716800Y-89938880D01*
X121347277Y-89975275D01*
X120991953Y-90083061D01*
X120664484Y-90258097D01*
X120377456Y-90493655D01*
X120257041Y-90640381D01*
X119871088Y-89239772D01*
X119051779Y-87607645D01*
X118786436Y-87210530D01*
X117740033Y-86198372D01*
X111355405Y-92583000D01*
X117740033Y-98967628D01*
X118786436Y-97955470D01*
X119688316Y-96367478D01*
X120263065Y-94634051D01*
X120273989Y-94546271D01*
X120377455Y-94672345D01*
X120664483Y-94907903D01*
X120827800Y-94995198D01*
X120827801Y-97269363D01*
X114668365Y-103428800D01*
X107327636Y-103428800D01*
X103046069Y-99147233D01*
X104791172Y-99147233D01*
X105803330Y-100193636D01*
X107391322Y-101095516D01*
X109124749Y-101670265D01*
X110936997Y-101895796D01*
X112758422Y-101763442D01*
X114519028Y-101278288D01*
X116151155Y-100458979D01*
X116548270Y-100193636D01*
X117560428Y-99147233D01*
X111175800Y-92762605D01*
X104791172Y-99147233D01*
X103046069Y-99147233D01*
X101523800Y-97624965D01*
X101523800Y-94995198D01*
X101687117Y-94907903D01*
X101974145Y-94672345D01*
X102094559Y-94525620D01*
X102480512Y-95926228D01*
X103299821Y-97558355D01*
X103565164Y-97955470D01*
X104611567Y-98967628D01*
X110996195Y-92583000D01*
X104611567Y-86198372D01*
X103565164Y-87210530D01*
X102663284Y-88798522D01*
X102088535Y-90531949D01*
X102077611Y-90619729D01*
X101974145Y-90493655D01*
X101687117Y-90258097D01*
X101359648Y-90083061D01*
X101004324Y-89975275D01*
X100634800Y-89938880D01*
X100265277Y-89975275D01*
X99909953Y-90083061D01*
X99582484Y-90258097D01*
X99295456Y-90493655D01*
X99059898Y-90780683D01*
X98884862Y-91108152D01*
X98777075Y-91463476D01*
X98749800Y-91740403D01*
X98749800Y-93425596D01*
X98777075Y-93702523D01*
X98884861Y-94057847D01*
X99059897Y-94385317D01*
X99295455Y-94672345D01*
X99582483Y-94907903D01*
X99745801Y-94995198D01*
X99745800Y-97949540D01*
X99741500Y-97993200D01*
X99745800Y-98036860D01*
X99745800Y-98036866D01*
X99758664Y-98167473D01*
X99809497Y-98335050D01*
X99892047Y-98489490D01*
X100003141Y-98624859D01*
X100037064Y-98652699D01*
X106299906Y-104915542D01*
X106327741Y-104949459D01*
X106463109Y-105060553D01*
X106617549Y-105143103D01*
X106683458Y-105163096D01*
X106785124Y-105193936D01*
X106818324Y-105197206D01*
X106915733Y-105206800D01*
X106915739Y-105206800D01*
X106959399Y-105211100D01*
X107003059Y-105206800D01*
X114992940Y-105206800D01*
X115036600Y-105211100D01*
X115080260Y-105206800D01*
X115080267Y-105206800D01*
X115210874Y-105193936D01*
X115378451Y-105143103D01*
X115532891Y-105060553D01*
X115668259Y-104949459D01*
X115696099Y-104915536D01*
X122314542Y-98297094D01*
X122348459Y-98269259D01*
X122459553Y-98133891D01*
X122542103Y-97979451D01*
X122590797Y-97818926D01*
X122592936Y-97811876D01*
X122597245Y-97768126D01*
X122605800Y-97681267D01*
X122605800Y-97681261D01*
X122610100Y-97637601D01*
X122605800Y-97593941D01*
X122605800Y-94995198D01*
X122769117Y-94907903D01*
X122777548Y-94900983D01*
X123190001Y-95313436D01*
X123190000Y-97898740D01*
X123185700Y-97942400D01*
X123190000Y-97986060D01*
X123190000Y-97986066D01*
X123202864Y-98116673D01*
X123253697Y-98284250D01*
X123336247Y-98438690D01*
X123447341Y-98574059D01*
X123481264Y-98601899D01*
X131567083Y-106687719D01*
X131581555Y-106749788D01*
X131694151Y-106998291D01*
X131708768Y-107018689D01*
X131685912Y-107029045D01*
X131464150Y-107187956D01*
X131277652Y-107387079D01*
X131223163Y-107474703D01*
X128280956Y-107474703D01*
X128237296Y-107470403D01*
X128193636Y-107474703D01*
X128193630Y-107474703D01*
X128096221Y-107484297D01*
X128063021Y-107487567D01*
X127961355Y-107518407D01*
X127895446Y-107538400D01*
X127741006Y-107620950D01*
X127605638Y-107732044D01*
X127577803Y-107765961D01*
X124294965Y-111048800D01*
X123984917Y-111048800D01*
X123925112Y-110959295D01*
X123858673Y-110892856D01*
X123876980Y-110887302D01*
X123987294Y-110828337D01*
X124083985Y-110748985D01*
X124163337Y-110652294D01*
X124222302Y-110541980D01*
X124258612Y-110422282D01*
X124270872Y-110297800D01*
X124267800Y-109683550D01*
X124109050Y-109524800D01*
X122859800Y-109524800D01*
X122859800Y-109544800D01*
X122605800Y-109544800D01*
X122605800Y-109524800D01*
X121356550Y-109524800D01*
X121197800Y-109683550D01*
X121194728Y-110297800D01*
X121206988Y-110422282D01*
X121243298Y-110541980D01*
X121302263Y-110652294D01*
X121381615Y-110748985D01*
X121478306Y-110828337D01*
X121588620Y-110887302D01*
X121606927Y-110892856D01*
X121540488Y-110959295D01*
X121480683Y-111048800D01*
X97340317Y-111048800D01*
X97280512Y-110959295D01*
X97214073Y-110892856D01*
X97232380Y-110887302D01*
X97342694Y-110828337D01*
X97439385Y-110748985D01*
X97518737Y-110652294D01*
X97577702Y-110541980D01*
X97614012Y-110422282D01*
X97626272Y-110297800D01*
X97623200Y-109683550D01*
X97464450Y-109524800D01*
X96215200Y-109524800D01*
X96215200Y-109544800D01*
X95961200Y-109544800D01*
X95961200Y-109524800D01*
X94711950Y-109524800D01*
X94553200Y-109683550D01*
X94550128Y-110297800D01*
X94562388Y-110422282D01*
X94598698Y-110541980D01*
X94657663Y-110652294D01*
X94737015Y-110748985D01*
X94833706Y-110828337D01*
X94944020Y-110887302D01*
X94962327Y-110892856D01*
X94895888Y-110959295D01*
X94727901Y-111210705D01*
X94612189Y-111490057D01*
X94553200Y-111786616D01*
X94553200Y-112088984D01*
X94612189Y-112385543D01*
X94727901Y-112664895D01*
X94895888Y-112916305D01*
X95109695Y-113130112D01*
X95199201Y-113189918D01*
X95199201Y-114281730D01*
X95194900Y-114325400D01*
X95212064Y-114499674D01*
X95262898Y-114667252D01*
X95345448Y-114821691D01*
X95456542Y-114957059D01*
X95490459Y-114984894D01*
X100483306Y-119977742D01*
X100511141Y-120011659D01*
X100646509Y-120122753D01*
X100800949Y-120205303D01*
X100895558Y-120234002D01*
X100968525Y-120256136D01*
X100985125Y-120257771D01*
X101099133Y-120269000D01*
X101099140Y-120269000D01*
X101142800Y-120273300D01*
X101186460Y-120269000D01*
X108145683Y-120269000D01*
X108205488Y-120358505D01*
X108419295Y-120572312D01*
X108670705Y-120740299D01*
X108950057Y-120856011D01*
X109246616Y-120915000D01*
X109548984Y-120915000D01*
X109845543Y-120856011D01*
X110124895Y-120740299D01*
X110376305Y-120572312D01*
X110590112Y-120358505D01*
X110758099Y-120107095D01*
X110873811Y-119827743D01*
X110932800Y-119531184D01*
X110932800Y-119228816D01*
X110873811Y-118932257D01*
X110758099Y-118652905D01*
X110590112Y-118401495D01*
X110523673Y-118335056D01*
X110541980Y-118329502D01*
X110652294Y-118270537D01*
X110748985Y-118191185D01*
X110828337Y-118094494D01*
X110887302Y-117984180D01*
X110923612Y-117864482D01*
X110935872Y-117740000D01*
X110932800Y-117125750D01*
X110774050Y-116967000D01*
X109524800Y-116967000D01*
X109524800Y-116987000D01*
X109270800Y-116987000D01*
X109270800Y-116967000D01*
X108021550Y-116967000D01*
X107862800Y-117125750D01*
X107859728Y-117740000D01*
X107871988Y-117864482D01*
X107908298Y-117984180D01*
X107967263Y-118094494D01*
X108046615Y-118191185D01*
X108143306Y-118270537D01*
X108253620Y-118329502D01*
X108271927Y-118335056D01*
X108205488Y-118401495D01*
X108145683Y-118491000D01*
X101511036Y-118491000D01*
X98960036Y-115940000D01*
X107859728Y-115940000D01*
X107862800Y-116554250D01*
X108021550Y-116713000D01*
X109270800Y-116713000D01*
X109270800Y-115463750D01*
X109524800Y-115463750D01*
X109524800Y-116713000D01*
X110774050Y-116713000D01*
X110932800Y-116554250D01*
X110935872Y-115940000D01*
X110923612Y-115815518D01*
X110887302Y-115695820D01*
X110828337Y-115585506D01*
X110748985Y-115488815D01*
X110652294Y-115409463D01*
X110541980Y-115350498D01*
X110422282Y-115314188D01*
X110297800Y-115301928D01*
X109683550Y-115305000D01*
X109524800Y-115463750D01*
X109270800Y-115463750D01*
X109112050Y-115305000D01*
X108497800Y-115301928D01*
X108373318Y-115314188D01*
X108253620Y-115350498D01*
X108143306Y-115409463D01*
X108046615Y-115488815D01*
X107967263Y-115585506D01*
X107908298Y-115695820D01*
X107871988Y-115815518D01*
X107859728Y-115940000D01*
X98960036Y-115940000D01*
X96977200Y-113957165D01*
X96977200Y-113189917D01*
X97066705Y-113130112D01*
X97280512Y-112916305D01*
X97340317Y-112826800D01*
X121480683Y-112826800D01*
X121540488Y-112916305D01*
X121754295Y-113130112D01*
X122005705Y-113298099D01*
X122285057Y-113413811D01*
X122581616Y-113472800D01*
X122883984Y-113472800D01*
X123180543Y-113413811D01*
X123459895Y-113298099D01*
X123711305Y-113130112D01*
X123925112Y-112916305D01*
X123984917Y-112826800D01*
X124619540Y-112826800D01*
X124663200Y-112831100D01*
X124706860Y-112826800D01*
X124706867Y-112826800D01*
X124837474Y-112813936D01*
X125005051Y-112763103D01*
X125159491Y-112680553D01*
X125294859Y-112569459D01*
X125322699Y-112535536D01*
X127533771Y-110324464D01*
X129956620Y-110324464D01*
X130009606Y-110661352D01*
X130127298Y-110981430D01*
X130305173Y-111272397D01*
X130536396Y-111523071D01*
X130812079Y-111723819D01*
X131121629Y-111866927D01*
X131749480Y-112035159D01*
X132165661Y-110481951D01*
X130142892Y-109939951D01*
X129959211Y-110169349D01*
X129956620Y-110324464D01*
X127533771Y-110324464D01*
X128605533Y-109252703D01*
X130252313Y-109252703D01*
X130239572Y-109268472D01*
X130164258Y-109404100D01*
X130208632Y-109694606D01*
X132231401Y-110236605D01*
X132236577Y-110217286D01*
X132481923Y-110283027D01*
X132476747Y-110302345D01*
X132496066Y-110307521D01*
X132430325Y-110552867D01*
X132411007Y-110547691D01*
X131994826Y-112100899D01*
X132622677Y-112269132D01*
X132962309Y-112299972D01*
X133301432Y-112263960D01*
X133627013Y-112162481D01*
X133926541Y-111999434D01*
X134059590Y-111888537D01*
X133561125Y-112866829D01*
X132514365Y-114574986D01*
X131336812Y-116195749D01*
X130035725Y-117719126D01*
X128619126Y-119135725D01*
X127095749Y-120436812D01*
X125474986Y-121614365D01*
X123766829Y-122661125D01*
X121981810Y-123570637D01*
X120130934Y-124337295D01*
X118225613Y-124956372D01*
X116277593Y-125424050D01*
X114298884Y-125737447D01*
X112301687Y-125894629D01*
X110298313Y-125894629D01*
X108301116Y-125737447D01*
X106322407Y-125424050D01*
X104374387Y-124956372D01*
X102469066Y-124337295D01*
X100618190Y-123570637D01*
X98833171Y-122661125D01*
X97125014Y-121614365D01*
X95504251Y-120436812D01*
X93980874Y-119135725D01*
X92564275Y-117719126D01*
X91263188Y-116195749D01*
X90085635Y-114574986D01*
X89038875Y-112866829D01*
X88129363Y-111081810D01*
X87362705Y-109230934D01*
X87124496Y-108497800D01*
X94550128Y-108497800D01*
X94553200Y-109112050D01*
X94711950Y-109270800D01*
X95961200Y-109270800D01*
X95961200Y-108021550D01*
X96215200Y-108021550D01*
X96215200Y-109270800D01*
X97464450Y-109270800D01*
X97623200Y-109112050D01*
X97626272Y-108497800D01*
X121194728Y-108497800D01*
X121197800Y-109112050D01*
X121356550Y-109270800D01*
X122605800Y-109270800D01*
X122605800Y-108021550D01*
X122859800Y-108021550D01*
X122859800Y-109270800D01*
X124109050Y-109270800D01*
X124267800Y-109112050D01*
X124270872Y-108497800D01*
X124258612Y-108373318D01*
X124222302Y-108253620D01*
X124163337Y-108143306D01*
X124083985Y-108046615D01*
X123987294Y-107967263D01*
X123876980Y-107908298D01*
X123757282Y-107871988D01*
X123632800Y-107859728D01*
X123018550Y-107862800D01*
X122859800Y-108021550D01*
X122605800Y-108021550D01*
X122447050Y-107862800D01*
X121832800Y-107859728D01*
X121708318Y-107871988D01*
X121588620Y-107908298D01*
X121478306Y-107967263D01*
X121381615Y-108046615D01*
X121302263Y-108143306D01*
X121243298Y-108253620D01*
X121206988Y-108373318D01*
X121194728Y-108497800D01*
X97626272Y-108497800D01*
X97614012Y-108373318D01*
X97577702Y-108253620D01*
X97518737Y-108143306D01*
X97439385Y-108046615D01*
X97342694Y-107967263D01*
X97232380Y-107908298D01*
X97112682Y-107871988D01*
X96988200Y-107859728D01*
X96373950Y-107862800D01*
X96215200Y-108021550D01*
X95961200Y-108021550D01*
X95802450Y-107862800D01*
X95188200Y-107859728D01*
X95063718Y-107871988D01*
X94944020Y-107908298D01*
X94833706Y-107967263D01*
X94737015Y-108046615D01*
X94657663Y-108143306D01*
X94598698Y-108253620D01*
X94562388Y-108373318D01*
X94550128Y-108497800D01*
X87124496Y-108497800D01*
X86743628Y-107325613D01*
X86275950Y-105377593D01*
X85962553Y-103398884D01*
X85805371Y-101401687D01*
X85805371Y-99398313D01*
X85962553Y-97401116D01*
X86275950Y-95422407D01*
X86743628Y-93474387D01*
X87362705Y-91569066D01*
X88129363Y-89718190D01*
X89038875Y-87933171D01*
X90085635Y-86225014D01*
X90235482Y-86018767D01*
X104791172Y-86018767D01*
X111175800Y-92403395D01*
X117560428Y-86018767D01*
X116548270Y-84972364D01*
X114960278Y-84070484D01*
X113226851Y-83495735D01*
X111414603Y-83270204D01*
X109593178Y-83402558D01*
X107832572Y-83887712D01*
X106200445Y-84707021D01*
X105803330Y-84972364D01*
X104791172Y-86018767D01*
X90235482Y-86018767D01*
X91263188Y-84604251D01*
X92564275Y-83080874D01*
X93980874Y-81664275D01*
X95504251Y-80363188D01*
X97125014Y-79185635D01*
X98833171Y-78138875D01*
X100618190Y-77229363D01*
X102469066Y-76462705D01*
X104374387Y-75843628D01*
X106322407Y-75375950D01*
X108301116Y-75062553D01*
X110298313Y-74905371D01*
X112301687Y-74905371D01*
X114298884Y-75062553D01*
G37*
%TD.AperFunction*%
%TD*%
M02*
