%TF.GenerationSoftware,KiCad,Pcbnew,(6.0.4)*%
%TF.CreationDate,2022-06-06T16:45:48-07:00*%
%TF.ProjectId,Alpenglow_ChillySnowCloud_PCB,416c7065-6e67-46c6-9f77-5f4368696c6c,rev?*%
%TF.SameCoordinates,Original*%
%TF.FileFunction,Copper,L1,Top*%
%TF.FilePolarity,Positive*%
%FSLAX46Y46*%
G04 Gerber Fmt 4.6, Leading zero omitted, Abs format (unit mm)*
G04 Created by KiCad (PCBNEW (6.0.4)) date 2022-06-06 16:45:48*
%MOMM*%
%LPD*%
G01*
G04 APERTURE LIST*
G04 Aperture macros list*
%AMHorizOval*
0 Thick line with rounded ends*
0 $1 width*
0 $2 $3 position (X,Y) of the first rounded end (center of the circle)*
0 $4 $5 position (X,Y) of the second rounded end (center of the circle)*
0 Add line between two ends*
20,1,$1,$2,$3,$4,$5,0*
0 Add two circle primitives to create the rounded ends*
1,1,$1,$2,$3*
1,1,$1,$4,$5*%
%AMRotRect*
0 Rectangle, with rotation*
0 The origin of the aperture is its center*
0 $1 length*
0 $2 width*
0 $3 Rotation angle, in degrees counterclockwise*
0 Add horizontal line*
21,1,$1,$2,0,0,$3*%
G04 Aperture macros list end*
%TA.AperFunction,ComponentPad*%
%ADD10R,1.800000X1.800000*%
%TD*%
%TA.AperFunction,ComponentPad*%
%ADD11C,1.800000*%
%TD*%
%TA.AperFunction,ComponentPad*%
%ADD12O,2.500000X4.000000*%
%TD*%
%TA.AperFunction,ComponentPad*%
%ADD13HorizOval,2.200000X-0.627852X0.168232X0.627852X-0.168232X0*%
%TD*%
%TA.AperFunction,ComponentPad*%
%ADD14RotRect,1.500000X2.500000X255.000000*%
%TD*%
%TA.AperFunction,ComponentPad*%
%ADD15HorizOval,1.500000X-0.482963X0.129410X0.482963X-0.129410X0*%
%TD*%
G04 APERTURE END LIST*
D10*
%TO.P,D1,1,K*%
%TO.N,GND*%
X96088200Y-109397800D03*
D11*
%TO.P,D1,2,A*%
%TO.N,/LED+*%
X96088200Y-111937800D03*
%TD*%
D10*
%TO.P,D2,1,K*%
%TO.N,GND*%
X109397800Y-116840000D03*
D11*
%TO.P,D2,2,A*%
%TO.N,/LED+*%
X109397800Y-119380000D03*
%TD*%
D10*
%TO.P,D3,1,K*%
%TO.N,GND*%
X122732800Y-109397800D03*
D11*
%TO.P,D3,2,A*%
%TO.N,/LED+*%
X122732800Y-111937800D03*
%TD*%
D12*
%TO.P,BT1,1,+*%
%TO.N,VCC*%
X121716800Y-92583000D03*
X100634800Y-92583000D03*
%TD*%
D13*
%TO.P,SW1,*%
%TO.N,*%
X134443520Y-102471556D03*
X132321204Y-110392148D03*
D14*
%TO.P,SW1,1,A*%
%TO.N,unconnected-(SW1-Pad1)*%
X133900000Y-104500000D03*
D15*
%TO.P,SW1,2,B*%
%TO.N,VCC*%
X133382362Y-106431852D03*
%TO.P,SW1,3,C*%
%TO.N,/LED+*%
X132864724Y-108363703D03*
%TD*%
%TA.AperFunction,Conductor*%
%TO.N,GND*%
G36*
X111714619Y-74703779D02*
G01*
X112194626Y-74711320D01*
X112199461Y-74711488D01*
X112913298Y-74750148D01*
X113180146Y-74764599D01*
X113184956Y-74764953D01*
X114162820Y-74855667D01*
X114167622Y-74856206D01*
X115141312Y-74984395D01*
X115146050Y-74985111D01*
X115630104Y-75067852D01*
X116114134Y-75150589D01*
X116118886Y-75151496D01*
X117079840Y-75354001D01*
X117084553Y-75355089D01*
X117387538Y-75431193D01*
X118037078Y-75594346D01*
X118041698Y-75595602D01*
X118984309Y-75871240D01*
X118988905Y-75872680D01*
X119920253Y-76184305D01*
X119924806Y-76185926D01*
X120085726Y-76246733D01*
X120843494Y-76533070D01*
X120847985Y-76534867D01*
X121752641Y-76917007D01*
X121757053Y-76918970D01*
X121909870Y-76990555D01*
X122646407Y-77335575D01*
X122650740Y-77337707D01*
X122947872Y-77491068D01*
X123523444Y-77788143D01*
X123527699Y-77790444D01*
X124382455Y-78274042D01*
X124386619Y-78276505D01*
X125222153Y-78792541D01*
X125226220Y-78795161D01*
X126041374Y-79342922D01*
X126045337Y-79345697D01*
X126838849Y-79924336D01*
X126842702Y-79927261D01*
X127613401Y-80535921D01*
X127617140Y-80538992D01*
X128363929Y-81176811D01*
X128367546Y-81180023D01*
X129089268Y-81846009D01*
X129092760Y-81849357D01*
X129788420Y-82542593D01*
X129791780Y-82546073D01*
X130460292Y-83265477D01*
X130463517Y-83269084D01*
X130577362Y-83401441D01*
X131103937Y-84013642D01*
X131106981Y-84017320D01*
X131718369Y-84785939D01*
X131721307Y-84789782D01*
X132302708Y-85581265D01*
X132305493Y-85585212D01*
X132856108Y-86398467D01*
X132858726Y-86402501D01*
X133377671Y-87236222D01*
X133380149Y-87240377D01*
X133866752Y-88093481D01*
X133869058Y-88097712D01*
X134087084Y-88516536D01*
X134322526Y-88968816D01*
X134324674Y-88973142D01*
X134399755Y-89131977D01*
X134744368Y-89861012D01*
X134746345Y-89865410D01*
X134836609Y-90077031D01*
X135131663Y-90768776D01*
X135133475Y-90773261D01*
X135483817Y-91690715D01*
X135485455Y-91695267D01*
X135800328Y-92625519D01*
X135801790Y-92630128D01*
X136036393Y-93422133D01*
X136080708Y-93571739D01*
X136081989Y-93576388D01*
X136324439Y-94527557D01*
X136324565Y-94528050D01*
X136325667Y-94532747D01*
X136393629Y-94849759D01*
X136531533Y-95493025D01*
X136532456Y-95497774D01*
X136701304Y-96465226D01*
X136702041Y-96469988D01*
X136818070Y-97328152D01*
X136833628Y-97443223D01*
X136834183Y-97448016D01*
X136920994Y-98349582D01*
X136928312Y-98425587D01*
X136928681Y-98430387D01*
X136939001Y-98609361D01*
X136985214Y-99410845D01*
X136985400Y-99415679D01*
X137004262Y-100398015D01*
X137004276Y-100401966D01*
X136999449Y-100797017D01*
X136996651Y-101026048D01*
X136996540Y-101030005D01*
X136953683Y-102011576D01*
X136953379Y-102016404D01*
X136918630Y-102439065D01*
X136893114Y-102505318D01*
X136835829Y-102547258D01*
X136764963Y-102551570D01*
X136703016Y-102516884D01*
X136669656Y-102454214D01*
X136668132Y-102445188D01*
X136660573Y-102387768D01*
X136649587Y-102304327D01*
X136577679Y-102061570D01*
X136468680Y-101833050D01*
X136434512Y-101783335D01*
X136328082Y-101628477D01*
X136328078Y-101628473D01*
X136325276Y-101624395D01*
X136321871Y-101620806D01*
X136321867Y-101620802D01*
X136154403Y-101444332D01*
X136154401Y-101444331D01*
X136150996Y-101440742D01*
X136129913Y-101424564D01*
X135954055Y-101289624D01*
X135954053Y-101289623D01*
X135950132Y-101286614D01*
X135727630Y-101165806D01*
X135548727Y-101102453D01*
X135350805Y-101049420D01*
X134173326Y-100733916D01*
X134173315Y-100733913D01*
X134170932Y-100733275D01*
X134134453Y-100726514D01*
X133989183Y-100699590D01*
X133989182Y-100699590D01*
X133984321Y-100698689D01*
X133872079Y-100695750D01*
X133736169Y-100692190D01*
X133736163Y-100692190D01*
X133731224Y-100692061D01*
X133561357Y-100714424D01*
X133485113Y-100724462D01*
X133485112Y-100724462D01*
X133480207Y-100725108D01*
X133237450Y-100797017D01*
X133130163Y-100848191D01*
X133013399Y-100903884D01*
X133013395Y-100903886D01*
X133008930Y-100906016D01*
X133004846Y-100908823D01*
X132804357Y-101046614D01*
X132804353Y-101046618D01*
X132800275Y-101049420D01*
X132796686Y-101052825D01*
X132796682Y-101052829D01*
X132620212Y-101220293D01*
X132616622Y-101223700D01*
X132613612Y-101227623D01*
X132613610Y-101227625D01*
X132566037Y-101289624D01*
X132462494Y-101424564D01*
X132341686Y-101647066D01*
X132257172Y-101885727D01*
X132256272Y-101890585D01*
X132256270Y-101890591D01*
X132211936Y-102129797D01*
X132211033Y-102134671D01*
X132210903Y-102139620D01*
X132210903Y-102139624D01*
X132206462Y-102309233D01*
X132204405Y-102387768D01*
X132237452Y-102638785D01*
X132309361Y-102881542D01*
X132418360Y-103110062D01*
X132420273Y-103112846D01*
X132436911Y-103181414D01*
X132428527Y-103220985D01*
X132407992Y-103273928D01*
X131994847Y-104815805D01*
X131985278Y-104877616D01*
X131999366Y-105022592D01*
X132053576Y-105157785D01*
X132059120Y-105164842D01*
X132059120Y-105164843D01*
X132078623Y-105189671D01*
X132104974Y-105255597D01*
X132091500Y-105325303D01*
X132062367Y-105362454D01*
X131987393Y-105427858D01*
X131983884Y-105432238D01*
X131850437Y-105598806D01*
X131850434Y-105598811D01*
X131846931Y-105603183D01*
X131844255Y-105608112D01*
X131742410Y-105795684D01*
X131742408Y-105795690D01*
X131739736Y-105800610D01*
X131669198Y-106013900D01*
X131637543Y-106236310D01*
X131645776Y-106460811D01*
X131646970Y-106466289D01*
X131646971Y-106466294D01*
X131683307Y-106632945D01*
X131693633Y-106680305D01*
X131779603Y-106887856D01*
X131782634Y-106892578D01*
X131782636Y-106892581D01*
X131820693Y-106951861D01*
X131840662Y-107019992D01*
X131820627Y-107088103D01*
X131779370Y-107128046D01*
X131639044Y-107212029D01*
X131469755Y-107359709D01*
X131466246Y-107364089D01*
X131332799Y-107530657D01*
X131332796Y-107530662D01*
X131329293Y-107535034D01*
X131326617Y-107539963D01*
X131224772Y-107727535D01*
X131224770Y-107727541D01*
X131222098Y-107732461D01*
X131151560Y-107945751D01*
X131119905Y-108168161D01*
X131128138Y-108392662D01*
X131129332Y-108398140D01*
X131129333Y-108398145D01*
X131169814Y-108583806D01*
X131164783Y-108654624D01*
X131122263Y-108711480D01*
X131100951Y-108724374D01*
X130891083Y-108824476D01*
X130891079Y-108824478D01*
X130886614Y-108826608D01*
X130882530Y-108829415D01*
X130682041Y-108967206D01*
X130682037Y-108967210D01*
X130677959Y-108970012D01*
X130674370Y-108973417D01*
X130674366Y-108973421D01*
X130509101Y-109130252D01*
X130494306Y-109144292D01*
X130340178Y-109345156D01*
X130219370Y-109567658D01*
X130134856Y-109806319D01*
X130133956Y-109811177D01*
X130133954Y-109811183D01*
X130103093Y-109977695D01*
X130088717Y-110055263D01*
X130088587Y-110060212D01*
X130088587Y-110060216D01*
X130084146Y-110229826D01*
X130082089Y-110308360D01*
X130082735Y-110313265D01*
X130111367Y-110530745D01*
X130115136Y-110559377D01*
X130187045Y-110802134D01*
X130296044Y-111030654D01*
X130324211Y-111071638D01*
X130436642Y-111235227D01*
X130436646Y-111235231D01*
X130439448Y-111239309D01*
X130442853Y-111242898D01*
X130442857Y-111242902D01*
X130468507Y-111269931D01*
X130613728Y-111422962D01*
X130617651Y-111425972D01*
X130617653Y-111425974D01*
X130810669Y-111574080D01*
X130814592Y-111577090D01*
X131037094Y-111697898D01*
X131215997Y-111761251D01*
X131218368Y-111761886D01*
X131218367Y-111761886D01*
X132591398Y-112129788D01*
X132591409Y-112129791D01*
X132593792Y-112130429D01*
X132596235Y-112130882D01*
X132596236Y-112130882D01*
X132775541Y-112164114D01*
X132775542Y-112164114D01*
X132780403Y-112165015D01*
X132892645Y-112167954D01*
X133028555Y-112171514D01*
X133028561Y-112171514D01*
X133033500Y-112171643D01*
X133203367Y-112149280D01*
X133279611Y-112139242D01*
X133279612Y-112139242D01*
X133284517Y-112138596D01*
X133527274Y-112066687D01*
X133684597Y-111991647D01*
X133751324Y-111959820D01*
X133751328Y-111959818D01*
X133755793Y-111957688D01*
X133834974Y-111903269D01*
X133960367Y-111817090D01*
X133960371Y-111817086D01*
X133964449Y-111814284D01*
X133968037Y-111810879D01*
X133968042Y-111810875D01*
X134132736Y-111654585D01*
X134195918Y-111622203D01*
X134266577Y-111629119D01*
X134322279Y-111673139D01*
X134345340Y-111740286D01*
X134332034Y-111802596D01*
X134038628Y-112385968D01*
X134036372Y-112390248D01*
X133823193Y-112776422D01*
X133614725Y-113154062D01*
X133561741Y-113250042D01*
X133559330Y-113254218D01*
X133282316Y-113713428D01*
X133052054Y-114095138D01*
X133049476Y-114099232D01*
X132510298Y-114920052D01*
X132507565Y-114924044D01*
X131937251Y-115723594D01*
X131934366Y-115727477D01*
X131849216Y-115837648D01*
X131602985Y-116156235D01*
X131333829Y-116504482D01*
X131330798Y-116508253D01*
X130700830Y-117261685D01*
X130697656Y-117265336D01*
X130039239Y-117994021D01*
X130035927Y-117997547D01*
X129350052Y-118700390D01*
X129346609Y-118703786D01*
X129160277Y-118880609D01*
X128634218Y-119379820D01*
X128630645Y-119383082D01*
X128551789Y-119452359D01*
X128036647Y-119904922D01*
X127892863Y-120031239D01*
X127889177Y-120034354D01*
X127470712Y-120374432D01*
X127127020Y-120653743D01*
X127123213Y-120656717D01*
X126689659Y-120982239D01*
X126337862Y-121246376D01*
X126333938Y-121249206D01*
X125526533Y-121808278D01*
X125522504Y-121810955D01*
X124694229Y-122338625D01*
X124690100Y-122341146D01*
X123842157Y-122836644D01*
X123837954Y-122838992D01*
X122971641Y-123301560D01*
X122967331Y-123303756D01*
X122083895Y-123732730D01*
X122079537Y-123734744D01*
X121180243Y-124129506D01*
X121175805Y-124131353D01*
X120335871Y-124462212D01*
X120262047Y-124491292D01*
X120257513Y-124492978D01*
X119330631Y-124817568D01*
X119326035Y-124819079D01*
X118387368Y-125107850D01*
X118382718Y-125109183D01*
X117847786Y-125251518D01*
X117433657Y-125361709D01*
X117428996Y-125362854D01*
X116470923Y-125578765D01*
X116466203Y-125579734D01*
X115500546Y-125758709D01*
X115495791Y-125759496D01*
X115291749Y-125789262D01*
X114524013Y-125901262D01*
X114519213Y-125901869D01*
X114030940Y-125954051D01*
X113542646Y-126006234D01*
X113537869Y-126006651D01*
X112948936Y-126046801D01*
X112558080Y-126073447D01*
X112553248Y-126073684D01*
X112062409Y-126088252D01*
X111571558Y-126102820D01*
X111566747Y-126102870D01*
X110888767Y-126096953D01*
X110584714Y-126094299D01*
X110579879Y-126094164D01*
X110145599Y-126073684D01*
X109598902Y-126047902D01*
X109594091Y-126047584D01*
X108615562Y-125963694D01*
X108610768Y-125963190D01*
X107636220Y-125841804D01*
X107631435Y-125841114D01*
X106662276Y-125682408D01*
X106657518Y-125681535D01*
X105695140Y-125485737D01*
X105690418Y-125484681D01*
X104736289Y-125252089D01*
X104731612Y-125250853D01*
X104110820Y-125074016D01*
X103787117Y-124981807D01*
X103782498Y-124980395D01*
X102849015Y-124675286D01*
X102844446Y-124673695D01*
X101923369Y-124332978D01*
X101918865Y-124331213D01*
X101011537Y-123955386D01*
X101007104Y-123953449D01*
X100521289Y-123729999D01*
X100114868Y-123543066D01*
X100110541Y-123540974D01*
X99234710Y-123096640D01*
X99230447Y-123094373D01*
X98999417Y-122965783D01*
X98372346Y-122616760D01*
X98368165Y-122614327D01*
X97914715Y-122338625D01*
X97529008Y-122104111D01*
X97524951Y-122101537D01*
X96705966Y-121559462D01*
X96701992Y-121556720D01*
X95904502Y-120983664D01*
X95900628Y-120980767D01*
X95141475Y-120389784D01*
X95125659Y-120377471D01*
X95121906Y-120374432D01*
X94932241Y-120214719D01*
X94370691Y-119741850D01*
X94367068Y-119738678D01*
X93934937Y-119345469D01*
X107984895Y-119345469D01*
X107985192Y-119350622D01*
X107985192Y-119350625D01*
X107990867Y-119449041D01*
X107998227Y-119576697D01*
X107999364Y-119581743D01*
X107999365Y-119581749D01*
X108031541Y-119724523D01*
X108049146Y-119802642D01*
X108051088Y-119807424D01*
X108051089Y-119807428D01*
X108134340Y-120012450D01*
X108136284Y-120017237D01*
X108257301Y-120214719D01*
X108408947Y-120389784D01*
X108587149Y-120537730D01*
X108787122Y-120654584D01*
X109003494Y-120737209D01*
X109008560Y-120738240D01*
X109008561Y-120738240D01*
X109061646Y-120749040D01*
X109230456Y-120783385D01*
X109361124Y-120788176D01*
X109456749Y-120791683D01*
X109456753Y-120791683D01*
X109461913Y-120791872D01*
X109467033Y-120791216D01*
X109467035Y-120791216D01*
X109540070Y-120781860D01*
X109691647Y-120762442D01*
X109696595Y-120760957D01*
X109696602Y-120760956D01*
X109908547Y-120697369D01*
X109913490Y-120695886D01*
X109996408Y-120655265D01*
X110116849Y-120596262D01*
X110116852Y-120596260D01*
X110121484Y-120593991D01*
X110310043Y-120459494D01*
X110474103Y-120296005D01*
X110609258Y-120107917D01*
X110647155Y-120031239D01*
X110709584Y-119904922D01*
X110709585Y-119904920D01*
X110711878Y-119900280D01*
X110779208Y-119678671D01*
X110809440Y-119449041D01*
X110811127Y-119380000D01*
X110804832Y-119303434D01*
X110792573Y-119154318D01*
X110792572Y-119154312D01*
X110792149Y-119149167D01*
X110735725Y-118924533D01*
X110733666Y-118919797D01*
X110645430Y-118716868D01*
X110645428Y-118716865D01*
X110643370Y-118712131D01*
X110517564Y-118517665D01*
X110427286Y-118418450D01*
X110396234Y-118354605D01*
X110404629Y-118284106D01*
X110449805Y-118229338D01*
X110476249Y-118215669D01*
X110535854Y-118193324D01*
X110551449Y-118184786D01*
X110653524Y-118108285D01*
X110666085Y-118095724D01*
X110742586Y-117993649D01*
X110751124Y-117978054D01*
X110796278Y-117857606D01*
X110799905Y-117842351D01*
X110805431Y-117791486D01*
X110805800Y-117784672D01*
X110805800Y-117112115D01*
X110801325Y-117096876D01*
X110799935Y-117095671D01*
X110792252Y-117094000D01*
X108007916Y-117094000D01*
X107992677Y-117098475D01*
X107991472Y-117099865D01*
X107989801Y-117107548D01*
X107989801Y-117784669D01*
X107990171Y-117791490D01*
X107995695Y-117842352D01*
X107999321Y-117857604D01*
X108044476Y-117978054D01*
X108053014Y-117993649D01*
X108129515Y-118095724D01*
X108142076Y-118108285D01*
X108244151Y-118184786D01*
X108259746Y-118193324D01*
X108319340Y-118215665D01*
X108376104Y-118258307D01*
X108400804Y-118324868D01*
X108385596Y-118394217D01*
X108366204Y-118420698D01*
X108299439Y-118490564D01*
X108296525Y-118494836D01*
X108296524Y-118494837D01*
X108280952Y-118517665D01*
X108168919Y-118681899D01*
X108071402Y-118891981D01*
X108009507Y-119115169D01*
X107984895Y-119345469D01*
X93934937Y-119345469D01*
X93640685Y-119077720D01*
X93637170Y-119074396D01*
X92936688Y-118386033D01*
X92933304Y-118382577D01*
X92259798Y-117667872D01*
X92256548Y-117664288D01*
X92182453Y-117579351D01*
X91610941Y-116924214D01*
X91607865Y-116920548D01*
X91323302Y-116567885D01*
X107989800Y-116567885D01*
X107994275Y-116583124D01*
X107995665Y-116584329D01*
X108003348Y-116586000D01*
X109125685Y-116586000D01*
X109140924Y-116581525D01*
X109142129Y-116580135D01*
X109143800Y-116572452D01*
X109143800Y-116567885D01*
X109651800Y-116567885D01*
X109656275Y-116583124D01*
X109657665Y-116584329D01*
X109665348Y-116586000D01*
X110787684Y-116586000D01*
X110802923Y-116581525D01*
X110804128Y-116580135D01*
X110805799Y-116572452D01*
X110805799Y-115895331D01*
X110805429Y-115888510D01*
X110799905Y-115837648D01*
X110796279Y-115822396D01*
X110751124Y-115701946D01*
X110742586Y-115686351D01*
X110666085Y-115584276D01*
X110653524Y-115571715D01*
X110551449Y-115495214D01*
X110535854Y-115486676D01*
X110415406Y-115441522D01*
X110400151Y-115437895D01*
X110349286Y-115432369D01*
X110342472Y-115432000D01*
X109669915Y-115432000D01*
X109654676Y-115436475D01*
X109653471Y-115437865D01*
X109651800Y-115445548D01*
X109651800Y-116567885D01*
X109143800Y-116567885D01*
X109143800Y-115450116D01*
X109139325Y-115434877D01*
X109137935Y-115433672D01*
X109130252Y-115432001D01*
X108453131Y-115432001D01*
X108446310Y-115432371D01*
X108395448Y-115437895D01*
X108380196Y-115441521D01*
X108259746Y-115486676D01*
X108244151Y-115495214D01*
X108142076Y-115571715D01*
X108129515Y-115584276D01*
X108053014Y-115686351D01*
X108044476Y-115701946D01*
X107999322Y-115822394D01*
X107995695Y-115837649D01*
X107990169Y-115888514D01*
X107989800Y-115895328D01*
X107989800Y-116567885D01*
X91323302Y-116567885D01*
X91135307Y-116334900D01*
X90991143Y-116156235D01*
X90988178Y-116152413D01*
X90401254Y-115364995D01*
X90398438Y-115361061D01*
X90096735Y-114922081D01*
X89842171Y-114551687D01*
X89839540Y-114547698D01*
X89314748Y-113717560D01*
X89312246Y-113713428D01*
X88819723Y-112863779D01*
X88817378Y-112859548D01*
X88357847Y-111991647D01*
X88355665Y-111987329D01*
X88315210Y-111903269D01*
X94675295Y-111903269D01*
X94675592Y-111908422D01*
X94675592Y-111908425D01*
X94681267Y-112006841D01*
X94688627Y-112134497D01*
X94689764Y-112139543D01*
X94689765Y-112139549D01*
X94721941Y-112282323D01*
X94739546Y-112360442D01*
X94741488Y-112365224D01*
X94741489Y-112365228D01*
X94824740Y-112570250D01*
X94826684Y-112575037D01*
X94947701Y-112772519D01*
X95099347Y-112947584D01*
X95277549Y-113095530D01*
X95477522Y-113212384D01*
X95693894Y-113295009D01*
X95698960Y-113296040D01*
X95698961Y-113296040D01*
X95752046Y-113306840D01*
X95920856Y-113341185D01*
X96051524Y-113345976D01*
X96147149Y-113349483D01*
X96147153Y-113349483D01*
X96152313Y-113349672D01*
X96157433Y-113349016D01*
X96157435Y-113349016D01*
X96230470Y-113339660D01*
X96382047Y-113320242D01*
X96386995Y-113318757D01*
X96387002Y-113318756D01*
X96598947Y-113255169D01*
X96603890Y-113253686D01*
X96608524Y-113251416D01*
X96807249Y-113154062D01*
X96807252Y-113154060D01*
X96811884Y-113151791D01*
X97000443Y-113017294D01*
X97164503Y-112853805D01*
X97299658Y-112665717D01*
X97346841Y-112570250D01*
X97399984Y-112462722D01*
X97399985Y-112462720D01*
X97402278Y-112458080D01*
X97469608Y-112236471D01*
X97499840Y-112006841D01*
X97501527Y-111937800D01*
X97498688Y-111903269D01*
X121319895Y-111903269D01*
X121320192Y-111908422D01*
X121320192Y-111908425D01*
X121325867Y-112006841D01*
X121333227Y-112134497D01*
X121334364Y-112139543D01*
X121334365Y-112139549D01*
X121366541Y-112282323D01*
X121384146Y-112360442D01*
X121386088Y-112365224D01*
X121386089Y-112365228D01*
X121469340Y-112570250D01*
X121471284Y-112575037D01*
X121592301Y-112772519D01*
X121743947Y-112947584D01*
X121922149Y-113095530D01*
X122122122Y-113212384D01*
X122338494Y-113295009D01*
X122343560Y-113296040D01*
X122343561Y-113296040D01*
X122396646Y-113306840D01*
X122565456Y-113341185D01*
X122696124Y-113345976D01*
X122791749Y-113349483D01*
X122791753Y-113349483D01*
X122796913Y-113349672D01*
X122802033Y-113349016D01*
X122802035Y-113349016D01*
X122875070Y-113339660D01*
X123026647Y-113320242D01*
X123031595Y-113318757D01*
X123031602Y-113318756D01*
X123243547Y-113255169D01*
X123248490Y-113253686D01*
X123253124Y-113251416D01*
X123451849Y-113154062D01*
X123451852Y-113154060D01*
X123456484Y-113151791D01*
X123645043Y-113017294D01*
X123809103Y-112853805D01*
X123944258Y-112665717D01*
X123991441Y-112570250D01*
X124044584Y-112462722D01*
X124044585Y-112462720D01*
X124046878Y-112458080D01*
X124114208Y-112236471D01*
X124144440Y-112006841D01*
X124146127Y-111937800D01*
X124135011Y-111802596D01*
X124127573Y-111712118D01*
X124127572Y-111712112D01*
X124127149Y-111706967D01*
X124070725Y-111482333D01*
X124068666Y-111477597D01*
X123980430Y-111274668D01*
X123980428Y-111274665D01*
X123978370Y-111269931D01*
X123852564Y-111075465D01*
X123762286Y-110976250D01*
X123731234Y-110912405D01*
X123739629Y-110841906D01*
X123784805Y-110787138D01*
X123811249Y-110773469D01*
X123870854Y-110751124D01*
X123886449Y-110742586D01*
X123988524Y-110666085D01*
X124001085Y-110653524D01*
X124077586Y-110551449D01*
X124086124Y-110535854D01*
X124131278Y-110415406D01*
X124134905Y-110400151D01*
X124140431Y-110349286D01*
X124140800Y-110342472D01*
X124140800Y-109669915D01*
X124136325Y-109654676D01*
X124134935Y-109653471D01*
X124127252Y-109651800D01*
X121342916Y-109651800D01*
X121327677Y-109656275D01*
X121326472Y-109657665D01*
X121324801Y-109665348D01*
X121324801Y-110342469D01*
X121325171Y-110349290D01*
X121330695Y-110400152D01*
X121334321Y-110415404D01*
X121379476Y-110535854D01*
X121388014Y-110551449D01*
X121464515Y-110653524D01*
X121477076Y-110666085D01*
X121579151Y-110742586D01*
X121594746Y-110751124D01*
X121654340Y-110773465D01*
X121711104Y-110816107D01*
X121735804Y-110882668D01*
X121720596Y-110952017D01*
X121701204Y-110978498D01*
X121634439Y-111048364D01*
X121631525Y-111052636D01*
X121631524Y-111052637D01*
X121615952Y-111075465D01*
X121503919Y-111239699D01*
X121406402Y-111449781D01*
X121344507Y-111672969D01*
X121319895Y-111903269D01*
X97498688Y-111903269D01*
X97490411Y-111802596D01*
X97482973Y-111712118D01*
X97482972Y-111712112D01*
X97482549Y-111706967D01*
X97426125Y-111482333D01*
X97424066Y-111477597D01*
X97335830Y-111274668D01*
X97335828Y-111274665D01*
X97333770Y-111269931D01*
X97207964Y-111075465D01*
X97117686Y-110976250D01*
X97086634Y-110912405D01*
X97095029Y-110841906D01*
X97140205Y-110787138D01*
X97166649Y-110773469D01*
X97226254Y-110751124D01*
X97241849Y-110742586D01*
X97343924Y-110666085D01*
X97356485Y-110653524D01*
X97432986Y-110551449D01*
X97441524Y-110535854D01*
X97486678Y-110415406D01*
X97490305Y-110400151D01*
X97495831Y-110349286D01*
X97496200Y-110342472D01*
X97496200Y-109669915D01*
X97491725Y-109654676D01*
X97490335Y-109653471D01*
X97482652Y-109651800D01*
X94698316Y-109651800D01*
X94683077Y-109656275D01*
X94681872Y-109657665D01*
X94680201Y-109665348D01*
X94680201Y-110342469D01*
X94680571Y-110349290D01*
X94686095Y-110400152D01*
X94689721Y-110415404D01*
X94734876Y-110535854D01*
X94743414Y-110551449D01*
X94819915Y-110653524D01*
X94832476Y-110666085D01*
X94934551Y-110742586D01*
X94950146Y-110751124D01*
X95009740Y-110773465D01*
X95066504Y-110816107D01*
X95091204Y-110882668D01*
X95075996Y-110952017D01*
X95056604Y-110978498D01*
X94989839Y-111048364D01*
X94986925Y-111052636D01*
X94986924Y-111052637D01*
X94971352Y-111075465D01*
X94859319Y-111239699D01*
X94761802Y-111449781D01*
X94699907Y-111672969D01*
X94675295Y-111903269D01*
X88315210Y-111903269D01*
X88272384Y-111814284D01*
X87929768Y-111102379D01*
X87927757Y-111097987D01*
X87906180Y-111048364D01*
X87536149Y-110197349D01*
X87534310Y-110192888D01*
X87484408Y-110064896D01*
X87177574Y-109277904D01*
X87175907Y-109273375D01*
X87124765Y-109125685D01*
X94680200Y-109125685D01*
X94684675Y-109140924D01*
X94686065Y-109142129D01*
X94693748Y-109143800D01*
X95816085Y-109143800D01*
X95831324Y-109139325D01*
X95832529Y-109137935D01*
X95834200Y-109130252D01*
X95834200Y-109125685D01*
X96342200Y-109125685D01*
X96346675Y-109140924D01*
X96348065Y-109142129D01*
X96355748Y-109143800D01*
X97478084Y-109143800D01*
X97493323Y-109139325D01*
X97494528Y-109137935D01*
X97496199Y-109130252D01*
X97496199Y-109125685D01*
X121324800Y-109125685D01*
X121329275Y-109140924D01*
X121330665Y-109142129D01*
X121338348Y-109143800D01*
X122460685Y-109143800D01*
X122475924Y-109139325D01*
X122477129Y-109137935D01*
X122478800Y-109130252D01*
X122478800Y-109125685D01*
X122986800Y-109125685D01*
X122991275Y-109140924D01*
X122992665Y-109142129D01*
X123000348Y-109143800D01*
X124122684Y-109143800D01*
X124137923Y-109139325D01*
X124139128Y-109137935D01*
X124140799Y-109130252D01*
X124140799Y-108453131D01*
X124140429Y-108446310D01*
X124134905Y-108395448D01*
X124131279Y-108380196D01*
X124086124Y-108259746D01*
X124077586Y-108244151D01*
X124001085Y-108142076D01*
X123988524Y-108129515D01*
X123886449Y-108053014D01*
X123870854Y-108044476D01*
X123750406Y-107999322D01*
X123735151Y-107995695D01*
X123684286Y-107990169D01*
X123677472Y-107989800D01*
X123004915Y-107989800D01*
X122989676Y-107994275D01*
X122988471Y-107995665D01*
X122986800Y-108003348D01*
X122986800Y-109125685D01*
X122478800Y-109125685D01*
X122478800Y-108007916D01*
X122474325Y-107992677D01*
X122472935Y-107991472D01*
X122465252Y-107989801D01*
X121788131Y-107989801D01*
X121781310Y-107990171D01*
X121730448Y-107995695D01*
X121715196Y-107999321D01*
X121594746Y-108044476D01*
X121579151Y-108053014D01*
X121477076Y-108129515D01*
X121464515Y-108142076D01*
X121388014Y-108244151D01*
X121379476Y-108259746D01*
X121334322Y-108380194D01*
X121330695Y-108395449D01*
X121325169Y-108446314D01*
X121324800Y-108453128D01*
X121324800Y-109125685D01*
X97496199Y-109125685D01*
X97496199Y-108453131D01*
X97495829Y-108446310D01*
X97490305Y-108395448D01*
X97486679Y-108380196D01*
X97441524Y-108259746D01*
X97432986Y-108244151D01*
X97356485Y-108142076D01*
X97343924Y-108129515D01*
X97241849Y-108053014D01*
X97226254Y-108044476D01*
X97105806Y-107999322D01*
X97090551Y-107995695D01*
X97039686Y-107990169D01*
X97032872Y-107989800D01*
X96360315Y-107989800D01*
X96345076Y-107994275D01*
X96343871Y-107995665D01*
X96342200Y-108003348D01*
X96342200Y-109125685D01*
X95834200Y-109125685D01*
X95834200Y-108007916D01*
X95829725Y-107992677D01*
X95828335Y-107991472D01*
X95820652Y-107989801D01*
X95143531Y-107989801D01*
X95136710Y-107990171D01*
X95085848Y-107995695D01*
X95070596Y-107999321D01*
X94950146Y-108044476D01*
X94934551Y-108053014D01*
X94832476Y-108129515D01*
X94819915Y-108142076D01*
X94743414Y-108244151D01*
X94734876Y-108259746D01*
X94689722Y-108380194D01*
X94686095Y-108395449D01*
X94680569Y-108446314D01*
X94680200Y-108453128D01*
X94680200Y-109125685D01*
X87124765Y-109125685D01*
X86854548Y-108345345D01*
X86853053Y-108340744D01*
X86567562Y-107401082D01*
X86566245Y-107396428D01*
X86434063Y-106892581D01*
X86317024Y-106446455D01*
X86315896Y-106441788D01*
X86308518Y-106408504D01*
X86103341Y-105483012D01*
X86102387Y-105478285D01*
X86092553Y-105424168D01*
X86006283Y-104949459D01*
X85926784Y-104512004D01*
X85926011Y-104507229D01*
X85838692Y-103893692D01*
X85787636Y-103534957D01*
X85787048Y-103530169D01*
X85686093Y-102553241D01*
X85685691Y-102548444D01*
X85685615Y-102547258D01*
X85622318Y-101568451D01*
X85622098Y-101563619D01*
X85618801Y-101437730D01*
X85596389Y-100581847D01*
X85596355Y-100577035D01*
X85598495Y-100401973D01*
X85608355Y-99595004D01*
X85608506Y-99590191D01*
X85617347Y-99415679D01*
X85658193Y-98609344D01*
X85658530Y-98604535D01*
X85664677Y-98535666D01*
X85745829Y-97626371D01*
X85746351Y-97621563D01*
X85871140Y-96647431D01*
X85871847Y-96642645D01*
X85927304Y-96311251D01*
X86033938Y-95674031D01*
X86034826Y-95669287D01*
X86233978Y-94707618D01*
X86235050Y-94702900D01*
X86470971Y-93749590D01*
X86472223Y-93744917D01*
X86571964Y-93399354D01*
X98876300Y-93399354D01*
X98876473Y-93401679D01*
X98876473Y-93401685D01*
X98889111Y-93571739D01*
X98890739Y-93593652D01*
X98891768Y-93598200D01*
X98891769Y-93598206D01*
X98924967Y-93744917D01*
X98948423Y-93848577D01*
X99043153Y-94092177D01*
X99172849Y-94319098D01*
X99334662Y-94524357D01*
X99525037Y-94703443D01*
X99739791Y-94852424D01*
X99743981Y-94854490D01*
X99743984Y-94854492D01*
X99970019Y-94965960D01*
X99970022Y-94965961D01*
X99974207Y-94968025D01*
X99978650Y-94969447D01*
X99978652Y-94969448D01*
X100218677Y-95046280D01*
X100223135Y-95047707D01*
X100481107Y-95089721D01*
X100594858Y-95091210D01*
X100737778Y-95093081D01*
X100737781Y-95093081D01*
X100742455Y-95093142D01*
X101001438Y-95057896D01*
X101252367Y-94984757D01*
X101288662Y-94968025D01*
X101306912Y-94959611D01*
X101489728Y-94875332D01*
X101539776Y-94842519D01*
X101704396Y-94734590D01*
X101704401Y-94734586D01*
X101708309Y-94732024D01*
X101903306Y-94557982D01*
X102070437Y-94357030D01*
X102206029Y-94133581D01*
X102307103Y-93892545D01*
X102371441Y-93639217D01*
X102387200Y-93482718D01*
X102392984Y-93425271D01*
X102393300Y-93422133D01*
X102393300Y-93399354D01*
X119958300Y-93399354D01*
X119958473Y-93401679D01*
X119958473Y-93401685D01*
X119971111Y-93571739D01*
X119972739Y-93593652D01*
X119973768Y-93598200D01*
X119973769Y-93598206D01*
X120006967Y-93744917D01*
X120030423Y-93848577D01*
X120125153Y-94092177D01*
X120254849Y-94319098D01*
X120416662Y-94524357D01*
X120607037Y-94703443D01*
X120821791Y-94852424D01*
X120825981Y-94854490D01*
X120825984Y-94854492D01*
X121052019Y-94965960D01*
X121052022Y-94965961D01*
X121056207Y-94968025D01*
X121060650Y-94969447D01*
X121060652Y-94969448D01*
X121300677Y-95046280D01*
X121305135Y-95047707D01*
X121563107Y-95089721D01*
X121676858Y-95091210D01*
X121819778Y-95093081D01*
X121819781Y-95093081D01*
X121824455Y-95093142D01*
X122083438Y-95057896D01*
X122334367Y-94984757D01*
X122370662Y-94968025D01*
X122388912Y-94959611D01*
X122571728Y-94875332D01*
X122621776Y-94842519D01*
X122786396Y-94734590D01*
X122786401Y-94734586D01*
X122790309Y-94732024D01*
X122985306Y-94557982D01*
X123152437Y-94357030D01*
X123288029Y-94133581D01*
X123389103Y-93892545D01*
X123453441Y-93639217D01*
X123469200Y-93482718D01*
X123474984Y-93425271D01*
X123475300Y-93422133D01*
X123475300Y-91766646D01*
X123469826Y-91692979D01*
X123461207Y-91577000D01*
X123461206Y-91576996D01*
X123460861Y-91572348D01*
X123449525Y-91522248D01*
X123404208Y-91321980D01*
X123403177Y-91317423D01*
X123308447Y-91073823D01*
X123178751Y-90846902D01*
X123016938Y-90641643D01*
X122826563Y-90462557D01*
X122611809Y-90313576D01*
X122607616Y-90311508D01*
X122381581Y-90200040D01*
X122381578Y-90200039D01*
X122377393Y-90197975D01*
X122331249Y-90183204D01*
X122132923Y-90119720D01*
X122128465Y-90118293D01*
X121870493Y-90076279D01*
X121756742Y-90074790D01*
X121613822Y-90072919D01*
X121613819Y-90072919D01*
X121609145Y-90072858D01*
X121350162Y-90108104D01*
X121099233Y-90181243D01*
X121094980Y-90183203D01*
X121094979Y-90183204D01*
X121058459Y-90200040D01*
X120861872Y-90290668D01*
X120822867Y-90316241D01*
X120647204Y-90431410D01*
X120647199Y-90431414D01*
X120643291Y-90433976D01*
X120448294Y-90608018D01*
X120281163Y-90808970D01*
X120278734Y-90812973D01*
X120201726Y-90939879D01*
X120145571Y-91032419D01*
X120044497Y-91273455D01*
X119980159Y-91526783D01*
X119958300Y-91743867D01*
X119958300Y-93399354D01*
X102393300Y-93399354D01*
X102393300Y-91766646D01*
X102387826Y-91692979D01*
X102379207Y-91577000D01*
X102379206Y-91576996D01*
X102378861Y-91572348D01*
X102367525Y-91522248D01*
X102322208Y-91321980D01*
X102321177Y-91317423D01*
X102226447Y-91073823D01*
X102096751Y-90846902D01*
X101934938Y-90641643D01*
X101744563Y-90462557D01*
X101529809Y-90313576D01*
X101525616Y-90311508D01*
X101299581Y-90200040D01*
X101299578Y-90200039D01*
X101295393Y-90197975D01*
X101249249Y-90183204D01*
X101050923Y-90119720D01*
X101046465Y-90118293D01*
X100788493Y-90076279D01*
X100674742Y-90074790D01*
X100531822Y-90072919D01*
X100531819Y-90072919D01*
X100527145Y-90072858D01*
X100268162Y-90108104D01*
X100017233Y-90181243D01*
X100012980Y-90183203D01*
X100012979Y-90183204D01*
X99976459Y-90200040D01*
X99779872Y-90290668D01*
X99740867Y-90316241D01*
X99565204Y-90431410D01*
X99565199Y-90431414D01*
X99561291Y-90433976D01*
X99366294Y-90608018D01*
X99199163Y-90808970D01*
X99196734Y-90812973D01*
X99119726Y-90939879D01*
X99063571Y-91032419D01*
X98962497Y-91273455D01*
X98898159Y-91526783D01*
X98876300Y-91743867D01*
X98876300Y-93399354D01*
X86571964Y-93399354D01*
X86744564Y-92801367D01*
X86745994Y-92796746D01*
X87054363Y-91864325D01*
X87055970Y-91859762D01*
X87089909Y-91768990D01*
X87399900Y-90939879D01*
X87401681Y-90935381D01*
X87558127Y-90561384D01*
X87780669Y-90029381D01*
X87782615Y-90024968D01*
X87856673Y-89865425D01*
X88196113Y-89134164D01*
X88198234Y-89129816D01*
X88645612Y-88255562D01*
X88647898Y-88251299D01*
X88736462Y-88093481D01*
X89128503Y-87394872D01*
X89130951Y-87390699D01*
X89644098Y-86553319D01*
X89646705Y-86549244D01*
X90191588Y-85732225D01*
X90194349Y-85728252D01*
X90770218Y-84932721D01*
X90773103Y-84928891D01*
X91379106Y-84156027D01*
X91382164Y-84152278D01*
X92017362Y-83403279D01*
X92020561Y-83399651D01*
X92684024Y-82675607D01*
X92687360Y-82672103D01*
X93378164Y-81974028D01*
X93381632Y-81970656D01*
X94098697Y-81299637D01*
X94102293Y-81296399D01*
X94236642Y-81180023D01*
X94844601Y-80653393D01*
X94848317Y-80650297D01*
X95614755Y-80036264D01*
X95618588Y-80033312D01*
X96408053Y-79449139D01*
X96411997Y-79446337D01*
X96563598Y-79342922D01*
X97223282Y-78892916D01*
X97227319Y-78890274D01*
X98059256Y-78368402D01*
X98063389Y-78365918D01*
X98914762Y-77876357D01*
X98919001Y-77874026D01*
X99648427Y-77491068D01*
X99788547Y-77417503D01*
X99792838Y-77415355D01*
X100679275Y-76992547D01*
X100683651Y-76990562D01*
X101585652Y-76602099D01*
X101590110Y-76600280D01*
X102506363Y-76246727D01*
X102510874Y-76245084D01*
X103272600Y-75984287D01*
X103440030Y-75926963D01*
X103444636Y-75925484D01*
X103491723Y-75911357D01*
X104385312Y-75643268D01*
X104389925Y-75641980D01*
X105340743Y-75396082D01*
X105345449Y-75394961D01*
X105533308Y-75354001D01*
X106305021Y-75185740D01*
X106309717Y-75184811D01*
X107276593Y-75012585D01*
X107281334Y-75011834D01*
X108254117Y-74876849D01*
X108258904Y-74876278D01*
X109236153Y-74778736D01*
X109240939Y-74778350D01*
X110221210Y-74718394D01*
X110226003Y-74718193D01*
X111207898Y-74695911D01*
X111212698Y-74695895D01*
X111714619Y-74703779D01*
G37*
%TD.AperFunction*%
%TD*%
M02*
