%TF.GenerationSoftware,KiCad,Pcbnew,(6.0.4)*%
%TF.CreationDate,2024-01-19T15:38:44-08:00*%
%TF.ProjectId,Alpenglow_ChillySnowCloud_PCB,416c7065-6e67-46c6-9f77-5f4368696c6c,rev?*%
%TF.SameCoordinates,Original*%
%TF.FileFunction,Other,Comment*%
%FSLAX46Y46*%
G04 Gerber Fmt 4.6, Leading zero omitted, Abs format (unit mm)*
G04 Created by KiCad (PCBNEW (6.0.4)) date 2024-01-19 15:38:44*
%MOMM*%
%LPD*%
G01*
G04 APERTURE LIST*
%ADD10C,0.200000*%
G04 APERTURE END LIST*
D10*
X153688571Y-74332428D02*
X153545714Y-74475285D01*
X153117142Y-74618142D01*
X152831428Y-74618142D01*
X152402857Y-74475285D01*
X152117142Y-74189571D01*
X151974285Y-73903857D01*
X151831428Y-73332428D01*
X151831428Y-72903857D01*
X151974285Y-72332428D01*
X152117142Y-72046714D01*
X152402857Y-71761000D01*
X152831428Y-71618142D01*
X153117142Y-71618142D01*
X153545714Y-71761000D01*
X153688571Y-71903857D01*
X154974285Y-74618142D02*
X154974285Y-71618142D01*
X156260000Y-74618142D02*
X156260000Y-73046714D01*
X156117142Y-72761000D01*
X155831428Y-72618142D01*
X155402857Y-72618142D01*
X155117142Y-72761000D01*
X154974285Y-72903857D01*
X157688571Y-74618142D02*
X157688571Y-72618142D01*
X157688571Y-71618142D02*
X157545714Y-71761000D01*
X157688571Y-71903857D01*
X157831428Y-71761000D01*
X157688571Y-71618142D01*
X157688571Y-71903857D01*
X159545714Y-74618142D02*
X159260000Y-74475285D01*
X159117142Y-74189571D01*
X159117142Y-71618142D01*
X161117142Y-74618142D02*
X160831428Y-74475285D01*
X160688571Y-74189571D01*
X160688571Y-71618142D01*
X161974285Y-72618142D02*
X162688571Y-74618142D01*
X163402857Y-72618142D02*
X162688571Y-74618142D01*
X162402857Y-75332428D01*
X162260000Y-75475285D01*
X161974285Y-75618142D01*
X166688571Y-74475285D02*
X167117142Y-74618142D01*
X167831428Y-74618142D01*
X168117142Y-74475285D01*
X168260000Y-74332428D01*
X168402857Y-74046714D01*
X168402857Y-73761000D01*
X168260000Y-73475285D01*
X168117142Y-73332428D01*
X167831428Y-73189571D01*
X167260000Y-73046714D01*
X166974285Y-72903857D01*
X166831428Y-72761000D01*
X166688571Y-72475285D01*
X166688571Y-72189571D01*
X166831428Y-71903857D01*
X166974285Y-71761000D01*
X167260000Y-71618142D01*
X167974285Y-71618142D01*
X168402857Y-71761000D01*
X169688571Y-72618142D02*
X169688571Y-74618142D01*
X169688571Y-72903857D02*
X169831428Y-72761000D01*
X170117142Y-72618142D01*
X170545714Y-72618142D01*
X170831428Y-72761000D01*
X170974285Y-73046714D01*
X170974285Y-74618142D01*
X172831428Y-74618142D02*
X172545714Y-74475285D01*
X172402857Y-74332428D01*
X172260000Y-74046714D01*
X172260000Y-73189571D01*
X172402857Y-72903857D01*
X172545714Y-72761000D01*
X172831428Y-72618142D01*
X173260000Y-72618142D01*
X173545714Y-72761000D01*
X173688571Y-72903857D01*
X173831428Y-73189571D01*
X173831428Y-74046714D01*
X173688571Y-74332428D01*
X173545714Y-74475285D01*
X173260000Y-74618142D01*
X172831428Y-74618142D01*
X174831428Y-72618142D02*
X175402857Y-74618142D01*
X175974285Y-73189571D01*
X176545714Y-74618142D01*
X177117142Y-72618142D01*
X182260000Y-74332428D02*
X182117142Y-74475285D01*
X181688571Y-74618142D01*
X181402857Y-74618142D01*
X180974285Y-74475285D01*
X180688571Y-74189571D01*
X180545714Y-73903857D01*
X180402857Y-73332428D01*
X180402857Y-72903857D01*
X180545714Y-72332428D01*
X180688571Y-72046714D01*
X180974285Y-71761000D01*
X181402857Y-71618142D01*
X181688571Y-71618142D01*
X182117142Y-71761000D01*
X182260000Y-71903857D01*
X183974285Y-74618142D02*
X183688571Y-74475285D01*
X183545714Y-74189571D01*
X183545714Y-71618142D01*
X185545714Y-74618142D02*
X185260000Y-74475285D01*
X185117142Y-74332428D01*
X184974285Y-74046714D01*
X184974285Y-73189571D01*
X185117142Y-72903857D01*
X185260000Y-72761000D01*
X185545714Y-72618142D01*
X185974285Y-72618142D01*
X186260000Y-72761000D01*
X186402857Y-72903857D01*
X186545714Y-73189571D01*
X186545714Y-74046714D01*
X186402857Y-74332428D01*
X186260000Y-74475285D01*
X185974285Y-74618142D01*
X185545714Y-74618142D01*
X189117142Y-72618142D02*
X189117142Y-74618142D01*
X187831428Y-72618142D02*
X187831428Y-74189571D01*
X187974285Y-74475285D01*
X188260000Y-74618142D01*
X188688571Y-74618142D01*
X188974285Y-74475285D01*
X189117142Y-74332428D01*
X191831428Y-74618142D02*
X191831428Y-71618142D01*
X191831428Y-74475285D02*
X191545714Y-74618142D01*
X190974285Y-74618142D01*
X190688571Y-74475285D01*
X190545714Y-74332428D01*
X190402857Y-74046714D01*
X190402857Y-73189571D01*
X190545714Y-72903857D01*
X190688571Y-72761000D01*
X190974285Y-72618142D01*
X191545714Y-72618142D01*
X191831428Y-72761000D01*
X153688571Y-79448142D02*
X152688571Y-78019571D01*
X151974285Y-79448142D02*
X151974285Y-76448142D01*
X153117142Y-76448142D01*
X153402857Y-76591000D01*
X153545714Y-76733857D01*
X153688571Y-77019571D01*
X153688571Y-77448142D01*
X153545714Y-77733857D01*
X153402857Y-77876714D01*
X153117142Y-78019571D01*
X151974285Y-78019571D01*
X156117142Y-79305285D02*
X155831428Y-79448142D01*
X155260000Y-79448142D01*
X154974285Y-79305285D01*
X154831428Y-79019571D01*
X154831428Y-77876714D01*
X154974285Y-77591000D01*
X155260000Y-77448142D01*
X155831428Y-77448142D01*
X156117142Y-77591000D01*
X156260000Y-77876714D01*
X156260000Y-78162428D01*
X154831428Y-78448142D01*
X157260000Y-77448142D02*
X157974285Y-79448142D01*
X158688571Y-77448142D01*
X161974285Y-76733857D02*
X162117142Y-76591000D01*
X162402857Y-76448142D01*
X163117142Y-76448142D01*
X163402857Y-76591000D01*
X163545714Y-76733857D01*
X163688571Y-77019571D01*
X163688571Y-77305285D01*
X163545714Y-77733857D01*
X161831428Y-79448142D01*
X163688571Y-79448142D01*
X164974285Y-79162428D02*
X165117142Y-79305285D01*
X164974285Y-79448142D01*
X164831428Y-79305285D01*
X164974285Y-79162428D01*
X164974285Y-79448142D01*
X166974285Y-76448142D02*
X167260000Y-76448142D01*
X167545714Y-76591000D01*
X167688571Y-76733857D01*
X167831428Y-77019571D01*
X167974285Y-77591000D01*
X167974285Y-78305285D01*
X167831428Y-78876714D01*
X167688571Y-79162428D01*
X167545714Y-79305285D01*
X167260000Y-79448142D01*
X166974285Y-79448142D01*
X166688571Y-79305285D01*
X166545714Y-79162428D01*
X166402857Y-78876714D01*
X166260000Y-78305285D01*
X166260000Y-77591000D01*
X166402857Y-77019571D01*
X166545714Y-76733857D01*
X166688571Y-76591000D01*
X166974285Y-76448142D01*
X151974285Y-89108142D02*
X151974285Y-86108142D01*
X153117142Y-86108142D01*
X153402857Y-86251000D01*
X153545714Y-86393857D01*
X153688571Y-86679571D01*
X153688571Y-87108142D01*
X153545714Y-87393857D01*
X153402857Y-87536714D01*
X153117142Y-87679571D01*
X151974285Y-87679571D01*
X156688571Y-88822428D02*
X156545714Y-88965285D01*
X156117142Y-89108142D01*
X155831428Y-89108142D01*
X155402857Y-88965285D01*
X155117142Y-88679571D01*
X154974285Y-88393857D01*
X154831428Y-87822428D01*
X154831428Y-87393857D01*
X154974285Y-86822428D01*
X155117142Y-86536714D01*
X155402857Y-86251000D01*
X155831428Y-86108142D01*
X156117142Y-86108142D01*
X156545714Y-86251000D01*
X156688571Y-86393857D01*
X158974285Y-87536714D02*
X159402857Y-87679571D01*
X159545714Y-87822428D01*
X159688571Y-88108142D01*
X159688571Y-88536714D01*
X159545714Y-88822428D01*
X159402857Y-88965285D01*
X159117142Y-89108142D01*
X157974285Y-89108142D01*
X157974285Y-86108142D01*
X158974285Y-86108142D01*
X159260000Y-86251000D01*
X159402857Y-86393857D01*
X159545714Y-86679571D01*
X159545714Y-86965285D01*
X159402857Y-87251000D01*
X159260000Y-87393857D01*
X158974285Y-87536714D01*
X157974285Y-87536714D01*
X163117142Y-88965285D02*
X163545714Y-89108142D01*
X164260000Y-89108142D01*
X164545714Y-88965285D01*
X164688571Y-88822428D01*
X164831428Y-88536714D01*
X164831428Y-88251000D01*
X164688571Y-87965285D01*
X164545714Y-87822428D01*
X164260000Y-87679571D01*
X163688571Y-87536714D01*
X163402857Y-87393857D01*
X163260000Y-87251000D01*
X163117142Y-86965285D01*
X163117142Y-86679571D01*
X163260000Y-86393857D01*
X163402857Y-86251000D01*
X163688571Y-86108142D01*
X164402857Y-86108142D01*
X164831428Y-86251000D01*
X166117142Y-87108142D02*
X166117142Y-90108142D01*
X166117142Y-87251000D02*
X166402857Y-87108142D01*
X166974285Y-87108142D01*
X167260000Y-87251000D01*
X167402857Y-87393857D01*
X167545714Y-87679571D01*
X167545714Y-88536714D01*
X167402857Y-88822428D01*
X167260000Y-88965285D01*
X166974285Y-89108142D01*
X166402857Y-89108142D01*
X166117142Y-88965285D01*
X169974285Y-88965285D02*
X169688571Y-89108142D01*
X169117142Y-89108142D01*
X168831428Y-88965285D01*
X168688571Y-88679571D01*
X168688571Y-87536714D01*
X168831428Y-87251000D01*
X169117142Y-87108142D01*
X169688571Y-87108142D01*
X169974285Y-87251000D01*
X170117142Y-87536714D01*
X170117142Y-87822428D01*
X168688571Y-88108142D01*
X172688571Y-88965285D02*
X172402857Y-89108142D01*
X171831428Y-89108142D01*
X171545714Y-88965285D01*
X171402857Y-88822428D01*
X171260000Y-88536714D01*
X171260000Y-87679571D01*
X171402857Y-87393857D01*
X171545714Y-87251000D01*
X171831428Y-87108142D01*
X172402857Y-87108142D01*
X172688571Y-87251000D01*
X173974285Y-89108142D02*
X173974285Y-87108142D01*
X173974285Y-86108142D02*
X173831428Y-86251000D01*
X173974285Y-86393857D01*
X174117142Y-86251000D01*
X173974285Y-86108142D01*
X173974285Y-86393857D01*
X174974285Y-87108142D02*
X176117142Y-87108142D01*
X175402857Y-89108142D02*
X175402857Y-86536714D01*
X175545714Y-86251000D01*
X175831428Y-86108142D01*
X176117142Y-86108142D01*
X177117142Y-89108142D02*
X177117142Y-87108142D01*
X177117142Y-86108142D02*
X176974285Y-86251000D01*
X177117142Y-86393857D01*
X177260000Y-86251000D01*
X177117142Y-86108142D01*
X177117142Y-86393857D01*
X179831428Y-88965285D02*
X179545714Y-89108142D01*
X178974285Y-89108142D01*
X178688571Y-88965285D01*
X178545714Y-88822428D01*
X178402857Y-88536714D01*
X178402857Y-87679571D01*
X178545714Y-87393857D01*
X178688571Y-87251000D01*
X178974285Y-87108142D01*
X179545714Y-87108142D01*
X179831428Y-87251000D01*
X182402857Y-89108142D02*
X182402857Y-87536714D01*
X182260000Y-87251000D01*
X181974285Y-87108142D01*
X181402857Y-87108142D01*
X181117142Y-87251000D01*
X182402857Y-88965285D02*
X182117142Y-89108142D01*
X181402857Y-89108142D01*
X181117142Y-88965285D01*
X180974285Y-88679571D01*
X180974285Y-88393857D01*
X181117142Y-88108142D01*
X181402857Y-87965285D01*
X182117142Y-87965285D01*
X182402857Y-87822428D01*
X183402857Y-87108142D02*
X184545714Y-87108142D01*
X183831428Y-86108142D02*
X183831428Y-88679571D01*
X183974285Y-88965285D01*
X184260000Y-89108142D01*
X184545714Y-89108142D01*
X185545714Y-89108142D02*
X185545714Y-87108142D01*
X185545714Y-86108142D02*
X185402857Y-86251000D01*
X185545714Y-86393857D01*
X185688571Y-86251000D01*
X185545714Y-86108142D01*
X185545714Y-86393857D01*
X187402857Y-89108142D02*
X187117142Y-88965285D01*
X186974285Y-88822428D01*
X186831428Y-88536714D01*
X186831428Y-87679571D01*
X186974285Y-87393857D01*
X187117142Y-87251000D01*
X187402857Y-87108142D01*
X187831428Y-87108142D01*
X188117142Y-87251000D01*
X188260000Y-87393857D01*
X188402857Y-87679571D01*
X188402857Y-88536714D01*
X188260000Y-88822428D01*
X188117142Y-88965285D01*
X187831428Y-89108142D01*
X187402857Y-89108142D01*
X189688571Y-87108142D02*
X189688571Y-89108142D01*
X189688571Y-87393857D02*
X189831428Y-87251000D01*
X190117142Y-87108142D01*
X190545714Y-87108142D01*
X190831428Y-87251000D01*
X190974285Y-87536714D01*
X190974285Y-89108142D01*
X192260000Y-88965285D02*
X192545714Y-89108142D01*
X193117142Y-89108142D01*
X193402857Y-88965285D01*
X193545714Y-88679571D01*
X193545714Y-88536714D01*
X193402857Y-88251000D01*
X193117142Y-88108142D01*
X192688571Y-88108142D01*
X192402857Y-87965285D01*
X192260000Y-87679571D01*
X192260000Y-87536714D01*
X192402857Y-87251000D01*
X192688571Y-87108142D01*
X193117142Y-87108142D01*
X193402857Y-87251000D01*
X194831428Y-88822428D02*
X194974285Y-88965285D01*
X194831428Y-89108142D01*
X194688571Y-88965285D01*
X194831428Y-88822428D01*
X194831428Y-89108142D01*
X194831428Y-87251000D02*
X194974285Y-87393857D01*
X194831428Y-87536714D01*
X194688571Y-87393857D01*
X194831428Y-87251000D01*
X194831428Y-87536714D01*
X153545714Y-93938142D02*
X151831428Y-93938142D01*
X152688571Y-93938142D02*
X152688571Y-90938142D01*
X152402857Y-91366714D01*
X152117142Y-91652428D01*
X151831428Y-91795285D01*
X154831428Y-93652428D02*
X154974285Y-93795285D01*
X154831428Y-93938142D01*
X154688571Y-93795285D01*
X154831428Y-93652428D01*
X154831428Y-93938142D01*
X160117142Y-93938142D02*
X158402857Y-93938142D01*
X159260000Y-93938142D02*
X159260000Y-90938142D01*
X158974285Y-91366714D01*
X158688571Y-91652428D01*
X158402857Y-91795285D01*
X164117142Y-93938142D02*
X163831428Y-93795285D01*
X163688571Y-93652428D01*
X163545714Y-93366714D01*
X163545714Y-92509571D01*
X163688571Y-92223857D01*
X163831428Y-92081000D01*
X164117142Y-91938142D01*
X164545714Y-91938142D01*
X164831428Y-92081000D01*
X164974285Y-92223857D01*
X165117142Y-92509571D01*
X165117142Y-93366714D01*
X164974285Y-93652428D01*
X164831428Y-93795285D01*
X164545714Y-93938142D01*
X164117142Y-93938142D01*
X166117142Y-91938142D02*
X167688571Y-91938142D01*
X166117142Y-93938142D01*
X167688571Y-93938142D01*
X172831428Y-93652428D02*
X172688571Y-93795285D01*
X172260000Y-93938142D01*
X171974285Y-93938142D01*
X171545714Y-93795285D01*
X171260000Y-93509571D01*
X171117142Y-93223857D01*
X170974285Y-92652428D01*
X170974285Y-92223857D01*
X171117142Y-91652428D01*
X171260000Y-91366714D01*
X171545714Y-91081000D01*
X171974285Y-90938142D01*
X172260000Y-90938142D01*
X172688571Y-91081000D01*
X172831428Y-91223857D01*
X175402857Y-91938142D02*
X175402857Y-93938142D01*
X174117142Y-91938142D02*
X174117142Y-93509571D01*
X174260000Y-93795285D01*
X174545714Y-93938142D01*
X174974285Y-93938142D01*
X175260000Y-93795285D01*
X175402857Y-93652428D01*
X176974285Y-93795285D02*
X176974285Y-93938142D01*
X176831428Y-94223857D01*
X176688571Y-94366714D01*
X181545714Y-92366714D02*
X180545714Y-92366714D01*
X180545714Y-93938142D02*
X180545714Y-90938142D01*
X181974285Y-90938142D01*
X184831428Y-93938142D02*
X183831428Y-92509571D01*
X183117142Y-93938142D02*
X183117142Y-90938142D01*
X184260000Y-90938142D01*
X184545714Y-91081000D01*
X184688571Y-91223857D01*
X184831428Y-91509571D01*
X184831428Y-91938142D01*
X184688571Y-92223857D01*
X184545714Y-92366714D01*
X184260000Y-92509571D01*
X183117142Y-92509571D01*
X186117142Y-92795285D02*
X188402857Y-92795285D01*
X191117142Y-91938142D02*
X191117142Y-93938142D01*
X190402857Y-90795285D02*
X189688571Y-92938142D01*
X191545714Y-92938142D01*
X151831428Y-96053857D02*
X151974285Y-95911000D01*
X152260000Y-95768142D01*
X152974285Y-95768142D01*
X153260000Y-95911000D01*
X153402857Y-96053857D01*
X153545714Y-96339571D01*
X153545714Y-96625285D01*
X153402857Y-97053857D01*
X151688571Y-98768142D01*
X153545714Y-98768142D01*
X154831428Y-98482428D02*
X154974285Y-98625285D01*
X154831428Y-98768142D01*
X154688571Y-98625285D01*
X154831428Y-98482428D01*
X154831428Y-98768142D01*
X158402857Y-96053857D02*
X158545714Y-95911000D01*
X158831428Y-95768142D01*
X159545714Y-95768142D01*
X159831428Y-95911000D01*
X159974285Y-96053857D01*
X160117142Y-96339571D01*
X160117142Y-96625285D01*
X159974285Y-97053857D01*
X158260000Y-98768142D01*
X160117142Y-98768142D01*
X164117142Y-98768142D02*
X163831428Y-98625285D01*
X163688571Y-98339571D01*
X163688571Y-95768142D01*
X166545714Y-98768142D02*
X166545714Y-97196714D01*
X166402857Y-96911000D01*
X166117142Y-96768142D01*
X165545714Y-96768142D01*
X165260000Y-96911000D01*
X166545714Y-98625285D02*
X166260000Y-98768142D01*
X165545714Y-98768142D01*
X165260000Y-98625285D01*
X165117142Y-98339571D01*
X165117142Y-98053857D01*
X165260000Y-97768142D01*
X165545714Y-97625285D01*
X166260000Y-97625285D01*
X166545714Y-97482428D01*
X167688571Y-96768142D02*
X168402857Y-98768142D01*
X169117142Y-96768142D02*
X168402857Y-98768142D01*
X168117142Y-99482428D01*
X167974285Y-99625285D01*
X167688571Y-99768142D01*
X171402857Y-98625285D02*
X171117142Y-98768142D01*
X170545714Y-98768142D01*
X170260000Y-98625285D01*
X170117142Y-98339571D01*
X170117142Y-97196714D01*
X170260000Y-96911000D01*
X170545714Y-96768142D01*
X171117142Y-96768142D01*
X171402857Y-96911000D01*
X171545714Y-97196714D01*
X171545714Y-97482428D01*
X170117142Y-97768142D01*
X172831428Y-98768142D02*
X172831428Y-96768142D01*
X172831428Y-97339571D02*
X172974285Y-97053857D01*
X173117142Y-96911000D01*
X173402857Y-96768142D01*
X173688571Y-96768142D01*
X174545714Y-98625285D02*
X174831428Y-98768142D01*
X175402857Y-98768142D01*
X175688571Y-98625285D01*
X175831428Y-98339571D01*
X175831428Y-98196714D01*
X175688571Y-97911000D01*
X175402857Y-97768142D01*
X174974285Y-97768142D01*
X174688571Y-97625285D01*
X174545714Y-97339571D01*
X174545714Y-97196714D01*
X174688571Y-96911000D01*
X174974285Y-96768142D01*
X175402857Y-96768142D01*
X175688571Y-96911000D01*
X151688571Y-100598142D02*
X153545714Y-100598142D01*
X152545714Y-101741000D01*
X152974285Y-101741000D01*
X153260000Y-101883857D01*
X153402857Y-102026714D01*
X153545714Y-102312428D01*
X153545714Y-103026714D01*
X153402857Y-103312428D01*
X153260000Y-103455285D01*
X152974285Y-103598142D01*
X152117142Y-103598142D01*
X151831428Y-103455285D01*
X151688571Y-103312428D01*
X154831428Y-103312428D02*
X154974285Y-103455285D01*
X154831428Y-103598142D01*
X154688571Y-103455285D01*
X154831428Y-103312428D01*
X154831428Y-103598142D01*
X159117142Y-100598142D02*
X159402857Y-100598142D01*
X159688571Y-100741000D01*
X159831428Y-100883857D01*
X159974285Y-101169571D01*
X160117142Y-101741000D01*
X160117142Y-102455285D01*
X159974285Y-103026714D01*
X159831428Y-103312428D01*
X159688571Y-103455285D01*
X159402857Y-103598142D01*
X159117142Y-103598142D01*
X158831428Y-103455285D01*
X158688571Y-103312428D01*
X158545714Y-103026714D01*
X158402857Y-102455285D01*
X158402857Y-101741000D01*
X158545714Y-101169571D01*
X158688571Y-100883857D01*
X158831428Y-100741000D01*
X159117142Y-100598142D01*
X161402857Y-103312428D02*
X161545714Y-103455285D01*
X161402857Y-103598142D01*
X161260000Y-103455285D01*
X161402857Y-103312428D01*
X161402857Y-103598142D01*
X163402857Y-100598142D02*
X163688571Y-100598142D01*
X163974285Y-100741000D01*
X164117142Y-100883857D01*
X164260000Y-101169571D01*
X164402857Y-101741000D01*
X164402857Y-102455285D01*
X164260000Y-103026714D01*
X164117142Y-103312428D01*
X163974285Y-103455285D01*
X163688571Y-103598142D01*
X163402857Y-103598142D01*
X163117142Y-103455285D01*
X162974285Y-103312428D01*
X162831428Y-103026714D01*
X162688571Y-102455285D01*
X162688571Y-101741000D01*
X162831428Y-101169571D01*
X162974285Y-100883857D01*
X163117142Y-100741000D01*
X163402857Y-100598142D01*
X166974285Y-100598142D02*
X166402857Y-100598142D01*
X166117142Y-100741000D01*
X165974285Y-100883857D01*
X165688571Y-101312428D01*
X165545714Y-101883857D01*
X165545714Y-103026714D01*
X165688571Y-103312428D01*
X165831428Y-103455285D01*
X166117142Y-103598142D01*
X166688571Y-103598142D01*
X166974285Y-103455285D01*
X167117142Y-103312428D01*
X167260000Y-103026714D01*
X167260000Y-102312428D01*
X167117142Y-102026714D01*
X166974285Y-101883857D01*
X166688571Y-101741000D01*
X166117142Y-101741000D01*
X165831428Y-101883857D01*
X165688571Y-102026714D01*
X165545714Y-102312428D01*
X168260000Y-100598142D02*
X170117142Y-100598142D01*
X169117142Y-101741000D01*
X169545714Y-101741000D01*
X169831428Y-101883857D01*
X169974285Y-102026714D01*
X170117142Y-102312428D01*
X170117142Y-103026714D01*
X169974285Y-103312428D01*
X169831428Y-103455285D01*
X169545714Y-103598142D01*
X168688571Y-103598142D01*
X168402857Y-103455285D01*
X168260000Y-103312428D01*
X173688571Y-103598142D02*
X173688571Y-101598142D01*
X173688571Y-100598142D02*
X173545714Y-100741000D01*
X173688571Y-100883857D01*
X173831428Y-100741000D01*
X173688571Y-100598142D01*
X173688571Y-100883857D01*
X175117142Y-101598142D02*
X175117142Y-103598142D01*
X175117142Y-101883857D02*
X175260000Y-101741000D01*
X175545714Y-101598142D01*
X175974285Y-101598142D01*
X176260000Y-101741000D01*
X176402857Y-102026714D01*
X176402857Y-103598142D01*
X179117142Y-103455285D02*
X178831428Y-103598142D01*
X178260000Y-103598142D01*
X177974285Y-103455285D01*
X177831428Y-103312428D01*
X177688571Y-103026714D01*
X177688571Y-102169571D01*
X177831428Y-101883857D01*
X177974285Y-101741000D01*
X178260000Y-101598142D01*
X178831428Y-101598142D01*
X179117142Y-101741000D01*
X180402857Y-103598142D02*
X180402857Y-100598142D01*
X181688571Y-103598142D02*
X181688571Y-102026714D01*
X181545714Y-101741000D01*
X181260000Y-101598142D01*
X180831428Y-101598142D01*
X180545714Y-101741000D01*
X180402857Y-101883857D01*
X187545714Y-100455285D02*
X184974285Y-104312428D01*
X192402857Y-103598142D02*
X190688571Y-103598142D01*
X191545714Y-103598142D02*
X191545714Y-100598142D01*
X191260000Y-101026714D01*
X190974285Y-101312428D01*
X190688571Y-101455285D01*
X193688571Y-103312428D02*
X193831428Y-103455285D01*
X193688571Y-103598142D01*
X193545714Y-103455285D01*
X193688571Y-103312428D01*
X193688571Y-103598142D01*
X196402857Y-100598142D02*
X195831428Y-100598142D01*
X195545714Y-100741000D01*
X195402857Y-100883857D01*
X195117142Y-101312428D01*
X194974285Y-101883857D01*
X194974285Y-103026714D01*
X195117142Y-103312428D01*
X195260000Y-103455285D01*
X195545714Y-103598142D01*
X196117142Y-103598142D01*
X196402857Y-103455285D01*
X196545714Y-103312428D01*
X196688571Y-103026714D01*
X196688571Y-102312428D01*
X196545714Y-102026714D01*
X196402857Y-101883857D01*
X196117142Y-101741000D01*
X195545714Y-101741000D01*
X195260000Y-101883857D01*
X195117142Y-102026714D01*
X194974285Y-102312428D01*
X197974285Y-103598142D02*
X197974285Y-101598142D01*
X197974285Y-101883857D02*
X198117142Y-101741000D01*
X198402857Y-101598142D01*
X198831428Y-101598142D01*
X199117142Y-101741000D01*
X199260000Y-102026714D01*
X199260000Y-103598142D01*
X199260000Y-102026714D02*
X199402857Y-101741000D01*
X199688571Y-101598142D01*
X200117142Y-101598142D01*
X200402857Y-101741000D01*
X200545714Y-102026714D01*
X200545714Y-103598142D01*
X201974285Y-103598142D02*
X201974285Y-101598142D01*
X201974285Y-101883857D02*
X202117142Y-101741000D01*
X202402857Y-101598142D01*
X202831428Y-101598142D01*
X203117142Y-101741000D01*
X203260000Y-102026714D01*
X203260000Y-103598142D01*
X203260000Y-102026714D02*
X203402857Y-101741000D01*
X203688571Y-101598142D01*
X204117142Y-101598142D01*
X204402857Y-101741000D01*
X204545714Y-102026714D01*
X204545714Y-103598142D01*
X207831428Y-101598142D02*
X208974285Y-101598142D01*
X208260000Y-100598142D02*
X208260000Y-103169571D01*
X208402857Y-103455285D01*
X208688571Y-103598142D01*
X208974285Y-103598142D01*
X209974285Y-103598142D02*
X209974285Y-100598142D01*
X211260000Y-103598142D02*
X211260000Y-102026714D01*
X211117142Y-101741000D01*
X210831428Y-101598142D01*
X210402857Y-101598142D01*
X210117142Y-101741000D01*
X209974285Y-101883857D01*
X212688571Y-103598142D02*
X212688571Y-101598142D01*
X212688571Y-100598142D02*
X212545714Y-100741000D01*
X212688571Y-100883857D01*
X212831428Y-100741000D01*
X212688571Y-100598142D01*
X212688571Y-100883857D01*
X215402857Y-103455285D02*
X215117142Y-103598142D01*
X214545714Y-103598142D01*
X214260000Y-103455285D01*
X214117142Y-103312428D01*
X213974285Y-103026714D01*
X213974285Y-102169571D01*
X214117142Y-101883857D01*
X214260000Y-101741000D01*
X214545714Y-101598142D01*
X215117142Y-101598142D01*
X215402857Y-101741000D01*
X216688571Y-103598142D02*
X216688571Y-100598142D01*
X216974285Y-102455285D02*
X217831428Y-103598142D01*
X217831428Y-101598142D02*
X216688571Y-102741000D01*
X153260000Y-106428142D02*
X153260000Y-108428142D01*
X152545714Y-105285285D02*
X151831428Y-107428142D01*
X153688571Y-107428142D01*
X154831428Y-108142428D02*
X154974285Y-108285285D01*
X154831428Y-108428142D01*
X154688571Y-108285285D01*
X154831428Y-108142428D01*
X154831428Y-108428142D01*
X158402857Y-108285285D02*
X158831428Y-108428142D01*
X159545714Y-108428142D01*
X159831428Y-108285285D01*
X159974285Y-108142428D01*
X160117142Y-107856714D01*
X160117142Y-107571000D01*
X159974285Y-107285285D01*
X159831428Y-107142428D01*
X159545714Y-106999571D01*
X158974285Y-106856714D01*
X158688571Y-106713857D01*
X158545714Y-106571000D01*
X158402857Y-106285285D01*
X158402857Y-105999571D01*
X158545714Y-105713857D01*
X158688571Y-105571000D01*
X158974285Y-105428142D01*
X159688571Y-105428142D01*
X160117142Y-105571000D01*
X161831428Y-108428142D02*
X161545714Y-108285285D01*
X161402857Y-108142428D01*
X161260000Y-107856714D01*
X161260000Y-106999571D01*
X161402857Y-106713857D01*
X161545714Y-106571000D01*
X161831428Y-106428142D01*
X162260000Y-106428142D01*
X162545714Y-106571000D01*
X162688571Y-106713857D01*
X162831428Y-106999571D01*
X162831428Y-107856714D01*
X162688571Y-108142428D01*
X162545714Y-108285285D01*
X162260000Y-108428142D01*
X161831428Y-108428142D01*
X164545714Y-108428142D02*
X164260000Y-108285285D01*
X164117142Y-107999571D01*
X164117142Y-105428142D01*
X166974285Y-108428142D02*
X166974285Y-105428142D01*
X166974285Y-108285285D02*
X166688571Y-108428142D01*
X166117142Y-108428142D01*
X165831428Y-108285285D01*
X165688571Y-108142428D01*
X165545714Y-107856714D01*
X165545714Y-106999571D01*
X165688571Y-106713857D01*
X165831428Y-106571000D01*
X166117142Y-106428142D01*
X166688571Y-106428142D01*
X166974285Y-106571000D01*
X169545714Y-108285285D02*
X169260000Y-108428142D01*
X168688571Y-108428142D01*
X168402857Y-108285285D01*
X168260000Y-107999571D01*
X168260000Y-106856714D01*
X168402857Y-106571000D01*
X168688571Y-106428142D01*
X169260000Y-106428142D01*
X169545714Y-106571000D01*
X169688571Y-106856714D01*
X169688571Y-107142428D01*
X168260000Y-107428142D01*
X170974285Y-108428142D02*
X170974285Y-106428142D01*
X170974285Y-106999571D02*
X171117142Y-106713857D01*
X171260000Y-106571000D01*
X171545714Y-106428142D01*
X171831428Y-106428142D01*
X172831428Y-108428142D02*
X172831428Y-106428142D01*
X172831428Y-106713857D02*
X172974285Y-106571000D01*
X173260000Y-106428142D01*
X173688571Y-106428142D01*
X173974285Y-106571000D01*
X174117142Y-106856714D01*
X174117142Y-108428142D01*
X174117142Y-106856714D02*
X174260000Y-106571000D01*
X174545714Y-106428142D01*
X174974285Y-106428142D01*
X175260000Y-106571000D01*
X175402857Y-106856714D01*
X175402857Y-108428142D01*
X178117142Y-108428142D02*
X178117142Y-106856714D01*
X177974285Y-106571000D01*
X177688571Y-106428142D01*
X177117142Y-106428142D01*
X176831428Y-106571000D01*
X178117142Y-108285285D02*
X177831428Y-108428142D01*
X177117142Y-108428142D01*
X176831428Y-108285285D01*
X176688571Y-107999571D01*
X176688571Y-107713857D01*
X176831428Y-107428142D01*
X177117142Y-107285285D01*
X177831428Y-107285285D01*
X178117142Y-107142428D01*
X179402857Y-108285285D02*
X179688571Y-108428142D01*
X180260000Y-108428142D01*
X180545714Y-108285285D01*
X180688571Y-107999571D01*
X180688571Y-107856714D01*
X180545714Y-107571000D01*
X180260000Y-107428142D01*
X179831428Y-107428142D01*
X179545714Y-107285285D01*
X179402857Y-106999571D01*
X179402857Y-106856714D01*
X179545714Y-106571000D01*
X179831428Y-106428142D01*
X180260000Y-106428142D01*
X180545714Y-106571000D01*
X181974285Y-108428142D02*
X181974285Y-105428142D01*
X182260000Y-107285285D02*
X183117142Y-108428142D01*
X183117142Y-106428142D02*
X181974285Y-107571000D01*
X184402857Y-108142428D02*
X184545714Y-108285285D01*
X184402857Y-108428142D01*
X184260000Y-108285285D01*
X184402857Y-108142428D01*
X184402857Y-108428142D01*
X184402857Y-106571000D02*
X184545714Y-106713857D01*
X184402857Y-106856714D01*
X184260000Y-106713857D01*
X184402857Y-106571000D01*
X184402857Y-106856714D01*
X187831428Y-105428142D02*
X188545714Y-108428142D01*
X189117142Y-106285285D01*
X189688571Y-108428142D01*
X190402857Y-105428142D01*
X191545714Y-108428142D02*
X191545714Y-105428142D01*
X192831428Y-108428142D02*
X192831428Y-106856714D01*
X192688571Y-106571000D01*
X192402857Y-106428142D01*
X191974285Y-106428142D01*
X191688571Y-106571000D01*
X191545714Y-106713857D01*
X194260000Y-108428142D02*
X194260000Y-106428142D01*
X194260000Y-105428142D02*
X194117142Y-105571000D01*
X194260000Y-105713857D01*
X194402857Y-105571000D01*
X194260000Y-105428142D01*
X194260000Y-105713857D01*
X195260000Y-106428142D02*
X196402857Y-106428142D01*
X195688571Y-105428142D02*
X195688571Y-107999571D01*
X195831428Y-108285285D01*
X196117142Y-108428142D01*
X196402857Y-108428142D01*
X198545714Y-108285285D02*
X198260000Y-108428142D01*
X197688571Y-108428142D01*
X197402857Y-108285285D01*
X197260000Y-107999571D01*
X197260000Y-106856714D01*
X197402857Y-106571000D01*
X197688571Y-106428142D01*
X198260000Y-106428142D01*
X198545714Y-106571000D01*
X198688571Y-106856714D01*
X198688571Y-107142428D01*
X197260000Y-107428142D01*
X200117142Y-108285285D02*
X200117142Y-108428142D01*
X199974285Y-108713857D01*
X199831428Y-108856714D01*
X203688571Y-108428142D02*
X203688571Y-105428142D01*
X203688571Y-106571000D02*
X203974285Y-106428142D01*
X204545714Y-106428142D01*
X204831428Y-106571000D01*
X204974285Y-106713857D01*
X205117142Y-106999571D01*
X205117142Y-107856714D01*
X204974285Y-108142428D01*
X204831428Y-108285285D01*
X204545714Y-108428142D01*
X203974285Y-108428142D01*
X203688571Y-108285285D01*
X206831428Y-108428142D02*
X206545714Y-108285285D01*
X206402857Y-108142428D01*
X206260000Y-107856714D01*
X206260000Y-106999571D01*
X206402857Y-106713857D01*
X206545714Y-106571000D01*
X206831428Y-106428142D01*
X207260000Y-106428142D01*
X207545714Y-106571000D01*
X207688571Y-106713857D01*
X207831428Y-106999571D01*
X207831428Y-107856714D01*
X207688571Y-108142428D01*
X207545714Y-108285285D01*
X207260000Y-108428142D01*
X206831428Y-108428142D01*
X208688571Y-106428142D02*
X209831428Y-106428142D01*
X209117142Y-105428142D02*
X209117142Y-107999571D01*
X209260000Y-108285285D01*
X209545714Y-108428142D01*
X209831428Y-108428142D01*
X210831428Y-108428142D02*
X210831428Y-105428142D01*
X212117142Y-108428142D02*
X212117142Y-106856714D01*
X211974285Y-106571000D01*
X211688571Y-106428142D01*
X211260000Y-106428142D01*
X210974285Y-106571000D01*
X210831428Y-106713857D01*
X215688571Y-108285285D02*
X215974285Y-108428142D01*
X216545714Y-108428142D01*
X216831428Y-108285285D01*
X216974285Y-107999571D01*
X216974285Y-107856714D01*
X216831428Y-107571000D01*
X216545714Y-107428142D01*
X216117142Y-107428142D01*
X215831428Y-107285285D01*
X215688571Y-106999571D01*
X215688571Y-106856714D01*
X215831428Y-106571000D01*
X216117142Y-106428142D01*
X216545714Y-106428142D01*
X216831428Y-106571000D01*
X218260000Y-108428142D02*
X218260000Y-106428142D01*
X218260000Y-105428142D02*
X218117142Y-105571000D01*
X218260000Y-105713857D01*
X218402857Y-105571000D01*
X218260000Y-105428142D01*
X218260000Y-105713857D01*
X220974285Y-108428142D02*
X220974285Y-105428142D01*
X220974285Y-108285285D02*
X220688571Y-108428142D01*
X220117142Y-108428142D01*
X219831428Y-108285285D01*
X219688571Y-108142428D01*
X219545714Y-107856714D01*
X219545714Y-106999571D01*
X219688571Y-106713857D01*
X219831428Y-106571000D01*
X220117142Y-106428142D01*
X220688571Y-106428142D01*
X220974285Y-106571000D01*
X223545714Y-108285285D02*
X223260000Y-108428142D01*
X222688571Y-108428142D01*
X222402857Y-108285285D01*
X222260000Y-107999571D01*
X222260000Y-106856714D01*
X222402857Y-106571000D01*
X222688571Y-106428142D01*
X223260000Y-106428142D01*
X223545714Y-106571000D01*
X223688571Y-106856714D01*
X223688571Y-107142428D01*
X222260000Y-107428142D01*
X224831428Y-108285285D02*
X225117142Y-108428142D01*
X225688571Y-108428142D01*
X225974285Y-108285285D01*
X226117142Y-107999571D01*
X226117142Y-107856714D01*
X225974285Y-107571000D01*
X225688571Y-107428142D01*
X225260000Y-107428142D01*
X224974285Y-107285285D01*
X224831428Y-106999571D01*
X224831428Y-106856714D01*
X224974285Y-106571000D01*
X225260000Y-106428142D01*
X225688571Y-106428142D01*
X225974285Y-106571000D01*
X153402857Y-110258142D02*
X151974285Y-110258142D01*
X151831428Y-111686714D01*
X151974285Y-111543857D01*
X152260000Y-111401000D01*
X152974285Y-111401000D01*
X153260000Y-111543857D01*
X153402857Y-111686714D01*
X153545714Y-111972428D01*
X153545714Y-112686714D01*
X153402857Y-112972428D01*
X153260000Y-113115285D01*
X152974285Y-113258142D01*
X152260000Y-113258142D01*
X151974285Y-113115285D01*
X151831428Y-112972428D01*
X154831428Y-112972428D02*
X154974285Y-113115285D01*
X154831428Y-113258142D01*
X154688571Y-113115285D01*
X154831428Y-112972428D01*
X154831428Y-113258142D01*
X158402857Y-113115285D02*
X158831428Y-113258142D01*
X159545714Y-113258142D01*
X159831428Y-113115285D01*
X159974285Y-112972428D01*
X160117142Y-112686714D01*
X160117142Y-112401000D01*
X159974285Y-112115285D01*
X159831428Y-111972428D01*
X159545714Y-111829571D01*
X158974285Y-111686714D01*
X158688571Y-111543857D01*
X158545714Y-111401000D01*
X158402857Y-111115285D01*
X158402857Y-110829571D01*
X158545714Y-110543857D01*
X158688571Y-110401000D01*
X158974285Y-110258142D01*
X159688571Y-110258142D01*
X160117142Y-110401000D01*
X161402857Y-113258142D02*
X161402857Y-111258142D01*
X161402857Y-110258142D02*
X161260000Y-110401000D01*
X161402857Y-110543857D01*
X161545714Y-110401000D01*
X161402857Y-110258142D01*
X161402857Y-110543857D01*
X163260000Y-113258142D02*
X162974285Y-113115285D01*
X162831428Y-112829571D01*
X162831428Y-110258142D01*
X164402857Y-113258142D02*
X164402857Y-110258142D01*
X164688571Y-112115285D02*
X165545714Y-113258142D01*
X165545714Y-111258142D02*
X164402857Y-112401000D01*
X166688571Y-113115285D02*
X166974285Y-113258142D01*
X167545714Y-113258142D01*
X167831428Y-113115285D01*
X167974285Y-112829571D01*
X167974285Y-112686714D01*
X167831428Y-112401000D01*
X167545714Y-112258142D01*
X167117142Y-112258142D01*
X166831428Y-112115285D01*
X166688571Y-111829571D01*
X166688571Y-111686714D01*
X166831428Y-111401000D01*
X167117142Y-111258142D01*
X167545714Y-111258142D01*
X167831428Y-111401000D01*
X170545714Y-113115285D02*
X170260000Y-113258142D01*
X169688571Y-113258142D01*
X169402857Y-113115285D01*
X169260000Y-112972428D01*
X169117142Y-112686714D01*
X169117142Y-111829571D01*
X169260000Y-111543857D01*
X169402857Y-111401000D01*
X169688571Y-111258142D01*
X170260000Y-111258142D01*
X170545714Y-111401000D01*
X171831428Y-113258142D02*
X171831428Y-111258142D01*
X171831428Y-111829571D02*
X171974285Y-111543857D01*
X172117142Y-111401000D01*
X172402857Y-111258142D01*
X172688571Y-111258142D01*
X174831428Y-113115285D02*
X174545714Y-113258142D01*
X173974285Y-113258142D01*
X173688571Y-113115285D01*
X173545714Y-112829571D01*
X173545714Y-111686714D01*
X173688571Y-111401000D01*
X173974285Y-111258142D01*
X174545714Y-111258142D01*
X174831428Y-111401000D01*
X174974285Y-111686714D01*
X174974285Y-111972428D01*
X173545714Y-112258142D01*
X177402857Y-113115285D02*
X177117142Y-113258142D01*
X176545714Y-113258142D01*
X176260000Y-113115285D01*
X176117142Y-112829571D01*
X176117142Y-111686714D01*
X176260000Y-111401000D01*
X176545714Y-111258142D01*
X177117142Y-111258142D01*
X177402857Y-111401000D01*
X177545714Y-111686714D01*
X177545714Y-111972428D01*
X176117142Y-112258142D01*
X178831428Y-111258142D02*
X178831428Y-113258142D01*
X178831428Y-111543857D02*
X178974285Y-111401000D01*
X179260000Y-111258142D01*
X179688571Y-111258142D01*
X179974285Y-111401000D01*
X180117142Y-111686714D01*
X180117142Y-113258142D01*
X181545714Y-112972428D02*
X181688571Y-113115285D01*
X181545714Y-113258142D01*
X181402857Y-113115285D01*
X181545714Y-112972428D01*
X181545714Y-113258142D01*
X181545714Y-111401000D02*
X181688571Y-111543857D01*
X181545714Y-111686714D01*
X181402857Y-111543857D01*
X181545714Y-111401000D01*
X181545714Y-111686714D01*
X186260000Y-111686714D02*
X186688571Y-111829571D01*
X186831428Y-111972428D01*
X186974285Y-112258142D01*
X186974285Y-112686714D01*
X186831428Y-112972428D01*
X186688571Y-113115285D01*
X186402857Y-113258142D01*
X185260000Y-113258142D01*
X185260000Y-110258142D01*
X186260000Y-110258142D01*
X186545714Y-110401000D01*
X186688571Y-110543857D01*
X186831428Y-110829571D01*
X186831428Y-111115285D01*
X186688571Y-111401000D01*
X186545714Y-111543857D01*
X186260000Y-111686714D01*
X185260000Y-111686714D01*
X188688571Y-113258142D02*
X188402857Y-113115285D01*
X188260000Y-112829571D01*
X188260000Y-110258142D01*
X191117142Y-111258142D02*
X191117142Y-113258142D01*
X189831428Y-111258142D02*
X189831428Y-112829571D01*
X189974285Y-113115285D01*
X190260000Y-113258142D01*
X190688571Y-113258142D01*
X190974285Y-113115285D01*
X191117142Y-112972428D01*
X193688571Y-113115285D02*
X193402857Y-113258142D01*
X192831428Y-113258142D01*
X192545714Y-113115285D01*
X192402857Y-112829571D01*
X192402857Y-111686714D01*
X192545714Y-111401000D01*
X192831428Y-111258142D01*
X193402857Y-111258142D01*
X193688571Y-111401000D01*
X193831428Y-111686714D01*
X193831428Y-111972428D01*
X192402857Y-112258142D01*
X195260000Y-113115285D02*
X195260000Y-113258142D01*
X195117142Y-113543857D01*
X194974285Y-113686714D01*
X198831428Y-113258142D02*
X198831428Y-110258142D01*
X198831428Y-111401000D02*
X199117142Y-111258142D01*
X199688571Y-111258142D01*
X199974285Y-111401000D01*
X200117142Y-111543857D01*
X200260000Y-111829571D01*
X200260000Y-112686714D01*
X200117142Y-112972428D01*
X199974285Y-113115285D01*
X199688571Y-113258142D01*
X199117142Y-113258142D01*
X198831428Y-113115285D01*
X201974285Y-113258142D02*
X201688571Y-113115285D01*
X201545714Y-112972428D01*
X201402857Y-112686714D01*
X201402857Y-111829571D01*
X201545714Y-111543857D01*
X201688571Y-111401000D01*
X201974285Y-111258142D01*
X202402857Y-111258142D01*
X202688571Y-111401000D01*
X202831428Y-111543857D01*
X202974285Y-111829571D01*
X202974285Y-112686714D01*
X202831428Y-112972428D01*
X202688571Y-113115285D01*
X202402857Y-113258142D01*
X201974285Y-113258142D01*
X203831428Y-111258142D02*
X204974285Y-111258142D01*
X204260000Y-110258142D02*
X204260000Y-112829571D01*
X204402857Y-113115285D01*
X204688571Y-113258142D01*
X204974285Y-113258142D01*
X205974285Y-113258142D02*
X205974285Y-110258142D01*
X207260000Y-113258142D02*
X207260000Y-111686714D01*
X207117142Y-111401000D01*
X206831428Y-111258142D01*
X206402857Y-111258142D01*
X206117142Y-111401000D01*
X205974285Y-111543857D01*
X210831428Y-113115285D02*
X211117142Y-113258142D01*
X211688571Y-113258142D01*
X211974285Y-113115285D01*
X212117142Y-112829571D01*
X212117142Y-112686714D01*
X211974285Y-112401000D01*
X211688571Y-112258142D01*
X211260000Y-112258142D01*
X210974285Y-112115285D01*
X210831428Y-111829571D01*
X210831428Y-111686714D01*
X210974285Y-111401000D01*
X211260000Y-111258142D01*
X211688571Y-111258142D01*
X211974285Y-111401000D01*
X213402857Y-113258142D02*
X213402857Y-111258142D01*
X213402857Y-110258142D02*
X213260000Y-110401000D01*
X213402857Y-110543857D01*
X213545714Y-110401000D01*
X213402857Y-110258142D01*
X213402857Y-110543857D01*
X216117142Y-113258142D02*
X216117142Y-110258142D01*
X216117142Y-113115285D02*
X215831428Y-113258142D01*
X215260000Y-113258142D01*
X214974285Y-113115285D01*
X214831428Y-112972428D01*
X214688571Y-112686714D01*
X214688571Y-111829571D01*
X214831428Y-111543857D01*
X214974285Y-111401000D01*
X215260000Y-111258142D01*
X215831428Y-111258142D01*
X216117142Y-111401000D01*
X218688571Y-113115285D02*
X218402857Y-113258142D01*
X217831428Y-113258142D01*
X217545714Y-113115285D01*
X217402857Y-112829571D01*
X217402857Y-111686714D01*
X217545714Y-111401000D01*
X217831428Y-111258142D01*
X218402857Y-111258142D01*
X218688571Y-111401000D01*
X218831428Y-111686714D01*
X218831428Y-111972428D01*
X217402857Y-112258142D01*
X219974285Y-113115285D02*
X220260000Y-113258142D01*
X220831428Y-113258142D01*
X221117142Y-113115285D01*
X221260000Y-112829571D01*
X221260000Y-112686714D01*
X221117142Y-112401000D01*
X220831428Y-112258142D01*
X220402857Y-112258142D01*
X220117142Y-112115285D01*
X219974285Y-111829571D01*
X219974285Y-111686714D01*
X220117142Y-111401000D01*
X220402857Y-111258142D01*
X220831428Y-111258142D01*
X221117142Y-111401000D01*
X153260000Y-115088142D02*
X152688571Y-115088142D01*
X152402857Y-115231000D01*
X152260000Y-115373857D01*
X151974285Y-115802428D01*
X151831428Y-116373857D01*
X151831428Y-117516714D01*
X151974285Y-117802428D01*
X152117142Y-117945285D01*
X152402857Y-118088142D01*
X152974285Y-118088142D01*
X153260000Y-117945285D01*
X153402857Y-117802428D01*
X153545714Y-117516714D01*
X153545714Y-116802428D01*
X153402857Y-116516714D01*
X153260000Y-116373857D01*
X152974285Y-116231000D01*
X152402857Y-116231000D01*
X152117142Y-116373857D01*
X151974285Y-116516714D01*
X151831428Y-116802428D01*
X154831428Y-117802428D02*
X154974285Y-117945285D01*
X154831428Y-118088142D01*
X154688571Y-117945285D01*
X154831428Y-117802428D01*
X154831428Y-118088142D01*
X159545714Y-116516714D02*
X158545714Y-116516714D01*
X158545714Y-118088142D02*
X158545714Y-115088142D01*
X159974285Y-115088142D01*
X161117142Y-118088142D02*
X161117142Y-116088142D01*
X161117142Y-115088142D02*
X160974285Y-115231000D01*
X161117142Y-115373857D01*
X161260000Y-115231000D01*
X161117142Y-115088142D01*
X161117142Y-115373857D01*
X162545714Y-116088142D02*
X162545714Y-118088142D01*
X162545714Y-116373857D02*
X162688571Y-116231000D01*
X162974285Y-116088142D01*
X163402857Y-116088142D01*
X163688571Y-116231000D01*
X163831428Y-116516714D01*
X163831428Y-118088142D01*
X165260000Y-118088142D02*
X165260000Y-116088142D01*
X165260000Y-115088142D02*
X165117142Y-115231000D01*
X165260000Y-115373857D01*
X165402857Y-115231000D01*
X165260000Y-115088142D01*
X165260000Y-115373857D01*
X166545714Y-117945285D02*
X166831428Y-118088142D01*
X167402857Y-118088142D01*
X167688571Y-117945285D01*
X167831428Y-117659571D01*
X167831428Y-117516714D01*
X167688571Y-117231000D01*
X167402857Y-117088142D01*
X166974285Y-117088142D01*
X166688571Y-116945285D01*
X166545714Y-116659571D01*
X166545714Y-116516714D01*
X166688571Y-116231000D01*
X166974285Y-116088142D01*
X167402857Y-116088142D01*
X167688571Y-116231000D01*
X169117142Y-118088142D02*
X169117142Y-115088142D01*
X170402857Y-118088142D02*
X170402857Y-116516714D01*
X170260000Y-116231000D01*
X169974285Y-116088142D01*
X169545714Y-116088142D01*
X169260000Y-116231000D01*
X169117142Y-116373857D01*
X171831428Y-117802428D02*
X171974285Y-117945285D01*
X171831428Y-118088142D01*
X171688571Y-117945285D01*
X171831428Y-117802428D01*
X171831428Y-118088142D01*
X171831428Y-116231000D02*
X171974285Y-116373857D01*
X171831428Y-116516714D01*
X171688571Y-116373857D01*
X171831428Y-116231000D01*
X171831428Y-116516714D01*
X175545714Y-118088142D02*
X175545714Y-115088142D01*
X175545714Y-116516714D02*
X177260000Y-116516714D01*
X177260000Y-118088142D02*
X177260000Y-115088142D01*
X178545714Y-117231000D02*
X179974285Y-117231000D01*
X178260000Y-118088142D02*
X179260000Y-115088142D01*
X180260000Y-118088142D01*
X181117142Y-117945285D02*
X181545714Y-118088142D01*
X182260000Y-118088142D01*
X182545714Y-117945285D01*
X182688571Y-117802428D01*
X182831428Y-117516714D01*
X182831428Y-117231000D01*
X182688571Y-116945285D01*
X182545714Y-116802428D01*
X182260000Y-116659571D01*
X181688571Y-116516714D01*
X181402857Y-116373857D01*
X181260000Y-116231000D01*
X181117142Y-115945285D01*
X181117142Y-115659571D01*
X181260000Y-115373857D01*
X181402857Y-115231000D01*
X181688571Y-115088142D01*
X182402857Y-115088142D01*
X182831428Y-115231000D01*
X185545714Y-118088142D02*
X184117142Y-118088142D01*
X184117142Y-115088142D01*
X186688571Y-117945285D02*
X186688571Y-118088142D01*
X186545714Y-118373857D01*
X186402857Y-118516714D01*
X190688571Y-118088142D02*
X190402857Y-117945285D01*
X190260000Y-117659571D01*
X190260000Y-115088142D01*
X192974285Y-117945285D02*
X192688571Y-118088142D01*
X192117142Y-118088142D01*
X191831428Y-117945285D01*
X191688571Y-117659571D01*
X191688571Y-116516714D01*
X191831428Y-116231000D01*
X192117142Y-116088142D01*
X192688571Y-116088142D01*
X192974285Y-116231000D01*
X193117142Y-116516714D01*
X193117142Y-116802428D01*
X191688571Y-117088142D01*
X195688571Y-118088142D02*
X195688571Y-116516714D01*
X195545714Y-116231000D01*
X195260000Y-116088142D01*
X194688571Y-116088142D01*
X194402857Y-116231000D01*
X195688571Y-117945285D02*
X195402857Y-118088142D01*
X194688571Y-118088142D01*
X194402857Y-117945285D01*
X194260000Y-117659571D01*
X194260000Y-117373857D01*
X194402857Y-117088142D01*
X194688571Y-116945285D01*
X195402857Y-116945285D01*
X195688571Y-116802428D01*
X198402857Y-118088142D02*
X198402857Y-115088142D01*
X198402857Y-117945285D02*
X198117142Y-118088142D01*
X197545714Y-118088142D01*
X197260000Y-117945285D01*
X197117142Y-117802428D01*
X196974285Y-117516714D01*
X196974285Y-116659571D01*
X197117142Y-116373857D01*
X197260000Y-116231000D01*
X197545714Y-116088142D01*
X198117142Y-116088142D01*
X198402857Y-116231000D01*
X199831428Y-116945285D02*
X202117142Y-116945285D01*
X203117142Y-116088142D02*
X204260000Y-116088142D01*
X203545714Y-118088142D02*
X203545714Y-115516714D01*
X203688571Y-115231000D01*
X203974285Y-115088142D01*
X204260000Y-115088142D01*
X205260000Y-118088142D02*
X205260000Y-116088142D01*
X205260000Y-116659571D02*
X205402857Y-116373857D01*
X205545714Y-116231000D01*
X205831428Y-116088142D01*
X206117142Y-116088142D01*
X208260000Y-117945285D02*
X207974285Y-118088142D01*
X207402857Y-118088142D01*
X207117142Y-117945285D01*
X206974285Y-117659571D01*
X206974285Y-116516714D01*
X207117142Y-116231000D01*
X207402857Y-116088142D01*
X207974285Y-116088142D01*
X208260000Y-116231000D01*
X208402857Y-116516714D01*
X208402857Y-116802428D01*
X206974285Y-117088142D01*
X210831428Y-117945285D02*
X210545714Y-118088142D01*
X209974285Y-118088142D01*
X209688571Y-117945285D01*
X209545714Y-117659571D01*
X209545714Y-116516714D01*
X209688571Y-116231000D01*
X209974285Y-116088142D01*
X210545714Y-116088142D01*
X210831428Y-116231000D01*
X210974285Y-116516714D01*
X210974285Y-116802428D01*
X209545714Y-117088142D01*
M02*
