%TF.GenerationSoftware,KiCad,Pcbnew,(6.0.4)*%
%TF.CreationDate,2022-06-06T17:04:31-07:00*%
%TF.ProjectId,Alpenglow_ChillySnowCloud_PCB,416c7065-6e67-46c6-9f77-5f4368696c6c,rev?*%
%TF.SameCoordinates,Original*%
%TF.FileFunction,Copper,L2,Bot*%
%TF.FilePolarity,Positive*%
%FSLAX46Y46*%
G04 Gerber Fmt 4.6, Leading zero omitted, Abs format (unit mm)*
G04 Created by KiCad (PCBNEW (6.0.4)) date 2022-06-06 17:04:31*
%MOMM*%
%LPD*%
G01*
G04 APERTURE LIST*
G04 Aperture macros list*
%AMHorizOval*
0 Thick line with rounded ends*
0 $1 width*
0 $2 $3 position (X,Y) of the first rounded end (center of the circle)*
0 $4 $5 position (X,Y) of the second rounded end (center of the circle)*
0 Add line between two ends*
20,1,$1,$2,$3,$4,$5,0*
0 Add two circle primitives to create the rounded ends*
1,1,$1,$2,$3*
1,1,$1,$4,$5*%
%AMRotRect*
0 Rectangle, with rotation*
0 The origin of the aperture is its center*
0 $1 length*
0 $2 width*
0 $3 Rotation angle, in degrees counterclockwise*
0 Add horizontal line*
21,1,$1,$2,0,0,$3*%
G04 Aperture macros list end*
%TA.AperFunction,ComponentPad*%
%ADD10R,1.800000X1.800000*%
%TD*%
%TA.AperFunction,ComponentPad*%
%ADD11C,1.800000*%
%TD*%
%TA.AperFunction,ComponentPad*%
%ADD12O,2.500000X4.000000*%
%TD*%
%TA.AperFunction,SMDPad,CuDef*%
%ADD13C,17.272000*%
%TD*%
%TA.AperFunction,ComponentPad*%
%ADD14HorizOval,2.200000X-0.627852X0.168232X0.627852X-0.168232X0*%
%TD*%
%TA.AperFunction,ComponentPad*%
%ADD15RotRect,1.500000X2.500000X255.000000*%
%TD*%
%TA.AperFunction,ComponentPad*%
%ADD16HorizOval,1.500000X-0.482963X0.129410X0.482963X-0.129410X0*%
%TD*%
%TA.AperFunction,Conductor*%
%ADD17C,0.508000*%
%TD*%
G04 APERTURE END LIST*
D10*
%TO.P,D1,1,K*%
%TO.N,GND*%
X96088200Y-109397800D03*
D11*
%TO.P,D1,2,A*%
%TO.N,/LED+*%
X96088200Y-111937800D03*
%TD*%
D10*
%TO.P,D2,1,K*%
%TO.N,GND*%
X109397800Y-116840000D03*
D11*
%TO.P,D2,2,A*%
%TO.N,/LED+*%
X109397800Y-119380000D03*
%TD*%
D10*
%TO.P,D3,1,K*%
%TO.N,GND*%
X122732800Y-109397800D03*
D11*
%TO.P,D3,2,A*%
%TO.N,/LED+*%
X122732800Y-111937800D03*
%TD*%
D12*
%TO.P,BT1,1,+*%
%TO.N,VCC*%
X121716800Y-92583000D03*
X100634800Y-92583000D03*
D13*
%TO.P,BT1,2,-*%
%TO.N,GND*%
X111175800Y-92583000D03*
%TD*%
D14*
%TO.P,SW1,*%
%TO.N,GND*%
X134443520Y-102471556D03*
X132321204Y-110392148D03*
D15*
%TO.P,SW1,1,A*%
%TO.N,unconnected-(SW1-Pad1)*%
X133900000Y-104500000D03*
D16*
%TO.P,SW1,2,B*%
%TO.N,VCC*%
X133382362Y-106431852D03*
%TO.P,SW1,3,C*%
%TO.N,/LED+*%
X132864724Y-108363703D03*
%TD*%
D17*
%TO.N,VCC*%
X124079000Y-94945200D02*
X121716800Y-92583000D01*
X115036600Y-104317800D02*
X106959400Y-104317800D01*
X100634800Y-97993200D02*
X100634800Y-92583000D01*
X106959400Y-104317800D02*
X100634800Y-97993200D01*
X132568452Y-106431852D02*
X124079000Y-97942400D01*
X133382362Y-106431852D02*
X132568452Y-106431852D01*
X121716800Y-92583000D02*
X121716800Y-97637600D01*
X124079000Y-97942400D02*
X124079000Y-94945200D01*
X121716800Y-97637600D02*
X115036600Y-104317800D01*
%TO.N,/LED+*%
X96088200Y-114325400D02*
X101142800Y-119380000D01*
X101142800Y-119380000D02*
X109397800Y-119380000D01*
X124663200Y-111937800D02*
X122732800Y-111937800D01*
X96088200Y-111937800D02*
X96088200Y-114325400D01*
X132864724Y-108363703D02*
X128237297Y-108363703D01*
X128237297Y-108363703D02*
X124663200Y-111937800D01*
X122732800Y-111937800D02*
X96088200Y-111937800D01*
%TD*%
%TA.AperFunction,Conductor*%
%TO.N,GND*%
G36*
X111714619Y-74703779D02*
G01*
X112194626Y-74711320D01*
X112199461Y-74711488D01*
X112913298Y-74750148D01*
X113180146Y-74764599D01*
X113184956Y-74764953D01*
X114162820Y-74855667D01*
X114167622Y-74856206D01*
X115141312Y-74984395D01*
X115146050Y-74985111D01*
X115630104Y-75067852D01*
X116114134Y-75150589D01*
X116118886Y-75151496D01*
X117079840Y-75354001D01*
X117084553Y-75355089D01*
X117387538Y-75431193D01*
X118037078Y-75594346D01*
X118041698Y-75595602D01*
X118984309Y-75871240D01*
X118988905Y-75872680D01*
X119920253Y-76184305D01*
X119924806Y-76185926D01*
X120085726Y-76246733D01*
X120843494Y-76533070D01*
X120847985Y-76534867D01*
X121752641Y-76917007D01*
X121757053Y-76918970D01*
X121909870Y-76990555D01*
X122646407Y-77335575D01*
X122650740Y-77337707D01*
X122947872Y-77491068D01*
X123523444Y-77788143D01*
X123527699Y-77790444D01*
X124382455Y-78274042D01*
X124386619Y-78276505D01*
X125222153Y-78792541D01*
X125226220Y-78795161D01*
X126041374Y-79342922D01*
X126045337Y-79345697D01*
X126838849Y-79924336D01*
X126842702Y-79927261D01*
X127613401Y-80535921D01*
X127617140Y-80538992D01*
X128363929Y-81176811D01*
X128367546Y-81180023D01*
X129089268Y-81846009D01*
X129092760Y-81849357D01*
X129788420Y-82542593D01*
X129791780Y-82546073D01*
X130460292Y-83265477D01*
X130463517Y-83269084D01*
X130577362Y-83401441D01*
X131103937Y-84013642D01*
X131106981Y-84017320D01*
X131519720Y-84536203D01*
X131718369Y-84785939D01*
X131721307Y-84789782D01*
X132302708Y-85581265D01*
X132305493Y-85585212D01*
X132856108Y-86398467D01*
X132858726Y-86402501D01*
X133377671Y-87236222D01*
X133380149Y-87240377D01*
X133866752Y-88093481D01*
X133869058Y-88097712D01*
X134222340Y-88776361D01*
X134322526Y-88968816D01*
X134324674Y-88973142D01*
X134657904Y-89678095D01*
X134744368Y-89861012D01*
X134746345Y-89865410D01*
X134926898Y-90288711D01*
X135131663Y-90768776D01*
X135133475Y-90773261D01*
X135483817Y-91690715D01*
X135485455Y-91695267D01*
X135800328Y-92625519D01*
X135801790Y-92630128D01*
X136036393Y-93422133D01*
X136080708Y-93571739D01*
X136081989Y-93576388D01*
X136324439Y-94527557D01*
X136324565Y-94528050D01*
X136325667Y-94532747D01*
X136398561Y-94872765D01*
X136531533Y-95493025D01*
X136532456Y-95497774D01*
X136564954Y-95683978D01*
X136655650Y-96203639D01*
X136701304Y-96465226D01*
X136702041Y-96469988D01*
X136833628Y-97443223D01*
X136834183Y-97448016D01*
X136928006Y-98422405D01*
X136928312Y-98425587D01*
X136928681Y-98430387D01*
X136944589Y-98706278D01*
X136985214Y-99410845D01*
X136985400Y-99415679D01*
X137004262Y-100398015D01*
X137004276Y-100401973D01*
X136996651Y-101026048D01*
X136996540Y-101030005D01*
X136953683Y-102011576D01*
X136953379Y-102016404D01*
X136918436Y-102441423D01*
X136892920Y-102507676D01*
X136835635Y-102549616D01*
X136764769Y-102553928D01*
X136702822Y-102519242D01*
X136669462Y-102456572D01*
X136667938Y-102447545D01*
X136649743Y-102309337D01*
X136647691Y-102299686D01*
X136578620Y-102066506D01*
X136575075Y-102057272D01*
X136470376Y-101837769D01*
X136465442Y-101829223D01*
X136327692Y-101628793D01*
X136321477Y-101621118D01*
X136154067Y-101444705D01*
X136146735Y-101438103D01*
X135953782Y-101290045D01*
X135945511Y-101284674D01*
X135731773Y-101168625D01*
X135722763Y-101164613D01*
X135550888Y-101103749D01*
X135546205Y-101102295D01*
X135122543Y-100988775D01*
X135106667Y-100989153D01*
X135105141Y-100990186D01*
X135101540Y-100997171D01*
X134759293Y-102274454D01*
X134759671Y-102290330D01*
X134760704Y-102291856D01*
X134767689Y-102295457D01*
X136658056Y-102801979D01*
X136673932Y-102801601D01*
X136683744Y-102794960D01*
X136751370Y-102773344D01*
X136819947Y-102791720D01*
X136867703Y-102844254D01*
X136879943Y-102909632D01*
X136876384Y-102952919D01*
X136872910Y-102995174D01*
X136872421Y-102999984D01*
X136792900Y-103657120D01*
X136754440Y-103974937D01*
X136753770Y-103979709D01*
X136658148Y-104576693D01*
X136598440Y-104949459D01*
X136597583Y-104954220D01*
X136405155Y-105917227D01*
X136404117Y-105921952D01*
X136174849Y-106876924D01*
X136173629Y-106881606D01*
X136113180Y-107096661D01*
X135925215Y-107765371D01*
X135907884Y-107827027D01*
X135906489Y-107831647D01*
X135806223Y-108142076D01*
X135604636Y-108766201D01*
X135603061Y-108770775D01*
X135597132Y-108786977D01*
X135279015Y-109656275D01*
X135265557Y-109693050D01*
X135263822Y-109697523D01*
X134898098Y-110589250D01*
X134891161Y-110606164D01*
X134889240Y-110610603D01*
X134804202Y-110797204D01*
X134785377Y-110838511D01*
X134738927Y-110892204D01*
X134670822Y-110912260D01*
X134602686Y-110892312D01*
X134556150Y-110838693D01*
X134546832Y-110763299D01*
X134552288Y-110733858D01*
X134553322Y-110724028D01*
X134559689Y-110480907D01*
X134559172Y-110471057D01*
X134527427Y-110229929D01*
X134525375Y-110220278D01*
X134456304Y-109987098D01*
X134452759Y-109977864D01*
X134348060Y-109758361D01*
X134343126Y-109749815D01*
X134211255Y-109557939D01*
X134189155Y-109490469D01*
X134207041Y-109421762D01*
X134232266Y-109391623D01*
X134255463Y-109371387D01*
X134259693Y-109367697D01*
X134307355Y-109308205D01*
X134396649Y-109196749D01*
X134396652Y-109196744D01*
X134400155Y-109192372D01*
X134507349Y-108994945D01*
X134577887Y-108781655D01*
X134609542Y-108559245D01*
X134601310Y-108334744D01*
X134553453Y-108115250D01*
X134501490Y-107989800D01*
X134469630Y-107912881D01*
X134469627Y-107912876D01*
X134467483Y-107907699D01*
X134426391Y-107843692D01*
X134406423Y-107775563D01*
X134426458Y-107707452D01*
X134467717Y-107667508D01*
X134548605Y-107619098D01*
X134608042Y-107583526D01*
X134777331Y-107435846D01*
X134808911Y-107396428D01*
X134914287Y-107264898D01*
X134914290Y-107264893D01*
X134917793Y-107260521D01*
X135024987Y-107063094D01*
X135095525Y-106849804D01*
X135127180Y-106627394D01*
X135118948Y-106402893D01*
X135071091Y-106183399D01*
X135068946Y-106178220D01*
X135068943Y-106178211D01*
X135066292Y-106171812D01*
X135058702Y-106101222D01*
X135090481Y-106037735D01*
X135135804Y-106006645D01*
X135161830Y-105996209D01*
X135170157Y-105992870D01*
X135284702Y-105902895D01*
X135369390Y-105784386D01*
X135392008Y-105726072D01*
X135805153Y-104184195D01*
X135813939Y-104127442D01*
X135844128Y-104063184D01*
X135875460Y-104037598D01*
X135881935Y-104033860D01*
X136082367Y-103896108D01*
X136090042Y-103889893D01*
X136266455Y-103722483D01*
X136273057Y-103715151D01*
X136421115Y-103522198D01*
X136426486Y-103513927D01*
X136535429Y-103313278D01*
X136538393Y-103299491D01*
X136530729Y-103293781D01*
X134132435Y-102651161D01*
X132228984Y-102141133D01*
X132214888Y-102141469D01*
X132211125Y-102150255D01*
X132205035Y-102382797D01*
X132205552Y-102392647D01*
X132237297Y-102633775D01*
X132239349Y-102643426D01*
X132308422Y-102876612D01*
X132311960Y-102885829D01*
X132416664Y-103105344D01*
X132420404Y-103111823D01*
X132437142Y-103180819D01*
X132428758Y-103220387D01*
X132409226Y-103270744D01*
X132409221Y-103270760D01*
X132407992Y-103273928D01*
X132338690Y-103532566D01*
X132058917Y-104576693D01*
X132021965Y-104637316D01*
X131958105Y-104668337D01*
X131887610Y-104659909D01*
X131848115Y-104633177D01*
X128858559Y-101643621D01*
X132348647Y-101643621D01*
X132356311Y-101649331D01*
X134246418Y-102155783D01*
X134262294Y-102155405D01*
X134263820Y-102154372D01*
X134267421Y-102147387D01*
X134609668Y-100870104D01*
X134609290Y-100854228D01*
X134608257Y-100852702D01*
X134601272Y-100849101D01*
X134173210Y-100734403D01*
X134168393Y-100733313D01*
X133989143Y-100700091D01*
X133979316Y-100699058D01*
X133736195Y-100692691D01*
X133726345Y-100693208D01*
X133485217Y-100724953D01*
X133475566Y-100727005D01*
X133242380Y-100796078D01*
X133233163Y-100799616D01*
X133013650Y-100904318D01*
X133005098Y-100909256D01*
X132804674Y-101047004D01*
X132796998Y-101053219D01*
X132620585Y-101220629D01*
X132613983Y-101227961D01*
X132465925Y-101420914D01*
X132460554Y-101429185D01*
X132351611Y-101629834D01*
X132348647Y-101643621D01*
X128858559Y-101643621D01*
X124878405Y-97663467D01*
X124844379Y-97601155D01*
X124841500Y-97574372D01*
X124841500Y-95012568D01*
X124842933Y-94993617D01*
X124845123Y-94979224D01*
X124845123Y-94979222D01*
X124846223Y-94971992D01*
X124841915Y-94919025D01*
X124841500Y-94908811D01*
X124841500Y-94900675D01*
X124838190Y-94872284D01*
X124837757Y-94867909D01*
X124832403Y-94802072D01*
X124832402Y-94802069D01*
X124831809Y-94794773D01*
X124829554Y-94787811D01*
X124828354Y-94781807D01*
X124826948Y-94775860D01*
X124826101Y-94768593D01*
X124801053Y-94699587D01*
X124799625Y-94695427D01*
X124779269Y-94632591D01*
X124779268Y-94632589D01*
X124777012Y-94625625D01*
X124773215Y-94619368D01*
X124770660Y-94613787D01*
X124767929Y-94608334D01*
X124765434Y-94601459D01*
X124725163Y-94540035D01*
X124722842Y-94536355D01*
X124687690Y-94478425D01*
X124687686Y-94478420D01*
X124684773Y-94473619D01*
X124677332Y-94465195D01*
X124677362Y-94465169D01*
X124674764Y-94462241D01*
X124671960Y-94458887D01*
X124667946Y-94452765D01*
X124611395Y-94399194D01*
X124608954Y-94396817D01*
X123512205Y-93300068D01*
X123478179Y-93237756D01*
X123475300Y-93210973D01*
X123475300Y-91766646D01*
X123469826Y-91692979D01*
X123461207Y-91577000D01*
X123461206Y-91576996D01*
X123460861Y-91572348D01*
X123449525Y-91522248D01*
X123404208Y-91321980D01*
X123403177Y-91317423D01*
X123308447Y-91073823D01*
X123178751Y-90846902D01*
X123016938Y-90641643D01*
X122826563Y-90462557D01*
X122611809Y-90313576D01*
X122607616Y-90311508D01*
X122381581Y-90200040D01*
X122381578Y-90200039D01*
X122377393Y-90197975D01*
X122331249Y-90183204D01*
X122132923Y-90119720D01*
X122128465Y-90118293D01*
X121870493Y-90076279D01*
X121756742Y-90074790D01*
X121613822Y-90072919D01*
X121613819Y-90072919D01*
X121609145Y-90072858D01*
X121350162Y-90108104D01*
X121099233Y-90181243D01*
X121094980Y-90183203D01*
X121094979Y-90183204D01*
X121058459Y-90200040D01*
X120861872Y-90290668D01*
X120822867Y-90316241D01*
X120647204Y-90431410D01*
X120647199Y-90431414D01*
X120643291Y-90433976D01*
X120448294Y-90608018D01*
X120445306Y-90611611D01*
X120341568Y-90736341D01*
X120282630Y-90775924D01*
X120211648Y-90777360D01*
X120151158Y-90740192D01*
X120121899Y-90684008D01*
X120021628Y-90247948D01*
X120020582Y-90243992D01*
X119852503Y-89681976D01*
X119851205Y-89678095D01*
X119647198Y-89128065D01*
X119645672Y-89124327D01*
X119406595Y-88588611D01*
X119404807Y-88584929D01*
X119131672Y-88065786D01*
X119129657Y-88062238D01*
X118823578Y-87561782D01*
X118821350Y-87558391D01*
X118483595Y-87078704D01*
X118481169Y-87075485D01*
X118113164Y-86618595D01*
X118110520Y-86615522D01*
X117831763Y-86311845D01*
X117818159Y-86303642D01*
X117817760Y-86303654D01*
X117808967Y-86309043D01*
X111547822Y-92570188D01*
X111540208Y-92584132D01*
X111540339Y-92585965D01*
X111544590Y-92592580D01*
X117806032Y-98854022D01*
X117819976Y-98861636D01*
X117821020Y-98861562D01*
X117828713Y-98856489D01*
X117994676Y-98682514D01*
X117997399Y-98679468D01*
X118374089Y-98229749D01*
X118376583Y-98226569D01*
X118723474Y-97753469D01*
X118725774Y-97750109D01*
X119041409Y-97255616D01*
X119043480Y-97252128D01*
X119326552Y-96738284D01*
X119328388Y-96734682D01*
X119577711Y-96203639D01*
X119579313Y-96199920D01*
X119793848Y-95653895D01*
X119795205Y-95650085D01*
X119974057Y-95091350D01*
X119975163Y-95087469D01*
X120117589Y-94518345D01*
X120118441Y-94514401D01*
X120122922Y-94489866D01*
X120154838Y-94426447D01*
X120215973Y-94390350D01*
X120286919Y-94393036D01*
X120345822Y-94434497D01*
X120416662Y-94524357D01*
X120607037Y-94703443D01*
X120821791Y-94852424D01*
X120884030Y-94883117D01*
X120936277Y-94931185D01*
X120954300Y-94996122D01*
X120954300Y-97269572D01*
X120934298Y-97337693D01*
X120917395Y-97358667D01*
X114757667Y-103518395D01*
X114695355Y-103552421D01*
X114668572Y-103555300D01*
X107327427Y-103555300D01*
X107259306Y-103535298D01*
X107238332Y-103518395D01*
X102947961Y-99228023D01*
X104896317Y-99228023D01*
X104896341Y-99228362D01*
X104902164Y-99236994D01*
X105220422Y-99528113D01*
X105223524Y-99530773D01*
X105681035Y-99897963D01*
X105684278Y-99900399D01*
X106164523Y-100237294D01*
X106167950Y-100239537D01*
X106668930Y-100544737D01*
X106672465Y-100546737D01*
X107192131Y-100818990D01*
X107195769Y-100820749D01*
X107731889Y-101058884D01*
X107735679Y-101060423D01*
X108286048Y-101263465D01*
X108289913Y-101264751D01*
X108852243Y-101431854D01*
X108856184Y-101432888D01*
X109428118Y-101563353D01*
X109432113Y-101564130D01*
X110011293Y-101657418D01*
X110015332Y-101657935D01*
X110599304Y-101713651D01*
X110603373Y-101713907D01*
X111189723Y-101731822D01*
X111193810Y-101731814D01*
X111780106Y-101711853D01*
X111784148Y-101711585D01*
X112367945Y-101653828D01*
X112371981Y-101653297D01*
X112950815Y-101557991D01*
X112954818Y-101557198D01*
X113526306Y-101424734D01*
X113530226Y-101423691D01*
X114091991Y-101254619D01*
X114095824Y-101253329D01*
X114645484Y-101048366D01*
X114649277Y-101046810D01*
X115184552Y-100806810D01*
X115188213Y-100805024D01*
X115706916Y-100530964D01*
X115710422Y-100528964D01*
X116210358Y-100222003D01*
X116213755Y-100219762D01*
X116692834Y-99881183D01*
X116696058Y-99878745D01*
X117152304Y-99509943D01*
X117155371Y-99507296D01*
X117446818Y-99238827D01*
X117454996Y-99225210D01*
X117454982Y-99224751D01*
X117449637Y-99216047D01*
X111188612Y-92955022D01*
X111174668Y-92947408D01*
X111172835Y-92947539D01*
X111166220Y-92951790D01*
X104903931Y-99214079D01*
X104896317Y-99228023D01*
X102947961Y-99228023D01*
X101434205Y-97714267D01*
X101400179Y-97651955D01*
X101397300Y-97625172D01*
X101397300Y-94998600D01*
X101417302Y-94930479D01*
X101470547Y-94884175D01*
X101485481Y-94877290D01*
X101485482Y-94877289D01*
X101489728Y-94875332D01*
X101632135Y-94781966D01*
X101704396Y-94734590D01*
X101704401Y-94734586D01*
X101708309Y-94732024D01*
X101903306Y-94557982D01*
X101990815Y-94452765D01*
X102008638Y-94431335D01*
X102067576Y-94391752D01*
X102138558Y-94390316D01*
X102199048Y-94427484D01*
X102229382Y-94488835D01*
X102239953Y-94545597D01*
X102240825Y-94549562D01*
X102385228Y-95118148D01*
X102386358Y-95122062D01*
X102567148Y-95680136D01*
X102568532Y-95683978D01*
X102784957Y-96229215D01*
X102786588Y-96232966D01*
X103037747Y-96763100D01*
X103039605Y-96766714D01*
X103324470Y-97279570D01*
X103326545Y-97283037D01*
X103643907Y-97776433D01*
X103646224Y-97779790D01*
X103994745Y-98251649D01*
X103997276Y-98254854D01*
X104375530Y-98703250D01*
X104378257Y-98706278D01*
X104520072Y-98853904D01*
X104533857Y-98861794D01*
X104535021Y-98861734D01*
X104542654Y-98856936D01*
X110803778Y-92595812D01*
X110811392Y-92581868D01*
X110811261Y-92580035D01*
X110807010Y-92573420D01*
X104543286Y-86309696D01*
X104529342Y-86302082D01*
X104527537Y-86302211D01*
X104520884Y-86306490D01*
X104497066Y-86330350D01*
X104494274Y-86333333D01*
X104107471Y-86774396D01*
X104104906Y-86777518D01*
X103747366Y-87242634D01*
X103745003Y-87245923D01*
X103418218Y-87733146D01*
X103416076Y-87736575D01*
X103121426Y-88243854D01*
X103119500Y-88247430D01*
X102858192Y-88772679D01*
X102856507Y-88776361D01*
X102629653Y-89317346D01*
X102628188Y-89321184D01*
X102436721Y-89875671D01*
X102435517Y-89879559D01*
X102280231Y-90445251D01*
X102279271Y-90449247D01*
X102231130Y-90682743D01*
X102197785Y-90745422D01*
X102135846Y-90780122D01*
X102064980Y-90775827D01*
X102008776Y-90735306D01*
X101968336Y-90684008D01*
X101934938Y-90641643D01*
X101744563Y-90462557D01*
X101529809Y-90313576D01*
X101525616Y-90311508D01*
X101299581Y-90200040D01*
X101299578Y-90200039D01*
X101295393Y-90197975D01*
X101249249Y-90183204D01*
X101050923Y-90119720D01*
X101046465Y-90118293D01*
X100788493Y-90076279D01*
X100674742Y-90074790D01*
X100531822Y-90072919D01*
X100531819Y-90072919D01*
X100527145Y-90072858D01*
X100268162Y-90108104D01*
X100017233Y-90181243D01*
X100012980Y-90183203D01*
X100012979Y-90183204D01*
X99976459Y-90200040D01*
X99779872Y-90290668D01*
X99740867Y-90316241D01*
X99565204Y-90431410D01*
X99565199Y-90431414D01*
X99561291Y-90433976D01*
X99366294Y-90608018D01*
X99199163Y-90808970D01*
X99196734Y-90812973D01*
X99119726Y-90939879D01*
X99063571Y-91032419D01*
X98962497Y-91273455D01*
X98898159Y-91526783D01*
X98876300Y-91743867D01*
X98876300Y-93399354D01*
X98876473Y-93401679D01*
X98876473Y-93401685D01*
X98889111Y-93571739D01*
X98890739Y-93593652D01*
X98948423Y-93848577D01*
X99043153Y-94092177D01*
X99172849Y-94319098D01*
X99334662Y-94524357D01*
X99525037Y-94703443D01*
X99739791Y-94852424D01*
X99802030Y-94883117D01*
X99854277Y-94931185D01*
X99872300Y-94996122D01*
X99872300Y-97925823D01*
X99870867Y-97944772D01*
X99869220Y-97955600D01*
X99867576Y-97966408D01*
X99868169Y-97973700D01*
X99868169Y-97973703D01*
X99871885Y-98019383D01*
X99872300Y-98029598D01*
X99872300Y-98037725D01*
X99875611Y-98066124D01*
X99876038Y-98070444D01*
X99881991Y-98143626D01*
X99884247Y-98150588D01*
X99885443Y-98156576D01*
X99886851Y-98162533D01*
X99887699Y-98169807D01*
X99890197Y-98176689D01*
X99890198Y-98176693D01*
X99912745Y-98238807D01*
X99914155Y-98242911D01*
X99936787Y-98312775D01*
X99940587Y-98319038D01*
X99943125Y-98324580D01*
X99945867Y-98330056D01*
X99948366Y-98336941D01*
X99952381Y-98343065D01*
X99988615Y-98398332D01*
X99990930Y-98402000D01*
X100029027Y-98464781D01*
X100032741Y-98468986D01*
X100032743Y-98468989D01*
X100036467Y-98473205D01*
X100036438Y-98473231D01*
X100039038Y-98476162D01*
X100041842Y-98479516D01*
X100045854Y-98485635D01*
X100098668Y-98535666D01*
X100102386Y-98539188D01*
X100104828Y-98541566D01*
X106372590Y-104809328D01*
X106384977Y-104823741D01*
X106397946Y-104841364D01*
X106403529Y-104846107D01*
X106438455Y-104875779D01*
X106445971Y-104882709D01*
X106451715Y-104888453D01*
X106454589Y-104890727D01*
X106454596Y-104890733D01*
X106474111Y-104906172D01*
X106477515Y-104908963D01*
X106527872Y-104951745D01*
X106527876Y-104951748D01*
X106533451Y-104956484D01*
X106539968Y-104959812D01*
X106545032Y-104963189D01*
X106550256Y-104966416D01*
X106556000Y-104970960D01*
X106562631Y-104974059D01*
X106622482Y-105002032D01*
X106626433Y-105003963D01*
X106691804Y-105037343D01*
X106698919Y-105039084D01*
X106704665Y-105041221D01*
X106710448Y-105043145D01*
X106717079Y-105046244D01*
X106788957Y-105061194D01*
X106793229Y-105062161D01*
X106864512Y-105079604D01*
X106870111Y-105079951D01*
X106870115Y-105079952D01*
X106875730Y-105080300D01*
X106875728Y-105080339D01*
X106879629Y-105080572D01*
X106883988Y-105080961D01*
X106891156Y-105082452D01*
X106898473Y-105082254D01*
X106968977Y-105080346D01*
X106972386Y-105080300D01*
X114969224Y-105080300D01*
X114988174Y-105081733D01*
X115002573Y-105083924D01*
X115002579Y-105083924D01*
X115009808Y-105085024D01*
X115017100Y-105084431D01*
X115017103Y-105084431D01*
X115062783Y-105080715D01*
X115072998Y-105080300D01*
X115081125Y-105080300D01*
X115084761Y-105079876D01*
X115084763Y-105079876D01*
X115088215Y-105079473D01*
X115109524Y-105076989D01*
X115113844Y-105076562D01*
X115187026Y-105070609D01*
X115193988Y-105068353D01*
X115199976Y-105067157D01*
X115205933Y-105065749D01*
X115213207Y-105064901D01*
X115220089Y-105062403D01*
X115220093Y-105062402D01*
X115282207Y-105039855D01*
X115286311Y-105038445D01*
X115356175Y-105015813D01*
X115362438Y-105012013D01*
X115367980Y-105009475D01*
X115373456Y-105006733D01*
X115380341Y-105004234D01*
X115441732Y-104963985D01*
X115445400Y-104961670D01*
X115508181Y-104923573D01*
X115512386Y-104919859D01*
X115512389Y-104919857D01*
X115516605Y-104916133D01*
X115516631Y-104916162D01*
X115519562Y-104913562D01*
X115522916Y-104910758D01*
X115529035Y-104906746D01*
X115582589Y-104850213D01*
X115584966Y-104847772D01*
X122208328Y-98224410D01*
X122222741Y-98212023D01*
X122234465Y-98203395D01*
X122240364Y-98199054D01*
X122274779Y-98158545D01*
X122281709Y-98151029D01*
X122287453Y-98145285D01*
X122289727Y-98142411D01*
X122289733Y-98142404D01*
X122305172Y-98122889D01*
X122307963Y-98119485D01*
X122350745Y-98069128D01*
X122350748Y-98069124D01*
X122355484Y-98063549D01*
X122358811Y-98057034D01*
X122362192Y-98051964D01*
X122365417Y-98046742D01*
X122369960Y-98041000D01*
X122401046Y-97974488D01*
X122402952Y-97970588D01*
X122403976Y-97968583D01*
X122436343Y-97905196D01*
X122438084Y-97898079D01*
X122440211Y-97892361D01*
X122442142Y-97886555D01*
X122445243Y-97879921D01*
X122460191Y-97808061D01*
X122461159Y-97803781D01*
X122467030Y-97779790D01*
X122478604Y-97732488D01*
X122479300Y-97721270D01*
X122479339Y-97721272D01*
X122479572Y-97717371D01*
X122479961Y-97713012D01*
X122481452Y-97705844D01*
X122479346Y-97628024D01*
X122479300Y-97624615D01*
X122479300Y-94998600D01*
X122499302Y-94930479D01*
X122552547Y-94884175D01*
X122567481Y-94877290D01*
X122567482Y-94877289D01*
X122571728Y-94875332D01*
X122575640Y-94872767D01*
X122575644Y-94872765D01*
X122702896Y-94789336D01*
X122770831Y-94768713D01*
X122839131Y-94788093D01*
X122861075Y-94805613D01*
X123279595Y-95224133D01*
X123313621Y-95286445D01*
X123316500Y-95313228D01*
X123316500Y-97875024D01*
X123315067Y-97893974D01*
X123312876Y-97908373D01*
X123312876Y-97908379D01*
X123311776Y-97915608D01*
X123312369Y-97922900D01*
X123312369Y-97922903D01*
X123316085Y-97968583D01*
X123316500Y-97978798D01*
X123316500Y-97986925D01*
X123319811Y-98015324D01*
X123320238Y-98019644D01*
X123326191Y-98092826D01*
X123328447Y-98099788D01*
X123329643Y-98105776D01*
X123331051Y-98111733D01*
X123331899Y-98119007D01*
X123334397Y-98125889D01*
X123334398Y-98125893D01*
X123356945Y-98188007D01*
X123358355Y-98192111D01*
X123380987Y-98261975D01*
X123384787Y-98268238D01*
X123387325Y-98273780D01*
X123390067Y-98279256D01*
X123392566Y-98286141D01*
X123396581Y-98292265D01*
X123432815Y-98347532D01*
X123435130Y-98351200D01*
X123473227Y-98413981D01*
X123476941Y-98418186D01*
X123476943Y-98418189D01*
X123480667Y-98422405D01*
X123480638Y-98422431D01*
X123483238Y-98425362D01*
X123486042Y-98428716D01*
X123490054Y-98434835D01*
X123495366Y-98439867D01*
X123546586Y-98488388D01*
X123549028Y-98490766D01*
X131654965Y-106596703D01*
X131688978Y-106658955D01*
X131693633Y-106680305D01*
X131779603Y-106887856D01*
X131782634Y-106892578D01*
X131782636Y-106892581D01*
X131820693Y-106951861D01*
X131840662Y-107019992D01*
X131820627Y-107088103D01*
X131779370Y-107128046D01*
X131639044Y-107212029D01*
X131469755Y-107359709D01*
X131466246Y-107364089D01*
X131332799Y-107530657D01*
X131332796Y-107530662D01*
X131329293Y-107535034D01*
X131326618Y-107539961D01*
X131323510Y-107544639D01*
X131321316Y-107543181D01*
X131279052Y-107585647D01*
X131218404Y-107601203D01*
X128304665Y-107601203D01*
X128285717Y-107599770D01*
X128278330Y-107598646D01*
X128271321Y-107597580D01*
X128271319Y-107597580D01*
X128264089Y-107596480D01*
X128256797Y-107597073D01*
X128256794Y-107597073D01*
X128211122Y-107600788D01*
X128200908Y-107601203D01*
X128192772Y-107601203D01*
X128189137Y-107601627D01*
X128189134Y-107601627D01*
X128171132Y-107603726D01*
X128164381Y-107604513D01*
X128160010Y-107604946D01*
X128148998Y-107605841D01*
X128094169Y-107610300D01*
X128094166Y-107610301D01*
X128086870Y-107610894D01*
X128079908Y-107613149D01*
X128073904Y-107614349D01*
X128067957Y-107615755D01*
X128060690Y-107616602D01*
X127991685Y-107641650D01*
X127987524Y-107643078D01*
X127924684Y-107663435D01*
X127924679Y-107663437D01*
X127917722Y-107665691D01*
X127911470Y-107669485D01*
X127905895Y-107672037D01*
X127900432Y-107674773D01*
X127893556Y-107677269D01*
X127887437Y-107681281D01*
X127832160Y-107717522D01*
X127828456Y-107719859D01*
X127765716Y-107757931D01*
X127757291Y-107765371D01*
X127757266Y-107765343D01*
X127754341Y-107767937D01*
X127750987Y-107770742D01*
X127744862Y-107774757D01*
X127739827Y-107780072D01*
X127739826Y-107780073D01*
X127691309Y-107831289D01*
X127688931Y-107833731D01*
X124384267Y-111138395D01*
X124321955Y-111172421D01*
X124295172Y-111175300D01*
X123985705Y-111175300D01*
X123917584Y-111155298D01*
X123879913Y-111117740D01*
X123855374Y-111079809D01*
X123852564Y-111075465D01*
X123762286Y-110976250D01*
X123731234Y-110912405D01*
X123739629Y-110841906D01*
X123784805Y-110787138D01*
X123811249Y-110773469D01*
X123870854Y-110751124D01*
X123886449Y-110742586D01*
X123988524Y-110666085D01*
X124001085Y-110653524D01*
X124077586Y-110551449D01*
X124086124Y-110535854D01*
X124131278Y-110415406D01*
X124134905Y-110400151D01*
X124140431Y-110349286D01*
X124140800Y-110342472D01*
X124140800Y-109669915D01*
X124136325Y-109654676D01*
X124134935Y-109653471D01*
X124127252Y-109651800D01*
X121342916Y-109651800D01*
X121327677Y-109656275D01*
X121326472Y-109657665D01*
X121324801Y-109665348D01*
X121324801Y-110342469D01*
X121325171Y-110349290D01*
X121330695Y-110400152D01*
X121334321Y-110415404D01*
X121379476Y-110535854D01*
X121388014Y-110551449D01*
X121464515Y-110653524D01*
X121477076Y-110666085D01*
X121579151Y-110742586D01*
X121594746Y-110751124D01*
X121654340Y-110773465D01*
X121711104Y-110816107D01*
X121735804Y-110882668D01*
X121720596Y-110952017D01*
X121701204Y-110978498D01*
X121634439Y-111048364D01*
X121631525Y-111052636D01*
X121631524Y-111052637D01*
X121615952Y-111075465D01*
X121600589Y-111097987D01*
X121585365Y-111120304D01*
X121530454Y-111165307D01*
X121481277Y-111175300D01*
X97341105Y-111175300D01*
X97272984Y-111155298D01*
X97235313Y-111117740D01*
X97210774Y-111079809D01*
X97207964Y-111075465D01*
X97117686Y-110976250D01*
X97086634Y-110912405D01*
X97095029Y-110841906D01*
X97140205Y-110787138D01*
X97166649Y-110773469D01*
X97226254Y-110751124D01*
X97241849Y-110742586D01*
X97343924Y-110666085D01*
X97356485Y-110653524D01*
X97432986Y-110551449D01*
X97441524Y-110535854D01*
X97486678Y-110415406D01*
X97490305Y-110400151D01*
X97495831Y-110349286D01*
X97496200Y-110342472D01*
X97496200Y-109669915D01*
X97491725Y-109654676D01*
X97490335Y-109653471D01*
X97482652Y-109651800D01*
X94698316Y-109651800D01*
X94683077Y-109656275D01*
X94681872Y-109657665D01*
X94680201Y-109665348D01*
X94680201Y-110342469D01*
X94680571Y-110349290D01*
X94686095Y-110400152D01*
X94689721Y-110415404D01*
X94734876Y-110535854D01*
X94743414Y-110551449D01*
X94819915Y-110653524D01*
X94832476Y-110666085D01*
X94934551Y-110742586D01*
X94950146Y-110751124D01*
X95009740Y-110773465D01*
X95066504Y-110816107D01*
X95091204Y-110882668D01*
X95075996Y-110952017D01*
X95056604Y-110978498D01*
X94989839Y-111048364D01*
X94986925Y-111052636D01*
X94986924Y-111052637D01*
X94971352Y-111075465D01*
X94859319Y-111239699D01*
X94761802Y-111449781D01*
X94699907Y-111672969D01*
X94675295Y-111903269D01*
X94675592Y-111908422D01*
X94675592Y-111908425D01*
X94681714Y-112014603D01*
X94688627Y-112134497D01*
X94689764Y-112139543D01*
X94689765Y-112139549D01*
X94696856Y-112171013D01*
X94739546Y-112360442D01*
X94741488Y-112365224D01*
X94741489Y-112365228D01*
X94824740Y-112570250D01*
X94826684Y-112575037D01*
X94947701Y-112772519D01*
X95099347Y-112947584D01*
X95266576Y-113086420D01*
X95277549Y-113095530D01*
X95276509Y-113096782D01*
X95316302Y-113146572D01*
X95325700Y-113194320D01*
X95325700Y-114258024D01*
X95324267Y-114276974D01*
X95322076Y-114291373D01*
X95322076Y-114291379D01*
X95320976Y-114298608D01*
X95321569Y-114305900D01*
X95321569Y-114305903D01*
X95325285Y-114351583D01*
X95325700Y-114361798D01*
X95325700Y-114369925D01*
X95329011Y-114398324D01*
X95329438Y-114402644D01*
X95335391Y-114475826D01*
X95337647Y-114482788D01*
X95338843Y-114488776D01*
X95340251Y-114494733D01*
X95341099Y-114502007D01*
X95343597Y-114508889D01*
X95343598Y-114508893D01*
X95366145Y-114571007D01*
X95367555Y-114575111D01*
X95390187Y-114644975D01*
X95393987Y-114651238D01*
X95396525Y-114656780D01*
X95399267Y-114662256D01*
X95401766Y-114669141D01*
X95405781Y-114675265D01*
X95442015Y-114730532D01*
X95444330Y-114734200D01*
X95482427Y-114796981D01*
X95486141Y-114801186D01*
X95486143Y-114801189D01*
X95489867Y-114805405D01*
X95489838Y-114805431D01*
X95492438Y-114808362D01*
X95495242Y-114811716D01*
X95499254Y-114817835D01*
X95504566Y-114822867D01*
X95555786Y-114871388D01*
X95558228Y-114873766D01*
X100555990Y-119871528D01*
X100568377Y-119885941D01*
X100581346Y-119903564D01*
X100586929Y-119908307D01*
X100621855Y-119937979D01*
X100629371Y-119944909D01*
X100635115Y-119950653D01*
X100637989Y-119952927D01*
X100637996Y-119952933D01*
X100657511Y-119968372D01*
X100660915Y-119971163D01*
X100711272Y-120013945D01*
X100711276Y-120013948D01*
X100716851Y-120018684D01*
X100723368Y-120022012D01*
X100728432Y-120025389D01*
X100733656Y-120028616D01*
X100739400Y-120033160D01*
X100805904Y-120064242D01*
X100809801Y-120066147D01*
X100875204Y-120099543D01*
X100882318Y-120101284D01*
X100888052Y-120103416D01*
X100893848Y-120105344D01*
X100900480Y-120108444D01*
X100972355Y-120123394D01*
X100976639Y-120124364D01*
X101047912Y-120141804D01*
X101053514Y-120142152D01*
X101053517Y-120142152D01*
X101059130Y-120142500D01*
X101059128Y-120142537D01*
X101063027Y-120142773D01*
X101067398Y-120143163D01*
X101074557Y-120144652D01*
X101152377Y-120142546D01*
X101155786Y-120142500D01*
X108142481Y-120142500D01*
X108210602Y-120162502D01*
X108249912Y-120202663D01*
X108254598Y-120210310D01*
X108254605Y-120210320D01*
X108257301Y-120214719D01*
X108408947Y-120389784D01*
X108587149Y-120537730D01*
X108787122Y-120654584D01*
X109003494Y-120737209D01*
X109008560Y-120738240D01*
X109008561Y-120738240D01*
X109061646Y-120749040D01*
X109230456Y-120783385D01*
X109361124Y-120788176D01*
X109456749Y-120791683D01*
X109456753Y-120791683D01*
X109461913Y-120791872D01*
X109467033Y-120791216D01*
X109467035Y-120791216D01*
X109540070Y-120781860D01*
X109691647Y-120762442D01*
X109696595Y-120760957D01*
X109696602Y-120760956D01*
X109908547Y-120697369D01*
X109913490Y-120695886D01*
X109996408Y-120655265D01*
X110116849Y-120596262D01*
X110116852Y-120596260D01*
X110121484Y-120593991D01*
X110310043Y-120459494D01*
X110474103Y-120296005D01*
X110609258Y-120107917D01*
X110644674Y-120036259D01*
X110709584Y-119904922D01*
X110709585Y-119904920D01*
X110711878Y-119900280D01*
X110779208Y-119678671D01*
X110809440Y-119449041D01*
X110811127Y-119380000D01*
X110804832Y-119303434D01*
X110792573Y-119154318D01*
X110792572Y-119154312D01*
X110792149Y-119149167D01*
X110735725Y-118924533D01*
X110643370Y-118712131D01*
X110517564Y-118517665D01*
X110427286Y-118418450D01*
X110396234Y-118354605D01*
X110404629Y-118284106D01*
X110449805Y-118229338D01*
X110476249Y-118215669D01*
X110535854Y-118193324D01*
X110551449Y-118184786D01*
X110653524Y-118108285D01*
X110666085Y-118095724D01*
X110742586Y-117993649D01*
X110751124Y-117978054D01*
X110796278Y-117857606D01*
X110799905Y-117842351D01*
X110805431Y-117791486D01*
X110805800Y-117784672D01*
X110805800Y-117112115D01*
X110801325Y-117096876D01*
X110799935Y-117095671D01*
X110792252Y-117094000D01*
X108007916Y-117094000D01*
X107992677Y-117098475D01*
X107991472Y-117099865D01*
X107989801Y-117107548D01*
X107989801Y-117784669D01*
X107990171Y-117791490D01*
X107995695Y-117842352D01*
X107999321Y-117857604D01*
X108044476Y-117978054D01*
X108053014Y-117993649D01*
X108129515Y-118095724D01*
X108142076Y-118108285D01*
X108244151Y-118184786D01*
X108259746Y-118193324D01*
X108319340Y-118215665D01*
X108376104Y-118258307D01*
X108400804Y-118324868D01*
X108385596Y-118394217D01*
X108366204Y-118420698D01*
X108299439Y-118490564D01*
X108296525Y-118494836D01*
X108296524Y-118494837D01*
X108250365Y-118562504D01*
X108195454Y-118607507D01*
X108146277Y-118617500D01*
X101510828Y-118617500D01*
X101442707Y-118597498D01*
X101421733Y-118580595D01*
X99409023Y-116567885D01*
X107989800Y-116567885D01*
X107994275Y-116583124D01*
X107995665Y-116584329D01*
X108003348Y-116586000D01*
X109125685Y-116586000D01*
X109140924Y-116581525D01*
X109142129Y-116580135D01*
X109143800Y-116572452D01*
X109143800Y-116567885D01*
X109651800Y-116567885D01*
X109656275Y-116583124D01*
X109657665Y-116584329D01*
X109665348Y-116586000D01*
X110787684Y-116586000D01*
X110802923Y-116581525D01*
X110804128Y-116580135D01*
X110805799Y-116572452D01*
X110805799Y-115895331D01*
X110805429Y-115888510D01*
X110799905Y-115837648D01*
X110796279Y-115822396D01*
X110751124Y-115701946D01*
X110742586Y-115686351D01*
X110666085Y-115584276D01*
X110653524Y-115571715D01*
X110551449Y-115495214D01*
X110535854Y-115486676D01*
X110415406Y-115441522D01*
X110400151Y-115437895D01*
X110349286Y-115432369D01*
X110342472Y-115432000D01*
X109669915Y-115432000D01*
X109654676Y-115436475D01*
X109653471Y-115437865D01*
X109651800Y-115445548D01*
X109651800Y-116567885D01*
X109143800Y-116567885D01*
X109143800Y-115450116D01*
X109139325Y-115434877D01*
X109137935Y-115433672D01*
X109130252Y-115432001D01*
X108453131Y-115432001D01*
X108446310Y-115432371D01*
X108395448Y-115437895D01*
X108380196Y-115441521D01*
X108259746Y-115486676D01*
X108244151Y-115495214D01*
X108142076Y-115571715D01*
X108129515Y-115584276D01*
X108053014Y-115686351D01*
X108044476Y-115701946D01*
X107999322Y-115822394D01*
X107995695Y-115837649D01*
X107990169Y-115888514D01*
X107989800Y-115895328D01*
X107989800Y-116567885D01*
X99409023Y-116567885D01*
X96887605Y-114046467D01*
X96853579Y-113984155D01*
X96850700Y-113957372D01*
X96850700Y-113188999D01*
X96870702Y-113120878D01*
X96903531Y-113086420D01*
X97000443Y-113017294D01*
X97164503Y-112853805D01*
X97237103Y-112752771D01*
X97293095Y-112709126D01*
X97339423Y-112700300D01*
X121477481Y-112700300D01*
X121545602Y-112720302D01*
X121584912Y-112760463D01*
X121589598Y-112768110D01*
X121589604Y-112768118D01*
X121592301Y-112772519D01*
X121743947Y-112947584D01*
X121922149Y-113095530D01*
X122122122Y-113212384D01*
X122338494Y-113295009D01*
X122343560Y-113296040D01*
X122343561Y-113296040D01*
X122396646Y-113306840D01*
X122565456Y-113341185D01*
X122696124Y-113345976D01*
X122791749Y-113349483D01*
X122791753Y-113349483D01*
X122796913Y-113349672D01*
X122802033Y-113349016D01*
X122802035Y-113349016D01*
X122875070Y-113339660D01*
X123026647Y-113320242D01*
X123031595Y-113318757D01*
X123031602Y-113318756D01*
X123243547Y-113255169D01*
X123248490Y-113253686D01*
X123253124Y-113251416D01*
X123451849Y-113154062D01*
X123451852Y-113154060D01*
X123456484Y-113151791D01*
X123645043Y-113017294D01*
X123809103Y-112853805D01*
X123881703Y-112752771D01*
X123937695Y-112709126D01*
X123984023Y-112700300D01*
X124595824Y-112700300D01*
X124614774Y-112701733D01*
X124629173Y-112703924D01*
X124629179Y-112703924D01*
X124636408Y-112705024D01*
X124643700Y-112704431D01*
X124643703Y-112704431D01*
X124689383Y-112700715D01*
X124699598Y-112700300D01*
X124707725Y-112700300D01*
X124711361Y-112699876D01*
X124711363Y-112699876D01*
X124714815Y-112699473D01*
X124736124Y-112696989D01*
X124740444Y-112696562D01*
X124813626Y-112690609D01*
X124820588Y-112688353D01*
X124826576Y-112687157D01*
X124832533Y-112685749D01*
X124839807Y-112684901D01*
X124846689Y-112682403D01*
X124846693Y-112682402D01*
X124908807Y-112659855D01*
X124912911Y-112658445D01*
X124982775Y-112635813D01*
X124989038Y-112632013D01*
X124994580Y-112629475D01*
X125000056Y-112626733D01*
X125006941Y-112624234D01*
X125068332Y-112583985D01*
X125072000Y-112581670D01*
X125134781Y-112543573D01*
X125138986Y-112539859D01*
X125138989Y-112539857D01*
X125143205Y-112536133D01*
X125143231Y-112536162D01*
X125146162Y-112533562D01*
X125149516Y-112530758D01*
X125155635Y-112526746D01*
X125209189Y-112470213D01*
X125211566Y-112467772D01*
X127375949Y-110303389D01*
X130082719Y-110303389D01*
X130083236Y-110313239D01*
X130114981Y-110554367D01*
X130117033Y-110564018D01*
X130186106Y-110797204D01*
X130189644Y-110806421D01*
X130294346Y-111025934D01*
X130299284Y-111034486D01*
X130437032Y-111234910D01*
X130443247Y-111242586D01*
X130610657Y-111418999D01*
X130617989Y-111425601D01*
X130810942Y-111573659D01*
X130819213Y-111579030D01*
X131032948Y-111695078D01*
X131041964Y-111699092D01*
X131213825Y-111759951D01*
X131218526Y-111761411D01*
X131642181Y-111874929D01*
X131658057Y-111874551D01*
X131659583Y-111873518D01*
X131663184Y-111866533D01*
X132005431Y-110589250D01*
X132005053Y-110573374D01*
X132004020Y-110571848D01*
X131997035Y-110568247D01*
X130106668Y-110061725D01*
X130092572Y-110062061D01*
X130088809Y-110070847D01*
X130082719Y-110303389D01*
X127375949Y-110303389D01*
X128516230Y-109163108D01*
X128578542Y-109129082D01*
X128605325Y-109126203D01*
X130253314Y-109126203D01*
X130321435Y-109146205D01*
X130367928Y-109199861D01*
X130378032Y-109270135D01*
X130353276Y-109328908D01*
X130343610Y-109341504D01*
X130338238Y-109349777D01*
X130229295Y-109550426D01*
X130226331Y-109564213D01*
X130233995Y-109569923D01*
X132510582Y-110179932D01*
X132571205Y-110216884D01*
X132602226Y-110280744D01*
X132599678Y-110334250D01*
X132500809Y-110703233D01*
X132155056Y-111993600D01*
X132155434Y-112009476D01*
X132156467Y-112011002D01*
X132163452Y-112014603D01*
X132591514Y-112129301D01*
X132596331Y-112130391D01*
X132775581Y-112163613D01*
X132785408Y-112164646D01*
X133028528Y-112171013D01*
X133038378Y-112170496D01*
X133279506Y-112138751D01*
X133289157Y-112136699D01*
X133522344Y-112067626D01*
X133531561Y-112064088D01*
X133751073Y-111959386D01*
X133759626Y-111954447D01*
X133960051Y-111816700D01*
X133967726Y-111810485D01*
X134133399Y-111653266D01*
X134196581Y-111620884D01*
X134267240Y-111627800D01*
X134322942Y-111671820D01*
X134346003Y-111738967D01*
X134332697Y-111801277D01*
X134038628Y-112385968D01*
X134036372Y-112390248D01*
X133823193Y-112776422D01*
X133614725Y-113154062D01*
X133561741Y-113250042D01*
X133559330Y-113254218D01*
X133282316Y-113713428D01*
X133052054Y-114095138D01*
X133049476Y-114099232D01*
X132574137Y-114822867D01*
X132510298Y-114920052D01*
X132507565Y-114924044D01*
X131937251Y-115723594D01*
X131934366Y-115727477D01*
X131849216Y-115837648D01*
X131602985Y-116156235D01*
X131333829Y-116504482D01*
X131330798Y-116508253D01*
X130700830Y-117261685D01*
X130697656Y-117265336D01*
X130039239Y-117994021D01*
X130035927Y-117997547D01*
X129350052Y-118700390D01*
X129346609Y-118703786D01*
X129160277Y-118880609D01*
X128634218Y-119379820D01*
X128630645Y-119383082D01*
X128551789Y-119452359D01*
X127962865Y-119969741D01*
X127892863Y-120031239D01*
X127889177Y-120034354D01*
X127470712Y-120374432D01*
X127127020Y-120653743D01*
X127123213Y-120656717D01*
X126689659Y-120982239D01*
X126337862Y-121246376D01*
X126333938Y-121249206D01*
X125526533Y-121808278D01*
X125522504Y-121810955D01*
X124694229Y-122338625D01*
X124690100Y-122341146D01*
X123842157Y-122836644D01*
X123837954Y-122838992D01*
X122971641Y-123301560D01*
X122967331Y-123303756D01*
X122083895Y-123732730D01*
X122079537Y-123734744D01*
X121180243Y-124129506D01*
X121175805Y-124131353D01*
X120335871Y-124462212D01*
X120262047Y-124491292D01*
X120257513Y-124492978D01*
X119330631Y-124817568D01*
X119326035Y-124819079D01*
X118387368Y-125107850D01*
X118382718Y-125109183D01*
X117847786Y-125251518D01*
X117433657Y-125361709D01*
X117428996Y-125362854D01*
X116470923Y-125578765D01*
X116466203Y-125579734D01*
X115500546Y-125758709D01*
X115495791Y-125759496D01*
X115291749Y-125789262D01*
X114524013Y-125901262D01*
X114519213Y-125901869D01*
X114030940Y-125954051D01*
X113542646Y-126006234D01*
X113537869Y-126006651D01*
X112948936Y-126046801D01*
X112558080Y-126073447D01*
X112553248Y-126073684D01*
X112062409Y-126088252D01*
X111571558Y-126102820D01*
X111566747Y-126102870D01*
X110888767Y-126096953D01*
X110584714Y-126094299D01*
X110579879Y-126094164D01*
X110145599Y-126073684D01*
X109598902Y-126047902D01*
X109594091Y-126047584D01*
X108615562Y-125963694D01*
X108610768Y-125963190D01*
X107636220Y-125841804D01*
X107631435Y-125841114D01*
X106662276Y-125682408D01*
X106657518Y-125681535D01*
X105695140Y-125485737D01*
X105690418Y-125484681D01*
X104736289Y-125252089D01*
X104731612Y-125250853D01*
X104110820Y-125074016D01*
X103787117Y-124981807D01*
X103782498Y-124980395D01*
X102849015Y-124675286D01*
X102844446Y-124673695D01*
X101923369Y-124332978D01*
X101918865Y-124331213D01*
X101011537Y-123955386D01*
X101007104Y-123953449D01*
X100521289Y-123729999D01*
X100114868Y-123543066D01*
X100110541Y-123540974D01*
X99234710Y-123096640D01*
X99230447Y-123094373D01*
X98999417Y-122965783D01*
X98372346Y-122616760D01*
X98368165Y-122614327D01*
X97914715Y-122338625D01*
X97529008Y-122104111D01*
X97524951Y-122101537D01*
X96705966Y-121559462D01*
X96701992Y-121556720D01*
X95904502Y-120983664D01*
X95900628Y-120980767D01*
X95141475Y-120389784D01*
X95125659Y-120377471D01*
X95121906Y-120374432D01*
X94870231Y-120162502D01*
X94370691Y-119741850D01*
X94367068Y-119738678D01*
X93640685Y-119077720D01*
X93637170Y-119074396D01*
X92936688Y-118386033D01*
X92933304Y-118382577D01*
X92259798Y-117667872D01*
X92256548Y-117664288D01*
X92182453Y-117579351D01*
X91610941Y-116924214D01*
X91607865Y-116920548D01*
X91135307Y-116334900D01*
X90991143Y-116156235D01*
X90988178Y-116152413D01*
X90401254Y-115364995D01*
X90398438Y-115361061D01*
X90096735Y-114922081D01*
X89842171Y-114551687D01*
X89839540Y-114547698D01*
X89314748Y-113717560D01*
X89312246Y-113713428D01*
X88819723Y-112863779D01*
X88817378Y-112859548D01*
X88357847Y-111991647D01*
X88355665Y-111987329D01*
X88201981Y-111667997D01*
X87929768Y-111102379D01*
X87927757Y-111097987D01*
X87906180Y-111048364D01*
X87536149Y-110197349D01*
X87534310Y-110192888D01*
X87529259Y-110179932D01*
X87177574Y-109277904D01*
X87175907Y-109273375D01*
X87124765Y-109125685D01*
X94680200Y-109125685D01*
X94684675Y-109140924D01*
X94686065Y-109142129D01*
X94693748Y-109143800D01*
X95816085Y-109143800D01*
X95831324Y-109139325D01*
X95832529Y-109137935D01*
X95834200Y-109130252D01*
X95834200Y-109125685D01*
X96342200Y-109125685D01*
X96346675Y-109140924D01*
X96348065Y-109142129D01*
X96355748Y-109143800D01*
X97478084Y-109143800D01*
X97493323Y-109139325D01*
X97494528Y-109137935D01*
X97496199Y-109130252D01*
X97496199Y-109125685D01*
X121324800Y-109125685D01*
X121329275Y-109140924D01*
X121330665Y-109142129D01*
X121338348Y-109143800D01*
X122460685Y-109143800D01*
X122475924Y-109139325D01*
X122477129Y-109137935D01*
X122478800Y-109130252D01*
X122478800Y-109125685D01*
X122986800Y-109125685D01*
X122991275Y-109140924D01*
X122992665Y-109142129D01*
X123000348Y-109143800D01*
X124122684Y-109143800D01*
X124137923Y-109139325D01*
X124139128Y-109137935D01*
X124140799Y-109130252D01*
X124140799Y-108453131D01*
X124140429Y-108446310D01*
X124134905Y-108395448D01*
X124131279Y-108380196D01*
X124086124Y-108259746D01*
X124077586Y-108244151D01*
X124001085Y-108142076D01*
X123988524Y-108129515D01*
X123886449Y-108053014D01*
X123870854Y-108044476D01*
X123750406Y-107999322D01*
X123735151Y-107995695D01*
X123684286Y-107990169D01*
X123677472Y-107989800D01*
X123004915Y-107989800D01*
X122989676Y-107994275D01*
X122988471Y-107995665D01*
X122986800Y-108003348D01*
X122986800Y-109125685D01*
X122478800Y-109125685D01*
X122478800Y-108007916D01*
X122474325Y-107992677D01*
X122472935Y-107991472D01*
X122465252Y-107989801D01*
X121788131Y-107989801D01*
X121781310Y-107990171D01*
X121730448Y-107995695D01*
X121715196Y-107999321D01*
X121594746Y-108044476D01*
X121579151Y-108053014D01*
X121477076Y-108129515D01*
X121464515Y-108142076D01*
X121388014Y-108244151D01*
X121379476Y-108259746D01*
X121334322Y-108380194D01*
X121330695Y-108395449D01*
X121325169Y-108446314D01*
X121324800Y-108453128D01*
X121324800Y-109125685D01*
X97496199Y-109125685D01*
X97496199Y-108453131D01*
X97495829Y-108446310D01*
X97490305Y-108395448D01*
X97486679Y-108380196D01*
X97441524Y-108259746D01*
X97432986Y-108244151D01*
X97356485Y-108142076D01*
X97343924Y-108129515D01*
X97241849Y-108053014D01*
X97226254Y-108044476D01*
X97105806Y-107999322D01*
X97090551Y-107995695D01*
X97039686Y-107990169D01*
X97032872Y-107989800D01*
X96360315Y-107989800D01*
X96345076Y-107994275D01*
X96343871Y-107995665D01*
X96342200Y-108003348D01*
X96342200Y-109125685D01*
X95834200Y-109125685D01*
X95834200Y-108007916D01*
X95829725Y-107992677D01*
X95828335Y-107991472D01*
X95820652Y-107989801D01*
X95143531Y-107989801D01*
X95136710Y-107990171D01*
X95085848Y-107995695D01*
X95070596Y-107999321D01*
X94950146Y-108044476D01*
X94934551Y-108053014D01*
X94832476Y-108129515D01*
X94819915Y-108142076D01*
X94743414Y-108244151D01*
X94734876Y-108259746D01*
X94689722Y-108380194D01*
X94686095Y-108395449D01*
X94680569Y-108446314D01*
X94680200Y-108453128D01*
X94680200Y-109125685D01*
X87124765Y-109125685D01*
X86854548Y-108345345D01*
X86853053Y-108340744D01*
X86567562Y-107401082D01*
X86566245Y-107396428D01*
X86434063Y-106892581D01*
X86317024Y-106446455D01*
X86315896Y-106441788D01*
X86308518Y-106408504D01*
X86103341Y-105483012D01*
X86102387Y-105478285D01*
X86030720Y-105083924D01*
X85999759Y-104913562D01*
X85926784Y-104512004D01*
X85926011Y-104507229D01*
X85850255Y-103974937D01*
X85787636Y-103534957D01*
X85787048Y-103530169D01*
X85686093Y-102553241D01*
X85685691Y-102548444D01*
X85679167Y-102447545D01*
X85622318Y-101568451D01*
X85622098Y-101563619D01*
X85618675Y-101432888D01*
X85596389Y-100581847D01*
X85596355Y-100577035D01*
X85596726Y-100546737D01*
X85608355Y-99595004D01*
X85608506Y-99590191D01*
X85612572Y-99509943D01*
X85658193Y-98609344D01*
X85658530Y-98604535D01*
X85664260Y-98540339D01*
X85745829Y-97626371D01*
X85746351Y-97621563D01*
X85783938Y-97328152D01*
X85871143Y-96647408D01*
X85871847Y-96642645D01*
X85927304Y-96311251D01*
X86033938Y-95674031D01*
X86034826Y-95669287D01*
X86233978Y-94707618D01*
X86235050Y-94702900D01*
X86470971Y-93749590D01*
X86472223Y-93744917D01*
X86744564Y-92801367D01*
X86745994Y-92796746D01*
X86815703Y-92585965D01*
X87054368Y-91864310D01*
X87055970Y-91859762D01*
X87089909Y-91768990D01*
X87399900Y-90939879D01*
X87401681Y-90935381D01*
X87558127Y-90561384D01*
X87780669Y-90029381D01*
X87782615Y-90024968D01*
X87851917Y-89875671D01*
X88196113Y-89134164D01*
X88198234Y-89129816D01*
X88645612Y-88255562D01*
X88647898Y-88251299D01*
X88650070Y-88247430D01*
X89128503Y-87394872D01*
X89130951Y-87390699D01*
X89644098Y-86553319D01*
X89646705Y-86549244D01*
X90048404Y-85946921D01*
X90054031Y-85938484D01*
X104894569Y-85938484D01*
X104894704Y-85940351D01*
X104898931Y-85946921D01*
X111162988Y-92210978D01*
X111176932Y-92218592D01*
X111178765Y-92218461D01*
X111185380Y-92214210D01*
X117446879Y-85952711D01*
X117454493Y-85938767D01*
X117454415Y-85937664D01*
X117449405Y-85930052D01*
X117287189Y-85774765D01*
X117284190Y-85772074D01*
X116835100Y-85394573D01*
X116831924Y-85392075D01*
X116359438Y-85044364D01*
X116356079Y-85042056D01*
X115862149Y-84725567D01*
X115858631Y-84723470D01*
X115345317Y-84439520D01*
X115341692Y-84437665D01*
X114811122Y-84187432D01*
X114807354Y-84185802D01*
X114261747Y-83970331D01*
X114257918Y-83968960D01*
X113699495Y-83789132D01*
X113695620Y-83788021D01*
X113126782Y-83644612D01*
X113122776Y-83643738D01*
X112545873Y-83537336D01*
X112541882Y-83536732D01*
X111959267Y-83467775D01*
X111955265Y-83467432D01*
X111369404Y-83436216D01*
X111365387Y-83436132D01*
X110778764Y-83442787D01*
X110774702Y-83442964D01*
X110189743Y-83487461D01*
X110185716Y-83487898D01*
X109604873Y-83570047D01*
X109600836Y-83570751D01*
X109026498Y-83690214D01*
X109022550Y-83691170D01*
X108457115Y-83847447D01*
X108453223Y-83848660D01*
X107899039Y-84041104D01*
X107895256Y-84042557D01*
X107354657Y-84270359D01*
X107350958Y-84272060D01*
X106826168Y-84534283D01*
X106822617Y-84536203D01*
X106315833Y-84831751D01*
X106312411Y-84833898D01*
X105825764Y-85161528D01*
X105822473Y-85163901D01*
X105358010Y-85522232D01*
X105354855Y-85524831D01*
X104914464Y-85912405D01*
X104911518Y-85915173D01*
X104902167Y-85924541D01*
X104894569Y-85938484D01*
X90054031Y-85938484D01*
X90191592Y-85732219D01*
X90194349Y-85728252D01*
X90770218Y-84932721D01*
X90773103Y-84928891D01*
X91379106Y-84156027D01*
X91382164Y-84152278D01*
X92017362Y-83403279D01*
X92020561Y-83399651D01*
X92684024Y-82675607D01*
X92687360Y-82672103D01*
X93378164Y-81974028D01*
X93381632Y-81970656D01*
X94098697Y-81299637D01*
X94102293Y-81296399D01*
X94236642Y-81180023D01*
X94844601Y-80653393D01*
X94848317Y-80650297D01*
X95614755Y-80036264D01*
X95618588Y-80033312D01*
X96408053Y-79449139D01*
X96411997Y-79446337D01*
X96563598Y-79342922D01*
X97223282Y-78892916D01*
X97227319Y-78890274D01*
X98059256Y-78368402D01*
X98063389Y-78365918D01*
X98914762Y-77876357D01*
X98919001Y-77874026D01*
X99648427Y-77491068D01*
X99788547Y-77417503D01*
X99792838Y-77415355D01*
X100679275Y-76992547D01*
X100683651Y-76990562D01*
X101585652Y-76602099D01*
X101590110Y-76600280D01*
X102506363Y-76246727D01*
X102510874Y-76245084D01*
X103272600Y-75984287D01*
X103440030Y-75926963D01*
X103444636Y-75925484D01*
X103491723Y-75911357D01*
X104385312Y-75643268D01*
X104389925Y-75641980D01*
X105340743Y-75396082D01*
X105345449Y-75394961D01*
X105533308Y-75354001D01*
X106305021Y-75185740D01*
X106309717Y-75184811D01*
X107276593Y-75012585D01*
X107281334Y-75011834D01*
X108254117Y-74876849D01*
X108258904Y-74876278D01*
X109236153Y-74778736D01*
X109240939Y-74778350D01*
X110221210Y-74718394D01*
X110226003Y-74718193D01*
X111207898Y-74695911D01*
X111212698Y-74695895D01*
X111714619Y-74703779D01*
G37*
%TD.AperFunction*%
%TD*%
M02*
