%TF.GenerationSoftware,KiCad,Pcbnew,(6.0.4)*%
%TF.CreationDate,2022-06-06T16:45:48-07:00*%
%TF.ProjectId,Alpenglow_ChillySnowCloud_PCB,416c7065-6e67-46c6-9f77-5f4368696c6c,rev?*%
%TF.SameCoordinates,Original*%
%TF.FileFunction,Legend,Bot*%
%TF.FilePolarity,Positive*%
%FSLAX46Y46*%
G04 Gerber Fmt 4.6, Leading zero omitted, Abs format (unit mm)*
G04 Created by KiCad (PCBNEW (6.0.4)) date 2022-06-06 16:45:48*
%MOMM*%
%LPD*%
G01*
G04 APERTURE LIST*
G04 Aperture macros list*
%AMRoundRect*
0 Rectangle with rounded corners*
0 $1 Rounding radius*
0 $2 $3 $4 $5 $6 $7 $8 $9 X,Y pos of 4 corners*
0 Add a 4 corners polygon primitive as box body*
4,1,4,$2,$3,$4,$5,$6,$7,$8,$9,$2,$3,0*
0 Add four circle primitives for the rounded corners*
1,1,$1+$1,$2,$3*
1,1,$1+$1,$4,$5*
1,1,$1+$1,$6,$7*
1,1,$1+$1,$8,$9*
0 Add four rect primitives between the rounded corners*
20,1,$1+$1,$2,$3,$4,$5,0*
20,1,$1+$1,$4,$5,$6,$7,0*
20,1,$1+$1,$6,$7,$8,$9,0*
20,1,$1+$1,$8,$9,$2,$3,0*%
%AMHorizOval*
0 Thick line with rounded ends*
0 $1 width*
0 $2 $3 position (X,Y) of the first rounded end (center of the circle)*
0 $4 $5 position (X,Y) of the second rounded end (center of the circle)*
0 Add line between two ends*
20,1,$1,$2,$3,$4,$5,0*
0 Add two circle primitives to create the rounded ends*
1,1,$1,$2,$3*
1,1,$1,$4,$5*%
G04 Aperture macros list end*
%ADD10C,0.203200*%
%ADD11C,0.150000*%
%ADD12C,0.177800*%
%ADD13C,0.254000*%
%ADD14C,0.010000*%
%ADD15RoundRect,0.050000X-0.900000X0.900000X-0.900000X-0.900000X0.900000X-0.900000X0.900000X0.900000X0*%
%ADD16C,1.900000*%
%ADD17O,2.600000X4.100000*%
%ADD18C,17.372000*%
%ADD19HorizOval,2.300000X-0.627852X0.168232X0.627852X-0.168232X0*%
%ADD20RoundRect,0.050000X-1.013293X1.047968X-1.401522X-0.400921X1.013293X-1.047968X1.401522X0.400921X0*%
%ADD21HorizOval,1.600000X-0.482963X0.129410X0.482963X-0.129410X0*%
G04 APERTURE END LIST*
D10*
X118784914Y-78914171D02*
X118845390Y-78974647D01*
X119026819Y-79035123D01*
X119147771Y-79035123D01*
X119329200Y-78974647D01*
X119450152Y-78853695D01*
X119510628Y-78732742D01*
X119571104Y-78490838D01*
X119571104Y-78309409D01*
X119510628Y-78067504D01*
X119450152Y-77946552D01*
X119329200Y-77825600D01*
X119147771Y-77765123D01*
X119026819Y-77765123D01*
X118845390Y-77825600D01*
X118784914Y-77886076D01*
X118240628Y-79035123D02*
X118240628Y-77765123D01*
X117696342Y-79035123D02*
X117696342Y-78369885D01*
X117756819Y-78248933D01*
X117877771Y-78188457D01*
X118059200Y-78188457D01*
X118180152Y-78248933D01*
X118240628Y-78309409D01*
X117091580Y-79035123D02*
X117091580Y-78188457D01*
X117091580Y-77765123D02*
X117152057Y-77825600D01*
X117091580Y-77886076D01*
X117031104Y-77825600D01*
X117091580Y-77765123D01*
X117091580Y-77886076D01*
X116305390Y-79035123D02*
X116426342Y-78974647D01*
X116486819Y-78853695D01*
X116486819Y-77765123D01*
X115640152Y-79035123D02*
X115761104Y-78974647D01*
X115821580Y-78853695D01*
X115821580Y-77765123D01*
X115277295Y-78188457D02*
X114974914Y-79035123D01*
X114672533Y-78188457D02*
X114974914Y-79035123D01*
X115095866Y-79337504D01*
X115156342Y-79397980D01*
X115277295Y-79458457D01*
X113281580Y-78974647D02*
X113100152Y-79035123D01*
X112797771Y-79035123D01*
X112676819Y-78974647D01*
X112616342Y-78914171D01*
X112555866Y-78793219D01*
X112555866Y-78672266D01*
X112616342Y-78551314D01*
X112676819Y-78490838D01*
X112797771Y-78430361D01*
X113039676Y-78369885D01*
X113160628Y-78309409D01*
X113221104Y-78248933D01*
X113281580Y-78127980D01*
X113281580Y-78007028D01*
X113221104Y-77886076D01*
X113160628Y-77825600D01*
X113039676Y-77765123D01*
X112737295Y-77765123D01*
X112555866Y-77825600D01*
X112011580Y-78188457D02*
X112011580Y-79035123D01*
X112011580Y-78309409D02*
X111951104Y-78248933D01*
X111830152Y-78188457D01*
X111648723Y-78188457D01*
X111527771Y-78248933D01*
X111467295Y-78369885D01*
X111467295Y-79035123D01*
X110681104Y-79035123D02*
X110802057Y-78974647D01*
X110862533Y-78914171D01*
X110923009Y-78793219D01*
X110923009Y-78430361D01*
X110862533Y-78309409D01*
X110802057Y-78248933D01*
X110681104Y-78188457D01*
X110499676Y-78188457D01*
X110378723Y-78248933D01*
X110318247Y-78309409D01*
X110257771Y-78430361D01*
X110257771Y-78793219D01*
X110318247Y-78914171D01*
X110378723Y-78974647D01*
X110499676Y-79035123D01*
X110681104Y-79035123D01*
X109834438Y-78188457D02*
X109592533Y-79035123D01*
X109350628Y-78430361D01*
X109108723Y-79035123D01*
X108866819Y-78188457D01*
X106689676Y-78914171D02*
X106750152Y-78974647D01*
X106931580Y-79035123D01*
X107052533Y-79035123D01*
X107233961Y-78974647D01*
X107354914Y-78853695D01*
X107415390Y-78732742D01*
X107475866Y-78490838D01*
X107475866Y-78309409D01*
X107415390Y-78067504D01*
X107354914Y-77946552D01*
X107233961Y-77825600D01*
X107052533Y-77765123D01*
X106931580Y-77765123D01*
X106750152Y-77825600D01*
X106689676Y-77886076D01*
X105963961Y-79035123D02*
X106084914Y-78974647D01*
X106145390Y-78853695D01*
X106145390Y-77765123D01*
X105298723Y-79035123D02*
X105419676Y-78974647D01*
X105480152Y-78914171D01*
X105540628Y-78793219D01*
X105540628Y-78430361D01*
X105480152Y-78309409D01*
X105419676Y-78248933D01*
X105298723Y-78188457D01*
X105117295Y-78188457D01*
X104996342Y-78248933D01*
X104935866Y-78309409D01*
X104875390Y-78430361D01*
X104875390Y-78793219D01*
X104935866Y-78914171D01*
X104996342Y-78974647D01*
X105117295Y-79035123D01*
X105298723Y-79035123D01*
X103786819Y-78188457D02*
X103786819Y-79035123D01*
X104331104Y-78188457D02*
X104331104Y-78853695D01*
X104270628Y-78974647D01*
X104149676Y-79035123D01*
X103968247Y-79035123D01*
X103847295Y-78974647D01*
X103786819Y-78914171D01*
X102637771Y-79035123D02*
X102637771Y-77765123D01*
X102637771Y-78974647D02*
X102758723Y-79035123D01*
X103000628Y-79035123D01*
X103121580Y-78974647D01*
X103182057Y-78914171D01*
X103242533Y-78793219D01*
X103242533Y-78430361D01*
X103182057Y-78309409D01*
X103121580Y-78248933D01*
X103000628Y-78188457D01*
X102758723Y-78188457D01*
X102637771Y-78248933D01*
D11*
X136138863Y-99107734D02*
X135954877Y-99058436D01*
X135850560Y-99079783D01*
X135733917Y-99147126D01*
X135638622Y-99318787D01*
X135552349Y-99640763D01*
X135549046Y-99837073D01*
X135616390Y-99953716D01*
X135696058Y-100024361D01*
X135880044Y-100073660D01*
X135984362Y-100052313D01*
X136101004Y-99984970D01*
X136196299Y-99813309D01*
X136282572Y-99491333D01*
X136285875Y-99295023D01*
X136218531Y-99178380D01*
X136138863Y-99107734D01*
X134865704Y-99259581D02*
X135187680Y-99345854D01*
X135052108Y-99851815D02*
X135310927Y-98885890D01*
X134850962Y-98762642D01*
X134037768Y-99037736D02*
X134359743Y-99124009D01*
X134224171Y-99629970D02*
X134482990Y-98664045D01*
X134023026Y-98540797D01*
D12*
X115578466Y-109386914D02*
X114610847Y-109386914D01*
X113098942Y-109810247D02*
X112917514Y-109870723D01*
X112615133Y-109870723D01*
X112494180Y-109810247D01*
X112433704Y-109749771D01*
X112373228Y-109628819D01*
X112373228Y-109507866D01*
X112433704Y-109386914D01*
X112494180Y-109326438D01*
X112615133Y-109265961D01*
X112857038Y-109205485D01*
X112977990Y-109145009D01*
X113038466Y-109084533D01*
X113098942Y-108963580D01*
X113098942Y-108842628D01*
X113038466Y-108721676D01*
X112977990Y-108661200D01*
X112857038Y-108600723D01*
X112554657Y-108600723D01*
X112373228Y-108661200D01*
X111828942Y-109870723D02*
X111828942Y-108600723D01*
X111828942Y-109205485D02*
X111103228Y-109205485D01*
X111103228Y-109870723D02*
X111103228Y-108600723D01*
X110256561Y-108600723D02*
X110014657Y-108600723D01*
X109893704Y-108661200D01*
X109772752Y-108782152D01*
X109712276Y-109024057D01*
X109712276Y-109447390D01*
X109772752Y-109689295D01*
X109893704Y-109810247D01*
X110014657Y-109870723D01*
X110256561Y-109870723D01*
X110377514Y-109810247D01*
X110498466Y-109689295D01*
X110558942Y-109447390D01*
X110558942Y-109024057D01*
X110498466Y-108782152D01*
X110377514Y-108661200D01*
X110256561Y-108600723D01*
X108442276Y-109870723D02*
X108865609Y-109265961D01*
X109167990Y-109870723D02*
X109167990Y-108600723D01*
X108684180Y-108600723D01*
X108563228Y-108661200D01*
X108502752Y-108721676D01*
X108442276Y-108842628D01*
X108442276Y-109024057D01*
X108502752Y-109145009D01*
X108563228Y-109205485D01*
X108684180Y-109265961D01*
X109167990Y-109265961D01*
X108079419Y-108600723D02*
X107353704Y-108600723D01*
X107716561Y-109870723D02*
X107716561Y-108600723D01*
X109881609Y-121858314D02*
X108913990Y-121858314D01*
X109397800Y-122342123D02*
X109397800Y-121374504D01*
X117529428Y-80716361D02*
X117589904Y-80655885D01*
X117710857Y-80595409D01*
X117831809Y-80595409D01*
X117952761Y-80655885D01*
X118013238Y-80716361D01*
X118073714Y-80837314D01*
X118073714Y-80958266D01*
X118013238Y-81079219D01*
X117952761Y-81139695D01*
X117831809Y-81200171D01*
X117710857Y-81200171D01*
X117589904Y-81139695D01*
X117529428Y-81079219D01*
X117529428Y-80595409D02*
X117529428Y-81079219D01*
X117468952Y-81139695D01*
X117408476Y-81139695D01*
X117287523Y-81079219D01*
X117227047Y-80958266D01*
X117227047Y-80655885D01*
X117348000Y-80474457D01*
X117529428Y-80353504D01*
X117771333Y-80293028D01*
X118013238Y-80353504D01*
X118194666Y-80474457D01*
X118315619Y-80655885D01*
X118376095Y-80897790D01*
X118315619Y-81139695D01*
X118194666Y-81321123D01*
X118013238Y-81442076D01*
X117771333Y-81502552D01*
X117529428Y-81442076D01*
X117348000Y-81321123D01*
X116743238Y-80958266D02*
X116138476Y-80958266D01*
X116864190Y-81321123D02*
X116440857Y-80051123D01*
X116017523Y-81321123D01*
X115412761Y-81321123D02*
X115533714Y-81260647D01*
X115594190Y-81139695D01*
X115594190Y-80051123D01*
X114928952Y-80474457D02*
X114928952Y-81744457D01*
X114928952Y-80534933D02*
X114808000Y-80474457D01*
X114566095Y-80474457D01*
X114445142Y-80534933D01*
X114384666Y-80595409D01*
X114324190Y-80716361D01*
X114324190Y-81079219D01*
X114384666Y-81200171D01*
X114445142Y-81260647D01*
X114566095Y-81321123D01*
X114808000Y-81321123D01*
X114928952Y-81260647D01*
X113296095Y-81260647D02*
X113417047Y-81321123D01*
X113658952Y-81321123D01*
X113779904Y-81260647D01*
X113840380Y-81139695D01*
X113840380Y-80655885D01*
X113779904Y-80534933D01*
X113658952Y-80474457D01*
X113417047Y-80474457D01*
X113296095Y-80534933D01*
X113235619Y-80655885D01*
X113235619Y-80776838D01*
X113840380Y-80897790D01*
X112691333Y-80474457D02*
X112691333Y-81321123D01*
X112691333Y-80595409D02*
X112630857Y-80534933D01*
X112509904Y-80474457D01*
X112328476Y-80474457D01*
X112207523Y-80534933D01*
X112147047Y-80655885D01*
X112147047Y-81321123D01*
X110998000Y-80474457D02*
X110998000Y-81502552D01*
X111058476Y-81623504D01*
X111118952Y-81683980D01*
X111239904Y-81744457D01*
X111421333Y-81744457D01*
X111542285Y-81683980D01*
X110998000Y-81260647D02*
X111118952Y-81321123D01*
X111360857Y-81321123D01*
X111481809Y-81260647D01*
X111542285Y-81200171D01*
X111602761Y-81079219D01*
X111602761Y-80716361D01*
X111542285Y-80595409D01*
X111481809Y-80534933D01*
X111360857Y-80474457D01*
X111118952Y-80474457D01*
X110998000Y-80534933D01*
X110211809Y-81321123D02*
X110332761Y-81260647D01*
X110393238Y-81139695D01*
X110393238Y-80051123D01*
X109546571Y-81321123D02*
X109667523Y-81260647D01*
X109728000Y-81200171D01*
X109788476Y-81079219D01*
X109788476Y-80716361D01*
X109728000Y-80595409D01*
X109667523Y-80534933D01*
X109546571Y-80474457D01*
X109365142Y-80474457D01*
X109244190Y-80534933D01*
X109183714Y-80595409D01*
X109123238Y-80716361D01*
X109123238Y-81079219D01*
X109183714Y-81200171D01*
X109244190Y-81260647D01*
X109365142Y-81321123D01*
X109546571Y-81321123D01*
X108699904Y-80474457D02*
X108458000Y-81321123D01*
X108216095Y-80716361D01*
X107974190Y-81321123D01*
X107732285Y-80474457D01*
X107248476Y-81321123D02*
X107248476Y-80051123D01*
X106643714Y-80474457D02*
X106643714Y-81321123D01*
X106643714Y-80595409D02*
X106583238Y-80534933D01*
X106462285Y-80474457D01*
X106280857Y-80474457D01*
X106159904Y-80534933D01*
X106099428Y-80655885D01*
X106099428Y-81321123D01*
X104950380Y-81321123D02*
X104950380Y-80051123D01*
X104950380Y-81260647D02*
X105071333Y-81321123D01*
X105313238Y-81321123D01*
X105434190Y-81260647D01*
X105494666Y-81200171D01*
X105555142Y-81079219D01*
X105555142Y-80716361D01*
X105494666Y-80595409D01*
X105434190Y-80534933D01*
X105313238Y-80474457D01*
X105071333Y-80474457D01*
X104950380Y-80534933D01*
X115359542Y-107050114D02*
X114391923Y-107050114D01*
X114875733Y-107533923D02*
X114875733Y-106566304D01*
X112214780Y-107533923D02*
X112819542Y-107533923D01*
X112819542Y-106263923D01*
X111549542Y-106263923D02*
X111307638Y-106263923D01*
X111186685Y-106324400D01*
X111065733Y-106445352D01*
X111005257Y-106687257D01*
X111005257Y-107110590D01*
X111065733Y-107352495D01*
X111186685Y-107473447D01*
X111307638Y-107533923D01*
X111549542Y-107533923D01*
X111670495Y-107473447D01*
X111791447Y-107352495D01*
X111851923Y-107110590D01*
X111851923Y-106687257D01*
X111791447Y-106445352D01*
X111670495Y-106324400D01*
X111549542Y-106263923D01*
X110460971Y-107533923D02*
X110460971Y-106263923D01*
X109735257Y-107533923D01*
X109735257Y-106263923D01*
X108465257Y-106324400D02*
X108586209Y-106263923D01*
X108767638Y-106263923D01*
X108949066Y-106324400D01*
X109070019Y-106445352D01*
X109130495Y-106566304D01*
X109190971Y-106808209D01*
X109190971Y-106989638D01*
X109130495Y-107231542D01*
X109070019Y-107352495D01*
X108949066Y-107473447D01*
X108767638Y-107533923D01*
X108646685Y-107533923D01*
X108465257Y-107473447D01*
X108404780Y-107412971D01*
X108404780Y-106989638D01*
X108646685Y-106989638D01*
X123292809Y-106770714D02*
X122325190Y-106770714D01*
X93803409Y-111977714D02*
X92835790Y-111977714D01*
X93319600Y-112461523D02*
X93319600Y-111493904D01*
X123191209Y-114695514D02*
X122223590Y-114695514D01*
X122707400Y-115179323D02*
X122707400Y-114211704D01*
D11*
X131905288Y-112940661D02*
X131721302Y-112891363D01*
X131616984Y-112912710D01*
X131500342Y-112980053D01*
X131405047Y-113151714D01*
X131318774Y-113473690D01*
X131315471Y-113670000D01*
X131382815Y-113786642D01*
X131462483Y-113857288D01*
X131646469Y-113906587D01*
X131750786Y-113885240D01*
X131867429Y-113817897D01*
X131962724Y-113646236D01*
X132048997Y-113324260D01*
X132052300Y-113127950D01*
X131984956Y-113011307D01*
X131905288Y-112940661D01*
X130818532Y-113684742D02*
X131077351Y-112718817D01*
X130266575Y-113536846D01*
X130525394Y-112570920D01*
D12*
X109703809Y-114136714D02*
X108736190Y-114136714D01*
X93625609Y-109564714D02*
X92657990Y-109564714D01*
D11*
%TO.C,BT1*%
X122502514Y-81335571D02*
X122359657Y-81383190D01*
X122312038Y-81430809D01*
X122264419Y-81526047D01*
X122264419Y-81668904D01*
X122312038Y-81764142D01*
X122359657Y-81811761D01*
X122454895Y-81859380D01*
X122835847Y-81859380D01*
X122835847Y-80859380D01*
X122502514Y-80859380D01*
X122407276Y-80907000D01*
X122359657Y-80954619D01*
X122312038Y-81049857D01*
X122312038Y-81145095D01*
X122359657Y-81240333D01*
X122407276Y-81287952D01*
X122502514Y-81335571D01*
X122835847Y-81335571D01*
X121978704Y-80859380D02*
X121407276Y-80859380D01*
X121692990Y-81859380D02*
X121692990Y-80859380D01*
X120550133Y-81859380D02*
X121121561Y-81859380D01*
X120835847Y-81859380D02*
X120835847Y-80859380D01*
X120931085Y-81002238D01*
X121026323Y-81097476D01*
X121121561Y-81145095D01*
D13*
X104952800Y-103759000D02*
X98602800Y-98171000D01*
X123494800Y-82677000D02*
X123494800Y-98171000D01*
X123494800Y-82677000D02*
X98602800Y-82677000D01*
X98602800Y-82677000D02*
X98602800Y-98171000D01*
X117398800Y-103759000D02*
X104952800Y-103759000D01*
X117398800Y-103759000D02*
X123494800Y-98171000D01*
D11*
%TO.C,SW1*%
X132273654Y-101683087D02*
X130047811Y-109990049D01*
X136716913Y-102873654D02*
X136147511Y-104998691D01*
X135086353Y-108958987D02*
X134491069Y-111180617D01*
%TO.C,G\u002A\u002A\u002A*%
G36*
X95497327Y-86464223D02*
G01*
X95556358Y-86502305D01*
X95672025Y-86593624D01*
X95757292Y-86681937D01*
X95779545Y-86713843D01*
X95842454Y-86812442D01*
X95931776Y-86958241D01*
X96042212Y-87142114D01*
X96168462Y-87354933D01*
X96305228Y-87587571D01*
X96447209Y-87830902D01*
X96589108Y-88075798D01*
X96725624Y-88313131D01*
X96851458Y-88533776D01*
X96961312Y-88728603D01*
X97049886Y-88888487D01*
X97111881Y-89004299D01*
X97141998Y-89066914D01*
X97143745Y-89071626D01*
X97183536Y-89256917D01*
X97184479Y-89462282D01*
X97146276Y-89647485D01*
X97119109Y-89708724D01*
X97056893Y-89829727D01*
X96967273Y-89994336D01*
X96855502Y-90193651D01*
X96726839Y-90418771D01*
X96586538Y-90660795D01*
X96439855Y-90910822D01*
X96292047Y-91159952D01*
X96148370Y-91399285D01*
X96014080Y-91619918D01*
X95894432Y-91812953D01*
X95794683Y-91969487D01*
X95720088Y-92080621D01*
X95675904Y-92137454D01*
X95653291Y-92159513D01*
X95596190Y-92211962D01*
X95538884Y-92254973D01*
X95474139Y-92289418D01*
X95394717Y-92316172D01*
X95293383Y-92336108D01*
X95162899Y-92350099D01*
X94996029Y-92359019D01*
X94785538Y-92363741D01*
X94524187Y-92365138D01*
X94204742Y-92364084D01*
X93819965Y-92361452D01*
X93620267Y-92359959D01*
X93277241Y-92356997D01*
X92995687Y-92353160D01*
X92768242Y-92347426D01*
X92587541Y-92338772D01*
X92446220Y-92326177D01*
X92336917Y-92308618D01*
X92252266Y-92285072D01*
X92184904Y-92254518D01*
X92127467Y-92215932D01*
X92072592Y-92168293D01*
X92012915Y-92110579D01*
X92011017Y-92108702D01*
X91941195Y-92022261D01*
X91846542Y-91880464D01*
X91732913Y-91693282D01*
X91606164Y-91470684D01*
X91472148Y-91222641D01*
X91336722Y-90959124D01*
X91334342Y-90954362D01*
X91269122Y-90812947D01*
X91234747Y-90715127D01*
X91231605Y-90666238D01*
X91260082Y-90671617D01*
X91320566Y-90736599D01*
X91325806Y-90743330D01*
X91381761Y-90821038D01*
X91466295Y-90944164D01*
X91570290Y-91098955D01*
X91684633Y-91271655D01*
X91800207Y-91448510D01*
X91907896Y-91615765D01*
X91998586Y-91759666D01*
X92057217Y-91843983D01*
X92157013Y-91960292D01*
X92250318Y-92042738D01*
X92382521Y-92133057D01*
X93791333Y-92129560D01*
X93863593Y-92129349D01*
X94172021Y-92127712D01*
X94455742Y-92125044D01*
X94706778Y-92121501D01*
X94917152Y-92117238D01*
X95078887Y-92112410D01*
X95184005Y-92107172D01*
X95224529Y-92101680D01*
X95224064Y-92082361D01*
X95187905Y-92022333D01*
X95119143Y-91941891D01*
X95074902Y-91892877D01*
X95004772Y-91801601D01*
X94967605Y-91733552D01*
X94931539Y-91684638D01*
X94846340Y-91639408D01*
X94700590Y-91592271D01*
X94581524Y-91556375D01*
X94266281Y-91435077D01*
X93980637Y-91287490D01*
X93745982Y-91124105D01*
X93632855Y-91040056D01*
X93479406Y-90945653D01*
X93341101Y-90878991D01*
X93256958Y-90845072D01*
X93176743Y-90801053D01*
X93135373Y-90750757D01*
X93114460Y-90677868D01*
X93111589Y-90664161D01*
X93081253Y-90586372D01*
X93042998Y-90554628D01*
X93011513Y-90546895D01*
X92950674Y-90501632D01*
X92932843Y-90471093D01*
X92950837Y-90437066D01*
X93027874Y-90398707D01*
X93149057Y-90348779D01*
X92949485Y-90222570D01*
X92852415Y-90164739D01*
X92716117Y-90092497D01*
X92604771Y-90042988D01*
X92546586Y-90018895D01*
X92475154Y-89967107D01*
X92448648Y-89896315D01*
X92446862Y-89861785D01*
X92471025Y-89802015D01*
X92549597Y-89756651D01*
X92561119Y-89751791D01*
X92628607Y-89718535D01*
X92649947Y-89698709D01*
X92640878Y-89695300D01*
X92575120Y-89678490D01*
X92456816Y-89651252D01*
X92298716Y-89616477D01*
X92113569Y-89577058D01*
X92061780Y-89566202D01*
X91834946Y-89518667D01*
X91668723Y-89483261D01*
X91554456Y-89457349D01*
X91483491Y-89438297D01*
X91447173Y-89423471D01*
X91436848Y-89410237D01*
X91443861Y-89395962D01*
X91459556Y-89378011D01*
X91510526Y-89346237D01*
X91611582Y-89306650D01*
X91739206Y-89269162D01*
X91903046Y-89223262D01*
X92242535Y-89105003D01*
X92607153Y-88952459D01*
X92977727Y-88774524D01*
X93335082Y-88580093D01*
X93660048Y-88378062D01*
X93748149Y-88317891D01*
X93928759Y-88188317D01*
X94098607Y-88058872D01*
X94247849Y-87937698D01*
X94366639Y-87832940D01*
X94445133Y-87752740D01*
X94473485Y-87705241D01*
X94476139Y-87694139D01*
X94513013Y-87631289D01*
X94584213Y-87536745D01*
X94678110Y-87426357D01*
X94736257Y-87360473D01*
X94863034Y-87210535D01*
X94986594Y-87057061D01*
X95098092Y-86911740D01*
X95188684Y-86786264D01*
X95249525Y-86692324D01*
X95271771Y-86641612D01*
X95271653Y-86640612D01*
X95247449Y-86628656D01*
X95177999Y-86618657D01*
X95058751Y-86610439D01*
X94885150Y-86603823D01*
X94652643Y-86598633D01*
X94356678Y-86594691D01*
X93992700Y-86591820D01*
X93740246Y-86590363D01*
X93453080Y-86588844D01*
X93192671Y-86587617D01*
X92968181Y-86586717D01*
X92788773Y-86586181D01*
X92663610Y-86586043D01*
X92601854Y-86586342D01*
X92547277Y-86588670D01*
X92398553Y-86613696D01*
X92269850Y-86672399D01*
X92150023Y-86773430D01*
X92027925Y-86925444D01*
X91892409Y-87137092D01*
X91808048Y-87274756D01*
X91697683Y-87446810D01*
X91584159Y-87616736D01*
X91474489Y-87774679D01*
X91375685Y-87910786D01*
X91294760Y-88015201D01*
X91238727Y-88078071D01*
X91214599Y-88089541D01*
X91214751Y-88084459D01*
X91235380Y-88027810D01*
X91284181Y-87919921D01*
X91356297Y-87770893D01*
X91446872Y-87590826D01*
X91551049Y-87389821D01*
X91560903Y-87371090D01*
X91707331Y-87099647D01*
X91831493Y-86886451D01*
X91939743Y-86723706D01*
X92038438Y-86603619D01*
X92133934Y-86518393D01*
X92232588Y-86460236D01*
X92340754Y-86421351D01*
X92345412Y-86420135D01*
X92435682Y-86407020D01*
X92592664Y-86395927D01*
X92817525Y-86386817D01*
X93111432Y-86379653D01*
X93475554Y-86374397D01*
X93911057Y-86371013D01*
X95326199Y-86363628D01*
X95497327Y-86464223D01*
G37*
D14*
X95497327Y-86464223D02*
X95556358Y-86502305D01*
X95672025Y-86593624D01*
X95757292Y-86681937D01*
X95779545Y-86713843D01*
X95842454Y-86812442D01*
X95931776Y-86958241D01*
X96042212Y-87142114D01*
X96168462Y-87354933D01*
X96305228Y-87587571D01*
X96447209Y-87830902D01*
X96589108Y-88075798D01*
X96725624Y-88313131D01*
X96851458Y-88533776D01*
X96961312Y-88728603D01*
X97049886Y-88888487D01*
X97111881Y-89004299D01*
X97141998Y-89066914D01*
X97143745Y-89071626D01*
X97183536Y-89256917D01*
X97184479Y-89462282D01*
X97146276Y-89647485D01*
X97119109Y-89708724D01*
X97056893Y-89829727D01*
X96967273Y-89994336D01*
X96855502Y-90193651D01*
X96726839Y-90418771D01*
X96586538Y-90660795D01*
X96439855Y-90910822D01*
X96292047Y-91159952D01*
X96148370Y-91399285D01*
X96014080Y-91619918D01*
X95894432Y-91812953D01*
X95794683Y-91969487D01*
X95720088Y-92080621D01*
X95675904Y-92137454D01*
X95653291Y-92159513D01*
X95596190Y-92211962D01*
X95538884Y-92254973D01*
X95474139Y-92289418D01*
X95394717Y-92316172D01*
X95293383Y-92336108D01*
X95162899Y-92350099D01*
X94996029Y-92359019D01*
X94785538Y-92363741D01*
X94524187Y-92365138D01*
X94204742Y-92364084D01*
X93819965Y-92361452D01*
X93620267Y-92359959D01*
X93277241Y-92356997D01*
X92995687Y-92353160D01*
X92768242Y-92347426D01*
X92587541Y-92338772D01*
X92446220Y-92326177D01*
X92336917Y-92308618D01*
X92252266Y-92285072D01*
X92184904Y-92254518D01*
X92127467Y-92215932D01*
X92072592Y-92168293D01*
X92012915Y-92110579D01*
X92011017Y-92108702D01*
X91941195Y-92022261D01*
X91846542Y-91880464D01*
X91732913Y-91693282D01*
X91606164Y-91470684D01*
X91472148Y-91222641D01*
X91336722Y-90959124D01*
X91334342Y-90954362D01*
X91269122Y-90812947D01*
X91234747Y-90715127D01*
X91231605Y-90666238D01*
X91260082Y-90671617D01*
X91320566Y-90736599D01*
X91325806Y-90743330D01*
X91381761Y-90821038D01*
X91466295Y-90944164D01*
X91570290Y-91098955D01*
X91684633Y-91271655D01*
X91800207Y-91448510D01*
X91907896Y-91615765D01*
X91998586Y-91759666D01*
X92057217Y-91843983D01*
X92157013Y-91960292D01*
X92250318Y-92042738D01*
X92382521Y-92133057D01*
X93791333Y-92129560D01*
X93863593Y-92129349D01*
X94172021Y-92127712D01*
X94455742Y-92125044D01*
X94706778Y-92121501D01*
X94917152Y-92117238D01*
X95078887Y-92112410D01*
X95184005Y-92107172D01*
X95224529Y-92101680D01*
X95224064Y-92082361D01*
X95187905Y-92022333D01*
X95119143Y-91941891D01*
X95074902Y-91892877D01*
X95004772Y-91801601D01*
X94967605Y-91733552D01*
X94931539Y-91684638D01*
X94846340Y-91639408D01*
X94700590Y-91592271D01*
X94581524Y-91556375D01*
X94266281Y-91435077D01*
X93980637Y-91287490D01*
X93745982Y-91124105D01*
X93632855Y-91040056D01*
X93479406Y-90945653D01*
X93341101Y-90878991D01*
X93256958Y-90845072D01*
X93176743Y-90801053D01*
X93135373Y-90750757D01*
X93114460Y-90677868D01*
X93111589Y-90664161D01*
X93081253Y-90586372D01*
X93042998Y-90554628D01*
X93011513Y-90546895D01*
X92950674Y-90501632D01*
X92932843Y-90471093D01*
X92950837Y-90437066D01*
X93027874Y-90398707D01*
X93149057Y-90348779D01*
X92949485Y-90222570D01*
X92852415Y-90164739D01*
X92716117Y-90092497D01*
X92604771Y-90042988D01*
X92546586Y-90018895D01*
X92475154Y-89967107D01*
X92448648Y-89896315D01*
X92446862Y-89861785D01*
X92471025Y-89802015D01*
X92549597Y-89756651D01*
X92561119Y-89751791D01*
X92628607Y-89718535D01*
X92649947Y-89698709D01*
X92640878Y-89695300D01*
X92575120Y-89678490D01*
X92456816Y-89651252D01*
X92298716Y-89616477D01*
X92113569Y-89577058D01*
X92061780Y-89566202D01*
X91834946Y-89518667D01*
X91668723Y-89483261D01*
X91554456Y-89457349D01*
X91483491Y-89438297D01*
X91447173Y-89423471D01*
X91436848Y-89410237D01*
X91443861Y-89395962D01*
X91459556Y-89378011D01*
X91510526Y-89346237D01*
X91611582Y-89306650D01*
X91739206Y-89269162D01*
X91903046Y-89223262D01*
X92242535Y-89105003D01*
X92607153Y-88952459D01*
X92977727Y-88774524D01*
X93335082Y-88580093D01*
X93660048Y-88378062D01*
X93748149Y-88317891D01*
X93928759Y-88188317D01*
X94098607Y-88058872D01*
X94247849Y-87937698D01*
X94366639Y-87832940D01*
X94445133Y-87752740D01*
X94473485Y-87705241D01*
X94476139Y-87694139D01*
X94513013Y-87631289D01*
X94584213Y-87536745D01*
X94678110Y-87426357D01*
X94736257Y-87360473D01*
X94863034Y-87210535D01*
X94986594Y-87057061D01*
X95098092Y-86911740D01*
X95188684Y-86786264D01*
X95249525Y-86692324D01*
X95271771Y-86641612D01*
X95271653Y-86640612D01*
X95247449Y-86628656D01*
X95177999Y-86618657D01*
X95058751Y-86610439D01*
X94885150Y-86603823D01*
X94652643Y-86598633D01*
X94356678Y-86594691D01*
X93992700Y-86591820D01*
X93740246Y-86590363D01*
X93453080Y-86588844D01*
X93192671Y-86587617D01*
X92968181Y-86586717D01*
X92788773Y-86586181D01*
X92663610Y-86586043D01*
X92601854Y-86586342D01*
X92547277Y-86588670D01*
X92398553Y-86613696D01*
X92269850Y-86672399D01*
X92150023Y-86773430D01*
X92027925Y-86925444D01*
X91892409Y-87137092D01*
X91808048Y-87274756D01*
X91697683Y-87446810D01*
X91584159Y-87616736D01*
X91474489Y-87774679D01*
X91375685Y-87910786D01*
X91294760Y-88015201D01*
X91238727Y-88078071D01*
X91214599Y-88089541D01*
X91214751Y-88084459D01*
X91235380Y-88027810D01*
X91284181Y-87919921D01*
X91356297Y-87770893D01*
X91446872Y-87590826D01*
X91551049Y-87389821D01*
X91560903Y-87371090D01*
X91707331Y-87099647D01*
X91831493Y-86886451D01*
X91939743Y-86723706D01*
X92038438Y-86603619D01*
X92133934Y-86518393D01*
X92232588Y-86460236D01*
X92340754Y-86421351D01*
X92345412Y-86420135D01*
X92435682Y-86407020D01*
X92592664Y-86395927D01*
X92817525Y-86386817D01*
X93111432Y-86379653D01*
X93475554Y-86374397D01*
X93911057Y-86371013D01*
X95326199Y-86363628D01*
X95497327Y-86464223D01*
G36*
X96033771Y-97900778D02*
G01*
X96027952Y-98074658D01*
X96002715Y-98221155D01*
X95949245Y-98326349D01*
X95858775Y-98396782D01*
X95722542Y-98438993D01*
X95531779Y-98459524D01*
X95277721Y-98464914D01*
X95109280Y-98462430D01*
X94947214Y-98455034D01*
X94821358Y-98443909D01*
X94749888Y-98430248D01*
X94660441Y-98377675D01*
X94587295Y-98278492D01*
X94540969Y-98128345D01*
X94525354Y-97990608D01*
X94727485Y-97990608D01*
X94729210Y-98024153D01*
X94750510Y-98087567D01*
X94804096Y-98130855D01*
X94899972Y-98157484D01*
X95048140Y-98170920D01*
X95258605Y-98174628D01*
X95409224Y-98172235D01*
X95564463Y-98164297D01*
X95682585Y-98152119D01*
X95745871Y-98137066D01*
X95788438Y-98097133D01*
X95816057Y-98010066D01*
X95816057Y-97920628D01*
X95271771Y-97920628D01*
X95198309Y-97920665D01*
X95009639Y-97921671D01*
X94879387Y-97925094D01*
X94796799Y-97932316D01*
X94751122Y-97944721D01*
X94731602Y-97963690D01*
X94727485Y-97990608D01*
X94525354Y-97990608D01*
X94517074Y-97917569D01*
X94500447Y-97630343D01*
X96033771Y-97630343D01*
X96033771Y-97900778D01*
G37*
X96033771Y-97900778D02*
X96027952Y-98074658D01*
X96002715Y-98221155D01*
X95949245Y-98326349D01*
X95858775Y-98396782D01*
X95722542Y-98438993D01*
X95531779Y-98459524D01*
X95277721Y-98464914D01*
X95109280Y-98462430D01*
X94947214Y-98455034D01*
X94821358Y-98443909D01*
X94749888Y-98430248D01*
X94660441Y-98377675D01*
X94587295Y-98278492D01*
X94540969Y-98128345D01*
X94525354Y-97990608D01*
X94727485Y-97990608D01*
X94729210Y-98024153D01*
X94750510Y-98087567D01*
X94804096Y-98130855D01*
X94899972Y-98157484D01*
X95048140Y-98170920D01*
X95258605Y-98174628D01*
X95409224Y-98172235D01*
X95564463Y-98164297D01*
X95682585Y-98152119D01*
X95745871Y-98137066D01*
X95788438Y-98097133D01*
X95816057Y-98010066D01*
X95816057Y-97920628D01*
X95271771Y-97920628D01*
X95198309Y-97920665D01*
X95009639Y-97921671D01*
X94879387Y-97925094D01*
X94796799Y-97932316D01*
X94751122Y-97944721D01*
X94731602Y-97963690D01*
X94727485Y-97990608D01*
X94525354Y-97990608D01*
X94517074Y-97917569D01*
X94500447Y-97630343D01*
X96033771Y-97630343D01*
X96033771Y-97900778D01*
G36*
X90227138Y-89505820D02*
G01*
X90206179Y-89539686D01*
X90147743Y-89598615D01*
X90066115Y-89668977D01*
X89975580Y-89737144D01*
X89901664Y-89782891D01*
X89790925Y-89840525D01*
X89674702Y-89892896D01*
X89570400Y-89932831D01*
X89495424Y-89953155D01*
X89467179Y-89946695D01*
X89475912Y-89927106D01*
X89534782Y-89870014D01*
X89635768Y-89796281D01*
X89763134Y-89715175D01*
X89901146Y-89635961D01*
X90034068Y-89567906D01*
X90146165Y-89520278D01*
X90221702Y-89502343D01*
X90227138Y-89505820D01*
G37*
X90227138Y-89505820D02*
X90206179Y-89539686D01*
X90147743Y-89598615D01*
X90066115Y-89668977D01*
X89975580Y-89737144D01*
X89901664Y-89782891D01*
X89790925Y-89840525D01*
X89674702Y-89892896D01*
X89570400Y-89932831D01*
X89495424Y-89953155D01*
X89467179Y-89946695D01*
X89475912Y-89927106D01*
X89534782Y-89870014D01*
X89635768Y-89796281D01*
X89763134Y-89715175D01*
X89901146Y-89635961D01*
X90034068Y-89567906D01*
X90146165Y-89520278D01*
X90221702Y-89502343D01*
X90227138Y-89505820D01*
G36*
X92836621Y-100787719D02*
G01*
X93065110Y-100792341D01*
X93259950Y-100801175D01*
X93408177Y-100813523D01*
X93496829Y-100828689D01*
X93514692Y-100834413D01*
X93673008Y-100921473D01*
X93792678Y-101053317D01*
X93857039Y-101212203D01*
X93866612Y-101294555D01*
X93858861Y-101438795D01*
X93824826Y-101566436D01*
X93770426Y-101658987D01*
X93701577Y-101697960D01*
X93696308Y-101707568D01*
X93747771Y-101726607D01*
X93786981Y-101741333D01*
X93831268Y-101789978D01*
X93849747Y-101886276D01*
X93861009Y-102020914D01*
X92731771Y-102020914D01*
X92731771Y-101404057D01*
X92858771Y-101404057D01*
X92868438Y-101404073D01*
X92948463Y-101411029D01*
X92980154Y-101445938D01*
X92985771Y-101531057D01*
X92985771Y-101658057D01*
X93158128Y-101657522D01*
X93193453Y-101656784D01*
X93366284Y-101629931D01*
X93487870Y-101567877D01*
X93552178Y-101475217D01*
X93553178Y-101356545D01*
X93544650Y-101331086D01*
X93504530Y-101277679D01*
X93431416Y-101238328D01*
X93317458Y-101211606D01*
X93154807Y-101196089D01*
X92935615Y-101190352D01*
X92652033Y-101192971D01*
X92496512Y-101196227D01*
X92321611Y-101201286D01*
X92199430Y-101208275D01*
X92118171Y-101218977D01*
X92066034Y-101235175D01*
X92031220Y-101258650D01*
X92001930Y-101291186D01*
X91962119Y-101356426D01*
X91950863Y-101457277D01*
X91999958Y-101541891D01*
X92101816Y-101600108D01*
X92248849Y-101621771D01*
X92405199Y-101621771D01*
X92405199Y-102031067D01*
X92207335Y-102010646D01*
X92037461Y-101982872D01*
X91866544Y-101916834D01*
X91750101Y-101810636D01*
X91680839Y-101656902D01*
X91651466Y-101448254D01*
X91656257Y-101247713D01*
X91700213Y-101086009D01*
X91790132Y-100963909D01*
X91932102Y-100868843D01*
X91969451Y-100850726D01*
X92032485Y-100825786D01*
X92103543Y-100808355D01*
X92195533Y-100797109D01*
X92321363Y-100790719D01*
X92493942Y-100787858D01*
X92726178Y-100787200D01*
X92836621Y-100787719D01*
G37*
X92836621Y-100787719D02*
X93065110Y-100792341D01*
X93259950Y-100801175D01*
X93408177Y-100813523D01*
X93496829Y-100828689D01*
X93514692Y-100834413D01*
X93673008Y-100921473D01*
X93792678Y-101053317D01*
X93857039Y-101212203D01*
X93866612Y-101294555D01*
X93858861Y-101438795D01*
X93824826Y-101566436D01*
X93770426Y-101658987D01*
X93701577Y-101697960D01*
X93696308Y-101707568D01*
X93747771Y-101726607D01*
X93786981Y-101741333D01*
X93831268Y-101789978D01*
X93849747Y-101886276D01*
X93861009Y-102020914D01*
X92731771Y-102020914D01*
X92731771Y-101404057D01*
X92858771Y-101404057D01*
X92868438Y-101404073D01*
X92948463Y-101411029D01*
X92980154Y-101445938D01*
X92985771Y-101531057D01*
X92985771Y-101658057D01*
X93158128Y-101657522D01*
X93193453Y-101656784D01*
X93366284Y-101629931D01*
X93487870Y-101567877D01*
X93552178Y-101475217D01*
X93553178Y-101356545D01*
X93544650Y-101331086D01*
X93504530Y-101277679D01*
X93431416Y-101238328D01*
X93317458Y-101211606D01*
X93154807Y-101196089D01*
X92935615Y-101190352D01*
X92652033Y-101192971D01*
X92496512Y-101196227D01*
X92321611Y-101201286D01*
X92199430Y-101208275D01*
X92118171Y-101218977D01*
X92066034Y-101235175D01*
X92031220Y-101258650D01*
X92001930Y-101291186D01*
X91962119Y-101356426D01*
X91950863Y-101457277D01*
X91999958Y-101541891D01*
X92101816Y-101600108D01*
X92248849Y-101621771D01*
X92405199Y-101621771D01*
X92405199Y-102031067D01*
X92207335Y-102010646D01*
X92037461Y-101982872D01*
X91866544Y-101916834D01*
X91750101Y-101810636D01*
X91680839Y-101656902D01*
X91651466Y-101448254D01*
X91656257Y-101247713D01*
X91700213Y-101086009D01*
X91790132Y-100963909D01*
X91932102Y-100868843D01*
X91969451Y-100850726D01*
X92032485Y-100825786D01*
X92103543Y-100808355D01*
X92195533Y-100797109D01*
X92321363Y-100790719D01*
X92493942Y-100787858D01*
X92726178Y-100787200D01*
X92836621Y-100787719D01*
G36*
X91779271Y-104938018D02*
G01*
X91830675Y-104946619D01*
X91947289Y-104964294D01*
X92115544Y-104988891D01*
X92324673Y-105018857D01*
X92563908Y-105052636D01*
X92822485Y-105088674D01*
X93057758Y-105121508D01*
X93292222Y-105154775D01*
X93494813Y-105184095D01*
X93655523Y-105207999D01*
X93764345Y-105225021D01*
X93811271Y-105233692D01*
X93820281Y-105239023D01*
X93846772Y-105299109D01*
X93856628Y-105408556D01*
X93857826Y-105456978D01*
X93857394Y-105501683D01*
X93846675Y-105535867D01*
X93816938Y-105562885D01*
X93759452Y-105586090D01*
X93665485Y-105608836D01*
X93526307Y-105634476D01*
X93333186Y-105666365D01*
X93077391Y-105707855D01*
X92461439Y-105808535D01*
X93041105Y-105908676D01*
X93159890Y-105929221D01*
X93358186Y-105963625D01*
X93530978Y-105993734D01*
X93662929Y-106016873D01*
X93738700Y-106030367D01*
X93778132Y-106038321D01*
X93831449Y-106061920D01*
X93852760Y-106112792D01*
X93856628Y-106213558D01*
X93856234Y-106260647D01*
X93852996Y-106343165D01*
X93847557Y-106376350D01*
X93842008Y-106377136D01*
X93781264Y-106385865D01*
X93660792Y-106403218D01*
X93489460Y-106427918D01*
X93276135Y-106458685D01*
X93029688Y-106494241D01*
X92758985Y-106533307D01*
X91679485Y-106689114D01*
X91679485Y-106518652D01*
X91677845Y-106464764D01*
X91677676Y-106419550D01*
X91687746Y-106385580D01*
X91716849Y-106359729D01*
X91773777Y-106338876D01*
X91867324Y-106319897D01*
X92006282Y-106299668D01*
X92199444Y-106275066D01*
X92455604Y-106242968D01*
X92526666Y-106233762D01*
X92692522Y-106210628D01*
X92821029Y-106190289D01*
X92900616Y-106174673D01*
X92919712Y-106165704D01*
X92893970Y-106159865D01*
X92804634Y-106142973D01*
X92665395Y-106118188D01*
X92489134Y-106087789D01*
X92288737Y-106054058D01*
X91697628Y-105955700D01*
X91686725Y-105807811D01*
X91675822Y-105659921D01*
X92311411Y-105556699D01*
X92495957Y-105526281D01*
X92674878Y-105495791D01*
X92815672Y-105470686D01*
X92907157Y-105452964D01*
X92938150Y-105444627D01*
X92920253Y-105440572D01*
X92842958Y-105428439D01*
X92717947Y-105410661D01*
X92559721Y-105389125D01*
X92382780Y-105365719D01*
X92201623Y-105342331D01*
X92030751Y-105320847D01*
X91884663Y-105303155D01*
X91777860Y-105291143D01*
X91724842Y-105286698D01*
X91713800Y-105283587D01*
X91688043Y-105227962D01*
X91679485Y-105102317D01*
X91680724Y-105006388D01*
X91691075Y-104947140D01*
X91720578Y-104929859D01*
X91779271Y-104938018D01*
G37*
X91779271Y-104938018D02*
X91830675Y-104946619D01*
X91947289Y-104964294D01*
X92115544Y-104988891D01*
X92324673Y-105018857D01*
X92563908Y-105052636D01*
X92822485Y-105088674D01*
X93057758Y-105121508D01*
X93292222Y-105154775D01*
X93494813Y-105184095D01*
X93655523Y-105207999D01*
X93764345Y-105225021D01*
X93811271Y-105233692D01*
X93820281Y-105239023D01*
X93846772Y-105299109D01*
X93856628Y-105408556D01*
X93857826Y-105456978D01*
X93857394Y-105501683D01*
X93846675Y-105535867D01*
X93816938Y-105562885D01*
X93759452Y-105586090D01*
X93665485Y-105608836D01*
X93526307Y-105634476D01*
X93333186Y-105666365D01*
X93077391Y-105707855D01*
X92461439Y-105808535D01*
X93041105Y-105908676D01*
X93159890Y-105929221D01*
X93358186Y-105963625D01*
X93530978Y-105993734D01*
X93662929Y-106016873D01*
X93738700Y-106030367D01*
X93778132Y-106038321D01*
X93831449Y-106061920D01*
X93852760Y-106112792D01*
X93856628Y-106213558D01*
X93856234Y-106260647D01*
X93852996Y-106343165D01*
X93847557Y-106376350D01*
X93842008Y-106377136D01*
X93781264Y-106385865D01*
X93660792Y-106403218D01*
X93489460Y-106427918D01*
X93276135Y-106458685D01*
X93029688Y-106494241D01*
X92758985Y-106533307D01*
X91679485Y-106689114D01*
X91679485Y-106518652D01*
X91677845Y-106464764D01*
X91677676Y-106419550D01*
X91687746Y-106385580D01*
X91716849Y-106359729D01*
X91773777Y-106338876D01*
X91867324Y-106319897D01*
X92006282Y-106299668D01*
X92199444Y-106275066D01*
X92455604Y-106242968D01*
X92526666Y-106233762D01*
X92692522Y-106210628D01*
X92821029Y-106190289D01*
X92900616Y-106174673D01*
X92919712Y-106165704D01*
X92893970Y-106159865D01*
X92804634Y-106142973D01*
X92665395Y-106118188D01*
X92489134Y-106087789D01*
X92288737Y-106054058D01*
X91697628Y-105955700D01*
X91686725Y-105807811D01*
X91675822Y-105659921D01*
X92311411Y-105556699D01*
X92495957Y-105526281D01*
X92674878Y-105495791D01*
X92815672Y-105470686D01*
X92907157Y-105452964D01*
X92938150Y-105444627D01*
X92920253Y-105440572D01*
X92842958Y-105428439D01*
X92717947Y-105410661D01*
X92559721Y-105389125D01*
X92382780Y-105365719D01*
X92201623Y-105342331D01*
X92030751Y-105320847D01*
X91884663Y-105303155D01*
X91777860Y-105291143D01*
X91724842Y-105286698D01*
X91713800Y-105283587D01*
X91688043Y-105227962D01*
X91679485Y-105102317D01*
X91680724Y-105006388D01*
X91691075Y-104947140D01*
X91720578Y-104929859D01*
X91779271Y-104938018D01*
G36*
X89597329Y-88820965D02*
G01*
X89711727Y-88871524D01*
X89837664Y-88936031D01*
X89957848Y-89006147D01*
X90054988Y-89073535D01*
X90110060Y-89120432D01*
X90161438Y-89175824D01*
X90166497Y-89202339D01*
X90165698Y-89202590D01*
X90102223Y-89195102D01*
X89997942Y-89156983D01*
X89872185Y-89097376D01*
X89744285Y-89025424D01*
X89633571Y-88950272D01*
X89577434Y-88907061D01*
X89504135Y-88850777D01*
X89469080Y-88824058D01*
X89468287Y-88823423D01*
X89473641Y-88793234D01*
X89511761Y-88792689D01*
X89597329Y-88820965D01*
G37*
X89597329Y-88820965D02*
X89711727Y-88871524D01*
X89837664Y-88936031D01*
X89957848Y-89006147D01*
X90054988Y-89073535D01*
X90110060Y-89120432D01*
X90161438Y-89175824D01*
X90166497Y-89202339D01*
X90165698Y-89202590D01*
X90102223Y-89195102D01*
X89997942Y-89156983D01*
X89872185Y-89097376D01*
X89744285Y-89025424D01*
X89633571Y-88950272D01*
X89577434Y-88907061D01*
X89504135Y-88850777D01*
X89469080Y-88824058D01*
X89468287Y-88823423D01*
X89473641Y-88793234D01*
X89511761Y-88792689D01*
X89597329Y-88820965D01*
G36*
X89926013Y-89316039D02*
G01*
X90071903Y-89338545D01*
X90173628Y-89365017D01*
X90082914Y-89400562D01*
X90059182Y-89408104D01*
X89944849Y-89426143D01*
X89794039Y-89434433D01*
X89633825Y-89432969D01*
X89491283Y-89421743D01*
X89393485Y-89400747D01*
X89365786Y-89389680D01*
X89334215Y-89370555D01*
X89359138Y-89355257D01*
X89447914Y-89334879D01*
X89561704Y-89318162D01*
X89744263Y-89309176D01*
X89926013Y-89316039D01*
G37*
X89926013Y-89316039D02*
X90071903Y-89338545D01*
X90173628Y-89365017D01*
X90082914Y-89400562D01*
X90059182Y-89408104D01*
X89944849Y-89426143D01*
X89794039Y-89434433D01*
X89633825Y-89432969D01*
X89491283Y-89421743D01*
X89393485Y-89400747D01*
X89365786Y-89389680D01*
X89334215Y-89370555D01*
X89359138Y-89355257D01*
X89447914Y-89334879D01*
X89561704Y-89318162D01*
X89744263Y-89309176D01*
X89926013Y-89316039D01*
G36*
X90822567Y-89541991D02*
G01*
X90924686Y-89577752D01*
X90998979Y-89607162D01*
X91096429Y-89648489D01*
X91168457Y-89687605D01*
X91242192Y-89740310D01*
X91344764Y-89822403D01*
X91407650Y-89875294D01*
X91468932Y-89932907D01*
X91487744Y-89960179D01*
X91486456Y-89961296D01*
X91435968Y-89960099D01*
X91342398Y-89926375D01*
X91221100Y-89868883D01*
X91087427Y-89796379D01*
X90956733Y-89717623D01*
X90844370Y-89641371D01*
X90765694Y-89576382D01*
X90736057Y-89531412D01*
X90754069Y-89526602D01*
X90822567Y-89541991D01*
G37*
X90822567Y-89541991D02*
X90924686Y-89577752D01*
X90998979Y-89607162D01*
X91096429Y-89648489D01*
X91168457Y-89687605D01*
X91242192Y-89740310D01*
X91344764Y-89822403D01*
X91407650Y-89875294D01*
X91468932Y-89932907D01*
X91487744Y-89960179D01*
X91486456Y-89961296D01*
X91435968Y-89960099D01*
X91342398Y-89926375D01*
X91221100Y-89868883D01*
X91087427Y-89796379D01*
X90956733Y-89717623D01*
X90844370Y-89641371D01*
X90765694Y-89576382D01*
X90736057Y-89531412D01*
X90754069Y-89526602D01*
X90822567Y-89541991D01*
G36*
X91487698Y-88777151D02*
G01*
X91491650Y-88799056D01*
X91447056Y-88846853D01*
X91366220Y-88911831D01*
X91261448Y-88985278D01*
X91145044Y-89058484D01*
X91029312Y-89122737D01*
X90926557Y-89169327D01*
X90845267Y-89197631D01*
X90766508Y-89218214D01*
X90736057Y-89216027D01*
X90743004Y-89198133D01*
X90798757Y-89141962D01*
X90897300Y-89068983D01*
X91022902Y-88988471D01*
X91159830Y-88909704D01*
X91292354Y-88841957D01*
X91404740Y-88794507D01*
X91481257Y-88776628D01*
X91487698Y-88777151D01*
G37*
X91487698Y-88777151D02*
X91491650Y-88799056D01*
X91447056Y-88846853D01*
X91366220Y-88911831D01*
X91261448Y-88985278D01*
X91145044Y-89058484D01*
X91029312Y-89122737D01*
X90926557Y-89169327D01*
X90845267Y-89197631D01*
X90766508Y-89218214D01*
X90736057Y-89216027D01*
X90743004Y-89198133D01*
X90798757Y-89141962D01*
X90897300Y-89068983D01*
X91022902Y-88988471D01*
X91159830Y-88909704D01*
X91292354Y-88841957D01*
X91404740Y-88794507D01*
X91481257Y-88776628D01*
X91487698Y-88777151D01*
G36*
X90496704Y-88286771D02*
G01*
X90501517Y-88312890D01*
X90521551Y-88416755D01*
X90536316Y-88486343D01*
X90540615Y-88531747D01*
X90539084Y-88634153D01*
X90530994Y-88761408D01*
X90518429Y-88889163D01*
X90503471Y-88993067D01*
X90488205Y-89048771D01*
X90474589Y-89059557D01*
X90453629Y-89028990D01*
X90436670Y-88948232D01*
X90424571Y-88831433D01*
X90418191Y-88692739D01*
X90418388Y-88546298D01*
X90426022Y-88406260D01*
X90441950Y-88286771D01*
X90470233Y-88141628D01*
X90496704Y-88286771D01*
G37*
X90496704Y-88286771D02*
X90501517Y-88312890D01*
X90521551Y-88416755D01*
X90536316Y-88486343D01*
X90540615Y-88531747D01*
X90539084Y-88634153D01*
X90530994Y-88761408D01*
X90518429Y-88889163D01*
X90503471Y-88993067D01*
X90488205Y-89048771D01*
X90474589Y-89059557D01*
X90453629Y-89028990D01*
X90436670Y-88948232D01*
X90424571Y-88831433D01*
X90418191Y-88692739D01*
X90418388Y-88546298D01*
X90426022Y-88406260D01*
X90441950Y-88286771D01*
X90470233Y-88141628D01*
X90496704Y-88286771D01*
G36*
X96033771Y-103436057D02*
G01*
X96033767Y-103464867D01*
X96032667Y-103609302D01*
X96026925Y-103697330D01*
X96012662Y-103742917D01*
X95985999Y-103760028D01*
X95943057Y-103762628D01*
X95906651Y-103760910D01*
X95870293Y-103742593D01*
X95855283Y-103688876D01*
X95852342Y-103581200D01*
X95852342Y-103399771D01*
X95344342Y-103399771D01*
X95344342Y-103544914D01*
X95344310Y-103557554D01*
X95338051Y-103644768D01*
X95312074Y-103682135D01*
X95253628Y-103690057D01*
X95245728Y-103690005D01*
X95191220Y-103679990D01*
X95167865Y-103638427D01*
X95162914Y-103544914D01*
X95162914Y-103399771D01*
X94727485Y-103399771D01*
X94727485Y-103581200D01*
X94726263Y-103670794D01*
X94715203Y-103734293D01*
X94683069Y-103758665D01*
X94618628Y-103762628D01*
X94509771Y-103762628D01*
X94509771Y-103109486D01*
X96033771Y-103109486D01*
X96033771Y-103436057D01*
G37*
X96033771Y-103436057D02*
X96033767Y-103464867D01*
X96032667Y-103609302D01*
X96026925Y-103697330D01*
X96012662Y-103742917D01*
X95985999Y-103760028D01*
X95943057Y-103762628D01*
X95906651Y-103760910D01*
X95870293Y-103742593D01*
X95855283Y-103688876D01*
X95852342Y-103581200D01*
X95852342Y-103399771D01*
X95344342Y-103399771D01*
X95344342Y-103544914D01*
X95344310Y-103557554D01*
X95338051Y-103644768D01*
X95312074Y-103682135D01*
X95253628Y-103690057D01*
X95245728Y-103690005D01*
X95191220Y-103679990D01*
X95167865Y-103638427D01*
X95162914Y-103544914D01*
X95162914Y-103399771D01*
X94727485Y-103399771D01*
X94727485Y-103581200D01*
X94726263Y-103670794D01*
X94715203Y-103734293D01*
X94683069Y-103758665D01*
X94618628Y-103762628D01*
X94509771Y-103762628D01*
X94509771Y-103109486D01*
X96033771Y-103109486D01*
X96033771Y-103436057D01*
G36*
X91052450Y-88389537D02*
G01*
X91044656Y-88440985D01*
X91016732Y-88514338D01*
X90981393Y-88613343D01*
X90968146Y-88645673D01*
X90919679Y-88735495D01*
X90853834Y-88838310D01*
X90781655Y-88939134D01*
X90714186Y-89022984D01*
X90662470Y-89074877D01*
X90637552Y-89079830D01*
X90635404Y-89063930D01*
X90653219Y-88984024D01*
X90700367Y-88870127D01*
X90767224Y-88739032D01*
X90844168Y-88607538D01*
X90921576Y-88492438D01*
X90989826Y-88410530D01*
X91039296Y-88378607D01*
X91052450Y-88389537D01*
G37*
X91052450Y-88389537D02*
X91044656Y-88440985D01*
X91016732Y-88514338D01*
X90981393Y-88613343D01*
X90968146Y-88645673D01*
X90919679Y-88735495D01*
X90853834Y-88838310D01*
X90781655Y-88939134D01*
X90714186Y-89022984D01*
X90662470Y-89074877D01*
X90637552Y-89079830D01*
X90635404Y-89063930D01*
X90653219Y-88984024D01*
X90700367Y-88870127D01*
X90767224Y-88739032D01*
X90844168Y-88607538D01*
X90921576Y-88492438D01*
X90989826Y-88410530D01*
X91039296Y-88378607D01*
X91052450Y-88389537D01*
G36*
X89905778Y-88379208D02*
G01*
X89957148Y-88420908D01*
X90028739Y-88506099D01*
X90108726Y-88618441D01*
X90185282Y-88741594D01*
X90246582Y-88859220D01*
X90301028Y-88982664D01*
X90328619Y-89058299D01*
X90330412Y-89093881D01*
X90309699Y-89102078D01*
X90290561Y-89094081D01*
X90236807Y-89040592D01*
X90168458Y-88948761D01*
X90093479Y-88832605D01*
X90019836Y-88706138D01*
X89955493Y-88583376D01*
X89908416Y-88478336D01*
X89886570Y-88405034D01*
X89897920Y-88377485D01*
X89905778Y-88379208D01*
G37*
X89905778Y-88379208D02*
X89957148Y-88420908D01*
X90028739Y-88506099D01*
X90108726Y-88618441D01*
X90185282Y-88741594D01*
X90246582Y-88859220D01*
X90301028Y-88982664D01*
X90328619Y-89058299D01*
X90330412Y-89093881D01*
X90309699Y-89102078D01*
X90290561Y-89094081D01*
X90236807Y-89040592D01*
X90168458Y-88948761D01*
X90093479Y-88832605D01*
X90019836Y-88706138D01*
X89955493Y-88583376D01*
X89908416Y-88478336D01*
X89886570Y-88405034D01*
X89897920Y-88377485D01*
X89905778Y-88379208D01*
G36*
X96033771Y-96324057D02*
G01*
X94505390Y-96324057D01*
X94516652Y-96187986D01*
X94527914Y-96051914D01*
X95280842Y-96042106D01*
X96033771Y-96032299D01*
X96033771Y-96324057D01*
G37*
X96033771Y-96324057D02*
X94505390Y-96324057D01*
X94516652Y-96187986D01*
X94527914Y-96051914D01*
X95280842Y-96042106D01*
X96033771Y-96032299D01*
X96033771Y-96324057D01*
G36*
X95288434Y-105121702D02*
G01*
X95303172Y-105176731D01*
X95322321Y-105281431D01*
X95342934Y-105420686D01*
X95351628Y-105484240D01*
X95371664Y-105622448D01*
X95388273Y-105726100D01*
X95398532Y-105776486D01*
X95405088Y-105797684D01*
X95411074Y-105836313D01*
X95410288Y-105891967D01*
X95401619Y-105978314D01*
X95383957Y-106109023D01*
X95356193Y-106297764D01*
X95338160Y-106414234D01*
X95312933Y-106551364D01*
X95291262Y-106621596D01*
X95271191Y-106623848D01*
X95250767Y-106557040D01*
X95228036Y-106420089D01*
X95201043Y-106211914D01*
X95200836Y-106210220D01*
X95180467Y-106011943D01*
X95175208Y-105849421D01*
X95185602Y-105687570D01*
X95212192Y-105491312D01*
X95228479Y-105389751D01*
X95252263Y-105254084D01*
X95271732Y-105157903D01*
X95283792Y-105117369D01*
X95288434Y-105121702D01*
G37*
X95288434Y-105121702D02*
X95303172Y-105176731D01*
X95322321Y-105281431D01*
X95342934Y-105420686D01*
X95351628Y-105484240D01*
X95371664Y-105622448D01*
X95388273Y-105726100D01*
X95398532Y-105776486D01*
X95405088Y-105797684D01*
X95411074Y-105836313D01*
X95410288Y-105891967D01*
X95401619Y-105978314D01*
X95383957Y-106109023D01*
X95356193Y-106297764D01*
X95338160Y-106414234D01*
X95312933Y-106551364D01*
X95291262Y-106621596D01*
X95271191Y-106623848D01*
X95250767Y-106557040D01*
X95228036Y-106420089D01*
X95201043Y-106211914D01*
X95200836Y-106210220D01*
X95180467Y-106011943D01*
X95175208Y-105849421D01*
X95185602Y-105687570D01*
X95212192Y-105491312D01*
X95228479Y-105389751D01*
X95252263Y-105254084D01*
X95271732Y-105157903D01*
X95283792Y-105117369D01*
X95288434Y-105121702D01*
G36*
X92820772Y-96723263D02*
G01*
X93086079Y-96724480D01*
X93325033Y-96727093D01*
X93528388Y-96730896D01*
X93686903Y-96735683D01*
X93791334Y-96741250D01*
X93832438Y-96747390D01*
X93841629Y-96771178D01*
X93852422Y-96852179D01*
X93856628Y-96965105D01*
X93856628Y-97158628D01*
X92876914Y-97158628D01*
X92876914Y-97343645D01*
X92876614Y-97366957D01*
X92845140Y-97571125D01*
X92765749Y-97736891D01*
X92643961Y-97852205D01*
X92546937Y-97893025D01*
X92380620Y-97921864D01*
X92197723Y-97921933D01*
X92026205Y-97893766D01*
X91894023Y-97837896D01*
X91832957Y-97793145D01*
X91766524Y-97725092D01*
X91722374Y-97640732D01*
X91696147Y-97526041D01*
X91683483Y-97366991D01*
X91682405Y-97299328D01*
X91969771Y-97299328D01*
X91982514Y-97408685D01*
X92032780Y-97486830D01*
X92131194Y-97527194D01*
X92288248Y-97537626D01*
X92394317Y-97532382D01*
X92483703Y-97510753D01*
X92536589Y-97467190D01*
X92571663Y-97384590D01*
X92586628Y-97278693D01*
X92586628Y-97158628D01*
X91969771Y-97158628D01*
X91969771Y-97299328D01*
X91682405Y-97299328D01*
X91680020Y-97149557D01*
X91679485Y-96723200D01*
X92743866Y-96723200D01*
X92820772Y-96723263D01*
G37*
X92820772Y-96723263D02*
X93086079Y-96724480D01*
X93325033Y-96727093D01*
X93528388Y-96730896D01*
X93686903Y-96735683D01*
X93791334Y-96741250D01*
X93832438Y-96747390D01*
X93841629Y-96771178D01*
X93852422Y-96852179D01*
X93856628Y-96965105D01*
X93856628Y-97158628D01*
X92876914Y-97158628D01*
X92876914Y-97343645D01*
X92876614Y-97366957D01*
X92845140Y-97571125D01*
X92765749Y-97736891D01*
X92643961Y-97852205D01*
X92546937Y-97893025D01*
X92380620Y-97921864D01*
X92197723Y-97921933D01*
X92026205Y-97893766D01*
X91894023Y-97837896D01*
X91832957Y-97793145D01*
X91766524Y-97725092D01*
X91722374Y-97640732D01*
X91696147Y-97526041D01*
X91683483Y-97366991D01*
X91682405Y-97299328D01*
X91969771Y-97299328D01*
X91982514Y-97408685D01*
X92032780Y-97486830D01*
X92131194Y-97527194D01*
X92288248Y-97537626D01*
X92394317Y-97532382D01*
X92483703Y-97510753D01*
X92536589Y-97467190D01*
X92571663Y-97384590D01*
X92586628Y-97278693D01*
X92586628Y-97158628D01*
X91969771Y-97158628D01*
X91969771Y-97299328D01*
X91682405Y-97299328D01*
X91680020Y-97149557D01*
X91679485Y-96723200D01*
X92743866Y-96723200D01*
X92820772Y-96723263D01*
G36*
X95727802Y-99735469D02*
G01*
X95804620Y-99759269D01*
X95946245Y-99846520D01*
X96037611Y-99970771D01*
X96061308Y-100056056D01*
X96053686Y-100203882D01*
X95996861Y-100343545D01*
X95900736Y-100454463D01*
X95775214Y-100516058D01*
X95716118Y-100526082D01*
X95595881Y-100521951D01*
X95477232Y-100476596D01*
X95346475Y-100383465D01*
X95189916Y-100236004D01*
X95082716Y-100131894D01*
X94965099Y-100037247D01*
X94875818Y-99996943D01*
X94807167Y-100008019D01*
X94751438Y-100067515D01*
X94740972Y-100089116D01*
X94746014Y-100162560D01*
X94803772Y-100219826D01*
X94899096Y-100242914D01*
X94906244Y-100242973D01*
X94965687Y-100256548D01*
X94967225Y-100300310D01*
X94956714Y-100336194D01*
X94945199Y-100427310D01*
X94942514Y-100449142D01*
X94899520Y-100491450D01*
X94812064Y-100489306D01*
X94690473Y-100442110D01*
X94596976Y-100377270D01*
X94530034Y-100269344D01*
X94509771Y-100115914D01*
X94532145Y-99946282D01*
X94602461Y-99827952D01*
X94724389Y-99759065D01*
X94901593Y-99736068D01*
X94938121Y-99735956D01*
X95017925Y-99739880D01*
X95081514Y-99757554D01*
X95145576Y-99798562D01*
X95226799Y-99872488D01*
X95341869Y-99988914D01*
X95423171Y-100070120D01*
X95536025Y-100171051D01*
X95620283Y-100226182D01*
X95685971Y-100242914D01*
X95696057Y-100242706D01*
X95779069Y-100216646D01*
X95813182Y-100159817D01*
X95801073Y-100090586D01*
X95745417Y-100027318D01*
X95648891Y-99988380D01*
X95596847Y-99975993D01*
X95557015Y-99940101D01*
X95556635Y-99861380D01*
X95563985Y-99805598D01*
X95585606Y-99737667D01*
X95633282Y-99719388D01*
X95727802Y-99735469D01*
G37*
X95727802Y-99735469D02*
X95804620Y-99759269D01*
X95946245Y-99846520D01*
X96037611Y-99970771D01*
X96061308Y-100056056D01*
X96053686Y-100203882D01*
X95996861Y-100343545D01*
X95900736Y-100454463D01*
X95775214Y-100516058D01*
X95716118Y-100526082D01*
X95595881Y-100521951D01*
X95477232Y-100476596D01*
X95346475Y-100383465D01*
X95189916Y-100236004D01*
X95082716Y-100131894D01*
X94965099Y-100037247D01*
X94875818Y-99996943D01*
X94807167Y-100008019D01*
X94751438Y-100067515D01*
X94740972Y-100089116D01*
X94746014Y-100162560D01*
X94803772Y-100219826D01*
X94899096Y-100242914D01*
X94906244Y-100242973D01*
X94965687Y-100256548D01*
X94967225Y-100300310D01*
X94956714Y-100336194D01*
X94945199Y-100427310D01*
X94942514Y-100449142D01*
X94899520Y-100491450D01*
X94812064Y-100489306D01*
X94690473Y-100442110D01*
X94596976Y-100377270D01*
X94530034Y-100269344D01*
X94509771Y-100115914D01*
X94532145Y-99946282D01*
X94602461Y-99827952D01*
X94724389Y-99759065D01*
X94901593Y-99736068D01*
X94938121Y-99735956D01*
X95017925Y-99739880D01*
X95081514Y-99757554D01*
X95145576Y-99798562D01*
X95226799Y-99872488D01*
X95341869Y-99988914D01*
X95423171Y-100070120D01*
X95536025Y-100171051D01*
X95620283Y-100226182D01*
X95685971Y-100242914D01*
X95696057Y-100242706D01*
X95779069Y-100216646D01*
X95813182Y-100159817D01*
X95801073Y-100090586D01*
X95745417Y-100027318D01*
X95648891Y-99988380D01*
X95596847Y-99975993D01*
X95557015Y-99940101D01*
X95556635Y-99861380D01*
X95563985Y-99805598D01*
X95585606Y-99737667D01*
X95633282Y-99719388D01*
X95727802Y-99735469D01*
G36*
X94958766Y-103911684D02*
G01*
X95055233Y-103933696D01*
X95147294Y-103983719D01*
X95251445Y-104071373D01*
X95384183Y-104206275D01*
X95490848Y-104314795D01*
X95568682Y-104379267D01*
X95630848Y-104407528D01*
X95692612Y-104409642D01*
X95724524Y-104404872D01*
X95783084Y-104375184D01*
X95797914Y-104306914D01*
X95794689Y-104270427D01*
X95759661Y-104215427D01*
X95670914Y-104175152D01*
X95649685Y-104167929D01*
X95577518Y-104136016D01*
X95552985Y-104111652D01*
X95558934Y-104073378D01*
X95562057Y-103993708D01*
X95562425Y-103968419D01*
X95573779Y-103922266D01*
X95616234Y-103908927D01*
X95710016Y-103918061D01*
X95808766Y-103941164D01*
X95948021Y-104020926D01*
X96035754Y-104143628D01*
X96042831Y-104162554D01*
X96062824Y-104308020D01*
X96035109Y-104455894D01*
X95967304Y-104582645D01*
X95867029Y-104664744D01*
X95768656Y-104695019D01*
X95613687Y-104701796D01*
X95478028Y-104664969D01*
X95456222Y-104651322D01*
X95377638Y-104590217D01*
X95271525Y-104498420D01*
X95154486Y-104390042D01*
X95061007Y-104303631D01*
X94947567Y-104214342D01*
X94864270Y-104176295D01*
X94801995Y-104186101D01*
X94751621Y-104240373D01*
X94741213Y-104261677D01*
X94745899Y-104335151D01*
X94803260Y-104392583D01*
X94898097Y-104415771D01*
X94953563Y-104421329D01*
X94973769Y-104453449D01*
X94961987Y-104533700D01*
X94947399Y-104599448D01*
X94923325Y-104656371D01*
X94877210Y-104669323D01*
X94785178Y-104654635D01*
X94746663Y-104645369D01*
X94618323Y-104572880D01*
X94537726Y-104449237D01*
X94509771Y-104281087D01*
X94525111Y-104162176D01*
X94595151Y-104026939D01*
X94713815Y-103939088D01*
X94872222Y-103907771D01*
X94958766Y-103911684D01*
G37*
X94958766Y-103911684D02*
X95055233Y-103933696D01*
X95147294Y-103983719D01*
X95251445Y-104071373D01*
X95384183Y-104206275D01*
X95490848Y-104314795D01*
X95568682Y-104379267D01*
X95630848Y-104407528D01*
X95692612Y-104409642D01*
X95724524Y-104404872D01*
X95783084Y-104375184D01*
X95797914Y-104306914D01*
X95794689Y-104270427D01*
X95759661Y-104215427D01*
X95670914Y-104175152D01*
X95649685Y-104167929D01*
X95577518Y-104136016D01*
X95552985Y-104111652D01*
X95558934Y-104073378D01*
X95562057Y-103993708D01*
X95562425Y-103968419D01*
X95573779Y-103922266D01*
X95616234Y-103908927D01*
X95710016Y-103918061D01*
X95808766Y-103941164D01*
X95948021Y-104020926D01*
X96035754Y-104143628D01*
X96042831Y-104162554D01*
X96062824Y-104308020D01*
X96035109Y-104455894D01*
X95967304Y-104582645D01*
X95867029Y-104664744D01*
X95768656Y-104695019D01*
X95613687Y-104701796D01*
X95478028Y-104664969D01*
X95456222Y-104651322D01*
X95377638Y-104590217D01*
X95271525Y-104498420D01*
X95154486Y-104390042D01*
X95061007Y-104303631D01*
X94947567Y-104214342D01*
X94864270Y-104176295D01*
X94801995Y-104186101D01*
X94751621Y-104240373D01*
X94741213Y-104261677D01*
X94745899Y-104335151D01*
X94803260Y-104392583D01*
X94898097Y-104415771D01*
X94953563Y-104421329D01*
X94973769Y-104453449D01*
X94961987Y-104533700D01*
X94947399Y-104599448D01*
X94923325Y-104656371D01*
X94877210Y-104669323D01*
X94785178Y-104654635D01*
X94746663Y-104645369D01*
X94618323Y-104572880D01*
X94537726Y-104449237D01*
X94509771Y-104281087D01*
X94525111Y-104162176D01*
X94595151Y-104026939D01*
X94713815Y-103939088D01*
X94872222Y-103907771D01*
X94958766Y-103911684D01*
G36*
X94675480Y-100610170D02*
G01*
X94717785Y-100641891D01*
X94734258Y-100723700D01*
X94745628Y-100841628D01*
X95389699Y-100851537D01*
X96033771Y-100861446D01*
X96033771Y-101150057D01*
X94727485Y-101150057D01*
X94727485Y-101258914D01*
X94724150Y-101316368D01*
X94695732Y-101358780D01*
X94618628Y-101367771D01*
X94509771Y-101367771D01*
X94509771Y-100605771D01*
X94616329Y-100605771D01*
X94675480Y-100610170D01*
G37*
X94675480Y-100610170D02*
X94717785Y-100641891D01*
X94734258Y-100723700D01*
X94745628Y-100841628D01*
X95389699Y-100851537D01*
X96033771Y-100861446D01*
X96033771Y-101150057D01*
X94727485Y-101150057D01*
X94727485Y-101258914D01*
X94724150Y-101316368D01*
X94695732Y-101358780D01*
X94618628Y-101367771D01*
X94509771Y-101367771D01*
X94509771Y-100605771D01*
X94616329Y-100605771D01*
X94675480Y-100610170D01*
G36*
X93856628Y-103254628D02*
G01*
X93566342Y-103254628D01*
X93566342Y-102746628D01*
X91679485Y-102746628D01*
X91679485Y-102347485D01*
X93856628Y-102347485D01*
X93856628Y-103254628D01*
G37*
X93856628Y-103254628D02*
X93566342Y-103254628D01*
X93566342Y-102746628D01*
X91679485Y-102746628D01*
X91679485Y-102347485D01*
X93856628Y-102347485D01*
X93856628Y-103254628D01*
G36*
X96033771Y-96829680D02*
G01*
X95628233Y-96839940D01*
X95222694Y-96850200D01*
X95627967Y-97013485D01*
X95734060Y-97056531D01*
X95871675Y-97115071D01*
X95959206Y-97159064D01*
X96007874Y-97195791D01*
X96028901Y-97232529D01*
X96033505Y-97276557D01*
X96033771Y-97376343D01*
X94505173Y-97376343D01*
X94516543Y-97258414D01*
X94527914Y-97140485D01*
X94890771Y-97122343D01*
X95253628Y-97104200D01*
X94881699Y-96944195D01*
X94815902Y-96915769D01*
X94674882Y-96852532D01*
X94585313Y-96805622D01*
X94535642Y-96766866D01*
X94514313Y-96728091D01*
X94509771Y-96681123D01*
X94509771Y-96578057D01*
X96033771Y-96578057D01*
X96033771Y-96829680D01*
G37*
X96033771Y-96829680D02*
X95628233Y-96839940D01*
X95222694Y-96850200D01*
X95627967Y-97013485D01*
X95734060Y-97056531D01*
X95871675Y-97115071D01*
X95959206Y-97159064D01*
X96007874Y-97195791D01*
X96028901Y-97232529D01*
X96033505Y-97276557D01*
X96033771Y-97376343D01*
X94505173Y-97376343D01*
X94516543Y-97258414D01*
X94527914Y-97140485D01*
X94890771Y-97122343D01*
X95253628Y-97104200D01*
X94881699Y-96944195D01*
X94815902Y-96915769D01*
X94674882Y-96852532D01*
X94585313Y-96805622D01*
X94535642Y-96766866D01*
X94514313Y-96728091D01*
X94509771Y-96681123D01*
X94509771Y-96578057D01*
X96033771Y-96578057D01*
X96033771Y-96829680D01*
G36*
X96033771Y-101803200D02*
G01*
X95689057Y-101803200D01*
X95644176Y-101803419D01*
X95470469Y-101810609D01*
X95368617Y-101827782D01*
X95338631Y-101854704D01*
X95380523Y-101891136D01*
X95494304Y-101936843D01*
X95679985Y-101991587D01*
X96015628Y-102081214D01*
X96026786Y-102232492D01*
X96029248Y-102270814D01*
X96031272Y-102351357D01*
X96026786Y-102383138D01*
X96009034Y-102378665D01*
X95934258Y-102357606D01*
X95815419Y-102323255D01*
X95667887Y-102280026D01*
X95320145Y-102177548D01*
X95221363Y-102262517D01*
X95117980Y-102321803D01*
X94970303Y-102350479D01*
X94816785Y-102336913D01*
X94680628Y-102283631D01*
X94585031Y-102193164D01*
X94578772Y-102180922D01*
X94554282Y-102094815D01*
X94532797Y-101965081D01*
X94521571Y-101848085D01*
X94730879Y-101848085D01*
X94734146Y-101902717D01*
X94752070Y-101964567D01*
X94823358Y-102042508D01*
X94927866Y-102074184D01*
X95044985Y-102049840D01*
X95111380Y-102002738D01*
X95156253Y-101902717D01*
X95158181Y-101885415D01*
X95157661Y-101838103D01*
X95132682Y-101813671D01*
X95067208Y-101804557D01*
X94945199Y-101803200D01*
X94906513Y-101803230D01*
X94801024Y-101805904D01*
X94747825Y-101818335D01*
X94730879Y-101848085D01*
X94521571Y-101848085D01*
X94518372Y-101814746D01*
X94499541Y-101512914D01*
X96033771Y-101512914D01*
X96033771Y-101803200D01*
G37*
X96033771Y-101803200D02*
X95689057Y-101803200D01*
X95644176Y-101803419D01*
X95470469Y-101810609D01*
X95368617Y-101827782D01*
X95338631Y-101854704D01*
X95380523Y-101891136D01*
X95494304Y-101936843D01*
X95679985Y-101991587D01*
X96015628Y-102081214D01*
X96026786Y-102232492D01*
X96029248Y-102270814D01*
X96031272Y-102351357D01*
X96026786Y-102383138D01*
X96009034Y-102378665D01*
X95934258Y-102357606D01*
X95815419Y-102323255D01*
X95667887Y-102280026D01*
X95320145Y-102177548D01*
X95221363Y-102262517D01*
X95117980Y-102321803D01*
X94970303Y-102350479D01*
X94816785Y-102336913D01*
X94680628Y-102283631D01*
X94585031Y-102193164D01*
X94578772Y-102180922D01*
X94554282Y-102094815D01*
X94532797Y-101965081D01*
X94521571Y-101848085D01*
X94730879Y-101848085D01*
X94734146Y-101902717D01*
X94752070Y-101964567D01*
X94823358Y-102042508D01*
X94927866Y-102074184D01*
X95044985Y-102049840D01*
X95111380Y-102002738D01*
X95156253Y-101902717D01*
X95158181Y-101885415D01*
X95157661Y-101838103D01*
X95132682Y-101813671D01*
X95067208Y-101804557D01*
X94945199Y-101803200D01*
X94906513Y-101803230D01*
X94801024Y-101805904D01*
X94747825Y-101818335D01*
X94730879Y-101848085D01*
X94521571Y-101848085D01*
X94518372Y-101814746D01*
X94499541Y-101512914D01*
X96033771Y-101512914D01*
X96033771Y-101803200D01*
G36*
X95300410Y-94136145D02*
G01*
X95322017Y-94230838D01*
X95349536Y-94382771D01*
X95374576Y-94536027D01*
X95391240Y-94678230D01*
X95396235Y-94811847D01*
X95389346Y-94956894D01*
X95370360Y-95133390D01*
X95339062Y-95361350D01*
X95333512Y-95398928D01*
X95312408Y-95518199D01*
X95293099Y-95577118D01*
X95273933Y-95573297D01*
X95253259Y-95504352D01*
X95229427Y-95367896D01*
X95200784Y-95161542D01*
X95194448Y-95111179D01*
X95175882Y-94901255D01*
X95176822Y-94718222D01*
X95197062Y-94526542D01*
X95218113Y-94381621D01*
X95243568Y-94221428D01*
X95263936Y-94128847D01*
X95281967Y-94101283D01*
X95300410Y-94136145D01*
G37*
X95300410Y-94136145D02*
X95322017Y-94230838D01*
X95349536Y-94382771D01*
X95374576Y-94536027D01*
X95391240Y-94678230D01*
X95396235Y-94811847D01*
X95389346Y-94956894D01*
X95370360Y-95133390D01*
X95339062Y-95361350D01*
X95333512Y-95398928D01*
X95312408Y-95518199D01*
X95293099Y-95577118D01*
X95273933Y-95573297D01*
X95253259Y-95504352D01*
X95229427Y-95367896D01*
X95200784Y-95161542D01*
X95194448Y-95111179D01*
X95175882Y-94901255D01*
X95176822Y-94718222D01*
X95197062Y-94526542D01*
X95218113Y-94381621D01*
X95243568Y-94221428D01*
X95263936Y-94128847D01*
X95281967Y-94101283D01*
X95300410Y-94136145D01*
G36*
X90507530Y-89760368D02*
G01*
X90531083Y-89883343D01*
X90533774Y-89907455D01*
X90536922Y-90020715D01*
X90532254Y-90163743D01*
X90521490Y-90310954D01*
X90506351Y-90436765D01*
X90488559Y-90515594D01*
X90484191Y-90525228D01*
X90464014Y-90532733D01*
X90446557Y-90484066D01*
X90432630Y-90392834D01*
X90423046Y-90272646D01*
X90418616Y-90137109D01*
X90420151Y-89999831D01*
X90428463Y-89874421D01*
X90444364Y-89774485D01*
X90458951Y-89727756D01*
X90483316Y-89708292D01*
X90507530Y-89760368D01*
G37*
X90507530Y-89760368D02*
X90531083Y-89883343D01*
X90533774Y-89907455D01*
X90536922Y-90020715D01*
X90532254Y-90163743D01*
X90521490Y-90310954D01*
X90506351Y-90436765D01*
X90488559Y-90515594D01*
X90484191Y-90525228D01*
X90464014Y-90532733D01*
X90446557Y-90484066D01*
X90432630Y-90392834D01*
X90423046Y-90272646D01*
X90418616Y-90137109D01*
X90420151Y-89999831D01*
X90428463Y-89874421D01*
X90444364Y-89774485D01*
X90458951Y-89727756D01*
X90483316Y-89708292D01*
X90507530Y-89760368D01*
G36*
X95157605Y-98682632D02*
G01*
X95417639Y-98684559D01*
X95615537Y-98691566D01*
X95761196Y-98705895D01*
X95864514Y-98729790D01*
X95935389Y-98765497D01*
X95983720Y-98815259D01*
X96019404Y-98881320D01*
X96035234Y-98921150D01*
X96066541Y-99103189D01*
X96029837Y-99295173D01*
X96025768Y-99306533D01*
X95992169Y-99376916D01*
X95943853Y-99429844D01*
X95871187Y-99467733D01*
X95764539Y-99492997D01*
X95614277Y-99508053D01*
X95410769Y-99515316D01*
X95144382Y-99517200D01*
X94505390Y-99517200D01*
X94516652Y-99381128D01*
X94527914Y-99245057D01*
X95153022Y-99235132D01*
X95257929Y-99233369D01*
X95459255Y-99228808D01*
X95603031Y-99222713D01*
X95699816Y-99213859D01*
X95760171Y-99201023D01*
X95794656Y-99182978D01*
X95813831Y-99158502D01*
X95829848Y-99105812D01*
X95799505Y-99023284D01*
X95791266Y-99012978D01*
X95762658Y-98990324D01*
X95715894Y-98973820D01*
X95640092Y-98962166D01*
X95524369Y-98954062D01*
X95357841Y-98948210D01*
X95129625Y-98943310D01*
X94509771Y-98931850D01*
X94509771Y-98682628D01*
X95143064Y-98682628D01*
X95157605Y-98682632D01*
G37*
X95157605Y-98682632D02*
X95417639Y-98684559D01*
X95615537Y-98691566D01*
X95761196Y-98705895D01*
X95864514Y-98729790D01*
X95935389Y-98765497D01*
X95983720Y-98815259D01*
X96019404Y-98881320D01*
X96035234Y-98921150D01*
X96066541Y-99103189D01*
X96029837Y-99295173D01*
X96025768Y-99306533D01*
X95992169Y-99376916D01*
X95943853Y-99429844D01*
X95871187Y-99467733D01*
X95764539Y-99492997D01*
X95614277Y-99508053D01*
X95410769Y-99515316D01*
X95144382Y-99517200D01*
X94505390Y-99517200D01*
X94516652Y-99381128D01*
X94527914Y-99245057D01*
X95153022Y-99235132D01*
X95257929Y-99233369D01*
X95459255Y-99228808D01*
X95603031Y-99222713D01*
X95699816Y-99213859D01*
X95760171Y-99201023D01*
X95794656Y-99182978D01*
X95813831Y-99158502D01*
X95829848Y-99105812D01*
X95799505Y-99023284D01*
X95791266Y-99012978D01*
X95762658Y-98990324D01*
X95715894Y-98973820D01*
X95640092Y-98962166D01*
X95524369Y-98954062D01*
X95357841Y-98948210D01*
X95129625Y-98943310D01*
X94509771Y-98931850D01*
X94509771Y-98682628D01*
X95143064Y-98682628D01*
X95157605Y-98682632D01*
G36*
X90670486Y-89680733D02*
G01*
X90726871Y-89736628D01*
X90797185Y-89824649D01*
X90870959Y-89930862D01*
X90937722Y-90041337D01*
X90987005Y-90142141D01*
X91021088Y-90228756D01*
X91051108Y-90321409D01*
X91046886Y-90353322D01*
X91006865Y-90327313D01*
X90929487Y-90246200D01*
X90896993Y-90207115D01*
X90819102Y-90095025D01*
X90744402Y-89966978D01*
X90682558Y-89841785D01*
X90643237Y-89738257D01*
X90636103Y-89675205D01*
X90638500Y-89670893D01*
X90670486Y-89680733D01*
G37*
X90670486Y-89680733D02*
X90726871Y-89736628D01*
X90797185Y-89824649D01*
X90870959Y-89930862D01*
X90937722Y-90041337D01*
X90987005Y-90142141D01*
X91021088Y-90228756D01*
X91051108Y-90321409D01*
X91046886Y-90353322D01*
X91006865Y-90327313D01*
X90929487Y-90246200D01*
X90896993Y-90207115D01*
X90819102Y-90095025D01*
X90744402Y-89966978D01*
X90682558Y-89841785D01*
X90643237Y-89738257D01*
X90636103Y-89675205D01*
X90638500Y-89670893D01*
X90670486Y-89680733D01*
G36*
X93849545Y-99508128D02*
G01*
X93838485Y-99680485D01*
X93257914Y-99698628D01*
X92677342Y-99716771D01*
X93257914Y-99954911D01*
X93838485Y-100193051D01*
X93849747Y-100326840D01*
X93861009Y-100460628D01*
X91679485Y-100460628D01*
X91679485Y-100135900D01*
X92249904Y-100125907D01*
X92820322Y-100115914D01*
X91697628Y-99637812D01*
X91686470Y-99486792D01*
X91675313Y-99335771D01*
X93860604Y-99335771D01*
X93849545Y-99508128D01*
G37*
X93849545Y-99508128D02*
X93838485Y-99680485D01*
X93257914Y-99698628D01*
X92677342Y-99716771D01*
X93257914Y-99954911D01*
X93838485Y-100193051D01*
X93849747Y-100326840D01*
X93861009Y-100460628D01*
X91679485Y-100460628D01*
X91679485Y-100135900D01*
X92249904Y-100125907D01*
X92820322Y-100115914D01*
X91697628Y-99637812D01*
X91686470Y-99486792D01*
X91675313Y-99335771D01*
X93860604Y-99335771D01*
X93849545Y-99508128D01*
G36*
X93465731Y-94131063D02*
G01*
X93629940Y-94100487D01*
X93742275Y-94080843D01*
X93793128Y-94073957D01*
X93795634Y-94073999D01*
X93833512Y-94089089D01*
X93851847Y-94142791D01*
X93856628Y-94251889D01*
X93854108Y-94347637D01*
X93836931Y-94411168D01*
X93790739Y-94448881D01*
X93701177Y-94472184D01*
X93553888Y-94492488D01*
X93348628Y-94518133D01*
X93348628Y-94900552D01*
X93553888Y-94926198D01*
X93696370Y-94945687D01*
X93788017Y-94968643D01*
X93835705Y-95005541D01*
X93853790Y-95067788D01*
X93856628Y-95166796D01*
X93854932Y-95228442D01*
X93845097Y-95312324D01*
X93829414Y-95345871D01*
X93823341Y-95345256D01*
X93760844Y-95334617D01*
X93639145Y-95312120D01*
X93467269Y-95279487D01*
X93254243Y-95238442D01*
X93009092Y-95190708D01*
X92740842Y-95138009D01*
X91679485Y-94928618D01*
X91679485Y-94712262D01*
X92278199Y-94712262D01*
X92568485Y-94759575D01*
X92595505Y-94763992D01*
X92745660Y-94788956D01*
X92875181Y-94811127D01*
X92958557Y-94826151D01*
X92971645Y-94828613D01*
X93030444Y-94831618D01*
X93054026Y-94798733D01*
X93058342Y-94711655D01*
X93058342Y-94577896D01*
X92904128Y-94601361D01*
X92815958Y-94615526D01*
X92666420Y-94641123D01*
X92514057Y-94668544D01*
X92278199Y-94712262D01*
X91679485Y-94712262D01*
X91679485Y-94488222D01*
X92704557Y-94280897D01*
X92757943Y-94270117D01*
X93020124Y-94217705D01*
X93058342Y-94210199D01*
X93259256Y-94170744D01*
X93465731Y-94131063D01*
G37*
X93465731Y-94131063D02*
X93629940Y-94100487D01*
X93742275Y-94080843D01*
X93793128Y-94073957D01*
X93795634Y-94073999D01*
X93833512Y-94089089D01*
X93851847Y-94142791D01*
X93856628Y-94251889D01*
X93854108Y-94347637D01*
X93836931Y-94411168D01*
X93790739Y-94448881D01*
X93701177Y-94472184D01*
X93553888Y-94492488D01*
X93348628Y-94518133D01*
X93348628Y-94900552D01*
X93553888Y-94926198D01*
X93696370Y-94945687D01*
X93788017Y-94968643D01*
X93835705Y-95005541D01*
X93853790Y-95067788D01*
X93856628Y-95166796D01*
X93854932Y-95228442D01*
X93845097Y-95312324D01*
X93829414Y-95345871D01*
X93823341Y-95345256D01*
X93760844Y-95334617D01*
X93639145Y-95312120D01*
X93467269Y-95279487D01*
X93254243Y-95238442D01*
X93009092Y-95190708D01*
X92740842Y-95138009D01*
X91679485Y-94928618D01*
X91679485Y-94712262D01*
X92278199Y-94712262D01*
X92568485Y-94759575D01*
X92595505Y-94763992D01*
X92745660Y-94788956D01*
X92875181Y-94811127D01*
X92958557Y-94826151D01*
X92971645Y-94828613D01*
X93030444Y-94831618D01*
X93054026Y-94798733D01*
X93058342Y-94711655D01*
X93058342Y-94577896D01*
X92904128Y-94601361D01*
X92815958Y-94615526D01*
X92666420Y-94641123D01*
X92514057Y-94668544D01*
X92278199Y-94712262D01*
X91679485Y-94712262D01*
X91679485Y-94488222D01*
X92704557Y-94280897D01*
X92757943Y-94270117D01*
X93020124Y-94217705D01*
X93058342Y-94210199D01*
X93259256Y-94170744D01*
X93465731Y-94131063D01*
G36*
X90310630Y-89650702D02*
G01*
X90304360Y-89697296D01*
X90279348Y-89782932D01*
X90242864Y-89886491D01*
X90202179Y-89986853D01*
X90164561Y-90062900D01*
X90131235Y-90112993D01*
X90066007Y-90197889D01*
X89994220Y-90282420D01*
X89932488Y-90347289D01*
X89897423Y-90373200D01*
X89892820Y-90354407D01*
X89909138Y-90285249D01*
X89946008Y-90182700D01*
X89978724Y-90110397D01*
X90045406Y-89987394D01*
X90122687Y-89863234D01*
X90199509Y-89754285D01*
X90264817Y-89676913D01*
X90307555Y-89647485D01*
X90310630Y-89650702D01*
G37*
X90310630Y-89650702D02*
X90304360Y-89697296D01*
X90279348Y-89782932D01*
X90242864Y-89886491D01*
X90202179Y-89986853D01*
X90164561Y-90062900D01*
X90131235Y-90112993D01*
X90066007Y-90197889D01*
X89994220Y-90282420D01*
X89932488Y-90347289D01*
X89897423Y-90373200D01*
X89892820Y-90354407D01*
X89909138Y-90285249D01*
X89946008Y-90182700D01*
X89978724Y-90110397D01*
X90045406Y-89987394D01*
X90122687Y-89863234D01*
X90199509Y-89754285D01*
X90264817Y-89676913D01*
X90307555Y-89647485D01*
X90310630Y-89650702D01*
G36*
X93856628Y-96505485D02*
G01*
X93566342Y-96505485D01*
X93566342Y-95997486D01*
X91679485Y-95997486D01*
X91679485Y-95598343D01*
X93856628Y-95598343D01*
X93856628Y-96505485D01*
G37*
X93856628Y-96505485D02*
X93566342Y-96505485D01*
X93566342Y-95997486D01*
X91679485Y-95997486D01*
X91679485Y-95598343D01*
X93856628Y-95598343D01*
X93856628Y-96505485D01*
G36*
X93856628Y-99081771D02*
G01*
X93566342Y-99081771D01*
X93566342Y-98573771D01*
X92876914Y-98573771D01*
X92876914Y-98972914D01*
X92550342Y-98972914D01*
X92550342Y-98573771D01*
X91969771Y-98573771D01*
X91969771Y-99081771D01*
X91679485Y-99081771D01*
X91679485Y-98174628D01*
X93856628Y-98174628D01*
X93856628Y-99081771D01*
G37*
X93856628Y-99081771D02*
X93566342Y-99081771D01*
X93566342Y-98573771D01*
X92876914Y-98573771D01*
X92876914Y-98972914D01*
X92550342Y-98972914D01*
X92550342Y-98573771D01*
X91969771Y-98573771D01*
X91969771Y-99081771D01*
X91679485Y-99081771D01*
X91679485Y-98174628D01*
X93856628Y-98174628D01*
X93856628Y-99081771D01*
G36*
X93253813Y-103450174D02*
G01*
X93424912Y-103470117D01*
X93553410Y-103502261D01*
X93649294Y-103549118D01*
X93722552Y-103613201D01*
X93783171Y-103697019D01*
X93809522Y-103750845D01*
X93848598Y-103908150D01*
X93858514Y-104090463D01*
X93839005Y-104268882D01*
X93789803Y-104414505D01*
X93771626Y-104446910D01*
X93715142Y-104526375D01*
X93645236Y-104586516D01*
X93552066Y-104629919D01*
X93425790Y-104659173D01*
X93256567Y-104676865D01*
X93034556Y-104685583D01*
X92749914Y-104687914D01*
X92566051Y-104687608D01*
X92367589Y-104685677D01*
X92221888Y-104681067D01*
X92117476Y-104672753D01*
X92042884Y-104659710D01*
X91986642Y-104640915D01*
X91937278Y-104615343D01*
X91841323Y-104550453D01*
X91736603Y-104437083D01*
X91676619Y-104292084D01*
X91651245Y-104097111D01*
X91652838Y-104021676D01*
X91958786Y-104021676D01*
X91962962Y-104130354D01*
X92034799Y-104225271D01*
X92079657Y-104241522D01*
X92189267Y-104257200D01*
X92344790Y-104267936D01*
X92531544Y-104273841D01*
X92734846Y-104275029D01*
X92940013Y-104271612D01*
X93132365Y-104263701D01*
X93297217Y-104251411D01*
X93419889Y-104234854D01*
X93485697Y-104214142D01*
X93486412Y-104213639D01*
X93551709Y-104128912D01*
X93560945Y-104024911D01*
X93511480Y-103930664D01*
X93484591Y-103909372D01*
X93406430Y-103876516D01*
X93287262Y-103854002D01*
X93119287Y-103841058D01*
X92894705Y-103836908D01*
X92605714Y-103840780D01*
X92527042Y-103842674D01*
X92341304Y-103848185D01*
X92211435Y-103855256D01*
X92125001Y-103865933D01*
X92069569Y-103882261D01*
X92032702Y-103906282D01*
X92001968Y-103940043D01*
X91958786Y-104021676D01*
X91652838Y-104021676D01*
X91655238Y-103908084D01*
X91698966Y-103742272D01*
X91790141Y-103616246D01*
X91934787Y-103517700D01*
X91981540Y-103494964D01*
X92042718Y-103471751D01*
X92113865Y-103455608D01*
X92207501Y-103445290D01*
X92336144Y-103439555D01*
X92512314Y-103437157D01*
X92748531Y-103436854D01*
X92894705Y-103438447D01*
X93030124Y-103439922D01*
X93253813Y-103450174D01*
G37*
X93253813Y-103450174D02*
X93424912Y-103470117D01*
X93553410Y-103502261D01*
X93649294Y-103549118D01*
X93722552Y-103613201D01*
X93783171Y-103697019D01*
X93809522Y-103750845D01*
X93848598Y-103908150D01*
X93858514Y-104090463D01*
X93839005Y-104268882D01*
X93789803Y-104414505D01*
X93771626Y-104446910D01*
X93715142Y-104526375D01*
X93645236Y-104586516D01*
X93552066Y-104629919D01*
X93425790Y-104659173D01*
X93256567Y-104676865D01*
X93034556Y-104685583D01*
X92749914Y-104687914D01*
X92566051Y-104687608D01*
X92367589Y-104685677D01*
X92221888Y-104681067D01*
X92117476Y-104672753D01*
X92042884Y-104659710D01*
X91986642Y-104640915D01*
X91937278Y-104615343D01*
X91841323Y-104550453D01*
X91736603Y-104437083D01*
X91676619Y-104292084D01*
X91651245Y-104097111D01*
X91652838Y-104021676D01*
X91958786Y-104021676D01*
X91962962Y-104130354D01*
X92034799Y-104225271D01*
X92079657Y-104241522D01*
X92189267Y-104257200D01*
X92344790Y-104267936D01*
X92531544Y-104273841D01*
X92734846Y-104275029D01*
X92940013Y-104271612D01*
X93132365Y-104263701D01*
X93297217Y-104251411D01*
X93419889Y-104234854D01*
X93485697Y-104214142D01*
X93486412Y-104213639D01*
X93551709Y-104128912D01*
X93560945Y-104024911D01*
X93511480Y-103930664D01*
X93484591Y-103909372D01*
X93406430Y-103876516D01*
X93287262Y-103854002D01*
X93119287Y-103841058D01*
X92894705Y-103836908D01*
X92605714Y-103840780D01*
X92527042Y-103842674D01*
X92341304Y-103848185D01*
X92211435Y-103855256D01*
X92125001Y-103865933D01*
X92069569Y-103882261D01*
X92032702Y-103906282D01*
X92001968Y-103940043D01*
X91958786Y-104021676D01*
X91652838Y-104021676D01*
X91655238Y-103908084D01*
X91698966Y-103742272D01*
X91790141Y-103616246D01*
X91934787Y-103517700D01*
X91981540Y-103494964D01*
X92042718Y-103471751D01*
X92113865Y-103455608D01*
X92207501Y-103445290D01*
X92336144Y-103439555D01*
X92512314Y-103437157D01*
X92748531Y-103436854D01*
X92894705Y-103438447D01*
X93030124Y-103439922D01*
X93253813Y-103450174D01*
G36*
X96033771Y-102855486D02*
G01*
X94505390Y-102855486D01*
X94516652Y-102719414D01*
X94527914Y-102583343D01*
X95280842Y-102573535D01*
X96033771Y-102563727D01*
X96033771Y-102855486D01*
G37*
X96033771Y-102855486D02*
X94505390Y-102855486D01*
X94516652Y-102719414D01*
X94527914Y-102583343D01*
X95280842Y-102573535D01*
X96033771Y-102563727D01*
X96033771Y-102855486D01*
%TD*%
%LPC*%
D15*
%TO.C,D1*%
X96088200Y-109397800D03*
D16*
X96088200Y-111937800D03*
%TD*%
D15*
%TO.C,D2*%
X109397800Y-116840000D03*
D16*
X109397800Y-119380000D03*
%TD*%
D15*
%TO.C,D3*%
X122732800Y-109397800D03*
D16*
X122732800Y-111937800D03*
%TD*%
D17*
%TO.C,BT1*%
X121716800Y-92583000D03*
X100634800Y-92583000D03*
D18*
X111175800Y-92583000D03*
%TD*%
D19*
%TO.C,SW1*%
X134443520Y-102471556D03*
X132321204Y-110392148D03*
D20*
X133900000Y-104500000D03*
D21*
X133382362Y-106431852D03*
X132864724Y-108363703D03*
%TD*%
M02*
