%TF.GenerationSoftware,KiCad,Pcbnew,(6.0.4)*%
%TF.CreationDate,2024-01-19T15:38:44-08:00*%
%TF.ProjectId,Alpenglow_ChillySnowCloud_PCB,416c7065-6e67-46c6-9f77-5f4368696c6c,rev?*%
%TF.SameCoordinates,Original*%
%TF.FileFunction,Legend,Bot*%
%TF.FilePolarity,Positive*%
%FSLAX46Y46*%
G04 Gerber Fmt 4.6, Leading zero omitted, Abs format (unit mm)*
G04 Created by KiCad (PCBNEW (6.0.4)) date 2024-01-19 15:38:44*
%MOMM*%
%LPD*%
G01*
G04 APERTURE LIST*
G04 Aperture macros list*
%AMRoundRect*
0 Rectangle with rounded corners*
0 $1 Rounding radius*
0 $2 $3 $4 $5 $6 $7 $8 $9 X,Y pos of 4 corners*
0 Add a 4 corners polygon primitive as box body*
4,1,4,$2,$3,$4,$5,$6,$7,$8,$9,$2,$3,0*
0 Add four circle primitives for the rounded corners*
1,1,$1+$1,$2,$3*
1,1,$1+$1,$4,$5*
1,1,$1+$1,$6,$7*
1,1,$1+$1,$8,$9*
0 Add four rect primitives between the rounded corners*
20,1,$1+$1,$2,$3,$4,$5,0*
20,1,$1+$1,$4,$5,$6,$7,0*
20,1,$1+$1,$6,$7,$8,$9,0*
20,1,$1+$1,$8,$9,$2,$3,0*%
G04 Aperture macros list end*
%ADD10C,0.150000*%
%ADD11C,0.177800*%
%ADD12C,0.254000*%
%ADD13C,0.120000*%
%ADD14C,0.010000*%
%ADD15RoundRect,0.050000X-0.900000X0.900000X-0.900000X-0.900000X0.900000X-0.900000X0.900000X0.900000X0*%
%ADD16C,1.900000*%
%ADD17C,1.117600*%
%ADD18O,2.600000X4.100000*%
%ADD19C,17.372000*%
%ADD20C,2.100000*%
G04 APERTURE END LIST*
D10*
X136138863Y-99107734D02*
X135954877Y-99058436D01*
X135850560Y-99079783D01*
X135733917Y-99147126D01*
X135638622Y-99318787D01*
X135552349Y-99640763D01*
X135549046Y-99837073D01*
X135616390Y-99953716D01*
X135696058Y-100024361D01*
X135880044Y-100073660D01*
X135984362Y-100052313D01*
X136101004Y-99984970D01*
X136196299Y-99813309D01*
X136282572Y-99491333D01*
X136285875Y-99295023D01*
X136218531Y-99178380D01*
X136138863Y-99107734D01*
X134865704Y-99259581D02*
X135187680Y-99345854D01*
X135052108Y-99851815D02*
X135310927Y-98885890D01*
X134850962Y-98762642D01*
X134037768Y-99037736D02*
X134359743Y-99124009D01*
X134224171Y-99629970D02*
X134482990Y-98664045D01*
X134023026Y-98540797D01*
D11*
X115578466Y-109386914D02*
X114610847Y-109386914D01*
X113098942Y-109810247D02*
X112917514Y-109870723D01*
X112615133Y-109870723D01*
X112494180Y-109810247D01*
X112433704Y-109749771D01*
X112373228Y-109628819D01*
X112373228Y-109507866D01*
X112433704Y-109386914D01*
X112494180Y-109326438D01*
X112615133Y-109265961D01*
X112857038Y-109205485D01*
X112977990Y-109145009D01*
X113038466Y-109084533D01*
X113098942Y-108963580D01*
X113098942Y-108842628D01*
X113038466Y-108721676D01*
X112977990Y-108661200D01*
X112857038Y-108600723D01*
X112554657Y-108600723D01*
X112373228Y-108661200D01*
X111828942Y-109870723D02*
X111828942Y-108600723D01*
X111828942Y-109205485D02*
X111103228Y-109205485D01*
X111103228Y-109870723D02*
X111103228Y-108600723D01*
X110256561Y-108600723D02*
X110014657Y-108600723D01*
X109893704Y-108661200D01*
X109772752Y-108782152D01*
X109712276Y-109024057D01*
X109712276Y-109447390D01*
X109772752Y-109689295D01*
X109893704Y-109810247D01*
X110014657Y-109870723D01*
X110256561Y-109870723D01*
X110377514Y-109810247D01*
X110498466Y-109689295D01*
X110558942Y-109447390D01*
X110558942Y-109024057D01*
X110498466Y-108782152D01*
X110377514Y-108661200D01*
X110256561Y-108600723D01*
X108442276Y-109870723D02*
X108865609Y-109265961D01*
X109167990Y-109870723D02*
X109167990Y-108600723D01*
X108684180Y-108600723D01*
X108563228Y-108661200D01*
X108502752Y-108721676D01*
X108442276Y-108842628D01*
X108442276Y-109024057D01*
X108502752Y-109145009D01*
X108563228Y-109205485D01*
X108684180Y-109265961D01*
X109167990Y-109265961D01*
X108079419Y-108600723D02*
X107353704Y-108600723D01*
X107716561Y-109870723D02*
X107716561Y-108600723D01*
X108814809Y-121980314D02*
X107847190Y-121980314D01*
X108331000Y-122464123D02*
X108331000Y-121496504D01*
X115359542Y-107050114D02*
X114391923Y-107050114D01*
X114875733Y-107533923D02*
X114875733Y-106566304D01*
X112214780Y-107533923D02*
X112819542Y-107533923D01*
X112819542Y-106263923D01*
X111549542Y-106263923D02*
X111307638Y-106263923D01*
X111186685Y-106324400D01*
X111065733Y-106445352D01*
X111005257Y-106687257D01*
X111005257Y-107110590D01*
X111065733Y-107352495D01*
X111186685Y-107473447D01*
X111307638Y-107533923D01*
X111549542Y-107533923D01*
X111670495Y-107473447D01*
X111791447Y-107352495D01*
X111851923Y-107110590D01*
X111851923Y-106687257D01*
X111791447Y-106445352D01*
X111670495Y-106324400D01*
X111549542Y-106263923D01*
X110460971Y-107533923D02*
X110460971Y-106263923D01*
X109735257Y-107533923D01*
X109735257Y-106263923D01*
X108465257Y-106324400D02*
X108586209Y-106263923D01*
X108767638Y-106263923D01*
X108949066Y-106324400D01*
X109070019Y-106445352D01*
X109130495Y-106566304D01*
X109190971Y-106808209D01*
X109190971Y-106989638D01*
X109130495Y-107231542D01*
X109070019Y-107352495D01*
X108949066Y-107473447D01*
X108767638Y-107533923D01*
X108646685Y-107533923D01*
X108465257Y-107473447D01*
X108404780Y-107412971D01*
X108404780Y-106989638D01*
X108646685Y-106989638D01*
X122353009Y-110143914D02*
X121385390Y-110143914D01*
X93803409Y-111977714D02*
X92835790Y-111977714D01*
X93319600Y-112461523D02*
X93319600Y-111493904D01*
X122251409Y-118068714D02*
X121283790Y-118068714D01*
X121767600Y-118552523D02*
X121767600Y-117584904D01*
D10*
X131041688Y-114058261D02*
X130857702Y-114008963D01*
X130753384Y-114030310D01*
X130636742Y-114097653D01*
X130541447Y-114269314D01*
X130455174Y-114591290D01*
X130451871Y-114787600D01*
X130519215Y-114904242D01*
X130598883Y-114974888D01*
X130782869Y-115024187D01*
X130887186Y-115002840D01*
X131003829Y-114935497D01*
X131099124Y-114763836D01*
X131185397Y-114441860D01*
X131188700Y-114245550D01*
X131121356Y-114128907D01*
X131041688Y-114058261D01*
X129954932Y-114802342D02*
X130213751Y-113836417D01*
X129402975Y-114654446D01*
X129661794Y-113688520D01*
D11*
X108637009Y-114258714D02*
X107669390Y-114258714D01*
X93625609Y-109564714D02*
X92657990Y-109564714D01*
D10*
%TO.C,*%
%TO.C,BT1*%
X121943714Y-102798571D02*
X121800857Y-102846190D01*
X121753238Y-102893809D01*
X121705619Y-102989047D01*
X121705619Y-103131904D01*
X121753238Y-103227142D01*
X121800857Y-103274761D01*
X121896095Y-103322380D01*
X122277047Y-103322380D01*
X122277047Y-102322380D01*
X121943714Y-102322380D01*
X121848476Y-102370000D01*
X121800857Y-102417619D01*
X121753238Y-102512857D01*
X121753238Y-102608095D01*
X121800857Y-102703333D01*
X121848476Y-102750952D01*
X121943714Y-102798571D01*
X122277047Y-102798571D01*
X121419904Y-102322380D02*
X120848476Y-102322380D01*
X121134190Y-103322380D02*
X121134190Y-102322380D01*
X119991333Y-103322380D02*
X120562761Y-103322380D01*
X120277047Y-103322380D02*
X120277047Y-102322380D01*
X120372285Y-102465238D01*
X120467523Y-102560476D01*
X120562761Y-102608095D01*
%TO.C,SW1*%
X131889333Y-100988761D02*
X131746476Y-101036380D01*
X131508380Y-101036380D01*
X131413142Y-100988761D01*
X131365523Y-100941142D01*
X131317904Y-100845904D01*
X131317904Y-100750666D01*
X131365523Y-100655428D01*
X131413142Y-100607809D01*
X131508380Y-100560190D01*
X131698857Y-100512571D01*
X131794095Y-100464952D01*
X131841714Y-100417333D01*
X131889333Y-100322095D01*
X131889333Y-100226857D01*
X131841714Y-100131619D01*
X131794095Y-100084000D01*
X131698857Y-100036380D01*
X131460761Y-100036380D01*
X131317904Y-100084000D01*
X130984571Y-100036380D02*
X130746476Y-101036380D01*
X130556000Y-100322095D01*
X130365523Y-101036380D01*
X130127428Y-100036380D01*
X129222666Y-101036380D02*
X129794095Y-101036380D01*
X129508380Y-101036380D02*
X129508380Y-100036380D01*
X129603619Y-100179238D01*
X129698857Y-100274476D01*
X129794095Y-100322095D01*
%TO.C,*%
D12*
%TO.C,BT1*%
X104952800Y-103759000D02*
X98602800Y-98171000D01*
X123494800Y-82677000D02*
X123494800Y-98171000D01*
X123494800Y-82677000D02*
X98602800Y-82677000D01*
X98602800Y-82677000D02*
X98602800Y-98171000D01*
X117398800Y-103759000D02*
X104952800Y-103759000D01*
X117398800Y-103759000D02*
X123494800Y-98171000D01*
D13*
%TO.C,SW1*%
X128543064Y-112284041D02*
X132715709Y-100819791D01*
X132715709Y-100819791D02*
X137977988Y-102735104D01*
X137977988Y-102735104D02*
X133805342Y-114199354D01*
X133805342Y-114199354D02*
X128543064Y-112284041D01*
%TO.C,G\u002A\u002A\u002A*%
G36*
X95497327Y-86464223D02*
G01*
X95556358Y-86502305D01*
X95672025Y-86593624D01*
X95757292Y-86681937D01*
X95779545Y-86713843D01*
X95842454Y-86812442D01*
X95931776Y-86958241D01*
X96042212Y-87142114D01*
X96168462Y-87354933D01*
X96305228Y-87587571D01*
X96447209Y-87830902D01*
X96589108Y-88075798D01*
X96725624Y-88313131D01*
X96851458Y-88533776D01*
X96961312Y-88728603D01*
X97049886Y-88888487D01*
X97111881Y-89004299D01*
X97141998Y-89066914D01*
X97143745Y-89071626D01*
X97183536Y-89256917D01*
X97184479Y-89462282D01*
X97146276Y-89647485D01*
X97119109Y-89708724D01*
X97056893Y-89829727D01*
X96967273Y-89994336D01*
X96855502Y-90193651D01*
X96726839Y-90418771D01*
X96586538Y-90660795D01*
X96439855Y-90910822D01*
X96292047Y-91159952D01*
X96148370Y-91399285D01*
X96014080Y-91619918D01*
X95894432Y-91812953D01*
X95794683Y-91969487D01*
X95720088Y-92080621D01*
X95675904Y-92137454D01*
X95653291Y-92159513D01*
X95596190Y-92211962D01*
X95538884Y-92254973D01*
X95474139Y-92289418D01*
X95394717Y-92316172D01*
X95293383Y-92336108D01*
X95162899Y-92350099D01*
X94996029Y-92359019D01*
X94785538Y-92363741D01*
X94524187Y-92365138D01*
X94204742Y-92364084D01*
X93819965Y-92361452D01*
X93620267Y-92359959D01*
X93277241Y-92356997D01*
X92995687Y-92353160D01*
X92768242Y-92347426D01*
X92587541Y-92338772D01*
X92446220Y-92326177D01*
X92336917Y-92308618D01*
X92252266Y-92285072D01*
X92184904Y-92254518D01*
X92127467Y-92215932D01*
X92072592Y-92168293D01*
X92012915Y-92110579D01*
X92011017Y-92108702D01*
X91941195Y-92022261D01*
X91846542Y-91880464D01*
X91732913Y-91693282D01*
X91606164Y-91470684D01*
X91472148Y-91222641D01*
X91336722Y-90959124D01*
X91334342Y-90954362D01*
X91269122Y-90812947D01*
X91234747Y-90715127D01*
X91231605Y-90666238D01*
X91260082Y-90671617D01*
X91320566Y-90736599D01*
X91325806Y-90743330D01*
X91381761Y-90821038D01*
X91466295Y-90944164D01*
X91570290Y-91098955D01*
X91684633Y-91271655D01*
X91800207Y-91448510D01*
X91907896Y-91615765D01*
X91998586Y-91759666D01*
X92057217Y-91843983D01*
X92157013Y-91960292D01*
X92250318Y-92042738D01*
X92382521Y-92133057D01*
X93791333Y-92129560D01*
X93863593Y-92129349D01*
X94172021Y-92127712D01*
X94455742Y-92125044D01*
X94706778Y-92121501D01*
X94917152Y-92117238D01*
X95078887Y-92112410D01*
X95184005Y-92107172D01*
X95224529Y-92101680D01*
X95224064Y-92082361D01*
X95187905Y-92022333D01*
X95119143Y-91941891D01*
X95074902Y-91892877D01*
X95004772Y-91801601D01*
X94967605Y-91733552D01*
X94931539Y-91684638D01*
X94846340Y-91639408D01*
X94700590Y-91592271D01*
X94581524Y-91556375D01*
X94266281Y-91435077D01*
X93980637Y-91287490D01*
X93745982Y-91124105D01*
X93632855Y-91040056D01*
X93479406Y-90945653D01*
X93341101Y-90878991D01*
X93256958Y-90845072D01*
X93176743Y-90801053D01*
X93135373Y-90750757D01*
X93114460Y-90677868D01*
X93111589Y-90664161D01*
X93081253Y-90586372D01*
X93042998Y-90554628D01*
X93011513Y-90546895D01*
X92950674Y-90501632D01*
X92932843Y-90471093D01*
X92950837Y-90437066D01*
X93027874Y-90398707D01*
X93149057Y-90348779D01*
X92949485Y-90222570D01*
X92852415Y-90164739D01*
X92716117Y-90092497D01*
X92604771Y-90042988D01*
X92546586Y-90018895D01*
X92475154Y-89967107D01*
X92448648Y-89896315D01*
X92446862Y-89861785D01*
X92471025Y-89802015D01*
X92549597Y-89756651D01*
X92561119Y-89751791D01*
X92628607Y-89718535D01*
X92649947Y-89698709D01*
X92640878Y-89695300D01*
X92575120Y-89678490D01*
X92456816Y-89651252D01*
X92298716Y-89616477D01*
X92113569Y-89577058D01*
X92061780Y-89566202D01*
X91834946Y-89518667D01*
X91668723Y-89483261D01*
X91554456Y-89457349D01*
X91483491Y-89438297D01*
X91447173Y-89423471D01*
X91436848Y-89410237D01*
X91443861Y-89395962D01*
X91459556Y-89378011D01*
X91510526Y-89346237D01*
X91611582Y-89306650D01*
X91739206Y-89269162D01*
X91903046Y-89223262D01*
X92242535Y-89105003D01*
X92607153Y-88952459D01*
X92977727Y-88774524D01*
X93335082Y-88580093D01*
X93660048Y-88378062D01*
X93748149Y-88317891D01*
X93928759Y-88188317D01*
X94098607Y-88058872D01*
X94247849Y-87937698D01*
X94366639Y-87832940D01*
X94445133Y-87752740D01*
X94473485Y-87705241D01*
X94476139Y-87694139D01*
X94513013Y-87631289D01*
X94584213Y-87536745D01*
X94678110Y-87426357D01*
X94736257Y-87360473D01*
X94863034Y-87210535D01*
X94986594Y-87057061D01*
X95098092Y-86911740D01*
X95188684Y-86786264D01*
X95249525Y-86692324D01*
X95271771Y-86641612D01*
X95271653Y-86640612D01*
X95247449Y-86628656D01*
X95177999Y-86618657D01*
X95058751Y-86610439D01*
X94885150Y-86603823D01*
X94652643Y-86598633D01*
X94356678Y-86594691D01*
X93992700Y-86591820D01*
X93740246Y-86590363D01*
X93453080Y-86588844D01*
X93192671Y-86587617D01*
X92968181Y-86586717D01*
X92788773Y-86586181D01*
X92663610Y-86586043D01*
X92601854Y-86586342D01*
X92547277Y-86588670D01*
X92398553Y-86613696D01*
X92269850Y-86672399D01*
X92150023Y-86773430D01*
X92027925Y-86925444D01*
X91892409Y-87137092D01*
X91808048Y-87274756D01*
X91697683Y-87446810D01*
X91584159Y-87616736D01*
X91474489Y-87774679D01*
X91375685Y-87910786D01*
X91294760Y-88015201D01*
X91238727Y-88078071D01*
X91214599Y-88089541D01*
X91214751Y-88084459D01*
X91235380Y-88027810D01*
X91284181Y-87919921D01*
X91356297Y-87770893D01*
X91446872Y-87590826D01*
X91551049Y-87389821D01*
X91560903Y-87371090D01*
X91707331Y-87099647D01*
X91831493Y-86886451D01*
X91939743Y-86723706D01*
X92038438Y-86603619D01*
X92133934Y-86518393D01*
X92232588Y-86460236D01*
X92340754Y-86421351D01*
X92345412Y-86420135D01*
X92435682Y-86407020D01*
X92592664Y-86395927D01*
X92817525Y-86386817D01*
X93111432Y-86379653D01*
X93475554Y-86374397D01*
X93911057Y-86371013D01*
X95326199Y-86363628D01*
X95497327Y-86464223D01*
G37*
D14*
X95497327Y-86464223D02*
X95556358Y-86502305D01*
X95672025Y-86593624D01*
X95757292Y-86681937D01*
X95779545Y-86713843D01*
X95842454Y-86812442D01*
X95931776Y-86958241D01*
X96042212Y-87142114D01*
X96168462Y-87354933D01*
X96305228Y-87587571D01*
X96447209Y-87830902D01*
X96589108Y-88075798D01*
X96725624Y-88313131D01*
X96851458Y-88533776D01*
X96961312Y-88728603D01*
X97049886Y-88888487D01*
X97111881Y-89004299D01*
X97141998Y-89066914D01*
X97143745Y-89071626D01*
X97183536Y-89256917D01*
X97184479Y-89462282D01*
X97146276Y-89647485D01*
X97119109Y-89708724D01*
X97056893Y-89829727D01*
X96967273Y-89994336D01*
X96855502Y-90193651D01*
X96726839Y-90418771D01*
X96586538Y-90660795D01*
X96439855Y-90910822D01*
X96292047Y-91159952D01*
X96148370Y-91399285D01*
X96014080Y-91619918D01*
X95894432Y-91812953D01*
X95794683Y-91969487D01*
X95720088Y-92080621D01*
X95675904Y-92137454D01*
X95653291Y-92159513D01*
X95596190Y-92211962D01*
X95538884Y-92254973D01*
X95474139Y-92289418D01*
X95394717Y-92316172D01*
X95293383Y-92336108D01*
X95162899Y-92350099D01*
X94996029Y-92359019D01*
X94785538Y-92363741D01*
X94524187Y-92365138D01*
X94204742Y-92364084D01*
X93819965Y-92361452D01*
X93620267Y-92359959D01*
X93277241Y-92356997D01*
X92995687Y-92353160D01*
X92768242Y-92347426D01*
X92587541Y-92338772D01*
X92446220Y-92326177D01*
X92336917Y-92308618D01*
X92252266Y-92285072D01*
X92184904Y-92254518D01*
X92127467Y-92215932D01*
X92072592Y-92168293D01*
X92012915Y-92110579D01*
X92011017Y-92108702D01*
X91941195Y-92022261D01*
X91846542Y-91880464D01*
X91732913Y-91693282D01*
X91606164Y-91470684D01*
X91472148Y-91222641D01*
X91336722Y-90959124D01*
X91334342Y-90954362D01*
X91269122Y-90812947D01*
X91234747Y-90715127D01*
X91231605Y-90666238D01*
X91260082Y-90671617D01*
X91320566Y-90736599D01*
X91325806Y-90743330D01*
X91381761Y-90821038D01*
X91466295Y-90944164D01*
X91570290Y-91098955D01*
X91684633Y-91271655D01*
X91800207Y-91448510D01*
X91907896Y-91615765D01*
X91998586Y-91759666D01*
X92057217Y-91843983D01*
X92157013Y-91960292D01*
X92250318Y-92042738D01*
X92382521Y-92133057D01*
X93791333Y-92129560D01*
X93863593Y-92129349D01*
X94172021Y-92127712D01*
X94455742Y-92125044D01*
X94706778Y-92121501D01*
X94917152Y-92117238D01*
X95078887Y-92112410D01*
X95184005Y-92107172D01*
X95224529Y-92101680D01*
X95224064Y-92082361D01*
X95187905Y-92022333D01*
X95119143Y-91941891D01*
X95074902Y-91892877D01*
X95004772Y-91801601D01*
X94967605Y-91733552D01*
X94931539Y-91684638D01*
X94846340Y-91639408D01*
X94700590Y-91592271D01*
X94581524Y-91556375D01*
X94266281Y-91435077D01*
X93980637Y-91287490D01*
X93745982Y-91124105D01*
X93632855Y-91040056D01*
X93479406Y-90945653D01*
X93341101Y-90878991D01*
X93256958Y-90845072D01*
X93176743Y-90801053D01*
X93135373Y-90750757D01*
X93114460Y-90677868D01*
X93111589Y-90664161D01*
X93081253Y-90586372D01*
X93042998Y-90554628D01*
X93011513Y-90546895D01*
X92950674Y-90501632D01*
X92932843Y-90471093D01*
X92950837Y-90437066D01*
X93027874Y-90398707D01*
X93149057Y-90348779D01*
X92949485Y-90222570D01*
X92852415Y-90164739D01*
X92716117Y-90092497D01*
X92604771Y-90042988D01*
X92546586Y-90018895D01*
X92475154Y-89967107D01*
X92448648Y-89896315D01*
X92446862Y-89861785D01*
X92471025Y-89802015D01*
X92549597Y-89756651D01*
X92561119Y-89751791D01*
X92628607Y-89718535D01*
X92649947Y-89698709D01*
X92640878Y-89695300D01*
X92575120Y-89678490D01*
X92456816Y-89651252D01*
X92298716Y-89616477D01*
X92113569Y-89577058D01*
X92061780Y-89566202D01*
X91834946Y-89518667D01*
X91668723Y-89483261D01*
X91554456Y-89457349D01*
X91483491Y-89438297D01*
X91447173Y-89423471D01*
X91436848Y-89410237D01*
X91443861Y-89395962D01*
X91459556Y-89378011D01*
X91510526Y-89346237D01*
X91611582Y-89306650D01*
X91739206Y-89269162D01*
X91903046Y-89223262D01*
X92242535Y-89105003D01*
X92607153Y-88952459D01*
X92977727Y-88774524D01*
X93335082Y-88580093D01*
X93660048Y-88378062D01*
X93748149Y-88317891D01*
X93928759Y-88188317D01*
X94098607Y-88058872D01*
X94247849Y-87937698D01*
X94366639Y-87832940D01*
X94445133Y-87752740D01*
X94473485Y-87705241D01*
X94476139Y-87694139D01*
X94513013Y-87631289D01*
X94584213Y-87536745D01*
X94678110Y-87426357D01*
X94736257Y-87360473D01*
X94863034Y-87210535D01*
X94986594Y-87057061D01*
X95098092Y-86911740D01*
X95188684Y-86786264D01*
X95249525Y-86692324D01*
X95271771Y-86641612D01*
X95271653Y-86640612D01*
X95247449Y-86628656D01*
X95177999Y-86618657D01*
X95058751Y-86610439D01*
X94885150Y-86603823D01*
X94652643Y-86598633D01*
X94356678Y-86594691D01*
X93992700Y-86591820D01*
X93740246Y-86590363D01*
X93453080Y-86588844D01*
X93192671Y-86587617D01*
X92968181Y-86586717D01*
X92788773Y-86586181D01*
X92663610Y-86586043D01*
X92601854Y-86586342D01*
X92547277Y-86588670D01*
X92398553Y-86613696D01*
X92269850Y-86672399D01*
X92150023Y-86773430D01*
X92027925Y-86925444D01*
X91892409Y-87137092D01*
X91808048Y-87274756D01*
X91697683Y-87446810D01*
X91584159Y-87616736D01*
X91474489Y-87774679D01*
X91375685Y-87910786D01*
X91294760Y-88015201D01*
X91238727Y-88078071D01*
X91214599Y-88089541D01*
X91214751Y-88084459D01*
X91235380Y-88027810D01*
X91284181Y-87919921D01*
X91356297Y-87770893D01*
X91446872Y-87590826D01*
X91551049Y-87389821D01*
X91560903Y-87371090D01*
X91707331Y-87099647D01*
X91831493Y-86886451D01*
X91939743Y-86723706D01*
X92038438Y-86603619D01*
X92133934Y-86518393D01*
X92232588Y-86460236D01*
X92340754Y-86421351D01*
X92345412Y-86420135D01*
X92435682Y-86407020D01*
X92592664Y-86395927D01*
X92817525Y-86386817D01*
X93111432Y-86379653D01*
X93475554Y-86374397D01*
X93911057Y-86371013D01*
X95326199Y-86363628D01*
X95497327Y-86464223D01*
G36*
X96033771Y-97900778D02*
G01*
X96027952Y-98074658D01*
X96002715Y-98221155D01*
X95949245Y-98326349D01*
X95858775Y-98396782D01*
X95722542Y-98438993D01*
X95531779Y-98459524D01*
X95277721Y-98464914D01*
X95109280Y-98462430D01*
X94947214Y-98455034D01*
X94821358Y-98443909D01*
X94749888Y-98430248D01*
X94660441Y-98377675D01*
X94587295Y-98278492D01*
X94540969Y-98128345D01*
X94525354Y-97990608D01*
X94727485Y-97990608D01*
X94729210Y-98024153D01*
X94750510Y-98087567D01*
X94804096Y-98130855D01*
X94899972Y-98157484D01*
X95048140Y-98170920D01*
X95258605Y-98174628D01*
X95409224Y-98172235D01*
X95564463Y-98164297D01*
X95682585Y-98152119D01*
X95745871Y-98137066D01*
X95788438Y-98097133D01*
X95816057Y-98010066D01*
X95816057Y-97920628D01*
X95271771Y-97920628D01*
X95198309Y-97920665D01*
X95009639Y-97921671D01*
X94879387Y-97925094D01*
X94796799Y-97932316D01*
X94751122Y-97944721D01*
X94731602Y-97963690D01*
X94727485Y-97990608D01*
X94525354Y-97990608D01*
X94517074Y-97917569D01*
X94500447Y-97630343D01*
X96033771Y-97630343D01*
X96033771Y-97900778D01*
G37*
X96033771Y-97900778D02*
X96027952Y-98074658D01*
X96002715Y-98221155D01*
X95949245Y-98326349D01*
X95858775Y-98396782D01*
X95722542Y-98438993D01*
X95531779Y-98459524D01*
X95277721Y-98464914D01*
X95109280Y-98462430D01*
X94947214Y-98455034D01*
X94821358Y-98443909D01*
X94749888Y-98430248D01*
X94660441Y-98377675D01*
X94587295Y-98278492D01*
X94540969Y-98128345D01*
X94525354Y-97990608D01*
X94727485Y-97990608D01*
X94729210Y-98024153D01*
X94750510Y-98087567D01*
X94804096Y-98130855D01*
X94899972Y-98157484D01*
X95048140Y-98170920D01*
X95258605Y-98174628D01*
X95409224Y-98172235D01*
X95564463Y-98164297D01*
X95682585Y-98152119D01*
X95745871Y-98137066D01*
X95788438Y-98097133D01*
X95816057Y-98010066D01*
X95816057Y-97920628D01*
X95271771Y-97920628D01*
X95198309Y-97920665D01*
X95009639Y-97921671D01*
X94879387Y-97925094D01*
X94796799Y-97932316D01*
X94751122Y-97944721D01*
X94731602Y-97963690D01*
X94727485Y-97990608D01*
X94525354Y-97990608D01*
X94517074Y-97917569D01*
X94500447Y-97630343D01*
X96033771Y-97630343D01*
X96033771Y-97900778D01*
G36*
X90227138Y-89505820D02*
G01*
X90206179Y-89539686D01*
X90147743Y-89598615D01*
X90066115Y-89668977D01*
X89975580Y-89737144D01*
X89901664Y-89782891D01*
X89790925Y-89840525D01*
X89674702Y-89892896D01*
X89570400Y-89932831D01*
X89495424Y-89953155D01*
X89467179Y-89946695D01*
X89475912Y-89927106D01*
X89534782Y-89870014D01*
X89635768Y-89796281D01*
X89763134Y-89715175D01*
X89901146Y-89635961D01*
X90034068Y-89567906D01*
X90146165Y-89520278D01*
X90221702Y-89502343D01*
X90227138Y-89505820D01*
G37*
X90227138Y-89505820D02*
X90206179Y-89539686D01*
X90147743Y-89598615D01*
X90066115Y-89668977D01*
X89975580Y-89737144D01*
X89901664Y-89782891D01*
X89790925Y-89840525D01*
X89674702Y-89892896D01*
X89570400Y-89932831D01*
X89495424Y-89953155D01*
X89467179Y-89946695D01*
X89475912Y-89927106D01*
X89534782Y-89870014D01*
X89635768Y-89796281D01*
X89763134Y-89715175D01*
X89901146Y-89635961D01*
X90034068Y-89567906D01*
X90146165Y-89520278D01*
X90221702Y-89502343D01*
X90227138Y-89505820D01*
G36*
X92836621Y-100787719D02*
G01*
X93065110Y-100792341D01*
X93259950Y-100801175D01*
X93408177Y-100813523D01*
X93496829Y-100828689D01*
X93514692Y-100834413D01*
X93673008Y-100921473D01*
X93792678Y-101053317D01*
X93857039Y-101212203D01*
X93866612Y-101294555D01*
X93858861Y-101438795D01*
X93824826Y-101566436D01*
X93770426Y-101658987D01*
X93701577Y-101697960D01*
X93696308Y-101707568D01*
X93747771Y-101726607D01*
X93786981Y-101741333D01*
X93831268Y-101789978D01*
X93849747Y-101886276D01*
X93861009Y-102020914D01*
X92731771Y-102020914D01*
X92731771Y-101404057D01*
X92858771Y-101404057D01*
X92868438Y-101404073D01*
X92948463Y-101411029D01*
X92980154Y-101445938D01*
X92985771Y-101531057D01*
X92985771Y-101658057D01*
X93158128Y-101657522D01*
X93193453Y-101656784D01*
X93366284Y-101629931D01*
X93487870Y-101567877D01*
X93552178Y-101475217D01*
X93553178Y-101356545D01*
X93544650Y-101331086D01*
X93504530Y-101277679D01*
X93431416Y-101238328D01*
X93317458Y-101211606D01*
X93154807Y-101196089D01*
X92935615Y-101190352D01*
X92652033Y-101192971D01*
X92496512Y-101196227D01*
X92321611Y-101201286D01*
X92199430Y-101208275D01*
X92118171Y-101218977D01*
X92066034Y-101235175D01*
X92031220Y-101258650D01*
X92001930Y-101291186D01*
X91962119Y-101356426D01*
X91950863Y-101457277D01*
X91999958Y-101541891D01*
X92101816Y-101600108D01*
X92248849Y-101621771D01*
X92405199Y-101621771D01*
X92405199Y-102031067D01*
X92207335Y-102010646D01*
X92037461Y-101982872D01*
X91866544Y-101916834D01*
X91750101Y-101810636D01*
X91680839Y-101656902D01*
X91651466Y-101448254D01*
X91656257Y-101247713D01*
X91700213Y-101086009D01*
X91790132Y-100963909D01*
X91932102Y-100868843D01*
X91969451Y-100850726D01*
X92032485Y-100825786D01*
X92103543Y-100808355D01*
X92195533Y-100797109D01*
X92321363Y-100790719D01*
X92493942Y-100787858D01*
X92726178Y-100787200D01*
X92836621Y-100787719D01*
G37*
X92836621Y-100787719D02*
X93065110Y-100792341D01*
X93259950Y-100801175D01*
X93408177Y-100813523D01*
X93496829Y-100828689D01*
X93514692Y-100834413D01*
X93673008Y-100921473D01*
X93792678Y-101053317D01*
X93857039Y-101212203D01*
X93866612Y-101294555D01*
X93858861Y-101438795D01*
X93824826Y-101566436D01*
X93770426Y-101658987D01*
X93701577Y-101697960D01*
X93696308Y-101707568D01*
X93747771Y-101726607D01*
X93786981Y-101741333D01*
X93831268Y-101789978D01*
X93849747Y-101886276D01*
X93861009Y-102020914D01*
X92731771Y-102020914D01*
X92731771Y-101404057D01*
X92858771Y-101404057D01*
X92868438Y-101404073D01*
X92948463Y-101411029D01*
X92980154Y-101445938D01*
X92985771Y-101531057D01*
X92985771Y-101658057D01*
X93158128Y-101657522D01*
X93193453Y-101656784D01*
X93366284Y-101629931D01*
X93487870Y-101567877D01*
X93552178Y-101475217D01*
X93553178Y-101356545D01*
X93544650Y-101331086D01*
X93504530Y-101277679D01*
X93431416Y-101238328D01*
X93317458Y-101211606D01*
X93154807Y-101196089D01*
X92935615Y-101190352D01*
X92652033Y-101192971D01*
X92496512Y-101196227D01*
X92321611Y-101201286D01*
X92199430Y-101208275D01*
X92118171Y-101218977D01*
X92066034Y-101235175D01*
X92031220Y-101258650D01*
X92001930Y-101291186D01*
X91962119Y-101356426D01*
X91950863Y-101457277D01*
X91999958Y-101541891D01*
X92101816Y-101600108D01*
X92248849Y-101621771D01*
X92405199Y-101621771D01*
X92405199Y-102031067D01*
X92207335Y-102010646D01*
X92037461Y-101982872D01*
X91866544Y-101916834D01*
X91750101Y-101810636D01*
X91680839Y-101656902D01*
X91651466Y-101448254D01*
X91656257Y-101247713D01*
X91700213Y-101086009D01*
X91790132Y-100963909D01*
X91932102Y-100868843D01*
X91969451Y-100850726D01*
X92032485Y-100825786D01*
X92103543Y-100808355D01*
X92195533Y-100797109D01*
X92321363Y-100790719D01*
X92493942Y-100787858D01*
X92726178Y-100787200D01*
X92836621Y-100787719D01*
G36*
X91779271Y-104938018D02*
G01*
X91830675Y-104946619D01*
X91947289Y-104964294D01*
X92115544Y-104988891D01*
X92324673Y-105018857D01*
X92563908Y-105052636D01*
X92822485Y-105088674D01*
X93057758Y-105121508D01*
X93292222Y-105154775D01*
X93494813Y-105184095D01*
X93655523Y-105207999D01*
X93764345Y-105225021D01*
X93811271Y-105233692D01*
X93820281Y-105239023D01*
X93846772Y-105299109D01*
X93856628Y-105408556D01*
X93857826Y-105456978D01*
X93857394Y-105501683D01*
X93846675Y-105535867D01*
X93816938Y-105562885D01*
X93759452Y-105586090D01*
X93665485Y-105608836D01*
X93526307Y-105634476D01*
X93333186Y-105666365D01*
X93077391Y-105707855D01*
X92461439Y-105808535D01*
X93041105Y-105908676D01*
X93159890Y-105929221D01*
X93358186Y-105963625D01*
X93530978Y-105993734D01*
X93662929Y-106016873D01*
X93738700Y-106030367D01*
X93778132Y-106038321D01*
X93831449Y-106061920D01*
X93852760Y-106112792D01*
X93856628Y-106213558D01*
X93856234Y-106260647D01*
X93852996Y-106343165D01*
X93847557Y-106376350D01*
X93842008Y-106377136D01*
X93781264Y-106385865D01*
X93660792Y-106403218D01*
X93489460Y-106427918D01*
X93276135Y-106458685D01*
X93029688Y-106494241D01*
X92758985Y-106533307D01*
X91679485Y-106689114D01*
X91679485Y-106518652D01*
X91677845Y-106464764D01*
X91677676Y-106419550D01*
X91687746Y-106385580D01*
X91716849Y-106359729D01*
X91773777Y-106338876D01*
X91867324Y-106319897D01*
X92006282Y-106299668D01*
X92199444Y-106275066D01*
X92455604Y-106242968D01*
X92526666Y-106233762D01*
X92692522Y-106210628D01*
X92821029Y-106190289D01*
X92900616Y-106174673D01*
X92919712Y-106165704D01*
X92893970Y-106159865D01*
X92804634Y-106142973D01*
X92665395Y-106118188D01*
X92489134Y-106087789D01*
X92288737Y-106054058D01*
X91697628Y-105955700D01*
X91686725Y-105807811D01*
X91675822Y-105659921D01*
X92311411Y-105556699D01*
X92495957Y-105526281D01*
X92674878Y-105495791D01*
X92815672Y-105470686D01*
X92907157Y-105452964D01*
X92938150Y-105444627D01*
X92920253Y-105440572D01*
X92842958Y-105428439D01*
X92717947Y-105410661D01*
X92559721Y-105389125D01*
X92382780Y-105365719D01*
X92201623Y-105342331D01*
X92030751Y-105320847D01*
X91884663Y-105303155D01*
X91777860Y-105291143D01*
X91724842Y-105286698D01*
X91713800Y-105283587D01*
X91688043Y-105227962D01*
X91679485Y-105102317D01*
X91680724Y-105006388D01*
X91691075Y-104947140D01*
X91720578Y-104929859D01*
X91779271Y-104938018D01*
G37*
X91779271Y-104938018D02*
X91830675Y-104946619D01*
X91947289Y-104964294D01*
X92115544Y-104988891D01*
X92324673Y-105018857D01*
X92563908Y-105052636D01*
X92822485Y-105088674D01*
X93057758Y-105121508D01*
X93292222Y-105154775D01*
X93494813Y-105184095D01*
X93655523Y-105207999D01*
X93764345Y-105225021D01*
X93811271Y-105233692D01*
X93820281Y-105239023D01*
X93846772Y-105299109D01*
X93856628Y-105408556D01*
X93857826Y-105456978D01*
X93857394Y-105501683D01*
X93846675Y-105535867D01*
X93816938Y-105562885D01*
X93759452Y-105586090D01*
X93665485Y-105608836D01*
X93526307Y-105634476D01*
X93333186Y-105666365D01*
X93077391Y-105707855D01*
X92461439Y-105808535D01*
X93041105Y-105908676D01*
X93159890Y-105929221D01*
X93358186Y-105963625D01*
X93530978Y-105993734D01*
X93662929Y-106016873D01*
X93738700Y-106030367D01*
X93778132Y-106038321D01*
X93831449Y-106061920D01*
X93852760Y-106112792D01*
X93856628Y-106213558D01*
X93856234Y-106260647D01*
X93852996Y-106343165D01*
X93847557Y-106376350D01*
X93842008Y-106377136D01*
X93781264Y-106385865D01*
X93660792Y-106403218D01*
X93489460Y-106427918D01*
X93276135Y-106458685D01*
X93029688Y-106494241D01*
X92758985Y-106533307D01*
X91679485Y-106689114D01*
X91679485Y-106518652D01*
X91677845Y-106464764D01*
X91677676Y-106419550D01*
X91687746Y-106385580D01*
X91716849Y-106359729D01*
X91773777Y-106338876D01*
X91867324Y-106319897D01*
X92006282Y-106299668D01*
X92199444Y-106275066D01*
X92455604Y-106242968D01*
X92526666Y-106233762D01*
X92692522Y-106210628D01*
X92821029Y-106190289D01*
X92900616Y-106174673D01*
X92919712Y-106165704D01*
X92893970Y-106159865D01*
X92804634Y-106142973D01*
X92665395Y-106118188D01*
X92489134Y-106087789D01*
X92288737Y-106054058D01*
X91697628Y-105955700D01*
X91686725Y-105807811D01*
X91675822Y-105659921D01*
X92311411Y-105556699D01*
X92495957Y-105526281D01*
X92674878Y-105495791D01*
X92815672Y-105470686D01*
X92907157Y-105452964D01*
X92938150Y-105444627D01*
X92920253Y-105440572D01*
X92842958Y-105428439D01*
X92717947Y-105410661D01*
X92559721Y-105389125D01*
X92382780Y-105365719D01*
X92201623Y-105342331D01*
X92030751Y-105320847D01*
X91884663Y-105303155D01*
X91777860Y-105291143D01*
X91724842Y-105286698D01*
X91713800Y-105283587D01*
X91688043Y-105227962D01*
X91679485Y-105102317D01*
X91680724Y-105006388D01*
X91691075Y-104947140D01*
X91720578Y-104929859D01*
X91779271Y-104938018D01*
G36*
X89597329Y-88820965D02*
G01*
X89711727Y-88871524D01*
X89837664Y-88936031D01*
X89957848Y-89006147D01*
X90054988Y-89073535D01*
X90110060Y-89120432D01*
X90161438Y-89175824D01*
X90166497Y-89202339D01*
X90165698Y-89202590D01*
X90102223Y-89195102D01*
X89997942Y-89156983D01*
X89872185Y-89097376D01*
X89744285Y-89025424D01*
X89633571Y-88950272D01*
X89577434Y-88907061D01*
X89504135Y-88850777D01*
X89469080Y-88824058D01*
X89468287Y-88823423D01*
X89473641Y-88793234D01*
X89511761Y-88792689D01*
X89597329Y-88820965D01*
G37*
X89597329Y-88820965D02*
X89711727Y-88871524D01*
X89837664Y-88936031D01*
X89957848Y-89006147D01*
X90054988Y-89073535D01*
X90110060Y-89120432D01*
X90161438Y-89175824D01*
X90166497Y-89202339D01*
X90165698Y-89202590D01*
X90102223Y-89195102D01*
X89997942Y-89156983D01*
X89872185Y-89097376D01*
X89744285Y-89025424D01*
X89633571Y-88950272D01*
X89577434Y-88907061D01*
X89504135Y-88850777D01*
X89469080Y-88824058D01*
X89468287Y-88823423D01*
X89473641Y-88793234D01*
X89511761Y-88792689D01*
X89597329Y-88820965D01*
G36*
X89926013Y-89316039D02*
G01*
X90071903Y-89338545D01*
X90173628Y-89365017D01*
X90082914Y-89400562D01*
X90059182Y-89408104D01*
X89944849Y-89426143D01*
X89794039Y-89434433D01*
X89633825Y-89432969D01*
X89491283Y-89421743D01*
X89393485Y-89400747D01*
X89365786Y-89389680D01*
X89334215Y-89370555D01*
X89359138Y-89355257D01*
X89447914Y-89334879D01*
X89561704Y-89318162D01*
X89744263Y-89309176D01*
X89926013Y-89316039D01*
G37*
X89926013Y-89316039D02*
X90071903Y-89338545D01*
X90173628Y-89365017D01*
X90082914Y-89400562D01*
X90059182Y-89408104D01*
X89944849Y-89426143D01*
X89794039Y-89434433D01*
X89633825Y-89432969D01*
X89491283Y-89421743D01*
X89393485Y-89400747D01*
X89365786Y-89389680D01*
X89334215Y-89370555D01*
X89359138Y-89355257D01*
X89447914Y-89334879D01*
X89561704Y-89318162D01*
X89744263Y-89309176D01*
X89926013Y-89316039D01*
G36*
X90822567Y-89541991D02*
G01*
X90924686Y-89577752D01*
X90998979Y-89607162D01*
X91096429Y-89648489D01*
X91168457Y-89687605D01*
X91242192Y-89740310D01*
X91344764Y-89822403D01*
X91407650Y-89875294D01*
X91468932Y-89932907D01*
X91487744Y-89960179D01*
X91486456Y-89961296D01*
X91435968Y-89960099D01*
X91342398Y-89926375D01*
X91221100Y-89868883D01*
X91087427Y-89796379D01*
X90956733Y-89717623D01*
X90844370Y-89641371D01*
X90765694Y-89576382D01*
X90736057Y-89531412D01*
X90754069Y-89526602D01*
X90822567Y-89541991D01*
G37*
X90822567Y-89541991D02*
X90924686Y-89577752D01*
X90998979Y-89607162D01*
X91096429Y-89648489D01*
X91168457Y-89687605D01*
X91242192Y-89740310D01*
X91344764Y-89822403D01*
X91407650Y-89875294D01*
X91468932Y-89932907D01*
X91487744Y-89960179D01*
X91486456Y-89961296D01*
X91435968Y-89960099D01*
X91342398Y-89926375D01*
X91221100Y-89868883D01*
X91087427Y-89796379D01*
X90956733Y-89717623D01*
X90844370Y-89641371D01*
X90765694Y-89576382D01*
X90736057Y-89531412D01*
X90754069Y-89526602D01*
X90822567Y-89541991D01*
G36*
X91487698Y-88777151D02*
G01*
X91491650Y-88799056D01*
X91447056Y-88846853D01*
X91366220Y-88911831D01*
X91261448Y-88985278D01*
X91145044Y-89058484D01*
X91029312Y-89122737D01*
X90926557Y-89169327D01*
X90845267Y-89197631D01*
X90766508Y-89218214D01*
X90736057Y-89216027D01*
X90743004Y-89198133D01*
X90798757Y-89141962D01*
X90897300Y-89068983D01*
X91022902Y-88988471D01*
X91159830Y-88909704D01*
X91292354Y-88841957D01*
X91404740Y-88794507D01*
X91481257Y-88776628D01*
X91487698Y-88777151D01*
G37*
X91487698Y-88777151D02*
X91491650Y-88799056D01*
X91447056Y-88846853D01*
X91366220Y-88911831D01*
X91261448Y-88985278D01*
X91145044Y-89058484D01*
X91029312Y-89122737D01*
X90926557Y-89169327D01*
X90845267Y-89197631D01*
X90766508Y-89218214D01*
X90736057Y-89216027D01*
X90743004Y-89198133D01*
X90798757Y-89141962D01*
X90897300Y-89068983D01*
X91022902Y-88988471D01*
X91159830Y-88909704D01*
X91292354Y-88841957D01*
X91404740Y-88794507D01*
X91481257Y-88776628D01*
X91487698Y-88777151D01*
G36*
X90496704Y-88286771D02*
G01*
X90501517Y-88312890D01*
X90521551Y-88416755D01*
X90536316Y-88486343D01*
X90540615Y-88531747D01*
X90539084Y-88634153D01*
X90530994Y-88761408D01*
X90518429Y-88889163D01*
X90503471Y-88993067D01*
X90488205Y-89048771D01*
X90474589Y-89059557D01*
X90453629Y-89028990D01*
X90436670Y-88948232D01*
X90424571Y-88831433D01*
X90418191Y-88692739D01*
X90418388Y-88546298D01*
X90426022Y-88406260D01*
X90441950Y-88286771D01*
X90470233Y-88141628D01*
X90496704Y-88286771D01*
G37*
X90496704Y-88286771D02*
X90501517Y-88312890D01*
X90521551Y-88416755D01*
X90536316Y-88486343D01*
X90540615Y-88531747D01*
X90539084Y-88634153D01*
X90530994Y-88761408D01*
X90518429Y-88889163D01*
X90503471Y-88993067D01*
X90488205Y-89048771D01*
X90474589Y-89059557D01*
X90453629Y-89028990D01*
X90436670Y-88948232D01*
X90424571Y-88831433D01*
X90418191Y-88692739D01*
X90418388Y-88546298D01*
X90426022Y-88406260D01*
X90441950Y-88286771D01*
X90470233Y-88141628D01*
X90496704Y-88286771D01*
G36*
X96033771Y-103436057D02*
G01*
X96033767Y-103464867D01*
X96032667Y-103609302D01*
X96026925Y-103697330D01*
X96012662Y-103742917D01*
X95985999Y-103760028D01*
X95943057Y-103762628D01*
X95906651Y-103760910D01*
X95870293Y-103742593D01*
X95855283Y-103688876D01*
X95852342Y-103581200D01*
X95852342Y-103399771D01*
X95344342Y-103399771D01*
X95344342Y-103544914D01*
X95344310Y-103557554D01*
X95338051Y-103644768D01*
X95312074Y-103682135D01*
X95253628Y-103690057D01*
X95245728Y-103690005D01*
X95191220Y-103679990D01*
X95167865Y-103638427D01*
X95162914Y-103544914D01*
X95162914Y-103399771D01*
X94727485Y-103399771D01*
X94727485Y-103581200D01*
X94726263Y-103670794D01*
X94715203Y-103734293D01*
X94683069Y-103758665D01*
X94618628Y-103762628D01*
X94509771Y-103762628D01*
X94509771Y-103109486D01*
X96033771Y-103109486D01*
X96033771Y-103436057D01*
G37*
X96033771Y-103436057D02*
X96033767Y-103464867D01*
X96032667Y-103609302D01*
X96026925Y-103697330D01*
X96012662Y-103742917D01*
X95985999Y-103760028D01*
X95943057Y-103762628D01*
X95906651Y-103760910D01*
X95870293Y-103742593D01*
X95855283Y-103688876D01*
X95852342Y-103581200D01*
X95852342Y-103399771D01*
X95344342Y-103399771D01*
X95344342Y-103544914D01*
X95344310Y-103557554D01*
X95338051Y-103644768D01*
X95312074Y-103682135D01*
X95253628Y-103690057D01*
X95245728Y-103690005D01*
X95191220Y-103679990D01*
X95167865Y-103638427D01*
X95162914Y-103544914D01*
X95162914Y-103399771D01*
X94727485Y-103399771D01*
X94727485Y-103581200D01*
X94726263Y-103670794D01*
X94715203Y-103734293D01*
X94683069Y-103758665D01*
X94618628Y-103762628D01*
X94509771Y-103762628D01*
X94509771Y-103109486D01*
X96033771Y-103109486D01*
X96033771Y-103436057D01*
G36*
X91052450Y-88389537D02*
G01*
X91044656Y-88440985D01*
X91016732Y-88514338D01*
X90981393Y-88613343D01*
X90968146Y-88645673D01*
X90919679Y-88735495D01*
X90853834Y-88838310D01*
X90781655Y-88939134D01*
X90714186Y-89022984D01*
X90662470Y-89074877D01*
X90637552Y-89079830D01*
X90635404Y-89063930D01*
X90653219Y-88984024D01*
X90700367Y-88870127D01*
X90767224Y-88739032D01*
X90844168Y-88607538D01*
X90921576Y-88492438D01*
X90989826Y-88410530D01*
X91039296Y-88378607D01*
X91052450Y-88389537D01*
G37*
X91052450Y-88389537D02*
X91044656Y-88440985D01*
X91016732Y-88514338D01*
X90981393Y-88613343D01*
X90968146Y-88645673D01*
X90919679Y-88735495D01*
X90853834Y-88838310D01*
X90781655Y-88939134D01*
X90714186Y-89022984D01*
X90662470Y-89074877D01*
X90637552Y-89079830D01*
X90635404Y-89063930D01*
X90653219Y-88984024D01*
X90700367Y-88870127D01*
X90767224Y-88739032D01*
X90844168Y-88607538D01*
X90921576Y-88492438D01*
X90989826Y-88410530D01*
X91039296Y-88378607D01*
X91052450Y-88389537D01*
G36*
X89905778Y-88379208D02*
G01*
X89957148Y-88420908D01*
X90028739Y-88506099D01*
X90108726Y-88618441D01*
X90185282Y-88741594D01*
X90246582Y-88859220D01*
X90301028Y-88982664D01*
X90328619Y-89058299D01*
X90330412Y-89093881D01*
X90309699Y-89102078D01*
X90290561Y-89094081D01*
X90236807Y-89040592D01*
X90168458Y-88948761D01*
X90093479Y-88832605D01*
X90019836Y-88706138D01*
X89955493Y-88583376D01*
X89908416Y-88478336D01*
X89886570Y-88405034D01*
X89897920Y-88377485D01*
X89905778Y-88379208D01*
G37*
X89905778Y-88379208D02*
X89957148Y-88420908D01*
X90028739Y-88506099D01*
X90108726Y-88618441D01*
X90185282Y-88741594D01*
X90246582Y-88859220D01*
X90301028Y-88982664D01*
X90328619Y-89058299D01*
X90330412Y-89093881D01*
X90309699Y-89102078D01*
X90290561Y-89094081D01*
X90236807Y-89040592D01*
X90168458Y-88948761D01*
X90093479Y-88832605D01*
X90019836Y-88706138D01*
X89955493Y-88583376D01*
X89908416Y-88478336D01*
X89886570Y-88405034D01*
X89897920Y-88377485D01*
X89905778Y-88379208D01*
G36*
X96033771Y-96324057D02*
G01*
X94505390Y-96324057D01*
X94516652Y-96187986D01*
X94527914Y-96051914D01*
X95280842Y-96042106D01*
X96033771Y-96032299D01*
X96033771Y-96324057D01*
G37*
X96033771Y-96324057D02*
X94505390Y-96324057D01*
X94516652Y-96187986D01*
X94527914Y-96051914D01*
X95280842Y-96042106D01*
X96033771Y-96032299D01*
X96033771Y-96324057D01*
G36*
X95288434Y-105121702D02*
G01*
X95303172Y-105176731D01*
X95322321Y-105281431D01*
X95342934Y-105420686D01*
X95351628Y-105484240D01*
X95371664Y-105622448D01*
X95388273Y-105726100D01*
X95398532Y-105776486D01*
X95405088Y-105797684D01*
X95411074Y-105836313D01*
X95410288Y-105891967D01*
X95401619Y-105978314D01*
X95383957Y-106109023D01*
X95356193Y-106297764D01*
X95338160Y-106414234D01*
X95312933Y-106551364D01*
X95291262Y-106621596D01*
X95271191Y-106623848D01*
X95250767Y-106557040D01*
X95228036Y-106420089D01*
X95201043Y-106211914D01*
X95200836Y-106210220D01*
X95180467Y-106011943D01*
X95175208Y-105849421D01*
X95185602Y-105687570D01*
X95212192Y-105491312D01*
X95228479Y-105389751D01*
X95252263Y-105254084D01*
X95271732Y-105157903D01*
X95283792Y-105117369D01*
X95288434Y-105121702D01*
G37*
X95288434Y-105121702D02*
X95303172Y-105176731D01*
X95322321Y-105281431D01*
X95342934Y-105420686D01*
X95351628Y-105484240D01*
X95371664Y-105622448D01*
X95388273Y-105726100D01*
X95398532Y-105776486D01*
X95405088Y-105797684D01*
X95411074Y-105836313D01*
X95410288Y-105891967D01*
X95401619Y-105978314D01*
X95383957Y-106109023D01*
X95356193Y-106297764D01*
X95338160Y-106414234D01*
X95312933Y-106551364D01*
X95291262Y-106621596D01*
X95271191Y-106623848D01*
X95250767Y-106557040D01*
X95228036Y-106420089D01*
X95201043Y-106211914D01*
X95200836Y-106210220D01*
X95180467Y-106011943D01*
X95175208Y-105849421D01*
X95185602Y-105687570D01*
X95212192Y-105491312D01*
X95228479Y-105389751D01*
X95252263Y-105254084D01*
X95271732Y-105157903D01*
X95283792Y-105117369D01*
X95288434Y-105121702D01*
G36*
X92820772Y-96723263D02*
G01*
X93086079Y-96724480D01*
X93325033Y-96727093D01*
X93528388Y-96730896D01*
X93686903Y-96735683D01*
X93791334Y-96741250D01*
X93832438Y-96747390D01*
X93841629Y-96771178D01*
X93852422Y-96852179D01*
X93856628Y-96965105D01*
X93856628Y-97158628D01*
X92876914Y-97158628D01*
X92876914Y-97343645D01*
X92876614Y-97366957D01*
X92845140Y-97571125D01*
X92765749Y-97736891D01*
X92643961Y-97852205D01*
X92546937Y-97893025D01*
X92380620Y-97921864D01*
X92197723Y-97921933D01*
X92026205Y-97893766D01*
X91894023Y-97837896D01*
X91832957Y-97793145D01*
X91766524Y-97725092D01*
X91722374Y-97640732D01*
X91696147Y-97526041D01*
X91683483Y-97366991D01*
X91682405Y-97299328D01*
X91969771Y-97299328D01*
X91982514Y-97408685D01*
X92032780Y-97486830D01*
X92131194Y-97527194D01*
X92288248Y-97537626D01*
X92394317Y-97532382D01*
X92483703Y-97510753D01*
X92536589Y-97467190D01*
X92571663Y-97384590D01*
X92586628Y-97278693D01*
X92586628Y-97158628D01*
X91969771Y-97158628D01*
X91969771Y-97299328D01*
X91682405Y-97299328D01*
X91680020Y-97149557D01*
X91679485Y-96723200D01*
X92743866Y-96723200D01*
X92820772Y-96723263D01*
G37*
X92820772Y-96723263D02*
X93086079Y-96724480D01*
X93325033Y-96727093D01*
X93528388Y-96730896D01*
X93686903Y-96735683D01*
X93791334Y-96741250D01*
X93832438Y-96747390D01*
X93841629Y-96771178D01*
X93852422Y-96852179D01*
X93856628Y-96965105D01*
X93856628Y-97158628D01*
X92876914Y-97158628D01*
X92876914Y-97343645D01*
X92876614Y-97366957D01*
X92845140Y-97571125D01*
X92765749Y-97736891D01*
X92643961Y-97852205D01*
X92546937Y-97893025D01*
X92380620Y-97921864D01*
X92197723Y-97921933D01*
X92026205Y-97893766D01*
X91894023Y-97837896D01*
X91832957Y-97793145D01*
X91766524Y-97725092D01*
X91722374Y-97640732D01*
X91696147Y-97526041D01*
X91683483Y-97366991D01*
X91682405Y-97299328D01*
X91969771Y-97299328D01*
X91982514Y-97408685D01*
X92032780Y-97486830D01*
X92131194Y-97527194D01*
X92288248Y-97537626D01*
X92394317Y-97532382D01*
X92483703Y-97510753D01*
X92536589Y-97467190D01*
X92571663Y-97384590D01*
X92586628Y-97278693D01*
X92586628Y-97158628D01*
X91969771Y-97158628D01*
X91969771Y-97299328D01*
X91682405Y-97299328D01*
X91680020Y-97149557D01*
X91679485Y-96723200D01*
X92743866Y-96723200D01*
X92820772Y-96723263D01*
G36*
X95727802Y-99735469D02*
G01*
X95804620Y-99759269D01*
X95946245Y-99846520D01*
X96037611Y-99970771D01*
X96061308Y-100056056D01*
X96053686Y-100203882D01*
X95996861Y-100343545D01*
X95900736Y-100454463D01*
X95775214Y-100516058D01*
X95716118Y-100526082D01*
X95595881Y-100521951D01*
X95477232Y-100476596D01*
X95346475Y-100383465D01*
X95189916Y-100236004D01*
X95082716Y-100131894D01*
X94965099Y-100037247D01*
X94875818Y-99996943D01*
X94807167Y-100008019D01*
X94751438Y-100067515D01*
X94740972Y-100089116D01*
X94746014Y-100162560D01*
X94803772Y-100219826D01*
X94899096Y-100242914D01*
X94906244Y-100242973D01*
X94965687Y-100256548D01*
X94967225Y-100300310D01*
X94956714Y-100336194D01*
X94945199Y-100427310D01*
X94942514Y-100449142D01*
X94899520Y-100491450D01*
X94812064Y-100489306D01*
X94690473Y-100442110D01*
X94596976Y-100377270D01*
X94530034Y-100269344D01*
X94509771Y-100115914D01*
X94532145Y-99946282D01*
X94602461Y-99827952D01*
X94724389Y-99759065D01*
X94901593Y-99736068D01*
X94938121Y-99735956D01*
X95017925Y-99739880D01*
X95081514Y-99757554D01*
X95145576Y-99798562D01*
X95226799Y-99872488D01*
X95341869Y-99988914D01*
X95423171Y-100070120D01*
X95536025Y-100171051D01*
X95620283Y-100226182D01*
X95685971Y-100242914D01*
X95696057Y-100242706D01*
X95779069Y-100216646D01*
X95813182Y-100159817D01*
X95801073Y-100090586D01*
X95745417Y-100027318D01*
X95648891Y-99988380D01*
X95596847Y-99975993D01*
X95557015Y-99940101D01*
X95556635Y-99861380D01*
X95563985Y-99805598D01*
X95585606Y-99737667D01*
X95633282Y-99719388D01*
X95727802Y-99735469D01*
G37*
X95727802Y-99735469D02*
X95804620Y-99759269D01*
X95946245Y-99846520D01*
X96037611Y-99970771D01*
X96061308Y-100056056D01*
X96053686Y-100203882D01*
X95996861Y-100343545D01*
X95900736Y-100454463D01*
X95775214Y-100516058D01*
X95716118Y-100526082D01*
X95595881Y-100521951D01*
X95477232Y-100476596D01*
X95346475Y-100383465D01*
X95189916Y-100236004D01*
X95082716Y-100131894D01*
X94965099Y-100037247D01*
X94875818Y-99996943D01*
X94807167Y-100008019D01*
X94751438Y-100067515D01*
X94740972Y-100089116D01*
X94746014Y-100162560D01*
X94803772Y-100219826D01*
X94899096Y-100242914D01*
X94906244Y-100242973D01*
X94965687Y-100256548D01*
X94967225Y-100300310D01*
X94956714Y-100336194D01*
X94945199Y-100427310D01*
X94942514Y-100449142D01*
X94899520Y-100491450D01*
X94812064Y-100489306D01*
X94690473Y-100442110D01*
X94596976Y-100377270D01*
X94530034Y-100269344D01*
X94509771Y-100115914D01*
X94532145Y-99946282D01*
X94602461Y-99827952D01*
X94724389Y-99759065D01*
X94901593Y-99736068D01*
X94938121Y-99735956D01*
X95017925Y-99739880D01*
X95081514Y-99757554D01*
X95145576Y-99798562D01*
X95226799Y-99872488D01*
X95341869Y-99988914D01*
X95423171Y-100070120D01*
X95536025Y-100171051D01*
X95620283Y-100226182D01*
X95685971Y-100242914D01*
X95696057Y-100242706D01*
X95779069Y-100216646D01*
X95813182Y-100159817D01*
X95801073Y-100090586D01*
X95745417Y-100027318D01*
X95648891Y-99988380D01*
X95596847Y-99975993D01*
X95557015Y-99940101D01*
X95556635Y-99861380D01*
X95563985Y-99805598D01*
X95585606Y-99737667D01*
X95633282Y-99719388D01*
X95727802Y-99735469D01*
G36*
X94958766Y-103911684D02*
G01*
X95055233Y-103933696D01*
X95147294Y-103983719D01*
X95251445Y-104071373D01*
X95384183Y-104206275D01*
X95490848Y-104314795D01*
X95568682Y-104379267D01*
X95630848Y-104407528D01*
X95692612Y-104409642D01*
X95724524Y-104404872D01*
X95783084Y-104375184D01*
X95797914Y-104306914D01*
X95794689Y-104270427D01*
X95759661Y-104215427D01*
X95670914Y-104175152D01*
X95649685Y-104167929D01*
X95577518Y-104136016D01*
X95552985Y-104111652D01*
X95558934Y-104073378D01*
X95562057Y-103993708D01*
X95562425Y-103968419D01*
X95573779Y-103922266D01*
X95616234Y-103908927D01*
X95710016Y-103918061D01*
X95808766Y-103941164D01*
X95948021Y-104020926D01*
X96035754Y-104143628D01*
X96042831Y-104162554D01*
X96062824Y-104308020D01*
X96035109Y-104455894D01*
X95967304Y-104582645D01*
X95867029Y-104664744D01*
X95768656Y-104695019D01*
X95613687Y-104701796D01*
X95478028Y-104664969D01*
X95456222Y-104651322D01*
X95377638Y-104590217D01*
X95271525Y-104498420D01*
X95154486Y-104390042D01*
X95061007Y-104303631D01*
X94947567Y-104214342D01*
X94864270Y-104176295D01*
X94801995Y-104186101D01*
X94751621Y-104240373D01*
X94741213Y-104261677D01*
X94745899Y-104335151D01*
X94803260Y-104392583D01*
X94898097Y-104415771D01*
X94953563Y-104421329D01*
X94973769Y-104453449D01*
X94961987Y-104533700D01*
X94947399Y-104599448D01*
X94923325Y-104656371D01*
X94877210Y-104669323D01*
X94785178Y-104654635D01*
X94746663Y-104645369D01*
X94618323Y-104572880D01*
X94537726Y-104449237D01*
X94509771Y-104281087D01*
X94525111Y-104162176D01*
X94595151Y-104026939D01*
X94713815Y-103939088D01*
X94872222Y-103907771D01*
X94958766Y-103911684D01*
G37*
X94958766Y-103911684D02*
X95055233Y-103933696D01*
X95147294Y-103983719D01*
X95251445Y-104071373D01*
X95384183Y-104206275D01*
X95490848Y-104314795D01*
X95568682Y-104379267D01*
X95630848Y-104407528D01*
X95692612Y-104409642D01*
X95724524Y-104404872D01*
X95783084Y-104375184D01*
X95797914Y-104306914D01*
X95794689Y-104270427D01*
X95759661Y-104215427D01*
X95670914Y-104175152D01*
X95649685Y-104167929D01*
X95577518Y-104136016D01*
X95552985Y-104111652D01*
X95558934Y-104073378D01*
X95562057Y-103993708D01*
X95562425Y-103968419D01*
X95573779Y-103922266D01*
X95616234Y-103908927D01*
X95710016Y-103918061D01*
X95808766Y-103941164D01*
X95948021Y-104020926D01*
X96035754Y-104143628D01*
X96042831Y-104162554D01*
X96062824Y-104308020D01*
X96035109Y-104455894D01*
X95967304Y-104582645D01*
X95867029Y-104664744D01*
X95768656Y-104695019D01*
X95613687Y-104701796D01*
X95478028Y-104664969D01*
X95456222Y-104651322D01*
X95377638Y-104590217D01*
X95271525Y-104498420D01*
X95154486Y-104390042D01*
X95061007Y-104303631D01*
X94947567Y-104214342D01*
X94864270Y-104176295D01*
X94801995Y-104186101D01*
X94751621Y-104240373D01*
X94741213Y-104261677D01*
X94745899Y-104335151D01*
X94803260Y-104392583D01*
X94898097Y-104415771D01*
X94953563Y-104421329D01*
X94973769Y-104453449D01*
X94961987Y-104533700D01*
X94947399Y-104599448D01*
X94923325Y-104656371D01*
X94877210Y-104669323D01*
X94785178Y-104654635D01*
X94746663Y-104645369D01*
X94618323Y-104572880D01*
X94537726Y-104449237D01*
X94509771Y-104281087D01*
X94525111Y-104162176D01*
X94595151Y-104026939D01*
X94713815Y-103939088D01*
X94872222Y-103907771D01*
X94958766Y-103911684D01*
G36*
X94675480Y-100610170D02*
G01*
X94717785Y-100641891D01*
X94734258Y-100723700D01*
X94745628Y-100841628D01*
X95389699Y-100851537D01*
X96033771Y-100861446D01*
X96033771Y-101150057D01*
X94727485Y-101150057D01*
X94727485Y-101258914D01*
X94724150Y-101316368D01*
X94695732Y-101358780D01*
X94618628Y-101367771D01*
X94509771Y-101367771D01*
X94509771Y-100605771D01*
X94616329Y-100605771D01*
X94675480Y-100610170D01*
G37*
X94675480Y-100610170D02*
X94717785Y-100641891D01*
X94734258Y-100723700D01*
X94745628Y-100841628D01*
X95389699Y-100851537D01*
X96033771Y-100861446D01*
X96033771Y-101150057D01*
X94727485Y-101150057D01*
X94727485Y-101258914D01*
X94724150Y-101316368D01*
X94695732Y-101358780D01*
X94618628Y-101367771D01*
X94509771Y-101367771D01*
X94509771Y-100605771D01*
X94616329Y-100605771D01*
X94675480Y-100610170D01*
G36*
X93856628Y-103254628D02*
G01*
X93566342Y-103254628D01*
X93566342Y-102746628D01*
X91679485Y-102746628D01*
X91679485Y-102347485D01*
X93856628Y-102347485D01*
X93856628Y-103254628D01*
G37*
X93856628Y-103254628D02*
X93566342Y-103254628D01*
X93566342Y-102746628D01*
X91679485Y-102746628D01*
X91679485Y-102347485D01*
X93856628Y-102347485D01*
X93856628Y-103254628D01*
G36*
X96033771Y-96829680D02*
G01*
X95628233Y-96839940D01*
X95222694Y-96850200D01*
X95627967Y-97013485D01*
X95734060Y-97056531D01*
X95871675Y-97115071D01*
X95959206Y-97159064D01*
X96007874Y-97195791D01*
X96028901Y-97232529D01*
X96033505Y-97276557D01*
X96033771Y-97376343D01*
X94505173Y-97376343D01*
X94516543Y-97258414D01*
X94527914Y-97140485D01*
X94890771Y-97122343D01*
X95253628Y-97104200D01*
X94881699Y-96944195D01*
X94815902Y-96915769D01*
X94674882Y-96852532D01*
X94585313Y-96805622D01*
X94535642Y-96766866D01*
X94514313Y-96728091D01*
X94509771Y-96681123D01*
X94509771Y-96578057D01*
X96033771Y-96578057D01*
X96033771Y-96829680D01*
G37*
X96033771Y-96829680D02*
X95628233Y-96839940D01*
X95222694Y-96850200D01*
X95627967Y-97013485D01*
X95734060Y-97056531D01*
X95871675Y-97115071D01*
X95959206Y-97159064D01*
X96007874Y-97195791D01*
X96028901Y-97232529D01*
X96033505Y-97276557D01*
X96033771Y-97376343D01*
X94505173Y-97376343D01*
X94516543Y-97258414D01*
X94527914Y-97140485D01*
X94890771Y-97122343D01*
X95253628Y-97104200D01*
X94881699Y-96944195D01*
X94815902Y-96915769D01*
X94674882Y-96852532D01*
X94585313Y-96805622D01*
X94535642Y-96766866D01*
X94514313Y-96728091D01*
X94509771Y-96681123D01*
X94509771Y-96578057D01*
X96033771Y-96578057D01*
X96033771Y-96829680D01*
G36*
X96033771Y-101803200D02*
G01*
X95689057Y-101803200D01*
X95644176Y-101803419D01*
X95470469Y-101810609D01*
X95368617Y-101827782D01*
X95338631Y-101854704D01*
X95380523Y-101891136D01*
X95494304Y-101936843D01*
X95679985Y-101991587D01*
X96015628Y-102081214D01*
X96026786Y-102232492D01*
X96029248Y-102270814D01*
X96031272Y-102351357D01*
X96026786Y-102383138D01*
X96009034Y-102378665D01*
X95934258Y-102357606D01*
X95815419Y-102323255D01*
X95667887Y-102280026D01*
X95320145Y-102177548D01*
X95221363Y-102262517D01*
X95117980Y-102321803D01*
X94970303Y-102350479D01*
X94816785Y-102336913D01*
X94680628Y-102283631D01*
X94585031Y-102193164D01*
X94578772Y-102180922D01*
X94554282Y-102094815D01*
X94532797Y-101965081D01*
X94521571Y-101848085D01*
X94730879Y-101848085D01*
X94734146Y-101902717D01*
X94752070Y-101964567D01*
X94823358Y-102042508D01*
X94927866Y-102074184D01*
X95044985Y-102049840D01*
X95111380Y-102002738D01*
X95156253Y-101902717D01*
X95158181Y-101885415D01*
X95157661Y-101838103D01*
X95132682Y-101813671D01*
X95067208Y-101804557D01*
X94945199Y-101803200D01*
X94906513Y-101803230D01*
X94801024Y-101805904D01*
X94747825Y-101818335D01*
X94730879Y-101848085D01*
X94521571Y-101848085D01*
X94518372Y-101814746D01*
X94499541Y-101512914D01*
X96033771Y-101512914D01*
X96033771Y-101803200D01*
G37*
X96033771Y-101803200D02*
X95689057Y-101803200D01*
X95644176Y-101803419D01*
X95470469Y-101810609D01*
X95368617Y-101827782D01*
X95338631Y-101854704D01*
X95380523Y-101891136D01*
X95494304Y-101936843D01*
X95679985Y-101991587D01*
X96015628Y-102081214D01*
X96026786Y-102232492D01*
X96029248Y-102270814D01*
X96031272Y-102351357D01*
X96026786Y-102383138D01*
X96009034Y-102378665D01*
X95934258Y-102357606D01*
X95815419Y-102323255D01*
X95667887Y-102280026D01*
X95320145Y-102177548D01*
X95221363Y-102262517D01*
X95117980Y-102321803D01*
X94970303Y-102350479D01*
X94816785Y-102336913D01*
X94680628Y-102283631D01*
X94585031Y-102193164D01*
X94578772Y-102180922D01*
X94554282Y-102094815D01*
X94532797Y-101965081D01*
X94521571Y-101848085D01*
X94730879Y-101848085D01*
X94734146Y-101902717D01*
X94752070Y-101964567D01*
X94823358Y-102042508D01*
X94927866Y-102074184D01*
X95044985Y-102049840D01*
X95111380Y-102002738D01*
X95156253Y-101902717D01*
X95158181Y-101885415D01*
X95157661Y-101838103D01*
X95132682Y-101813671D01*
X95067208Y-101804557D01*
X94945199Y-101803200D01*
X94906513Y-101803230D01*
X94801024Y-101805904D01*
X94747825Y-101818335D01*
X94730879Y-101848085D01*
X94521571Y-101848085D01*
X94518372Y-101814746D01*
X94499541Y-101512914D01*
X96033771Y-101512914D01*
X96033771Y-101803200D01*
G36*
X95300410Y-94136145D02*
G01*
X95322017Y-94230838D01*
X95349536Y-94382771D01*
X95374576Y-94536027D01*
X95391240Y-94678230D01*
X95396235Y-94811847D01*
X95389346Y-94956894D01*
X95370360Y-95133390D01*
X95339062Y-95361350D01*
X95333512Y-95398928D01*
X95312408Y-95518199D01*
X95293099Y-95577118D01*
X95273933Y-95573297D01*
X95253259Y-95504352D01*
X95229427Y-95367896D01*
X95200784Y-95161542D01*
X95194448Y-95111179D01*
X95175882Y-94901255D01*
X95176822Y-94718222D01*
X95197062Y-94526542D01*
X95218113Y-94381621D01*
X95243568Y-94221428D01*
X95263936Y-94128847D01*
X95281967Y-94101283D01*
X95300410Y-94136145D01*
G37*
X95300410Y-94136145D02*
X95322017Y-94230838D01*
X95349536Y-94382771D01*
X95374576Y-94536027D01*
X95391240Y-94678230D01*
X95396235Y-94811847D01*
X95389346Y-94956894D01*
X95370360Y-95133390D01*
X95339062Y-95361350D01*
X95333512Y-95398928D01*
X95312408Y-95518199D01*
X95293099Y-95577118D01*
X95273933Y-95573297D01*
X95253259Y-95504352D01*
X95229427Y-95367896D01*
X95200784Y-95161542D01*
X95194448Y-95111179D01*
X95175882Y-94901255D01*
X95176822Y-94718222D01*
X95197062Y-94526542D01*
X95218113Y-94381621D01*
X95243568Y-94221428D01*
X95263936Y-94128847D01*
X95281967Y-94101283D01*
X95300410Y-94136145D01*
G36*
X90507530Y-89760368D02*
G01*
X90531083Y-89883343D01*
X90533774Y-89907455D01*
X90536922Y-90020715D01*
X90532254Y-90163743D01*
X90521490Y-90310954D01*
X90506351Y-90436765D01*
X90488559Y-90515594D01*
X90484191Y-90525228D01*
X90464014Y-90532733D01*
X90446557Y-90484066D01*
X90432630Y-90392834D01*
X90423046Y-90272646D01*
X90418616Y-90137109D01*
X90420151Y-89999831D01*
X90428463Y-89874421D01*
X90444364Y-89774485D01*
X90458951Y-89727756D01*
X90483316Y-89708292D01*
X90507530Y-89760368D01*
G37*
X90507530Y-89760368D02*
X90531083Y-89883343D01*
X90533774Y-89907455D01*
X90536922Y-90020715D01*
X90532254Y-90163743D01*
X90521490Y-90310954D01*
X90506351Y-90436765D01*
X90488559Y-90515594D01*
X90484191Y-90525228D01*
X90464014Y-90532733D01*
X90446557Y-90484066D01*
X90432630Y-90392834D01*
X90423046Y-90272646D01*
X90418616Y-90137109D01*
X90420151Y-89999831D01*
X90428463Y-89874421D01*
X90444364Y-89774485D01*
X90458951Y-89727756D01*
X90483316Y-89708292D01*
X90507530Y-89760368D01*
G36*
X95157605Y-98682632D02*
G01*
X95417639Y-98684559D01*
X95615537Y-98691566D01*
X95761196Y-98705895D01*
X95864514Y-98729790D01*
X95935389Y-98765497D01*
X95983720Y-98815259D01*
X96019404Y-98881320D01*
X96035234Y-98921150D01*
X96066541Y-99103189D01*
X96029837Y-99295173D01*
X96025768Y-99306533D01*
X95992169Y-99376916D01*
X95943853Y-99429844D01*
X95871187Y-99467733D01*
X95764539Y-99492997D01*
X95614277Y-99508053D01*
X95410769Y-99515316D01*
X95144382Y-99517200D01*
X94505390Y-99517200D01*
X94516652Y-99381128D01*
X94527914Y-99245057D01*
X95153022Y-99235132D01*
X95257929Y-99233369D01*
X95459255Y-99228808D01*
X95603031Y-99222713D01*
X95699816Y-99213859D01*
X95760171Y-99201023D01*
X95794656Y-99182978D01*
X95813831Y-99158502D01*
X95829848Y-99105812D01*
X95799505Y-99023284D01*
X95791266Y-99012978D01*
X95762658Y-98990324D01*
X95715894Y-98973820D01*
X95640092Y-98962166D01*
X95524369Y-98954062D01*
X95357841Y-98948210D01*
X95129625Y-98943310D01*
X94509771Y-98931850D01*
X94509771Y-98682628D01*
X95143064Y-98682628D01*
X95157605Y-98682632D01*
G37*
X95157605Y-98682632D02*
X95417639Y-98684559D01*
X95615537Y-98691566D01*
X95761196Y-98705895D01*
X95864514Y-98729790D01*
X95935389Y-98765497D01*
X95983720Y-98815259D01*
X96019404Y-98881320D01*
X96035234Y-98921150D01*
X96066541Y-99103189D01*
X96029837Y-99295173D01*
X96025768Y-99306533D01*
X95992169Y-99376916D01*
X95943853Y-99429844D01*
X95871187Y-99467733D01*
X95764539Y-99492997D01*
X95614277Y-99508053D01*
X95410769Y-99515316D01*
X95144382Y-99517200D01*
X94505390Y-99517200D01*
X94516652Y-99381128D01*
X94527914Y-99245057D01*
X95153022Y-99235132D01*
X95257929Y-99233369D01*
X95459255Y-99228808D01*
X95603031Y-99222713D01*
X95699816Y-99213859D01*
X95760171Y-99201023D01*
X95794656Y-99182978D01*
X95813831Y-99158502D01*
X95829848Y-99105812D01*
X95799505Y-99023284D01*
X95791266Y-99012978D01*
X95762658Y-98990324D01*
X95715894Y-98973820D01*
X95640092Y-98962166D01*
X95524369Y-98954062D01*
X95357841Y-98948210D01*
X95129625Y-98943310D01*
X94509771Y-98931850D01*
X94509771Y-98682628D01*
X95143064Y-98682628D01*
X95157605Y-98682632D01*
G36*
X90670486Y-89680733D02*
G01*
X90726871Y-89736628D01*
X90797185Y-89824649D01*
X90870959Y-89930862D01*
X90937722Y-90041337D01*
X90987005Y-90142141D01*
X91021088Y-90228756D01*
X91051108Y-90321409D01*
X91046886Y-90353322D01*
X91006865Y-90327313D01*
X90929487Y-90246200D01*
X90896993Y-90207115D01*
X90819102Y-90095025D01*
X90744402Y-89966978D01*
X90682558Y-89841785D01*
X90643237Y-89738257D01*
X90636103Y-89675205D01*
X90638500Y-89670893D01*
X90670486Y-89680733D01*
G37*
X90670486Y-89680733D02*
X90726871Y-89736628D01*
X90797185Y-89824649D01*
X90870959Y-89930862D01*
X90937722Y-90041337D01*
X90987005Y-90142141D01*
X91021088Y-90228756D01*
X91051108Y-90321409D01*
X91046886Y-90353322D01*
X91006865Y-90327313D01*
X90929487Y-90246200D01*
X90896993Y-90207115D01*
X90819102Y-90095025D01*
X90744402Y-89966978D01*
X90682558Y-89841785D01*
X90643237Y-89738257D01*
X90636103Y-89675205D01*
X90638500Y-89670893D01*
X90670486Y-89680733D01*
G36*
X93849545Y-99508128D02*
G01*
X93838485Y-99680485D01*
X93257914Y-99698628D01*
X92677342Y-99716771D01*
X93257914Y-99954911D01*
X93838485Y-100193051D01*
X93849747Y-100326840D01*
X93861009Y-100460628D01*
X91679485Y-100460628D01*
X91679485Y-100135900D01*
X92249904Y-100125907D01*
X92820322Y-100115914D01*
X91697628Y-99637812D01*
X91686470Y-99486792D01*
X91675313Y-99335771D01*
X93860604Y-99335771D01*
X93849545Y-99508128D01*
G37*
X93849545Y-99508128D02*
X93838485Y-99680485D01*
X93257914Y-99698628D01*
X92677342Y-99716771D01*
X93257914Y-99954911D01*
X93838485Y-100193051D01*
X93849747Y-100326840D01*
X93861009Y-100460628D01*
X91679485Y-100460628D01*
X91679485Y-100135900D01*
X92249904Y-100125907D01*
X92820322Y-100115914D01*
X91697628Y-99637812D01*
X91686470Y-99486792D01*
X91675313Y-99335771D01*
X93860604Y-99335771D01*
X93849545Y-99508128D01*
G36*
X93465731Y-94131063D02*
G01*
X93629940Y-94100487D01*
X93742275Y-94080843D01*
X93793128Y-94073957D01*
X93795634Y-94073999D01*
X93833512Y-94089089D01*
X93851847Y-94142791D01*
X93856628Y-94251889D01*
X93854108Y-94347637D01*
X93836931Y-94411168D01*
X93790739Y-94448881D01*
X93701177Y-94472184D01*
X93553888Y-94492488D01*
X93348628Y-94518133D01*
X93348628Y-94900552D01*
X93553888Y-94926198D01*
X93696370Y-94945687D01*
X93788017Y-94968643D01*
X93835705Y-95005541D01*
X93853790Y-95067788D01*
X93856628Y-95166796D01*
X93854932Y-95228442D01*
X93845097Y-95312324D01*
X93829414Y-95345871D01*
X93823341Y-95345256D01*
X93760844Y-95334617D01*
X93639145Y-95312120D01*
X93467269Y-95279487D01*
X93254243Y-95238442D01*
X93009092Y-95190708D01*
X92740842Y-95138009D01*
X91679485Y-94928618D01*
X91679485Y-94712262D01*
X92278199Y-94712262D01*
X92568485Y-94759575D01*
X92595505Y-94763992D01*
X92745660Y-94788956D01*
X92875181Y-94811127D01*
X92958557Y-94826151D01*
X92971645Y-94828613D01*
X93030444Y-94831618D01*
X93054026Y-94798733D01*
X93058342Y-94711655D01*
X93058342Y-94577896D01*
X92904128Y-94601361D01*
X92815958Y-94615526D01*
X92666420Y-94641123D01*
X92514057Y-94668544D01*
X92278199Y-94712262D01*
X91679485Y-94712262D01*
X91679485Y-94488222D01*
X92704557Y-94280897D01*
X92757943Y-94270117D01*
X93020124Y-94217705D01*
X93058342Y-94210199D01*
X93259256Y-94170744D01*
X93465731Y-94131063D01*
G37*
X93465731Y-94131063D02*
X93629940Y-94100487D01*
X93742275Y-94080843D01*
X93793128Y-94073957D01*
X93795634Y-94073999D01*
X93833512Y-94089089D01*
X93851847Y-94142791D01*
X93856628Y-94251889D01*
X93854108Y-94347637D01*
X93836931Y-94411168D01*
X93790739Y-94448881D01*
X93701177Y-94472184D01*
X93553888Y-94492488D01*
X93348628Y-94518133D01*
X93348628Y-94900552D01*
X93553888Y-94926198D01*
X93696370Y-94945687D01*
X93788017Y-94968643D01*
X93835705Y-95005541D01*
X93853790Y-95067788D01*
X93856628Y-95166796D01*
X93854932Y-95228442D01*
X93845097Y-95312324D01*
X93829414Y-95345871D01*
X93823341Y-95345256D01*
X93760844Y-95334617D01*
X93639145Y-95312120D01*
X93467269Y-95279487D01*
X93254243Y-95238442D01*
X93009092Y-95190708D01*
X92740842Y-95138009D01*
X91679485Y-94928618D01*
X91679485Y-94712262D01*
X92278199Y-94712262D01*
X92568485Y-94759575D01*
X92595505Y-94763992D01*
X92745660Y-94788956D01*
X92875181Y-94811127D01*
X92958557Y-94826151D01*
X92971645Y-94828613D01*
X93030444Y-94831618D01*
X93054026Y-94798733D01*
X93058342Y-94711655D01*
X93058342Y-94577896D01*
X92904128Y-94601361D01*
X92815958Y-94615526D01*
X92666420Y-94641123D01*
X92514057Y-94668544D01*
X92278199Y-94712262D01*
X91679485Y-94712262D01*
X91679485Y-94488222D01*
X92704557Y-94280897D01*
X92757943Y-94270117D01*
X93020124Y-94217705D01*
X93058342Y-94210199D01*
X93259256Y-94170744D01*
X93465731Y-94131063D01*
G36*
X90310630Y-89650702D02*
G01*
X90304360Y-89697296D01*
X90279348Y-89782932D01*
X90242864Y-89886491D01*
X90202179Y-89986853D01*
X90164561Y-90062900D01*
X90131235Y-90112993D01*
X90066007Y-90197889D01*
X89994220Y-90282420D01*
X89932488Y-90347289D01*
X89897423Y-90373200D01*
X89892820Y-90354407D01*
X89909138Y-90285249D01*
X89946008Y-90182700D01*
X89978724Y-90110397D01*
X90045406Y-89987394D01*
X90122687Y-89863234D01*
X90199509Y-89754285D01*
X90264817Y-89676913D01*
X90307555Y-89647485D01*
X90310630Y-89650702D01*
G37*
X90310630Y-89650702D02*
X90304360Y-89697296D01*
X90279348Y-89782932D01*
X90242864Y-89886491D01*
X90202179Y-89986853D01*
X90164561Y-90062900D01*
X90131235Y-90112993D01*
X90066007Y-90197889D01*
X89994220Y-90282420D01*
X89932488Y-90347289D01*
X89897423Y-90373200D01*
X89892820Y-90354407D01*
X89909138Y-90285249D01*
X89946008Y-90182700D01*
X89978724Y-90110397D01*
X90045406Y-89987394D01*
X90122687Y-89863234D01*
X90199509Y-89754285D01*
X90264817Y-89676913D01*
X90307555Y-89647485D01*
X90310630Y-89650702D01*
G36*
X93856628Y-96505485D02*
G01*
X93566342Y-96505485D01*
X93566342Y-95997486D01*
X91679485Y-95997486D01*
X91679485Y-95598343D01*
X93856628Y-95598343D01*
X93856628Y-96505485D01*
G37*
X93856628Y-96505485D02*
X93566342Y-96505485D01*
X93566342Y-95997486D01*
X91679485Y-95997486D01*
X91679485Y-95598343D01*
X93856628Y-95598343D01*
X93856628Y-96505485D01*
G36*
X93856628Y-99081771D02*
G01*
X93566342Y-99081771D01*
X93566342Y-98573771D01*
X92876914Y-98573771D01*
X92876914Y-98972914D01*
X92550342Y-98972914D01*
X92550342Y-98573771D01*
X91969771Y-98573771D01*
X91969771Y-99081771D01*
X91679485Y-99081771D01*
X91679485Y-98174628D01*
X93856628Y-98174628D01*
X93856628Y-99081771D01*
G37*
X93856628Y-99081771D02*
X93566342Y-99081771D01*
X93566342Y-98573771D01*
X92876914Y-98573771D01*
X92876914Y-98972914D01*
X92550342Y-98972914D01*
X92550342Y-98573771D01*
X91969771Y-98573771D01*
X91969771Y-99081771D01*
X91679485Y-99081771D01*
X91679485Y-98174628D01*
X93856628Y-98174628D01*
X93856628Y-99081771D01*
G36*
X93253813Y-103450174D02*
G01*
X93424912Y-103470117D01*
X93553410Y-103502261D01*
X93649294Y-103549118D01*
X93722552Y-103613201D01*
X93783171Y-103697019D01*
X93809522Y-103750845D01*
X93848598Y-103908150D01*
X93858514Y-104090463D01*
X93839005Y-104268882D01*
X93789803Y-104414505D01*
X93771626Y-104446910D01*
X93715142Y-104526375D01*
X93645236Y-104586516D01*
X93552066Y-104629919D01*
X93425790Y-104659173D01*
X93256567Y-104676865D01*
X93034556Y-104685583D01*
X92749914Y-104687914D01*
X92566051Y-104687608D01*
X92367589Y-104685677D01*
X92221888Y-104681067D01*
X92117476Y-104672753D01*
X92042884Y-104659710D01*
X91986642Y-104640915D01*
X91937278Y-104615343D01*
X91841323Y-104550453D01*
X91736603Y-104437083D01*
X91676619Y-104292084D01*
X91651245Y-104097111D01*
X91652838Y-104021676D01*
X91958786Y-104021676D01*
X91962962Y-104130354D01*
X92034799Y-104225271D01*
X92079657Y-104241522D01*
X92189267Y-104257200D01*
X92344790Y-104267936D01*
X92531544Y-104273841D01*
X92734846Y-104275029D01*
X92940013Y-104271612D01*
X93132365Y-104263701D01*
X93297217Y-104251411D01*
X93419889Y-104234854D01*
X93485697Y-104214142D01*
X93486412Y-104213639D01*
X93551709Y-104128912D01*
X93560945Y-104024911D01*
X93511480Y-103930664D01*
X93484591Y-103909372D01*
X93406430Y-103876516D01*
X93287262Y-103854002D01*
X93119287Y-103841058D01*
X92894705Y-103836908D01*
X92605714Y-103840780D01*
X92527042Y-103842674D01*
X92341304Y-103848185D01*
X92211435Y-103855256D01*
X92125001Y-103865933D01*
X92069569Y-103882261D01*
X92032702Y-103906282D01*
X92001968Y-103940043D01*
X91958786Y-104021676D01*
X91652838Y-104021676D01*
X91655238Y-103908084D01*
X91698966Y-103742272D01*
X91790141Y-103616246D01*
X91934787Y-103517700D01*
X91981540Y-103494964D01*
X92042718Y-103471751D01*
X92113865Y-103455608D01*
X92207501Y-103445290D01*
X92336144Y-103439555D01*
X92512314Y-103437157D01*
X92748531Y-103436854D01*
X92894705Y-103438447D01*
X93030124Y-103439922D01*
X93253813Y-103450174D01*
G37*
X93253813Y-103450174D02*
X93424912Y-103470117D01*
X93553410Y-103502261D01*
X93649294Y-103549118D01*
X93722552Y-103613201D01*
X93783171Y-103697019D01*
X93809522Y-103750845D01*
X93848598Y-103908150D01*
X93858514Y-104090463D01*
X93839005Y-104268882D01*
X93789803Y-104414505D01*
X93771626Y-104446910D01*
X93715142Y-104526375D01*
X93645236Y-104586516D01*
X93552066Y-104629919D01*
X93425790Y-104659173D01*
X93256567Y-104676865D01*
X93034556Y-104685583D01*
X92749914Y-104687914D01*
X92566051Y-104687608D01*
X92367589Y-104685677D01*
X92221888Y-104681067D01*
X92117476Y-104672753D01*
X92042884Y-104659710D01*
X91986642Y-104640915D01*
X91937278Y-104615343D01*
X91841323Y-104550453D01*
X91736603Y-104437083D01*
X91676619Y-104292084D01*
X91651245Y-104097111D01*
X91652838Y-104021676D01*
X91958786Y-104021676D01*
X91962962Y-104130354D01*
X92034799Y-104225271D01*
X92079657Y-104241522D01*
X92189267Y-104257200D01*
X92344790Y-104267936D01*
X92531544Y-104273841D01*
X92734846Y-104275029D01*
X92940013Y-104271612D01*
X93132365Y-104263701D01*
X93297217Y-104251411D01*
X93419889Y-104234854D01*
X93485697Y-104214142D01*
X93486412Y-104213639D01*
X93551709Y-104128912D01*
X93560945Y-104024911D01*
X93511480Y-103930664D01*
X93484591Y-103909372D01*
X93406430Y-103876516D01*
X93287262Y-103854002D01*
X93119287Y-103841058D01*
X92894705Y-103836908D01*
X92605714Y-103840780D01*
X92527042Y-103842674D01*
X92341304Y-103848185D01*
X92211435Y-103855256D01*
X92125001Y-103865933D01*
X92069569Y-103882261D01*
X92032702Y-103906282D01*
X92001968Y-103940043D01*
X91958786Y-104021676D01*
X91652838Y-104021676D01*
X91655238Y-103908084D01*
X91698966Y-103742272D01*
X91790141Y-103616246D01*
X91934787Y-103517700D01*
X91981540Y-103494964D01*
X92042718Y-103471751D01*
X92113865Y-103455608D01*
X92207501Y-103445290D01*
X92336144Y-103439555D01*
X92512314Y-103437157D01*
X92748531Y-103436854D01*
X92894705Y-103438447D01*
X93030124Y-103439922D01*
X93253813Y-103450174D01*
G36*
X96033771Y-102855486D02*
G01*
X94505390Y-102855486D01*
X94516652Y-102719414D01*
X94527914Y-102583343D01*
X95280842Y-102573535D01*
X96033771Y-102563727D01*
X96033771Y-102855486D01*
G37*
X96033771Y-102855486D02*
X94505390Y-102855486D01*
X94516652Y-102719414D01*
X94527914Y-102583343D01*
X95280842Y-102573535D01*
X96033771Y-102563727D01*
X96033771Y-102855486D01*
%TO.C,*%
G36*
X90166000Y-104029000D02*
G01*
X88984000Y-104029000D01*
X88996000Y-103819000D01*
X89581000Y-103814000D01*
X90166000Y-103808000D01*
X90166000Y-104029000D01*
G37*
G36*
X90166000Y-101529000D02*
G01*
X88516000Y-101519000D01*
X88504000Y-101309000D01*
X90166000Y-101309000D01*
X90166000Y-101529000D01*
G37*
G36*
X90166000Y-99709000D02*
G01*
X89229000Y-99709000D01*
X89187000Y-99762000D01*
X89166000Y-99795000D01*
X89166000Y-99929000D01*
X89177000Y-99939000D01*
X89244000Y-99952000D01*
X89397000Y-99960000D01*
X89675000Y-99965000D01*
X90166000Y-99971000D01*
X90166000Y-100189000D01*
X89691000Y-100189000D01*
X89479000Y-100187000D01*
X89254000Y-100180000D01*
X89136000Y-100170000D01*
X89133000Y-100169000D01*
X89009000Y-100097000D01*
X88985000Y-100065000D01*
X88975000Y-99961000D01*
X88978000Y-99947000D01*
X89037000Y-99804000D01*
X89038000Y-99802000D01*
X89082000Y-99722000D01*
X89035000Y-99709000D01*
X88993000Y-99696000D01*
X88990000Y-99604000D01*
X88996000Y-99499000D01*
X89581000Y-99494000D01*
X90166000Y-99488000D01*
X90166000Y-99709000D01*
G37*
G36*
X88734000Y-103810000D02*
G01*
X88813000Y-103822000D01*
X88817000Y-103832000D01*
X88826000Y-103932000D01*
X88826000Y-104029000D01*
X88586000Y-104029000D01*
X88586000Y-103809000D01*
X88693000Y-103809000D01*
X88734000Y-103810000D01*
G37*
G36*
X89624000Y-101731000D02*
G01*
X89903000Y-101748000D01*
X90069000Y-101807000D01*
X90158000Y-101917000D01*
X90183000Y-102041000D01*
X90165000Y-102224000D01*
X90156000Y-102243000D01*
X90061000Y-102342000D01*
X90019000Y-102370000D01*
X89955000Y-102391000D01*
X89835000Y-102400000D01*
X89608000Y-102405000D01*
X89467000Y-102407000D01*
X89301000Y-102405000D01*
X89213000Y-102393000D01*
X89147000Y-102365000D01*
X89019000Y-102263000D01*
X88978000Y-102085000D01*
X88979807Y-102073000D01*
X89150000Y-102073000D01*
X89152000Y-102131000D01*
X89200000Y-102176000D01*
X89333000Y-102195000D01*
X89589000Y-102199000D01*
X89657000Y-102199000D01*
X89848000Y-102196000D01*
X89941000Y-102185000D01*
X89984000Y-102161000D01*
X90026000Y-102068000D01*
X90021000Y-102025000D01*
X89977000Y-101981000D01*
X89853000Y-101961000D01*
X89608000Y-101954000D01*
X89408000Y-101953000D01*
X89244000Y-101964000D01*
X89171000Y-102001000D01*
X89150000Y-102073000D01*
X88979807Y-102073000D01*
X89003000Y-101919000D01*
X89136000Y-101781000D01*
X89194000Y-101757000D01*
X89306000Y-101740000D01*
X89408000Y-101736000D01*
X89516000Y-101732000D01*
X89624000Y-101731000D01*
G37*
G36*
X89914000Y-95130000D02*
G01*
X89947000Y-95184000D01*
X89954000Y-95348000D01*
X89853000Y-95467000D01*
X89796000Y-95493000D01*
X89857000Y-95518000D01*
X89903000Y-95547000D01*
X89964000Y-95688000D01*
X89928000Y-95870000D01*
X89801000Y-96033000D01*
X89539000Y-96156000D01*
X89209000Y-96182000D01*
X88891000Y-96097000D01*
X88728000Y-95986000D01*
X88566000Y-95754000D01*
X88532000Y-95589000D01*
X88532000Y-95322000D01*
X88583000Y-95099000D01*
X88763000Y-94833000D01*
X89066000Y-94640000D01*
X89482000Y-94557000D01*
X89763000Y-94563000D01*
X90040000Y-94650000D01*
X90280000Y-94850000D01*
X90420000Y-95169000D01*
X90434000Y-95299000D01*
X90431000Y-95506000D01*
X90412000Y-95697000D01*
X90380000Y-95802000D01*
X90377000Y-95803000D01*
X90296000Y-95798000D01*
X90240000Y-95782000D01*
X90239000Y-95711000D01*
X90250000Y-95601000D01*
X90255000Y-95409000D01*
X90254000Y-95292000D01*
X90240000Y-95171000D01*
X90202000Y-95079000D01*
X90159000Y-95007000D01*
X89953000Y-94825000D01*
X89647000Y-94754000D01*
X89305000Y-94778000D01*
X88982000Y-94912000D01*
X88766000Y-95151000D01*
X88741000Y-95198000D01*
X88703000Y-95305000D01*
X88697000Y-95459000D01*
X88697000Y-95493000D01*
X88733000Y-95705000D01*
X88849000Y-95863000D01*
X88866000Y-95878000D01*
X89112000Y-96000000D01*
X89412000Y-96023000D01*
X89692000Y-95942000D01*
X89784000Y-95865000D01*
X89844000Y-95750000D01*
X89814000Y-95676000D01*
X89775000Y-95675000D01*
X89614000Y-95693000D01*
X89379000Y-95726000D01*
X89230000Y-95749000D01*
X89042000Y-95778000D01*
X88963000Y-95789000D01*
X88955000Y-95737000D01*
X88950000Y-95584000D01*
X88952023Y-95534000D01*
X89106000Y-95534000D01*
X89124000Y-95562000D01*
X89206000Y-95560000D01*
X89399000Y-95530000D01*
X89569000Y-95500000D01*
X89717000Y-95450000D01*
X89782000Y-95380000D01*
X89803000Y-95319000D01*
X89757000Y-95250000D01*
X89747000Y-95241000D01*
X89684000Y-95212000D01*
X89552000Y-95213000D01*
X89371000Y-95245000D01*
X89179000Y-95352000D01*
X89106000Y-95507000D01*
X89106000Y-95534000D01*
X88952023Y-95534000D01*
X88957000Y-95411000D01*
X88987000Y-95307000D01*
X89142000Y-95139000D01*
X89440000Y-95017000D01*
X89684000Y-95008000D01*
X89715000Y-95007000D01*
X89914000Y-95130000D01*
G37*
G36*
X89694000Y-105153000D02*
G01*
X89939000Y-105172000D01*
X90076000Y-105219000D01*
X90151000Y-105310000D01*
X90177000Y-105377000D01*
X90146000Y-105564000D01*
X90126000Y-105599000D01*
X90136000Y-105629000D01*
X90154000Y-105638000D01*
X90166000Y-105739000D01*
X90166000Y-105849000D01*
X88504000Y-105849000D01*
X88516000Y-105639000D01*
X88781000Y-105633000D01*
X88804000Y-105633000D01*
X88976000Y-105627000D01*
X89046000Y-105620000D01*
X89045000Y-105616000D01*
X89016408Y-105563000D01*
X89161000Y-105563000D01*
X89179000Y-105619000D01*
X89576000Y-105624000D01*
X89788000Y-105626000D01*
X89938000Y-105620000D01*
X89989000Y-105604000D01*
X90005000Y-105505000D01*
X89973000Y-105406000D01*
X89941000Y-105395000D01*
X89790000Y-105379000D01*
X89578000Y-105371000D01*
X89373000Y-105373000D01*
X89241000Y-105388000D01*
X89171000Y-105429000D01*
X89161000Y-105563000D01*
X89016408Y-105563000D01*
X89004000Y-105540000D01*
X88971000Y-105415000D01*
X89045000Y-105262000D01*
X89236000Y-105169000D01*
X89393000Y-105154000D01*
X89578000Y-105153000D01*
X89653000Y-105152000D01*
X89694000Y-105153000D01*
G37*
G36*
X89651000Y-98619000D02*
G01*
X89887000Y-98629000D01*
X90022000Y-98658000D01*
X90104000Y-98717000D01*
X90165000Y-98821000D01*
X90183000Y-98945000D01*
X90151000Y-99129000D01*
X90041000Y-99236000D01*
X89852000Y-99289000D01*
X89766000Y-99289000D01*
X89766000Y-99095000D01*
X89871000Y-99082000D01*
X89971000Y-99056000D01*
X90026000Y-98958000D01*
X90025000Y-98938000D01*
X89957000Y-98861000D01*
X89764000Y-98832000D01*
X89586000Y-98825000D01*
X89586000Y-99294000D01*
X89381000Y-99286000D01*
X89352000Y-99285000D01*
X89194000Y-99270000D01*
X89103000Y-99233000D01*
X89021000Y-99153000D01*
X88982801Y-98970000D01*
X89146000Y-98970000D01*
X89187000Y-99052000D01*
X89336000Y-99084000D01*
X89466000Y-99094000D01*
X89466000Y-98824000D01*
X89336000Y-98834000D01*
X89317000Y-98836000D01*
X89180000Y-98870000D01*
X89146000Y-98959000D01*
X89146000Y-98970000D01*
X88982801Y-98970000D01*
X88978000Y-98947000D01*
X89006000Y-98797000D01*
X89146000Y-98664000D01*
X89161000Y-98656000D01*
X89237000Y-98631000D01*
X89355000Y-98621000D01*
X89466000Y-98620000D01*
X89576000Y-98619000D01*
X89651000Y-98619000D01*
G37*
G36*
X90007000Y-96382000D02*
G01*
X90120000Y-96457000D01*
X90132000Y-96470000D01*
X90185000Y-96632000D01*
X90079000Y-96793000D01*
X90036000Y-96834000D01*
X90059000Y-96848000D01*
X90138000Y-96864000D01*
X90166000Y-96966000D01*
X90166000Y-97059000D01*
X89741000Y-97054000D01*
X89524000Y-97050000D01*
X89285000Y-97035000D01*
X89143000Y-97007000D01*
X89061000Y-96958000D01*
X88990000Y-96841000D01*
X88978000Y-96636000D01*
X89065000Y-96465000D01*
X89130000Y-96421000D01*
X89321000Y-96369000D01*
X89357000Y-96383000D01*
X89366000Y-96479000D01*
X89366000Y-96589000D01*
X89287000Y-96589000D01*
X89203000Y-96605000D01*
X89146000Y-96717000D01*
X89180000Y-96795000D01*
X89335000Y-96829000D01*
X89423000Y-96829000D01*
X89564000Y-96829000D01*
X89723000Y-96829000D01*
X89819000Y-96828000D01*
X89926000Y-96808000D01*
X89977000Y-96748000D01*
X90003000Y-96690000D01*
X89975000Y-96633000D01*
X89959000Y-96615000D01*
X89856000Y-96589000D01*
X89755000Y-96612000D01*
X89600000Y-96767000D01*
X89564000Y-96829000D01*
X89423000Y-96829000D01*
X89499000Y-96677000D01*
X89576000Y-96545000D01*
X89742000Y-96399000D01*
X89856000Y-96386000D01*
X89962000Y-96375000D01*
X90007000Y-96382000D01*
G37*
G36*
X90166000Y-97489000D02*
G01*
X88504000Y-97489000D01*
X88516000Y-97279000D01*
X90166000Y-97269000D01*
X90166000Y-97489000D01*
G37*
G36*
X89698000Y-100460000D02*
G01*
X89761000Y-100507000D01*
X89817000Y-100448000D01*
X89918000Y-100391000D01*
X90058000Y-100431000D01*
X90103000Y-100473000D01*
X90125000Y-100431000D01*
X90130000Y-100423000D01*
X90255000Y-100340000D01*
X90280000Y-100342000D01*
X90404000Y-100348000D01*
X90462000Y-100403000D01*
X90526000Y-100599000D01*
X90533000Y-100685000D01*
X90498000Y-100936000D01*
X90381000Y-101075000D01*
X90336000Y-101093000D01*
X90142000Y-101095000D01*
X90002000Y-100994000D01*
X89979000Y-100926000D01*
X89948000Y-100760000D01*
X89931000Y-100647000D01*
X89924702Y-100624000D01*
X90115000Y-100624000D01*
X90126000Y-100749000D01*
X90139000Y-100823000D01*
X90202000Y-100943000D01*
X90306000Y-100913000D01*
X90336000Y-100875000D01*
X90359000Y-100748000D01*
X90360000Y-100730000D01*
X90342000Y-100569000D01*
X90280000Y-100517000D01*
X90159000Y-100553000D01*
X90140000Y-100570000D01*
X90115000Y-100624000D01*
X89924702Y-100624000D01*
X89908000Y-100563000D01*
X89848000Y-100568000D01*
X89822000Y-100589000D01*
X89806000Y-100690000D01*
X89790000Y-100820000D01*
X89673000Y-100971000D01*
X89637000Y-100992000D01*
X89549000Y-101014000D01*
X89381000Y-101019000D01*
X89166000Y-101018000D01*
X89133000Y-101104000D01*
X89123000Y-101130000D01*
X89096000Y-101189000D01*
X89029000Y-101167000D01*
X88967000Y-101145000D01*
X88999000Y-101082000D01*
X89000000Y-101080000D01*
X89060000Y-100986000D01*
X89075000Y-100963000D01*
X89039000Y-100900000D01*
X89001000Y-100844000D01*
X88980789Y-100684000D01*
X89128000Y-100684000D01*
X89165000Y-100798000D01*
X89170000Y-100802000D01*
X89307000Y-100843000D01*
X89489000Y-100841000D01*
X89615000Y-100797000D01*
X89645000Y-100709000D01*
X89613000Y-100607000D01*
X89527000Y-100583000D01*
X89368000Y-100569000D01*
X89237000Y-100577000D01*
X89209000Y-100587000D01*
X89128000Y-100684000D01*
X88980789Y-100684000D01*
X88977000Y-100654000D01*
X89063000Y-100482000D01*
X89234000Y-100392000D01*
X89368000Y-100384000D01*
X89480000Y-100377000D01*
X89698000Y-100460000D01*
G37*
G36*
X90566000Y-97949000D02*
G01*
X90082000Y-97949000D01*
X90134000Y-98011000D01*
X90182000Y-98112000D01*
X90141000Y-98291000D01*
X90127000Y-98310000D01*
X90031000Y-98382000D01*
X89862000Y-98418000D01*
X89576000Y-98428000D01*
X89522000Y-98428000D01*
X89279000Y-98420000D01*
X89136000Y-98390000D01*
X89041000Y-98331000D01*
X89001000Y-98287000D01*
X88978000Y-98177000D01*
X88978000Y-98159000D01*
X89005310Y-98069000D01*
X89148000Y-98069000D01*
X89200000Y-98184000D01*
X89254000Y-98206000D01*
X89366000Y-98216000D01*
X89585000Y-98218000D01*
X89838000Y-98211000D01*
X89961000Y-98192000D01*
X89973000Y-98185000D01*
X90005000Y-98093000D01*
X90005000Y-98088000D01*
X89998000Y-98007000D01*
X89951000Y-97966000D01*
X89825000Y-97951000D01*
X89578000Y-97949000D01*
X89192000Y-97949000D01*
X89169000Y-98000000D01*
X89148000Y-98069000D01*
X89005310Y-98069000D01*
X89022000Y-98014000D01*
X89056000Y-97962000D01*
X89027000Y-97949000D01*
X88995000Y-97935000D01*
X88986000Y-97839000D01*
X88986000Y-97729000D01*
X90566000Y-97729000D01*
X90566000Y-97949000D01*
G37*
G36*
X90166000Y-104489000D02*
G01*
X89215000Y-104489000D01*
X89180000Y-104547000D01*
X89159000Y-104590000D01*
X89170000Y-104705000D01*
X89218000Y-104717000D01*
X89381000Y-104726000D01*
X89680000Y-104729000D01*
X90166000Y-104729000D01*
X90166000Y-104951000D01*
X89062000Y-104939000D01*
X89012000Y-104880000D01*
X88970000Y-104766000D01*
X89044000Y-104576000D01*
X89105000Y-104489000D01*
X89045000Y-104489000D01*
X88994000Y-104475000D01*
X88986000Y-104379000D01*
X88986000Y-104269000D01*
X90166000Y-104269000D01*
X90166000Y-104489000D01*
G37*
G36*
X89131000Y-102572000D02*
G01*
X89343000Y-102607000D01*
X89622000Y-102651000D01*
X90168000Y-102738000D01*
X90162000Y-102838000D01*
X90156000Y-102937000D01*
X89769000Y-103012000D01*
X89633000Y-103039000D01*
X89449000Y-103076000D01*
X89374000Y-103094000D01*
X89400000Y-103102000D01*
X89542000Y-103133000D01*
X89766000Y-103178000D01*
X90166000Y-103254000D01*
X90166000Y-103440000D01*
X89591000Y-103535000D01*
X89553000Y-103541000D01*
X89278000Y-103586000D01*
X89081000Y-103617000D01*
X89001000Y-103629000D01*
X88997000Y-103626000D01*
X88986000Y-103542000D01*
X88986000Y-103455000D01*
X89395000Y-103398000D01*
X89550000Y-103375000D01*
X89729000Y-103346000D01*
X89794000Y-103330000D01*
X89764000Y-103321000D01*
X89617000Y-103291000D01*
X89389000Y-103248000D01*
X88996000Y-103177000D01*
X88984000Y-103013000D01*
X89080000Y-102993000D01*
X89105000Y-102988000D01*
X89271000Y-102957000D01*
X89500000Y-102917000D01*
X89579000Y-102903000D01*
X89751000Y-102870000D01*
X89817000Y-102853000D01*
X89806000Y-102850000D01*
X89690000Y-102831000D01*
X89494000Y-102800000D01*
X89275000Y-102767000D01*
X89092000Y-102741000D01*
X89001000Y-102730000D01*
X88996000Y-102725000D01*
X88986000Y-102637000D01*
X88990000Y-102567000D01*
X89031000Y-102555000D01*
X89032000Y-102555000D01*
X89131000Y-102572000D01*
G37*
G36*
X117397000Y-81080000D02*
G01*
X117233000Y-81112000D01*
X117221000Y-81112000D01*
X117084000Y-81131000D01*
X117066000Y-81136000D01*
X116948000Y-81142000D01*
X116837000Y-81155000D01*
X116819000Y-81161000D01*
X116726000Y-81153000D01*
X116706000Y-81143000D01*
X116642000Y-81161000D01*
X116538000Y-81190000D01*
X116468000Y-81184000D01*
X116462000Y-81021000D01*
X116462598Y-80945000D01*
X116531000Y-80945000D01*
X116588000Y-80973000D01*
X116638000Y-80946000D01*
X116629871Y-80937000D01*
X117382000Y-80937000D01*
X117384000Y-80946000D01*
X117389000Y-80984000D01*
X117406000Y-80938000D01*
X117413000Y-80897000D01*
X117386000Y-80879000D01*
X117382000Y-80937000D01*
X116629871Y-80937000D01*
X116610000Y-80915000D01*
X116535000Y-80906000D01*
X116531000Y-80945000D01*
X116462598Y-80945000D01*
X116463000Y-80894000D01*
X116489000Y-80826000D01*
X116551000Y-80798000D01*
X116653000Y-80817000D01*
X116654000Y-80818000D01*
X116722000Y-80810000D01*
X116734000Y-80803000D01*
X116857000Y-80766000D01*
X116881000Y-80762000D01*
X116967000Y-80735000D01*
X116979000Y-80658000D01*
X116975000Y-80421000D01*
X116975000Y-80405000D01*
X116965000Y-80107000D01*
X116960000Y-79805000D01*
X116960000Y-79714000D01*
X116962000Y-79551000D01*
X116976000Y-79470000D01*
X116991362Y-79443000D01*
X117218000Y-79443000D01*
X117238000Y-79474000D01*
X117258000Y-79455000D01*
X117244452Y-79434000D01*
X117301000Y-79434000D01*
X117312000Y-79455000D01*
X117328000Y-79487000D01*
X117358000Y-79536000D01*
X117379000Y-79574000D01*
X117382000Y-79573000D01*
X117394000Y-79499000D01*
X117390000Y-79465000D01*
X117343000Y-79418000D01*
X117301000Y-79434000D01*
X117244452Y-79434000D01*
X117238000Y-79424000D01*
X117218000Y-79443000D01*
X116991362Y-79443000D01*
X117009000Y-79412000D01*
X117023000Y-79392000D01*
X117082000Y-79344000D01*
X117208000Y-79325000D01*
X117273000Y-79320000D01*
X117394000Y-79332000D01*
X117440000Y-79414000D01*
X117449000Y-79499000D01*
X117458000Y-79582000D01*
X117434000Y-79748000D01*
X117433000Y-79879000D01*
X117446000Y-79986000D01*
X117456000Y-80187000D01*
X117461000Y-80412000D01*
X117458000Y-80594000D01*
X117459000Y-80640000D01*
X117466000Y-80790000D01*
X117466000Y-80897000D01*
X117465000Y-80938000D01*
X117397000Y-81080000D01*
G37*
G36*
X112005000Y-79669000D02*
G01*
X111985000Y-79707000D01*
X111959000Y-79689000D01*
X111988000Y-79614000D01*
X112014000Y-79589000D01*
X112005000Y-79669000D01*
G37*
G36*
X110972000Y-80205000D02*
G01*
X110960000Y-80413000D01*
X110959000Y-80444000D01*
X110953000Y-80472000D01*
X110935000Y-80571000D01*
X110922000Y-80607000D01*
X110814000Y-80904000D01*
X110649000Y-81086000D01*
X110624000Y-81113000D01*
X110545000Y-81158000D01*
X110433000Y-81169000D01*
X110424000Y-81168000D01*
X110317000Y-81185000D01*
X110260000Y-81202000D01*
X110111000Y-81191000D01*
X109964000Y-81149000D01*
X109869671Y-81084000D01*
X110436000Y-81084000D01*
X110445000Y-81101000D01*
X110504000Y-81101000D01*
X110515000Y-81086000D01*
X110477000Y-81058000D01*
X110436000Y-81084000D01*
X109869671Y-81084000D01*
X109845000Y-81067000D01*
X109675000Y-80836000D01*
X109612240Y-80649000D01*
X109657000Y-80649000D01*
X109706000Y-80770000D01*
X109736000Y-80822000D01*
X109767000Y-80816000D01*
X109754000Y-80760000D01*
X109702000Y-80652000D01*
X109657000Y-80594000D01*
X109657000Y-80649000D01*
X109612240Y-80649000D01*
X109577000Y-80544000D01*
X109567361Y-80464000D01*
X109618000Y-80464000D01*
X109638000Y-80494000D01*
X109658000Y-80464000D01*
X109638000Y-80434000D01*
X109618000Y-80464000D01*
X109567361Y-80464000D01*
X109567000Y-80461000D01*
X109560573Y-80348000D01*
X109980000Y-80348000D01*
X109983000Y-80464000D01*
X109986000Y-80591000D01*
X110007000Y-80728000D01*
X110046000Y-80792000D01*
X110083000Y-80806000D01*
X110175000Y-80816000D01*
X110225000Y-80822000D01*
X110376000Y-80815000D01*
X110398000Y-80811000D01*
X110489000Y-80767000D01*
X110492991Y-80754000D01*
X110576000Y-80754000D01*
X110579000Y-80814000D01*
X110580000Y-80814000D01*
X110602000Y-80771000D01*
X110629000Y-80619000D01*
X110630000Y-80607000D01*
X110620000Y-80534000D01*
X110603000Y-80555000D01*
X110594000Y-80655000D01*
X110594000Y-80658000D01*
X110579000Y-80740000D01*
X110576000Y-80754000D01*
X110492991Y-80754000D01*
X110524000Y-80653000D01*
X110549000Y-80472000D01*
X110549000Y-80425000D01*
X110598000Y-80425000D01*
X110618000Y-80434000D01*
X110638000Y-80413000D01*
X110618000Y-80404000D01*
X110598000Y-80425000D01*
X110549000Y-80425000D01*
X110549000Y-80318000D01*
X110548000Y-80315000D01*
X110534000Y-80170000D01*
X110521000Y-79957000D01*
X110520000Y-79937000D01*
X110509000Y-79764000D01*
X110778000Y-79764000D01*
X110798000Y-79794000D01*
X110818000Y-79764000D01*
X110798000Y-79734000D01*
X110778000Y-79764000D01*
X110509000Y-79764000D01*
X110491000Y-79686000D01*
X110452000Y-79642000D01*
X110424000Y-79619000D01*
X110363000Y-79594000D01*
X110233000Y-79589000D01*
X110123000Y-79598000D01*
X110007000Y-79667000D01*
X110001000Y-79713000D01*
X109999000Y-79727000D01*
X109989000Y-79909000D01*
X109982000Y-80164000D01*
X109980000Y-80348000D01*
X109560573Y-80348000D01*
X109555000Y-80250000D01*
X109559000Y-80051000D01*
X109576000Y-79938000D01*
X109598000Y-79847000D01*
X109634403Y-79733000D01*
X109898000Y-79733000D01*
X109918000Y-79794000D01*
X109923000Y-79792000D01*
X109938000Y-79713000D01*
X109938000Y-79695000D01*
X109918000Y-79644000D01*
X109916000Y-79645000D01*
X109898000Y-79725000D01*
X109898000Y-79733000D01*
X109634403Y-79733000D01*
X109636000Y-79728000D01*
X109731000Y-79562000D01*
X109773103Y-79507000D01*
X110658000Y-79507000D01*
X110664000Y-79533000D01*
X110707000Y-79619000D01*
X110744000Y-79662000D01*
X110734000Y-79592000D01*
X110686000Y-79513000D01*
X110658000Y-79507000D01*
X109773103Y-79507000D01*
X109842000Y-79417000D01*
X109927000Y-79354000D01*
X109942000Y-79349000D01*
X110038000Y-79292000D01*
X110073000Y-79268000D01*
X110154000Y-79237000D01*
X110292000Y-79240000D01*
X110316000Y-79241000D01*
X110545000Y-79293000D01*
X110675000Y-79391000D01*
X110795000Y-79572000D01*
X110796000Y-79577000D01*
X110848000Y-79662000D01*
X110900000Y-79748000D01*
X110904000Y-79764000D01*
X110949000Y-79952000D01*
X110972000Y-80205000D01*
G37*
G36*
X103445000Y-81097000D02*
G01*
X103394000Y-81134000D01*
X103394000Y-81103000D01*
X103447000Y-81035000D01*
X103479000Y-81032000D01*
X103445000Y-81097000D01*
G37*
G36*
X108418000Y-79289000D02*
G01*
X108421000Y-79290000D01*
X108388000Y-79314000D01*
X108303000Y-79312000D01*
X108267000Y-79276000D01*
X108310000Y-79267000D01*
X108418000Y-79289000D01*
G37*
G36*
X104825000Y-81019000D02*
G01*
X104768000Y-81095000D01*
X104632000Y-81112000D01*
X104618000Y-81111000D01*
X104462000Y-81131000D01*
X104440000Y-81137000D01*
X104337000Y-81144000D01*
X104333000Y-81143000D01*
X104229000Y-81156000D01*
X104201000Y-81166000D01*
X104110000Y-81155000D01*
X104091000Y-81145000D01*
X104028000Y-81161000D01*
X104028000Y-81162000D01*
X103928000Y-81194000D01*
X103879000Y-81189000D01*
X103848000Y-81116000D01*
X103845000Y-81085000D01*
X103850923Y-80932000D01*
X103918000Y-80932000D01*
X103967000Y-80974000D01*
X104029000Y-80953000D01*
X104033364Y-80941000D01*
X104767000Y-80941000D01*
X104785000Y-80961000D01*
X104796000Y-80896000D01*
X104794000Y-80862000D01*
X104777000Y-80903000D01*
X104774000Y-80914000D01*
X104767000Y-80941000D01*
X104033364Y-80941000D01*
X104037000Y-80931000D01*
X103998143Y-80914000D01*
X104098000Y-80914000D01*
X104116000Y-80931000D01*
X104119000Y-80934000D01*
X104128000Y-80914000D01*
X104107000Y-80894000D01*
X104098000Y-80914000D01*
X103998143Y-80914000D01*
X103973000Y-80903000D01*
X103949000Y-80898000D01*
X103918000Y-80932000D01*
X103850923Y-80932000D01*
X103851000Y-80930000D01*
X103883000Y-80819000D01*
X103887000Y-80815000D01*
X103973000Y-80795000D01*
X104043000Y-80819000D01*
X104045000Y-80823000D01*
X104104000Y-80809000D01*
X104204000Y-80774000D01*
X104205000Y-80774000D01*
X104318000Y-80751000D01*
X104383000Y-80728000D01*
X104371000Y-80516000D01*
X104367000Y-80428000D01*
X104360000Y-80174000D01*
X104356000Y-79887000D01*
X104356000Y-79881000D01*
X104358000Y-79626000D01*
X104366000Y-79491000D01*
X104380796Y-79444000D01*
X104598000Y-79444000D01*
X104618000Y-79474000D01*
X104638000Y-79444000D01*
X104631333Y-79434000D01*
X104698000Y-79434000D01*
X104699000Y-79438000D01*
X104702000Y-79444000D01*
X104738000Y-79519000D01*
X104778000Y-79584000D01*
X104778000Y-79499000D01*
X104775000Y-79446000D01*
X104738000Y-79414000D01*
X104698000Y-79434000D01*
X104631333Y-79434000D01*
X104618000Y-79414000D01*
X104598000Y-79444000D01*
X104380796Y-79444000D01*
X104383000Y-79437000D01*
X104423000Y-79372000D01*
X104456000Y-79347000D01*
X104598000Y-79325000D01*
X104687000Y-79319000D01*
X104795000Y-79337000D01*
X104835000Y-79431000D01*
X104836000Y-79499000D01*
X104840000Y-79644000D01*
X104840000Y-79810000D01*
X104843000Y-80104000D01*
X104847000Y-80424000D01*
X104851000Y-80643000D01*
X104850000Y-80845000D01*
X104846000Y-80896000D01*
X104842000Y-80956000D01*
X104825000Y-81019000D01*
G37*
G36*
X111365000Y-80900000D02*
G01*
X111377000Y-81039000D01*
X111377000Y-81041000D01*
X111387000Y-81142000D01*
X111448000Y-81183000D01*
X111460000Y-81188000D01*
X111518000Y-81236000D01*
X111508000Y-81247000D01*
X111427000Y-81244000D01*
X111355000Y-81210000D01*
X111346000Y-81162000D01*
X111340000Y-81014000D01*
X111348000Y-80898000D01*
X111365000Y-80900000D01*
G37*
G36*
X119130000Y-79297000D02*
G01*
X119095000Y-79383000D01*
X119094000Y-79390000D01*
X119083000Y-79356000D01*
X119106000Y-79257000D01*
X119145000Y-79237000D01*
X119130000Y-79297000D01*
G37*
G36*
X103682000Y-80034000D02*
G01*
X103682000Y-80036000D01*
X103675000Y-80094000D01*
X103674000Y-80094000D01*
X103658000Y-80034000D01*
X103658000Y-80033000D01*
X103666000Y-79974000D01*
X103682000Y-80034000D01*
G37*
G36*
X119850000Y-79644000D02*
G01*
X119839000Y-79691000D01*
X119784000Y-79701000D01*
X119721000Y-79698000D01*
X119709000Y-79851000D01*
X119701000Y-79938000D01*
X119674000Y-80141000D01*
X119663000Y-80226000D01*
X119675000Y-80368000D01*
X119680000Y-80389000D01*
X119683000Y-80504000D01*
X119686000Y-80615000D01*
X119676000Y-80730000D01*
X119672000Y-80773000D01*
X119735000Y-80831000D01*
X119785000Y-80893000D01*
X119792000Y-80954000D01*
X119798000Y-81008000D01*
X119796000Y-81060000D01*
X119774000Y-81150000D01*
X119722000Y-81172000D01*
X119608000Y-81134000D01*
X119563000Y-81105000D01*
X119459000Y-81114000D01*
X119420000Y-81120000D01*
X119237000Y-81134000D01*
X119165000Y-81131000D01*
X119107000Y-81088000D01*
X119098566Y-80954000D01*
X119658000Y-80954000D01*
X119688000Y-80994000D01*
X119718000Y-80954000D01*
X119688000Y-80914000D01*
X119658000Y-80954000D01*
X119098566Y-80954000D01*
X119098000Y-80945000D01*
X119114000Y-80818000D01*
X119183000Y-80785000D01*
X119193357Y-80770000D01*
X119280000Y-80770000D01*
X119298000Y-80844000D01*
X119307000Y-80840000D01*
X119316000Y-80730000D01*
X119312000Y-80652000D01*
X119298000Y-80654000D01*
X119280000Y-80768000D01*
X119280000Y-80770000D01*
X119193357Y-80770000D01*
X119212000Y-80743000D01*
X119231000Y-80560000D01*
X119231667Y-80504000D01*
X119298000Y-80504000D01*
X119318000Y-80534000D01*
X119338000Y-80504000D01*
X119318000Y-80474000D01*
X119298000Y-80504000D01*
X119231667Y-80504000D01*
X119235000Y-80224000D01*
X119235000Y-79981000D01*
X119236000Y-79811000D01*
X119236000Y-79803000D01*
X119232000Y-79694000D01*
X119194000Y-79663000D01*
X119133000Y-79620000D01*
X119123333Y-79533000D01*
X119238000Y-79533000D01*
X119280000Y-79600000D01*
X119321000Y-79644000D01*
X119317100Y-79605000D01*
X119698000Y-79605000D01*
X119718000Y-79614000D01*
X119738000Y-79593000D01*
X119718000Y-79584000D01*
X119698000Y-79605000D01*
X119317100Y-79605000D01*
X119315000Y-79584000D01*
X119313000Y-79574000D01*
X119304103Y-79562000D01*
X119788000Y-79562000D01*
X119824000Y-79581000D01*
X119826000Y-79580000D01*
X119837000Y-79498000D01*
X119820000Y-79425000D01*
X119817000Y-79425000D01*
X119789000Y-79487000D01*
X119788000Y-79562000D01*
X119304103Y-79562000D01*
X119270000Y-79516000D01*
X119238000Y-79533000D01*
X119123333Y-79533000D01*
X119119000Y-79494000D01*
X119120000Y-79450000D01*
X119133000Y-79363000D01*
X119149000Y-79356000D01*
X119264000Y-79341000D01*
X119413000Y-79337000D01*
X119504000Y-79348000D01*
X119543000Y-79355000D01*
X119683000Y-79356000D01*
X119742000Y-79354000D01*
X119829000Y-79362000D01*
X119858000Y-79404000D01*
X119863000Y-79422000D01*
X119863000Y-79581000D01*
X119861000Y-79593000D01*
X119860000Y-79604000D01*
X119850000Y-79644000D01*
G37*
G36*
X120314000Y-79227000D02*
G01*
X120278000Y-79268000D01*
X120236000Y-79311000D01*
X120235000Y-79315000D01*
X120224000Y-79308000D01*
X120220000Y-79272000D01*
X120277000Y-79214000D01*
X120314000Y-79227000D01*
G37*
G36*
X102718000Y-80085000D02*
G01*
X102698000Y-80124000D01*
X102678000Y-80073000D01*
X102698000Y-80034000D01*
X102718000Y-80085000D01*
G37*
G36*
X115430000Y-80108000D02*
G01*
X115460000Y-80168000D01*
X115495000Y-80342000D01*
X115497000Y-80423000D01*
X115480000Y-80465000D01*
X115472000Y-80452000D01*
X115458000Y-80345000D01*
X115458000Y-80343000D01*
X115405000Y-80136000D01*
X115377000Y-80077000D01*
X115368000Y-80025000D01*
X115430000Y-80108000D01*
G37*
G36*
X104198000Y-80714000D02*
G01*
X104178000Y-80734000D01*
X104158000Y-80714000D01*
X104178000Y-80694000D01*
X104198000Y-80714000D01*
G37*
G36*
X101897000Y-80914000D02*
G01*
X101859000Y-81035000D01*
X101771000Y-81157000D01*
X101674000Y-81193000D01*
X101608000Y-81214000D01*
X101576000Y-81223000D01*
X101565000Y-81200000D01*
X101656000Y-81167000D01*
X101763000Y-81112000D01*
X101857000Y-80951000D01*
X101884000Y-80895000D01*
X101897000Y-80914000D01*
G37*
G36*
X117457000Y-81103000D02*
G01*
X117465000Y-81145000D01*
X117434000Y-81174000D01*
X117426000Y-81142000D01*
X117438000Y-81101000D01*
X117457000Y-81103000D01*
G37*
G36*
X116387000Y-79203000D02*
G01*
X116419000Y-79210000D01*
X116458000Y-79263000D01*
X116443000Y-79347000D01*
X116436000Y-79362000D01*
X116421000Y-79324000D01*
X116412000Y-79278000D01*
X116332000Y-79214000D01*
X116304000Y-79202000D01*
X116306000Y-79200000D01*
X116387000Y-79203000D01*
G37*
G36*
X104278000Y-81241000D02*
G01*
X104249000Y-81261000D01*
X104108000Y-81269000D01*
X103999000Y-81266000D01*
X103927000Y-81250000D01*
X103993000Y-81227000D01*
X104057000Y-81218000D01*
X104211000Y-81216000D01*
X104278000Y-81241000D01*
G37*
G36*
X113123000Y-81057000D02*
G01*
X113152000Y-81105000D01*
X113251000Y-81195000D01*
X113297000Y-81216000D01*
X113306000Y-81260000D01*
X113302000Y-81262000D01*
X113223000Y-81242000D01*
X113150000Y-81183000D01*
X113146000Y-81177000D01*
X113081000Y-81078000D01*
X113078000Y-81074000D01*
X113047000Y-80978000D01*
X113064000Y-80970000D01*
X113123000Y-81057000D01*
G37*
G36*
X107624000Y-80786000D02*
G01*
X107647000Y-80869000D01*
X107671000Y-81009000D01*
X107710000Y-81115000D01*
X107780000Y-81157000D01*
X107798000Y-81163000D01*
X107858000Y-81195000D01*
X107837000Y-81204000D01*
X107743000Y-81193000D01*
X107673000Y-81166000D01*
X107658000Y-81084000D01*
X107656000Y-81051000D01*
X107630000Y-80909000D01*
X107620000Y-80856000D01*
X107618000Y-80784000D01*
X107624000Y-80786000D01*
G37*
G36*
X118078000Y-80714000D02*
G01*
X118058000Y-80734000D01*
X118038000Y-80714000D01*
X118058000Y-80694000D01*
X118078000Y-80714000D01*
G37*
G36*
X109138000Y-79364000D02*
G01*
X109118000Y-79394000D01*
X109098000Y-79364000D01*
X109118000Y-79334000D01*
X109138000Y-79364000D01*
G37*
G36*
X118184000Y-79477000D02*
G01*
X118186000Y-79598000D01*
X118178000Y-79684000D01*
X118173000Y-79673000D01*
X118163000Y-79566000D01*
X118162000Y-79494000D01*
X118172000Y-79412000D01*
X118174000Y-79412000D01*
X118184000Y-79477000D01*
G37*
G36*
X122627000Y-79135000D02*
G01*
X122732000Y-79185000D01*
X122807000Y-79247000D01*
X122858000Y-79322000D01*
X122854000Y-79325000D01*
X122790000Y-79276000D01*
X122767000Y-79255000D01*
X122701000Y-79222000D01*
X122696000Y-79223000D01*
X122622000Y-79184000D01*
X122611000Y-79176000D01*
X122540000Y-79134000D01*
X122518000Y-79115000D01*
X122533000Y-79110000D01*
X122627000Y-79135000D01*
G37*
G36*
X108670000Y-80004000D02*
G01*
X108655000Y-80117000D01*
X108655000Y-80120000D01*
X108631000Y-80214000D01*
X108616000Y-80184000D01*
X108603000Y-80110000D01*
X108616000Y-80063000D01*
X108647000Y-80022000D01*
X108662000Y-79976000D01*
X108670000Y-80004000D01*
G37*
G36*
X118198000Y-80554000D02*
G01*
X118215000Y-80631000D01*
X118173000Y-80713000D01*
X118126000Y-80730000D01*
X118098000Y-80706000D01*
X118138000Y-80668000D01*
X118153000Y-80662000D01*
X118180000Y-80581000D01*
X118183000Y-80532000D01*
X118198000Y-80554000D01*
G37*
G36*
X109208000Y-79807000D02*
G01*
X109202000Y-79821000D01*
X109161000Y-79990000D01*
X109128000Y-80244000D01*
X109115000Y-80344000D01*
X109080000Y-80534000D01*
X109052000Y-80670000D01*
X109018000Y-80834000D01*
X109018000Y-80838000D01*
X109010000Y-80874000D01*
X108981000Y-81009000D01*
X108968000Y-81073000D01*
X108935000Y-81179000D01*
X108925000Y-81191000D01*
X108820000Y-81214000D01*
X108702000Y-81183000D01*
X108619000Y-81164000D01*
X108580000Y-81159000D01*
X108551412Y-81105000D01*
X108818000Y-81105000D01*
X108856000Y-81114000D01*
X108905000Y-81069000D01*
X108916000Y-81009000D01*
X108868000Y-81042000D01*
X108860000Y-81050000D01*
X108818000Y-81105000D01*
X108551412Y-81105000D01*
X108544000Y-81091000D01*
X108507000Y-80926000D01*
X108498452Y-80874000D01*
X108908000Y-80874000D01*
X108939000Y-80894000D01*
X108958000Y-80874000D01*
X108927000Y-80854000D01*
X108908000Y-80874000D01*
X108498452Y-80874000D01*
X108459000Y-80634000D01*
X108420000Y-80397000D01*
X108368000Y-80120000D01*
X108324000Y-79914000D01*
X108310000Y-79906000D01*
X108284000Y-80021000D01*
X108265000Y-80116000D01*
X108227000Y-80235000D01*
X108205000Y-80309000D01*
X108194000Y-80378000D01*
X108177000Y-80478000D01*
X108161000Y-80606000D01*
X108139000Y-80744000D01*
X108126000Y-80797000D01*
X108089000Y-80961000D01*
X108080000Y-81000000D01*
X108071000Y-81034000D01*
X108047000Y-81115000D01*
X108046000Y-81117000D01*
X107963000Y-81125000D01*
X107828000Y-81110000D01*
X107740000Y-81083000D01*
X107731000Y-81065000D01*
X107697000Y-80938000D01*
X107693654Y-80921000D01*
X107746000Y-80921000D01*
X107758000Y-80986000D01*
X107778000Y-81014000D01*
X107796000Y-81000000D01*
X107766000Y-80923000D01*
X107751000Y-80904000D01*
X107746000Y-80921000D01*
X107693654Y-80921000D01*
X107660000Y-80750000D01*
X107633000Y-80573000D01*
X107628000Y-80478000D01*
X107622800Y-80452000D01*
X107807000Y-80452000D01*
X107850000Y-80465000D01*
X107878000Y-80378000D01*
X107877000Y-80364000D01*
X107836000Y-80388000D01*
X107807000Y-80452000D01*
X107622800Y-80452000D01*
X107614000Y-80408000D01*
X107584000Y-80304000D01*
X107552000Y-80112000D01*
X107538000Y-79928000D01*
X107536000Y-79880000D01*
X107511000Y-79758000D01*
X107496000Y-79714000D01*
X107466000Y-79559000D01*
X107445000Y-79387000D01*
X107445000Y-79285000D01*
X107493000Y-79255000D01*
X107601000Y-79299000D01*
X107636000Y-79343000D01*
X107665000Y-79437000D01*
X107698000Y-79634000D01*
X107703000Y-79665000D01*
X107731000Y-79882000D01*
X107740000Y-80026000D01*
X107775000Y-80213000D01*
X107814000Y-80299000D01*
X107834000Y-80201000D01*
X107853000Y-80111000D01*
X107889000Y-79924000D01*
X107912000Y-79808000D01*
X107937000Y-79724000D01*
X107948000Y-79686000D01*
X107964000Y-79547000D01*
X107965941Y-79529000D01*
X108025000Y-79529000D01*
X108029000Y-79571000D01*
X108067000Y-79536000D01*
X108109000Y-79486000D01*
X108124273Y-79474000D01*
X108398000Y-79474000D01*
X108419000Y-79494000D01*
X108428000Y-79474000D01*
X108407000Y-79454000D01*
X108403000Y-79464000D01*
X108398000Y-79474000D01*
X108124273Y-79474000D01*
X108137000Y-79464000D01*
X108088000Y-79434000D01*
X108038000Y-79459000D01*
X108025000Y-79529000D01*
X107965941Y-79529000D01*
X107975000Y-79445000D01*
X108023000Y-79340000D01*
X108135000Y-79327000D01*
X108157000Y-79331000D01*
X108286000Y-79372000D01*
X108303000Y-79381000D01*
X108353000Y-79379000D01*
X108386000Y-79355000D01*
X108454000Y-79399000D01*
X108468000Y-79440000D01*
X108475000Y-79474000D01*
X108497000Y-79584000D01*
X108509000Y-79668000D01*
X108544000Y-79892000D01*
X108582000Y-80121000D01*
X108609000Y-80273000D01*
X108615000Y-80298000D01*
X108630000Y-80312000D01*
X108663000Y-80204000D01*
X108682000Y-80128000D01*
X108717000Y-79944000D01*
X108745000Y-79728000D01*
X108769468Y-79577000D01*
X108818000Y-79577000D01*
X108825000Y-79611000D01*
X108885000Y-79597000D01*
X108901000Y-79577000D01*
X108973000Y-79577000D01*
X109010000Y-79566000D01*
X109015000Y-79534000D01*
X108974000Y-79530000D01*
X108973000Y-79572000D01*
X108973000Y-79577000D01*
X108901000Y-79577000D01*
X108905000Y-79572000D01*
X108890000Y-79508000D01*
X108863000Y-79507000D01*
X108818000Y-79577000D01*
X108769468Y-79577000D01*
X108780000Y-79512000D01*
X108807000Y-79422000D01*
X108845000Y-79400000D01*
X108959000Y-79413000D01*
X109022000Y-79423000D01*
X109173000Y-79434000D01*
X109188000Y-79434000D01*
X109270000Y-79463000D01*
X109272000Y-79529000D01*
X109271000Y-79534000D01*
X109248000Y-79680000D01*
X109208000Y-79807000D01*
G37*
G36*
X122418000Y-79654000D02*
G01*
X122398000Y-79674000D01*
X122378000Y-79654000D01*
X122398000Y-79634000D01*
X122418000Y-79654000D01*
G37*
G36*
X99321000Y-81148000D02*
G01*
X99338000Y-81156000D01*
X99446000Y-81158000D01*
X99505000Y-81144000D01*
X99615000Y-81152000D01*
X99649000Y-81192000D01*
X99634000Y-81199000D01*
X99521000Y-81204000D01*
X99374000Y-81193000D01*
X99286000Y-81173000D01*
X99258000Y-81136000D01*
X99321000Y-81148000D01*
G37*
G36*
X117517000Y-80844000D02*
G01*
X117522000Y-80919000D01*
X117522000Y-81019000D01*
X117485000Y-81054000D01*
X117484000Y-81054000D01*
X117477000Y-81015000D01*
X117488000Y-80979000D01*
X117501000Y-80840000D01*
X117504000Y-80704000D01*
X117517000Y-80844000D01*
G37*
G36*
X119238000Y-81194000D02*
G01*
X119229000Y-81214000D01*
X119208000Y-81194000D01*
X119217000Y-81174000D01*
X119238000Y-81194000D01*
G37*
G36*
X100738000Y-79605000D02*
G01*
X100718000Y-79624000D01*
X100698000Y-79593000D01*
X100718000Y-79574000D01*
X100738000Y-79605000D01*
G37*
G36*
X113466000Y-79642000D02*
G01*
X113491000Y-79743000D01*
X113468000Y-79772000D01*
X113434000Y-79719000D01*
X113400000Y-79661000D01*
X113318000Y-79695000D01*
X113270000Y-79718000D01*
X113268000Y-79714000D01*
X113308000Y-79651000D01*
X113402000Y-79614000D01*
X113466000Y-79642000D01*
G37*
G36*
X119520000Y-81184000D02*
G01*
X119594000Y-81212000D01*
X119589000Y-81230000D01*
X119496000Y-81227000D01*
X119455000Y-81223000D01*
X119339000Y-81214000D01*
X119311000Y-81193000D01*
X119390000Y-81176000D01*
X119520000Y-81184000D01*
G37*
G36*
X116921000Y-79423000D02*
G01*
X116932000Y-79536000D01*
X116931000Y-79608000D01*
X116917000Y-79674000D01*
X116915000Y-79673000D01*
X116901000Y-79601000D01*
X116899000Y-79479000D01*
X116913000Y-79407000D01*
X116921000Y-79423000D01*
G37*
G36*
X108818000Y-81294000D02*
G01*
X108798000Y-81314000D01*
X108778000Y-81294000D01*
X108798000Y-81274000D01*
X108818000Y-81294000D01*
G37*
G36*
X121958000Y-79795000D02*
G01*
X121938000Y-79824000D01*
X121918000Y-79783000D01*
X121938000Y-79754000D01*
X121958000Y-79795000D01*
G37*
G36*
X114096000Y-80998000D02*
G01*
X114063000Y-81072000D01*
X114026000Y-81078000D01*
X114044000Y-81028000D01*
X114084000Y-80974000D01*
X114084000Y-80973000D01*
X114096000Y-80998000D01*
G37*
G36*
X107497000Y-79850000D02*
G01*
X107495000Y-79877000D01*
X107478000Y-79864000D01*
X107462000Y-79816000D01*
X107478000Y-79784000D01*
X107497000Y-79850000D01*
G37*
G36*
X115881000Y-81127000D02*
G01*
X115882000Y-81171000D01*
X115828000Y-81184000D01*
X115751000Y-81174000D01*
X115750000Y-81172000D01*
X115798000Y-81130000D01*
X115832000Y-81113000D01*
X115881000Y-81127000D01*
G37*
G36*
X110678000Y-81165000D02*
G01*
X110674000Y-81179000D01*
X110584000Y-81249000D01*
X110429000Y-81307000D01*
X110301000Y-81330000D01*
X110250000Y-81317000D01*
X110179000Y-81310000D01*
X110177000Y-81310000D01*
X110118000Y-81298000D01*
X110130000Y-81288000D01*
X110233000Y-81266000D01*
X110280000Y-81261000D01*
X110403000Y-81247000D01*
X110495000Y-81237000D01*
X110506000Y-81235000D01*
X110605000Y-81185000D01*
X110644000Y-81160000D01*
X110678000Y-81165000D01*
G37*
G36*
X118123000Y-81222000D02*
G01*
X118149000Y-81253000D01*
X118121000Y-81261000D01*
X118000000Y-81269000D01*
X117863000Y-81267000D01*
X117798000Y-81255000D01*
X117799000Y-81252000D01*
X117877000Y-81223000D01*
X118028000Y-81214000D01*
X118123000Y-81222000D01*
G37*
G36*
X121515000Y-80978000D02*
G01*
X121515000Y-81002000D01*
X121498000Y-81124000D01*
X121479000Y-81159000D01*
X121395000Y-81170000D01*
X121378000Y-81168000D01*
X121302000Y-81137000D01*
X121336000Y-81123000D01*
X121343000Y-81125000D01*
X121447000Y-81099000D01*
X121504000Y-80934000D01*
X121508000Y-80922000D01*
X121515000Y-80978000D01*
G37*
G36*
X121548000Y-79267000D02*
G01*
X121554000Y-79369000D01*
X121550000Y-79453000D01*
X121543000Y-79394000D01*
X121540000Y-79371000D01*
X121514000Y-79279000D01*
X121526000Y-79254000D01*
X121548000Y-79267000D01*
G37*
G36*
X110783000Y-79388000D02*
G01*
X110834000Y-79474000D01*
X110902000Y-79617000D01*
X110947000Y-79734000D01*
X110947000Y-79742000D01*
X110908000Y-79688000D01*
X110844000Y-79574000D01*
X110787000Y-79457000D01*
X110761000Y-79389000D01*
X110780000Y-79385000D01*
X110783000Y-79388000D01*
G37*
G36*
X113038000Y-80880000D02*
G01*
X113037000Y-80890000D01*
X113018000Y-80894000D01*
X113000000Y-80851000D01*
X113018000Y-80824000D01*
X113038000Y-80880000D01*
G37*
G36*
X105414000Y-80665000D02*
G01*
X105442000Y-80700000D01*
X105509000Y-80754000D01*
X105538000Y-80774000D01*
X105513000Y-80792000D01*
X105416000Y-80709000D01*
X105350000Y-80646000D01*
X105299000Y-80649000D01*
X105276000Y-80662000D01*
X105282000Y-80624000D01*
X105282000Y-80623000D01*
X105332000Y-80580000D01*
X105414000Y-80665000D01*
G37*
G36*
X111353000Y-80724000D02*
G01*
X111353000Y-80745000D01*
X111344000Y-80769000D01*
X111344000Y-80689000D01*
X111346000Y-80679000D01*
X111353000Y-80724000D01*
G37*
G36*
X112233000Y-79164000D02*
G01*
X112189000Y-79210000D01*
X112145000Y-79251000D01*
X112094000Y-79388000D01*
X112057000Y-79495000D01*
X112042000Y-79489000D01*
X112069000Y-79352000D01*
X112084000Y-79293000D01*
X112130000Y-79180000D01*
X112189000Y-79154000D01*
X112233000Y-79164000D01*
G37*
G36*
X120946000Y-80512000D02*
G01*
X120969000Y-80556000D01*
X120963000Y-80558000D01*
X120869000Y-80568000D01*
X120782000Y-80555000D01*
X120813000Y-80522000D01*
X120881000Y-80494000D01*
X120946000Y-80512000D01*
G37*
G36*
X113858000Y-80653000D02*
G01*
X113838000Y-80674000D01*
X113818000Y-80665000D01*
X113838000Y-80644000D01*
X113858000Y-80653000D01*
G37*
G36*
X103464000Y-79404000D02*
G01*
X103521000Y-79506000D01*
X103587000Y-79647000D01*
X103618000Y-79736000D01*
X103604000Y-79729000D01*
X103549000Y-79641000D01*
X103485000Y-79517000D01*
X103447000Y-79423000D01*
X103440000Y-79386000D01*
X103464000Y-79404000D01*
G37*
G36*
X110048000Y-79914000D02*
G01*
X110027000Y-79934000D01*
X110018000Y-79914000D01*
X110039000Y-79894000D01*
X110048000Y-79914000D01*
G37*
G36*
X104335000Y-80598000D02*
G01*
X104332000Y-80690000D01*
X104293000Y-80720000D01*
X104233000Y-80731000D01*
X104218000Y-80704000D01*
X104258000Y-80674000D01*
X104298000Y-80651000D01*
X104325000Y-80534000D01*
X104329000Y-80524000D01*
X104335000Y-80598000D01*
G37*
G36*
X113046000Y-79479000D02*
G01*
X113043000Y-79519000D01*
X113037000Y-79594000D01*
X113018000Y-79564000D01*
X113012000Y-79548000D01*
X113026000Y-79409000D01*
X113045000Y-79395000D01*
X113046000Y-79479000D01*
G37*
G36*
X118718000Y-81129000D02*
G01*
X118698000Y-81174000D01*
X118691000Y-81173000D01*
X118698000Y-81114000D01*
X118703000Y-81107000D01*
X118718000Y-81129000D01*
G37*
G36*
X101336000Y-79482000D02*
G01*
X101326000Y-79509000D01*
X101324000Y-79470000D01*
X101336000Y-79482000D01*
G37*
G36*
X115358000Y-79975000D02*
G01*
X115338000Y-79994000D01*
X115318000Y-79963000D01*
X115338000Y-79944000D01*
X115358000Y-79975000D01*
G37*
G36*
X115997000Y-80253000D02*
G01*
X115977000Y-80444000D01*
X115989000Y-80674000D01*
X115991000Y-80711000D01*
X115988000Y-80858000D01*
X115986000Y-80960000D01*
X115950000Y-81077000D01*
X115881000Y-81076000D01*
X115801000Y-81086000D01*
X115784000Y-81093000D01*
X115653000Y-81114000D01*
X115557000Y-81114000D01*
X115558000Y-81009000D01*
X115558000Y-80978000D01*
X115557017Y-80949000D01*
X115859000Y-80949000D01*
X115887000Y-80974000D01*
X115906000Y-80955000D01*
X115934000Y-80858000D01*
X115930000Y-80780000D01*
X115918000Y-80807000D01*
X115889000Y-80885000D01*
X115859000Y-80949000D01*
X115557017Y-80949000D01*
X115552000Y-80801000D01*
X115544700Y-80628000D01*
X115892000Y-80628000D01*
X115897000Y-80672000D01*
X115928000Y-80674000D01*
X115923000Y-80631000D01*
X115892000Y-80628000D01*
X115544700Y-80628000D01*
X115542000Y-80564000D01*
X115537000Y-80469000D01*
X115524000Y-80290000D01*
X115502000Y-80181000D01*
X115459000Y-80074000D01*
X115418000Y-79984000D01*
X115410747Y-79970000D01*
X115578000Y-79970000D01*
X115605000Y-80043000D01*
X115617000Y-80059000D01*
X115645000Y-80045000D01*
X115655000Y-80013000D01*
X115618000Y-79959000D01*
X115604000Y-79950000D01*
X115578000Y-79970000D01*
X115410747Y-79970000D01*
X115375000Y-79901000D01*
X115364000Y-79886000D01*
X115299000Y-79765000D01*
X115219000Y-79595000D01*
X115151000Y-79439000D01*
X115126000Y-79361000D01*
X115128000Y-79359000D01*
X115220000Y-79334000D01*
X115231000Y-79334000D01*
X115318000Y-79359000D01*
X115400000Y-79454000D01*
X115511000Y-79656000D01*
X115548000Y-79728000D01*
X115615000Y-79839000D01*
X115650000Y-79853000D01*
X115690000Y-79787000D01*
X115702000Y-79759000D01*
X115771000Y-79642000D01*
X115800000Y-79594000D01*
X115838000Y-79509000D01*
X115843000Y-79477000D01*
X115859195Y-79438000D01*
X115932000Y-79438000D01*
X115937000Y-79484000D01*
X115968000Y-79454000D01*
X115999000Y-79414000D01*
X116018000Y-79384000D01*
X116018000Y-79379000D01*
X115984000Y-79361000D01*
X115932000Y-79438000D01*
X115859195Y-79438000D01*
X115892000Y-79359000D01*
X115951000Y-79287000D01*
X116001000Y-79281000D01*
X116137000Y-79283000D01*
X116232000Y-79300000D01*
X116268000Y-79294000D01*
X116303000Y-79275000D01*
X116369000Y-79300000D01*
X116362000Y-79341000D01*
X116346000Y-79384000D01*
X116311000Y-79478000D01*
X116239000Y-79641000D01*
X116175000Y-79757000D01*
X116174000Y-79758000D01*
X116138000Y-79833000D01*
X116128000Y-79866000D01*
X116076000Y-79989000D01*
X116056000Y-80037000D01*
X115997000Y-80253000D01*
G37*
G36*
X105226000Y-79498000D02*
G01*
X105213000Y-79528000D01*
X105227000Y-79704000D01*
X105232000Y-79722000D01*
X105200000Y-79694000D01*
X105164000Y-79624000D01*
X105208000Y-79458000D01*
X105215000Y-79448000D01*
X105257000Y-79413000D01*
X105226000Y-79498000D01*
G37*
G36*
X116818000Y-80714000D02*
G01*
X116798000Y-80734000D01*
X116778000Y-80714000D01*
X116798000Y-80694000D01*
X116818000Y-80714000D01*
G37*
G36*
X118639000Y-81095000D02*
G01*
X118493000Y-81112000D01*
X118481000Y-81112000D01*
X118344000Y-81131000D01*
X118326000Y-81136000D01*
X118208000Y-81142000D01*
X118097000Y-81155000D01*
X118079000Y-81161000D01*
X117986000Y-81153000D01*
X117966000Y-81143000D01*
X117902000Y-81161000D01*
X117798000Y-81190000D01*
X117728000Y-81184000D01*
X117722000Y-81029000D01*
X117721000Y-80959000D01*
X117722229Y-80952000D01*
X117787000Y-80952000D01*
X117846000Y-80974000D01*
X117898000Y-80946000D01*
X117864000Y-80911000D01*
X117791000Y-80913000D01*
X117787000Y-80952000D01*
X117722229Y-80952000D01*
X117729603Y-80910000D01*
X118638000Y-80910000D01*
X118641000Y-80946000D01*
X118643000Y-80965000D01*
X118669000Y-80932000D01*
X118660000Y-80868000D01*
X118654000Y-80863000D01*
X118638000Y-80910000D01*
X117729603Y-80910000D01*
X117744000Y-80828000D01*
X117825000Y-80794000D01*
X117826000Y-80794000D01*
X117912000Y-80816000D01*
X117981000Y-80811000D01*
X118000000Y-80802000D01*
X118128000Y-80764000D01*
X118228000Y-80744000D01*
X118221000Y-80114000D01*
X118218000Y-79863000D01*
X118218000Y-79645000D01*
X118223000Y-79524000D01*
X118235000Y-79465000D01*
X118248588Y-79443000D01*
X118478000Y-79443000D01*
X118498000Y-79474000D01*
X118518000Y-79455000D01*
X118501871Y-79430000D01*
X118563000Y-79430000D01*
X118573000Y-79455000D01*
X118586000Y-79488000D01*
X118623000Y-79544000D01*
X118625000Y-79556000D01*
X118646000Y-79550000D01*
X118657000Y-79487000D01*
X118603000Y-79418000D01*
X118563000Y-79430000D01*
X118501871Y-79430000D01*
X118498000Y-79424000D01*
X118478000Y-79443000D01*
X118248588Y-79443000D01*
X118256000Y-79431000D01*
X118259000Y-79427000D01*
X118298000Y-79358000D01*
X118310000Y-79348000D01*
X118416000Y-79329000D01*
X118560000Y-79321000D01*
X118655000Y-79332000D01*
X118692000Y-79397000D01*
X118704000Y-79487000D01*
X118713000Y-79559000D01*
X118696000Y-79733000D01*
X118684000Y-79789000D01*
X118695000Y-79886000D01*
X118699000Y-79896000D01*
X118714000Y-80036000D01*
X118718000Y-80322000D01*
X118718000Y-80440000D01*
X118720000Y-80668000D01*
X118725000Y-80804000D01*
X118725000Y-80818000D01*
X118710000Y-80932000D01*
X118701000Y-80998000D01*
X118639000Y-81095000D01*
G37*
G36*
X103617000Y-79938000D02*
G01*
X103626000Y-80201000D01*
X103626000Y-80244000D01*
X103624000Y-80422000D01*
X103624000Y-80444000D01*
X103609000Y-80566000D01*
X103609000Y-80570000D01*
X103573000Y-80698000D01*
X103486000Y-80902000D01*
X103324000Y-81081000D01*
X103298000Y-81111000D01*
X103216000Y-81163000D01*
X103102000Y-81169000D01*
X103058000Y-81167000D01*
X102984000Y-81186000D01*
X102915000Y-81203000D01*
X102773000Y-81193000D01*
X102648000Y-81159000D01*
X102552202Y-81084000D01*
X103098000Y-81084000D01*
X103100000Y-81095000D01*
X103173000Y-81101000D01*
X103190000Y-81081000D01*
X103137000Y-81054000D01*
X103098000Y-81084000D01*
X102552202Y-81084000D01*
X102496000Y-81040000D01*
X102347000Y-80843000D01*
X102281000Y-80680000D01*
X102271645Y-80622000D01*
X102323000Y-80622000D01*
X102368000Y-80760000D01*
X102410000Y-80827000D01*
X102438000Y-80811000D01*
X102424000Y-80761000D01*
X102373000Y-80654000D01*
X102331000Y-80595000D01*
X102323000Y-80622000D01*
X102271645Y-80622000D01*
X102243742Y-80449000D01*
X102298000Y-80449000D01*
X102299000Y-80470000D01*
X102325000Y-80478000D01*
X102317000Y-80433000D01*
X102314000Y-80428000D01*
X102298000Y-80449000D01*
X102243742Y-80449000D01*
X102226000Y-80339000D01*
X102229141Y-80258000D01*
X102648000Y-80258000D01*
X102654000Y-80478000D01*
X102655000Y-80514000D01*
X102669000Y-80686000D01*
X102713000Y-80779000D01*
X102816000Y-80811000D01*
X102843000Y-80820000D01*
X103024000Y-80815000D01*
X103123438Y-80778000D01*
X103251000Y-80778000D01*
X103262000Y-80809000D01*
X103284000Y-80684000D01*
X103286000Y-80672000D01*
X103309000Y-80566000D01*
X103296000Y-80538000D01*
X103286000Y-80546000D01*
X103257000Y-80676000D01*
X103251000Y-80778000D01*
X103123438Y-80778000D01*
X103153000Y-80767000D01*
X103164000Y-80752000D01*
X103203000Y-80618000D01*
X103222000Y-80434000D01*
X103221600Y-80410000D01*
X103284000Y-80410000D01*
X103285000Y-80434000D01*
X103286000Y-80449000D01*
X103296000Y-80422000D01*
X103284000Y-80410000D01*
X103221600Y-80410000D01*
X103221000Y-80374000D01*
X103212000Y-80188000D01*
X103197000Y-79969000D01*
X103181000Y-79781000D01*
X103175548Y-79742000D01*
X103452000Y-79742000D01*
X103457000Y-79784000D01*
X103475000Y-79787000D01*
X103479000Y-79736000D01*
X103452000Y-79742000D01*
X103175548Y-79742000D01*
X103168000Y-79688000D01*
X103094000Y-79622000D01*
X102900000Y-79586000D01*
X102794000Y-79591000D01*
X102718000Y-79634000D01*
X102699000Y-79656000D01*
X102684000Y-79673000D01*
X102664000Y-79751000D01*
X102653000Y-79924000D01*
X102650000Y-79993000D01*
X102648000Y-80258000D01*
X102229141Y-80258000D01*
X102240000Y-79978000D01*
X102315158Y-79706000D01*
X102566000Y-79706000D01*
X102575000Y-79800000D01*
X102581000Y-79804000D01*
X102598000Y-79763000D01*
X102611000Y-79656000D01*
X102602000Y-79622000D01*
X102599000Y-79624000D01*
X102566000Y-79706000D01*
X102315158Y-79706000D01*
X102324000Y-79674000D01*
X102346000Y-79634000D01*
X102434126Y-79510000D01*
X103319000Y-79510000D01*
X103348000Y-79574000D01*
X103378000Y-79625000D01*
X103398000Y-79664000D01*
X103416000Y-79663000D01*
X103389000Y-79563000D01*
X103384000Y-79552000D01*
X103339000Y-79494000D01*
X103319000Y-79510000D01*
X102434126Y-79510000D01*
X102459000Y-79475000D01*
X102568000Y-79373000D01*
X102591000Y-79361000D01*
X102720000Y-79288000D01*
X102851000Y-79241000D01*
X103137000Y-79265000D01*
X103204000Y-79293000D01*
X103362000Y-79408000D01*
X103448000Y-79536000D01*
X103449000Y-79538000D01*
X103508000Y-79651000D01*
X103518000Y-79663000D01*
X103519000Y-79664000D01*
X103561000Y-79736000D01*
X103585000Y-79777000D01*
X103617000Y-79938000D01*
G37*
G36*
X102308000Y-80864000D02*
G01*
X102309000Y-80867000D01*
X102367000Y-80964000D01*
X102372000Y-80970000D01*
X102427000Y-81052000D01*
X102416000Y-81070000D01*
X102389000Y-81052000D01*
X102315000Y-80952000D01*
X102283000Y-80862000D01*
X102287000Y-80845000D01*
X102308000Y-80864000D01*
G37*
G36*
X120724000Y-79828000D02*
G01*
X120721000Y-79866000D01*
X120756000Y-79952000D01*
X120798000Y-80014000D01*
X120792000Y-80030000D01*
X120729000Y-80003000D01*
X120726000Y-79999000D01*
X120699000Y-79889000D01*
X120717000Y-79775000D01*
X120722000Y-79769000D01*
X120724000Y-79828000D01*
G37*
G36*
X120172000Y-80377000D02*
G01*
X120177000Y-80459000D01*
X120175000Y-80495000D01*
X120160000Y-80505000D01*
X120153000Y-80431000D01*
X120170000Y-80374000D01*
X120172000Y-80377000D01*
G37*
G36*
X101861000Y-79999000D02*
G01*
X101861000Y-80109000D01*
X101865000Y-80124000D01*
X101878000Y-80267000D01*
X101881000Y-80481000D01*
X101876000Y-80671000D01*
X101875000Y-80692000D01*
X101860000Y-80827000D01*
X101850000Y-80856000D01*
X101796000Y-80966000D01*
X101781000Y-80996000D01*
X101764000Y-81022000D01*
X101701000Y-81085000D01*
X101575000Y-81121000D01*
X101491000Y-81139000D01*
X101378000Y-81161000D01*
X101221000Y-81170000D01*
X101071000Y-81144000D01*
X100977000Y-81114000D01*
X100974000Y-81114000D01*
X100884000Y-81043000D01*
X100807000Y-80888000D01*
X100806000Y-80882000D01*
X100788000Y-80780000D01*
X100787526Y-80771000D01*
X100830000Y-80771000D01*
X100841000Y-80853000D01*
X100883000Y-80949000D01*
X100899000Y-80964000D01*
X100938000Y-80966000D01*
X100917000Y-80909000D01*
X100874113Y-80829000D01*
X101398000Y-80829000D01*
X101415000Y-80854000D01*
X101455000Y-80789000D01*
X101485000Y-80671000D01*
X101477000Y-80594000D01*
X101471000Y-80585000D01*
X101458000Y-80627000D01*
X101428000Y-80747000D01*
X101398000Y-80829000D01*
X100874113Y-80829000D01*
X100865000Y-80812000D01*
X100830000Y-80770000D01*
X100830000Y-80771000D01*
X100787526Y-80771000D01*
X100779000Y-80609000D01*
X100778000Y-80324000D01*
X100778000Y-80139000D01*
X100774000Y-79836000D01*
X100766000Y-79609000D01*
X100758000Y-79437000D01*
X100765000Y-79366000D01*
X100791000Y-79354000D01*
X100853000Y-79377000D01*
X100904000Y-79377000D01*
X100958000Y-79384000D01*
X100974000Y-79438000D01*
X100969000Y-79600000D01*
X100961000Y-79720000D01*
X100956000Y-79814000D01*
X100958000Y-79859000D01*
X100962000Y-80027000D01*
X100967000Y-80270000D01*
X100971000Y-80436000D01*
X100980000Y-80639000D01*
X100988000Y-80734000D01*
X100989000Y-80737000D01*
X101059000Y-80801000D01*
X101134000Y-80810000D01*
X101144000Y-80804000D01*
X101247000Y-80789000D01*
X101275000Y-80788000D01*
X101354000Y-80766000D01*
X101384000Y-80695000D01*
X101400000Y-80553000D01*
X101395000Y-80304000D01*
X101394000Y-80270000D01*
X101386000Y-79956000D01*
X101385609Y-79834000D01*
X101778000Y-79834000D01*
X101779000Y-79870000D01*
X101796000Y-79934000D01*
X101816000Y-79923000D01*
X101821000Y-79813000D01*
X101818000Y-79783000D01*
X101793000Y-79739000D01*
X101778000Y-79834000D01*
X101385609Y-79834000D01*
X101385000Y-79644000D01*
X101385176Y-79624000D01*
X101791000Y-79624000D01*
X101810000Y-79654000D01*
X101818000Y-79624000D01*
X101799000Y-79594000D01*
X101791000Y-79624000D01*
X101385176Y-79624000D01*
X101386694Y-79452000D01*
X101429000Y-79452000D01*
X101437000Y-79554000D01*
X101453000Y-79601000D01*
X101459000Y-79551000D01*
X101477000Y-79505000D01*
X101497000Y-79463000D01*
X101469000Y-79414000D01*
X101430000Y-79449000D01*
X101429000Y-79452000D01*
X101386694Y-79452000D01*
X101388000Y-79304000D01*
X101528000Y-79300000D01*
X101603000Y-79297000D01*
X101728000Y-79284000D01*
X101767000Y-79278000D01*
X101826000Y-79301000D01*
X101855000Y-79407000D01*
X101859000Y-79463000D01*
X101869000Y-79624000D01*
X101869000Y-79634000D01*
X101873000Y-79813000D01*
X101874000Y-79861000D01*
X101861000Y-79999000D01*
G37*
G36*
X115597000Y-79672000D02*
G01*
X115649000Y-79714000D01*
X115666000Y-79715000D01*
X115666000Y-79762000D01*
X115643000Y-79792000D01*
X115591000Y-79722000D01*
X115586000Y-79711000D01*
X115566000Y-79640000D01*
X115597000Y-79672000D01*
G37*
G36*
X101038000Y-80495000D02*
G01*
X101018000Y-80514000D01*
X100998000Y-80483000D01*
X101018000Y-80464000D01*
X101038000Y-80495000D01*
G37*
G36*
X104858000Y-81117000D02*
G01*
X104843000Y-81162000D01*
X104821000Y-81154000D01*
X104836000Y-81108000D01*
X104858000Y-81117000D01*
G37*
G36*
X113873000Y-79169000D02*
G01*
X113858000Y-79193000D01*
X113796000Y-79162000D01*
X113786000Y-79149000D01*
X113817000Y-79137000D01*
X113873000Y-79169000D01*
G37*
G36*
X108988000Y-81242000D02*
G01*
X108976000Y-81268000D01*
X108908000Y-81314000D01*
X108858000Y-81294000D01*
X108899000Y-81274000D01*
X108909000Y-81273000D01*
X108977000Y-81189000D01*
X108997000Y-81151000D01*
X109016000Y-81146000D01*
X108988000Y-81242000D01*
G37*
G36*
X107618000Y-80706000D02*
G01*
X107598000Y-80724000D01*
X107578000Y-80682000D01*
X107598000Y-80664000D01*
X107618000Y-80706000D01*
G37*
G36*
X109326000Y-79357000D02*
G01*
X109351000Y-79483000D01*
X109347000Y-79513000D01*
X109327000Y-79596000D01*
X109306000Y-79609000D01*
X109311000Y-79504000D01*
X109324000Y-79394000D01*
X109261000Y-79382000D01*
X109202000Y-79356000D01*
X109244000Y-79334000D01*
X109326000Y-79357000D01*
G37*
G36*
X101032000Y-80628000D02*
G01*
X101079000Y-80704000D01*
X101118000Y-80745000D01*
X101117000Y-80754000D01*
X101068000Y-80750000D01*
X101039000Y-80732000D01*
X101021000Y-80646000D01*
X101024000Y-80593000D01*
X101032000Y-80628000D01*
G37*
G36*
X114049000Y-79934000D02*
G01*
X114001000Y-80024000D01*
X113952000Y-80102000D01*
X113852000Y-80239000D01*
X113751000Y-80370000D01*
X113695000Y-80431000D01*
X113675000Y-80452000D01*
X113624000Y-80561000D01*
X113598000Y-80674000D01*
X113610000Y-80730000D01*
X113699000Y-80794000D01*
X113730000Y-80786000D01*
X113848000Y-80723000D01*
X113959000Y-80652000D01*
X113977000Y-80698000D01*
X113989000Y-80725000D01*
X113997000Y-80682000D01*
X113991000Y-80623000D01*
X113934000Y-80616000D01*
X113887000Y-80628000D01*
X113920000Y-80575000D01*
X113921000Y-80575000D01*
X113981000Y-80535000D01*
X114000000Y-80564000D01*
X114038000Y-80672000D01*
X114058000Y-80765000D01*
X114026000Y-80786000D01*
X114018000Y-80783000D01*
X114008000Y-80819000D01*
X114023000Y-80905000D01*
X114032000Y-80955000D01*
X113969000Y-81029000D01*
X113955000Y-81038000D01*
X113898000Y-81060000D01*
X113861000Y-81074000D01*
X113786000Y-81117000D01*
X113688000Y-81186000D01*
X113686000Y-81187000D01*
X113502000Y-81204000D01*
X113293000Y-81150000D01*
X113152000Y-81047000D01*
X113122698Y-80987000D01*
X113238000Y-80987000D01*
X113262000Y-81040000D01*
X113304000Y-81060000D01*
X113278000Y-81004000D01*
X113238000Y-80987000D01*
X113122698Y-80987000D01*
X113110000Y-80961000D01*
X113061000Y-80813000D01*
X113059392Y-80800000D01*
X113138000Y-80800000D01*
X113140000Y-80826000D01*
X113170000Y-80913000D01*
X113207000Y-80913000D01*
X113207783Y-80895000D01*
X113898000Y-80895000D01*
X113918000Y-80954000D01*
X113938000Y-80905000D01*
X113918000Y-80844000D01*
X113917000Y-80844000D01*
X113899000Y-80890000D01*
X113898000Y-80893000D01*
X113898000Y-80895000D01*
X113207783Y-80895000D01*
X113208000Y-80890000D01*
X113183000Y-80793000D01*
X113148000Y-80734000D01*
X113147000Y-80734000D01*
X113138000Y-80800000D01*
X113059392Y-80800000D01*
X113049000Y-80716000D01*
X113055000Y-80694000D01*
X113078000Y-80571000D01*
X113116000Y-80424000D01*
X113225000Y-80201000D01*
X113282000Y-80114000D01*
X113382000Y-79990000D01*
X113450000Y-79934000D01*
X113467000Y-79921000D01*
X113514000Y-79821000D01*
X113538000Y-79700000D01*
X113527600Y-79674000D01*
X113978000Y-79674000D01*
X113979000Y-79718000D01*
X113998000Y-79792000D01*
X114026000Y-79726000D01*
X114027000Y-79723000D01*
X114021000Y-79615000D01*
X113988000Y-79554000D01*
X113984000Y-79567000D01*
X113978000Y-79674000D01*
X113527600Y-79674000D01*
X113504000Y-79615000D01*
X113405000Y-79554000D01*
X113347000Y-79578000D01*
X113184000Y-79684000D01*
X113139000Y-79678000D01*
X113079000Y-79557000D01*
X113079393Y-79536000D01*
X113132000Y-79536000D01*
X113159000Y-79531000D01*
X113214000Y-79429000D01*
X113198000Y-79415000D01*
X113145000Y-79465000D01*
X113132000Y-79536000D01*
X113079393Y-79536000D01*
X113081000Y-79450000D01*
X113153838Y-79372000D01*
X113269000Y-79372000D01*
X113276000Y-79403000D01*
X113307000Y-79396000D01*
X113300000Y-79365000D01*
X113269000Y-79372000D01*
X113153838Y-79372000D01*
X113208000Y-79314000D01*
X113256000Y-79284000D01*
X113399000Y-79240000D01*
X113625000Y-79232000D01*
X113742000Y-79238000D01*
X113865000Y-79279000D01*
X113929000Y-79325000D01*
X113973000Y-79396000D01*
X113994000Y-79429000D01*
X114058000Y-79532000D01*
X114073000Y-79622000D01*
X114074000Y-79723000D01*
X114075000Y-79805000D01*
X114049000Y-79934000D01*
G37*
G36*
X119096000Y-79562000D02*
G01*
X119086000Y-79589000D01*
X119084000Y-79550000D01*
X119096000Y-79562000D01*
G37*
G36*
X107778000Y-80044000D02*
G01*
X107797000Y-80110000D01*
X107778000Y-80124000D01*
X107759000Y-80058000D01*
X107761000Y-80031000D01*
X107778000Y-80044000D01*
G37*
G36*
X119160000Y-79710000D02*
G01*
X119176000Y-79724000D01*
X119196000Y-79830000D01*
X119193000Y-79924000D01*
X119178000Y-79846000D01*
X119175000Y-79833000D01*
X119131000Y-79750000D01*
X119100000Y-79668000D01*
X119101000Y-79653000D01*
X119113000Y-79644000D01*
X119160000Y-79710000D01*
G37*
G36*
X118755000Y-79724000D02*
G01*
X118752000Y-79868000D01*
X118736000Y-79889000D01*
X118729000Y-79865000D01*
X118734000Y-79689000D01*
X118753000Y-79524000D01*
X118755000Y-79724000D01*
G37*
G36*
X104918000Y-80784000D02*
G01*
X104898000Y-80834000D01*
X104878000Y-80784000D01*
X104898000Y-80734000D01*
X104918000Y-80784000D01*
G37*
G36*
X100338000Y-79904000D02*
G01*
X100338000Y-79997000D01*
X100341000Y-80218000D01*
X100343000Y-80275000D01*
X100346000Y-80424000D01*
X100347000Y-80494000D01*
X100351000Y-80703000D01*
X100352000Y-80862000D01*
X100352000Y-80910000D01*
X100349000Y-80974000D01*
X100348000Y-81008000D01*
X100293000Y-81066000D01*
X100229000Y-81079000D01*
X100130000Y-81085000D01*
X100101000Y-81072000D01*
X100104000Y-81070000D01*
X100074000Y-81054000D01*
X100008000Y-81074000D01*
X99977000Y-81085000D01*
X99842000Y-81093000D01*
X99678000Y-81090000D01*
X99566000Y-81073000D01*
X99470000Y-81082000D01*
X99467000Y-81084000D01*
X99334000Y-81100000D01*
X99208000Y-80959000D01*
X99154824Y-80846000D01*
X99236000Y-80846000D01*
X99279000Y-80936000D01*
X99313000Y-80977000D01*
X99368000Y-80974000D01*
X99367000Y-80963000D01*
X99309000Y-80884000D01*
X99288000Y-80864000D01*
X99236000Y-80846000D01*
X99154824Y-80846000D01*
X99152000Y-80840000D01*
X99145769Y-80813000D01*
X99953000Y-80813000D01*
X99983000Y-80870000D01*
X100010000Y-80862000D01*
X99999000Y-80754000D01*
X99977000Y-80726000D01*
X99953000Y-80813000D01*
X99145769Y-80813000D01*
X99095000Y-80593000D01*
X99077000Y-80245000D01*
X99078075Y-80152000D01*
X99529000Y-80152000D01*
X99538000Y-80294000D01*
X99543000Y-80319000D01*
X99557000Y-80486000D01*
X99557000Y-80502000D01*
X99580000Y-80648000D01*
X99620000Y-80714000D01*
X99662000Y-80764000D01*
X99686000Y-80805000D01*
X99745000Y-80777000D01*
X99828000Y-80749000D01*
X99879000Y-80741000D01*
X99882000Y-80639000D01*
X99884000Y-80424000D01*
X99882750Y-80264000D01*
X100260000Y-80264000D01*
X100263000Y-80328000D01*
X100279000Y-80405000D01*
X100289000Y-80392000D01*
X100298000Y-80275000D01*
X100295000Y-80201000D01*
X100279000Y-80134000D01*
X100270000Y-80151000D01*
X100260000Y-80264000D01*
X99882750Y-80264000D01*
X99882000Y-80168000D01*
X99878000Y-79920000D01*
X99872000Y-79732000D01*
X99865089Y-79654000D01*
X100228000Y-79654000D01*
X100233000Y-79697000D01*
X100268000Y-79694000D01*
X100263000Y-79651000D01*
X100228000Y-79654000D01*
X99865089Y-79654000D01*
X99865000Y-79653000D01*
X99820000Y-79641000D01*
X99690000Y-79657000D01*
X99587000Y-79703000D01*
X99570000Y-79724000D01*
X99546000Y-79802000D01*
X99541000Y-79862000D01*
X99533000Y-79975000D01*
X99529000Y-80152000D01*
X99078075Y-80152000D01*
X99079000Y-80072000D01*
X99094977Y-79850000D01*
X99424000Y-79850000D01*
X99426000Y-79889000D01*
X99436000Y-79862000D01*
X99424000Y-79850000D01*
X99094977Y-79850000D01*
X99098000Y-79808000D01*
X99116951Y-79734000D01*
X99430000Y-79734000D01*
X99450000Y-79745000D01*
X99478000Y-79685000D01*
X99503000Y-79616000D01*
X99507000Y-79612000D01*
X99488000Y-79597000D01*
X99430000Y-79659000D01*
X99430000Y-79734000D01*
X99116951Y-79734000D01*
X99140000Y-79644000D01*
X99193000Y-79546000D01*
X99280000Y-79474000D01*
X99335000Y-79419000D01*
X100188000Y-79419000D01*
X100211000Y-79481000D01*
X100258000Y-79530000D01*
X100278000Y-79465000D01*
X100265000Y-79396000D01*
X100204000Y-79400000D01*
X100188000Y-79419000D01*
X99335000Y-79419000D01*
X99349000Y-79405000D01*
X99359000Y-79383000D01*
X99446000Y-79323000D01*
X99576000Y-79324000D01*
X99638000Y-79316000D01*
X99638000Y-79314000D01*
X99696000Y-79295000D01*
X99773000Y-79317000D01*
X99822000Y-79319000D01*
X99917000Y-79285000D01*
X100058000Y-79294000D01*
X100082000Y-79303000D01*
X100167000Y-79286000D01*
X100211000Y-79264000D01*
X100317000Y-79283000D01*
X100327000Y-79304000D01*
X100337000Y-79397000D01*
X100339000Y-79465000D01*
X100341000Y-79586000D01*
X100340000Y-79612000D01*
X100340000Y-79694000D01*
X100338000Y-79904000D01*
G37*
G36*
X99349000Y-79304000D02*
G01*
X99323000Y-79379000D01*
X99297000Y-79410000D01*
X99258000Y-79387000D01*
X99258000Y-79384000D01*
X99311000Y-79312000D01*
X99345000Y-79283000D01*
X99349000Y-79304000D01*
G37*
G36*
X119733000Y-80630000D02*
G01*
X119733000Y-80634000D01*
X119769000Y-80707000D01*
X119798000Y-80766000D01*
X119797000Y-80793000D01*
X119758000Y-80779000D01*
X119744000Y-80765000D01*
X119721000Y-80655000D01*
X119724000Y-80598000D01*
X119733000Y-80630000D01*
G37*
G36*
X111013000Y-80054000D02*
G01*
X111013000Y-80068000D01*
X111004000Y-80089000D01*
X111004000Y-80019000D01*
X111006000Y-80013000D01*
X111013000Y-80054000D01*
G37*
G36*
X103328000Y-81196000D02*
G01*
X103328000Y-81197000D01*
X103243000Y-81258000D01*
X103088000Y-81312000D01*
X103006000Y-81327000D01*
X102910000Y-81317000D01*
X102851000Y-81309000D01*
X102789000Y-81296000D01*
X102789000Y-81287000D01*
X102886000Y-81274000D01*
X102930000Y-81272000D01*
X103009000Y-81252000D01*
X103068000Y-81242000D01*
X103153000Y-81238000D01*
X103283000Y-81178000D01*
X103312000Y-81159000D01*
X103328000Y-81196000D01*
G37*
G36*
X99845000Y-79924000D02*
G01*
X99837000Y-79954000D01*
X99818000Y-79924000D01*
X99826000Y-79894000D01*
X99845000Y-79924000D01*
G37*
G36*
X101877000Y-79213000D02*
G01*
X101909000Y-79268000D01*
X101914000Y-79399000D01*
X101910000Y-79544000D01*
X101903000Y-79424000D01*
X101896000Y-79354000D01*
X101852000Y-79262000D01*
X101780000Y-79230000D01*
X101762000Y-79212000D01*
X101789000Y-79182000D01*
X101877000Y-79213000D01*
G37*
G36*
X116863000Y-81222000D02*
G01*
X116889000Y-81253000D01*
X116861000Y-81261000D01*
X116740000Y-81269000D01*
X116603000Y-81267000D01*
X116538000Y-81255000D01*
X116539000Y-81252000D01*
X116617000Y-81223000D01*
X116768000Y-81214000D01*
X116863000Y-81222000D01*
G37*
G36*
X110813000Y-81018000D02*
G01*
X110783000Y-81090000D01*
X110756000Y-81118000D01*
X110718000Y-81123000D01*
X110751000Y-81063000D01*
X110800000Y-81014000D01*
X110813000Y-81018000D01*
G37*
G36*
X106270000Y-79403000D02*
G01*
X106298000Y-79459000D01*
X106284000Y-79472000D01*
X106230000Y-79429000D01*
X106221000Y-79387000D01*
X106270000Y-79403000D01*
G37*
G36*
X109598000Y-80774000D02*
G01*
X109578000Y-80794000D01*
X109558000Y-80774000D01*
X109578000Y-80754000D01*
X109598000Y-80774000D01*
G37*
G36*
X121907000Y-79483000D02*
G01*
X121889000Y-79524000D01*
X121907000Y-79704000D01*
X121913000Y-79725000D01*
X121880000Y-79697000D01*
X121838000Y-79589000D01*
X121854000Y-79520000D01*
X121899000Y-79429000D01*
X121933000Y-79409000D01*
X121907000Y-79483000D01*
G37*
G36*
X115536000Y-79582000D02*
G01*
X115526000Y-79609000D01*
X115524000Y-79570000D01*
X115536000Y-79582000D01*
G37*
G36*
X112647000Y-80654000D02*
G01*
X112647000Y-80910000D01*
X112634000Y-81009000D01*
X112618000Y-81019000D01*
X112487000Y-81034000D01*
X112443000Y-81033000D01*
X112353000Y-81009000D01*
X112304000Y-81032000D01*
X112294000Y-81043000D01*
X112236000Y-81069000D01*
X112200000Y-80984000D01*
X112194592Y-80920000D01*
X112504000Y-80920000D01*
X112507000Y-80928000D01*
X112565000Y-80941000D01*
X112569000Y-80933000D01*
X112577000Y-80851000D01*
X112558000Y-80794000D01*
X112538000Y-80832000D01*
X112514000Y-80879000D01*
X112504000Y-80920000D01*
X112194592Y-80920000D01*
X112182000Y-80771000D01*
X112180000Y-80414000D01*
X112180000Y-80321000D01*
X112176559Y-80182000D01*
X112563000Y-80182000D01*
X112564000Y-80319000D01*
X112568000Y-80331000D01*
X112571000Y-80244000D01*
X112570000Y-80178000D01*
X112563000Y-80179000D01*
X112563000Y-80182000D01*
X112176559Y-80182000D01*
X112175000Y-80119000D01*
X112164000Y-80017000D01*
X112147000Y-79988000D01*
X112120000Y-80057000D01*
X112100000Y-80117000D01*
X112036000Y-80281000D01*
X112006000Y-80360000D01*
X112000000Y-80381000D01*
X111978000Y-80465000D01*
X111967000Y-80523000D01*
X111922000Y-80682000D01*
X111865000Y-80861000D01*
X111819000Y-80984000D01*
X111787000Y-81070000D01*
X111731000Y-81134000D01*
X111659000Y-81151000D01*
X111502000Y-81130000D01*
X111408000Y-81055000D01*
X111401000Y-80960000D01*
X111394000Y-80751000D01*
X111388000Y-80471000D01*
X111383627Y-80264000D01*
X111721000Y-80264000D01*
X111722000Y-80284000D01*
X111738000Y-80388000D01*
X111766000Y-80394000D01*
X111768000Y-80381000D01*
X111750000Y-80274000D01*
X111722000Y-80184000D01*
X111721000Y-80264000D01*
X111383627Y-80264000D01*
X111382000Y-80187000D01*
X111374000Y-79889000D01*
X111366000Y-79683000D01*
X111363856Y-79571000D01*
X111418000Y-79571000D01*
X111436000Y-79652000D01*
X111463000Y-79599000D01*
X111480000Y-79515000D01*
X111453000Y-79479000D01*
X111430000Y-79481000D01*
X111418000Y-79563000D01*
X111418000Y-79571000D01*
X111363856Y-79571000D01*
X111362000Y-79474000D01*
X111390000Y-79377000D01*
X111464000Y-79354000D01*
X111495000Y-79353000D01*
X111643000Y-79342000D01*
X111743000Y-79339000D01*
X111781000Y-79382000D01*
X111784000Y-79502000D01*
X111782000Y-79507000D01*
X111782000Y-79515000D01*
X111779000Y-79597000D01*
X111782000Y-79607000D01*
X111796000Y-79729000D01*
X111808000Y-79934000D01*
X111811000Y-79996000D01*
X111821000Y-80175000D01*
X111828000Y-80250000D01*
X111828000Y-80251000D01*
X111863000Y-80195000D01*
X111912000Y-80084000D01*
X111938000Y-80006000D01*
X111949000Y-79957000D01*
X111997000Y-79799000D01*
X112065000Y-79596000D01*
X112111429Y-79466000D01*
X112490000Y-79466000D01*
X112532000Y-79514000D01*
X112551000Y-79469000D01*
X112538000Y-79389000D01*
X112520000Y-79354000D01*
X112497000Y-79371000D01*
X112495000Y-79402000D01*
X112490000Y-79466000D01*
X112111429Y-79466000D01*
X112130000Y-79414000D01*
X112140144Y-79390000D01*
X112404000Y-79390000D01*
X112406000Y-79429000D01*
X112416000Y-79402000D01*
X112404000Y-79390000D01*
X112140144Y-79390000D01*
X112171000Y-79317000D01*
X112181000Y-79302000D01*
X112263000Y-79282000D01*
X112346000Y-79277000D01*
X112357000Y-79271000D01*
X112462000Y-79247000D01*
X112557000Y-79235000D01*
X112596000Y-79323000D01*
X112611000Y-79363000D01*
X112627000Y-79450000D01*
X112628000Y-79469000D01*
X112634000Y-79602000D01*
X112637000Y-79868000D01*
X112638000Y-80040000D01*
X112640000Y-80244000D01*
X112642000Y-80377000D01*
X112647000Y-80654000D01*
G37*
G36*
X119758000Y-80484000D02*
G01*
X119750000Y-80514000D01*
X119731000Y-80484000D01*
X119739000Y-80454000D01*
X119758000Y-80484000D01*
G37*
G36*
X105738000Y-79654000D02*
G01*
X105718000Y-79674000D01*
X105698000Y-79654000D01*
X105718000Y-79634000D01*
X105738000Y-79654000D01*
G37*
G36*
X118777000Y-80844000D02*
G01*
X118782000Y-80919000D01*
X118782000Y-81019000D01*
X118745000Y-81054000D01*
X118744000Y-81054000D01*
X118737000Y-81015000D01*
X118748000Y-80979000D01*
X118761000Y-80840000D01*
X118764000Y-80704000D01*
X118777000Y-80844000D01*
G37*
G36*
X113954000Y-79179000D02*
G01*
X114036000Y-79282000D01*
X114078000Y-79385000D01*
X114075000Y-79394000D01*
X114025000Y-79342000D01*
X114010000Y-79321000D01*
X113935000Y-79238000D01*
X113903000Y-79197000D01*
X113913000Y-79155000D01*
X113954000Y-79179000D01*
G37*
G36*
X100243000Y-79156000D02*
G01*
X100351000Y-79166000D01*
X100398000Y-79206000D01*
X100406000Y-79375000D01*
X100400000Y-79414000D01*
X100384000Y-79468000D01*
X100382000Y-79366000D01*
X100382000Y-79342000D01*
X100360000Y-79226000D01*
X100332000Y-79209000D01*
X100226000Y-79194000D01*
X100154000Y-79217000D01*
X100148000Y-79224000D01*
X100072000Y-79222000D01*
X100018000Y-79182000D01*
X100039000Y-79162000D01*
X100163000Y-79154000D01*
X100243000Y-79156000D01*
G37*
G36*
X112715000Y-80857000D02*
G01*
X112714000Y-80967000D01*
X112706000Y-81062000D01*
X112678000Y-81090000D01*
X112638000Y-81068000D01*
X112660000Y-81020000D01*
X112675000Y-80980000D01*
X112697000Y-80841000D01*
X112712000Y-80684000D01*
X112715000Y-80857000D01*
G37*
G36*
X122100000Y-80676000D02*
G01*
X122152000Y-80734000D01*
X122198000Y-80788000D01*
X122183000Y-80791000D01*
X122088000Y-80712000D01*
X122022000Y-80657000D01*
X121970000Y-80653000D01*
X121963000Y-80658000D01*
X121952000Y-80635000D01*
X121956000Y-80621000D01*
X122000000Y-80588000D01*
X122100000Y-80676000D01*
G37*
G36*
X105279000Y-79776000D02*
G01*
X105284000Y-79820000D01*
X105257000Y-79812000D01*
X105252000Y-79768000D01*
X105279000Y-79776000D01*
G37*
G36*
X105686000Y-81295000D02*
G01*
X105773000Y-81319000D01*
X105782000Y-81324000D01*
X105892000Y-81324000D01*
X105961000Y-81317000D01*
X105959000Y-81342000D01*
X105929000Y-81360000D01*
X105788000Y-81372000D01*
X105628000Y-81343000D01*
X105611000Y-81338000D01*
X105513000Y-81314000D01*
X105478000Y-81293000D01*
X105479000Y-81290000D01*
X105557000Y-81283000D01*
X105686000Y-81295000D01*
G37*
G36*
X116955000Y-80604000D02*
G01*
X116954000Y-80665000D01*
X116913000Y-80713000D01*
X116865000Y-80730000D01*
X116838000Y-80704000D01*
X116878000Y-80674000D01*
X116883000Y-80674000D01*
X116918000Y-80619000D01*
X116918000Y-80609000D01*
X116936000Y-80538000D01*
X116955000Y-80604000D01*
G37*
G36*
X100871000Y-79284000D02*
G01*
X100877000Y-79314000D01*
X100820000Y-79311000D01*
X100757000Y-79308000D01*
X100734000Y-79438000D01*
X100734000Y-79502000D01*
X100717000Y-79509000D01*
X100710000Y-79490000D01*
X100702000Y-79369000D01*
X100708000Y-79264000D01*
X100783000Y-79258000D01*
X100798000Y-79257000D01*
X100871000Y-79284000D01*
G37*
G36*
X122215000Y-81276000D02*
G01*
X122328000Y-81290000D01*
X122362000Y-81294000D01*
X122453000Y-81319000D01*
X122458000Y-81322000D01*
X122558000Y-81326000D01*
X122617000Y-81323000D01*
X122623000Y-81363000D01*
X122619000Y-81366000D01*
X122520000Y-81374000D01*
X122363000Y-81355000D01*
X122221000Y-81321000D01*
X122165000Y-81284000D01*
X122200000Y-81273000D01*
X122215000Y-81276000D01*
G37*
G36*
X105948000Y-79136000D02*
G01*
X106069000Y-79194000D01*
X106147000Y-79262000D01*
X106197000Y-79348000D01*
X106194000Y-79350000D01*
X106135000Y-79296000D01*
X106117000Y-79278000D01*
X106028000Y-79223000D01*
X105940000Y-79176000D01*
X105868000Y-79134000D01*
X105838000Y-79115000D01*
X105852000Y-79109000D01*
X105948000Y-79136000D01*
G37*
G36*
X104310000Y-79421000D02*
G01*
X104315000Y-79544000D01*
X104313000Y-79704000D01*
X104295000Y-79578000D01*
X104290000Y-79542000D01*
X104297000Y-79418000D01*
X104310000Y-79421000D01*
G37*
G36*
X101383000Y-79259000D02*
G01*
X101379000Y-79265000D01*
X101346000Y-79364000D01*
X101329000Y-79444000D01*
X101322000Y-79367000D01*
X101322000Y-79288000D01*
X101370000Y-79234000D01*
X101383000Y-79259000D01*
G37*
G36*
X101913000Y-80054000D02*
G01*
X101912000Y-80083000D01*
X101904000Y-80099000D01*
X101904000Y-80009000D01*
X101907000Y-79999000D01*
X101913000Y-80054000D01*
G37*
G36*
X120173000Y-80813000D02*
G01*
X120177000Y-80894000D01*
X120202000Y-81022000D01*
X120260000Y-81054000D01*
X120298000Y-81086000D01*
X120297000Y-81094000D01*
X120243000Y-81105000D01*
X120173000Y-81067000D01*
X120165000Y-80999000D01*
X120162000Y-80834000D01*
X120166000Y-80624000D01*
X120173000Y-80813000D01*
G37*
G36*
X121628000Y-80522000D02*
G01*
X121606000Y-80650000D01*
X121581000Y-80670000D01*
X121524000Y-80642000D01*
X121557000Y-80608000D01*
X121598000Y-80545000D01*
X121618000Y-80504000D01*
X121628000Y-80522000D01*
G37*
G36*
X122958000Y-79449000D02*
G01*
X122958000Y-79451000D01*
X122928000Y-79454000D01*
X122898000Y-79399000D01*
X122898000Y-79397000D01*
X122928000Y-79394000D01*
X122958000Y-79449000D01*
G37*
G36*
X100409000Y-80596000D02*
G01*
X100417000Y-80762000D01*
X100416000Y-80891000D01*
X100411000Y-80952000D01*
X100403000Y-80881000D01*
X100392000Y-80714000D01*
X100389000Y-80562000D01*
X100398000Y-80524000D01*
X100409000Y-80596000D01*
G37*
G36*
X104882000Y-79535000D02*
G01*
X104897000Y-79609000D01*
X104895000Y-79649000D01*
X104878000Y-79644000D01*
X104862000Y-79591000D01*
X104878000Y-79534000D01*
X104882000Y-79535000D01*
G37*
G36*
X116269000Y-79232000D02*
G01*
X116256000Y-79246000D01*
X116218000Y-79235000D01*
X116183000Y-79210000D01*
X116173000Y-79207000D01*
X116191000Y-79191000D01*
X116242000Y-79189000D01*
X116269000Y-79232000D01*
G37*
G36*
X105843000Y-79690000D02*
G01*
X105874000Y-79737000D01*
X105895000Y-79874000D01*
X105897000Y-79939000D01*
X105880000Y-80014000D01*
X105871000Y-80005000D01*
X105858000Y-79885000D01*
X105853000Y-79786000D01*
X105814000Y-79715000D01*
X105785000Y-79660000D01*
X105786000Y-79660000D01*
X105843000Y-79690000D01*
G37*
G36*
X106308000Y-79726000D02*
G01*
X106349000Y-79874000D01*
X106363000Y-79939000D01*
X106384000Y-80234000D01*
X106384000Y-80391000D01*
X106372000Y-80539000D01*
X106364000Y-80636000D01*
X106316000Y-80750000D01*
X106278000Y-80837000D01*
X106260000Y-80896000D01*
X106258000Y-80904000D01*
X106238000Y-80968000D01*
X106237000Y-80974000D01*
X106233000Y-80992000D01*
X106145000Y-81106000D01*
X105991000Y-81212000D01*
X105964000Y-81224000D01*
X105839000Y-81252000D01*
X105778000Y-81231000D01*
X105778000Y-81230000D01*
X105699000Y-81222000D01*
X105648000Y-81225000D01*
X105504000Y-81183000D01*
X105315000Y-81059000D01*
X105259364Y-80934000D01*
X105292000Y-80934000D01*
X105320000Y-80974000D01*
X105324000Y-80974000D01*
X105778000Y-80974000D01*
X105798000Y-80994000D01*
X105818000Y-80974000D01*
X105798000Y-80954000D01*
X105778000Y-80974000D01*
X105324000Y-80974000D01*
X105325176Y-80934000D01*
X105868000Y-80934000D01*
X105899000Y-80953000D01*
X105966000Y-80922000D01*
X105975000Y-80896000D01*
X105954000Y-80890000D01*
X105914000Y-80906000D01*
X105893000Y-80914000D01*
X105868000Y-80934000D01*
X105325176Y-80934000D01*
X105326000Y-80906000D01*
X105304000Y-80882000D01*
X105292000Y-80934000D01*
X105259364Y-80934000D01*
X105238000Y-80886000D01*
X105244000Y-80855000D01*
X105287000Y-80752000D01*
X105330000Y-80694000D01*
X105348000Y-80709000D01*
X105434000Y-80794000D01*
X105447000Y-80807000D01*
X105535000Y-80881000D01*
X105631000Y-80894000D01*
X105798000Y-80849000D01*
X105805000Y-80845000D01*
X105891000Y-80767000D01*
X105932000Y-80654000D01*
X105933376Y-80637000D01*
X106282000Y-80637000D01*
X106304000Y-80639000D01*
X106312000Y-80621000D01*
X106330000Y-80539000D01*
X106322000Y-80504000D01*
X106322000Y-80505000D01*
X106289000Y-80589000D01*
X106282000Y-80637000D01*
X105933376Y-80637000D01*
X105949000Y-80444000D01*
X105952628Y-80373000D01*
X106298000Y-80373000D01*
X106318000Y-80404000D01*
X106338000Y-80385000D01*
X106318000Y-80354000D01*
X106298000Y-80373000D01*
X105952628Y-80373000D01*
X105956000Y-80307000D01*
X105959000Y-80187000D01*
X105955000Y-80090000D01*
X105943000Y-79934000D01*
X105925000Y-79785000D01*
X105901000Y-79680000D01*
X105871000Y-79637000D01*
X105703000Y-79574000D01*
X105604000Y-79586000D01*
X105411000Y-79706000D01*
X105334000Y-79783000D01*
X105286000Y-79727000D01*
X105253000Y-79673000D01*
X105258333Y-79563000D01*
X106138000Y-79563000D01*
X106158000Y-79594000D01*
X106178000Y-79575000D01*
X106158000Y-79544000D01*
X106138000Y-79563000D01*
X105258333Y-79563000D01*
X105261000Y-79508000D01*
X105293000Y-79465000D01*
X105369661Y-79384000D01*
X106018000Y-79384000D01*
X106040000Y-79446000D01*
X106079000Y-79482000D01*
X106118000Y-79467000D01*
X106084000Y-79410000D01*
X106018000Y-79384000D01*
X105369661Y-79384000D01*
X105399000Y-79353000D01*
X105498000Y-79269000D01*
X105638000Y-79207000D01*
X105784000Y-79187000D01*
X105946000Y-79252000D01*
X106016000Y-79280000D01*
X106034000Y-79281000D01*
X106130000Y-79357000D01*
X106202000Y-79467000D01*
X106232000Y-79514000D01*
X106255000Y-79575000D01*
X106300000Y-79694000D01*
X106308000Y-79726000D01*
G37*
G36*
X116036000Y-81009000D02*
G01*
X116036000Y-81038000D01*
X116030000Y-81136000D01*
X115996000Y-81154000D01*
X115990000Y-81154000D01*
X115976000Y-81126000D01*
X115987000Y-81104000D01*
X116016000Y-80981000D01*
X116033000Y-80864000D01*
X116036000Y-81009000D01*
G37*
G36*
X110033000Y-80074000D02*
G01*
X110033000Y-80088000D01*
X110024000Y-80109000D01*
X110024000Y-80039000D01*
X110026000Y-80033000D01*
X110033000Y-80074000D01*
G37*
G36*
X104916000Y-80946000D02*
G01*
X104916000Y-80963000D01*
X104905000Y-81041000D01*
X104888000Y-81052000D01*
X104868000Y-81019000D01*
X104898000Y-80924000D01*
X104911000Y-80884000D01*
X104916000Y-80946000D01*
G37*
G36*
X123045000Y-80556000D02*
G01*
X123044000Y-80626000D01*
X123030000Y-80699000D01*
X123003000Y-80739000D01*
X122958000Y-80839000D01*
X122940000Y-80903000D01*
X122938000Y-80904000D01*
X122931000Y-80924000D01*
X122913000Y-80974000D01*
X122910000Y-80983000D01*
X122894000Y-81029000D01*
X122793000Y-81128000D01*
X122743000Y-81164000D01*
X122639000Y-81227000D01*
X122530000Y-81251000D01*
X122447000Y-81232000D01*
X122367000Y-81223000D01*
X122312000Y-81224000D01*
X122162000Y-81173000D01*
X122078000Y-81130000D01*
X121932000Y-80978000D01*
X121932134Y-80974000D01*
X122458000Y-80974000D01*
X122478000Y-80994000D01*
X122498000Y-80974000D01*
X122478000Y-80954000D01*
X122458000Y-80974000D01*
X121932134Y-80974000D01*
X121934648Y-80899000D01*
X121966000Y-80899000D01*
X121970000Y-80941000D01*
X121986000Y-80967000D01*
X122018000Y-80945000D01*
X122015480Y-80936000D01*
X122538000Y-80936000D01*
X122551000Y-80945000D01*
X122561000Y-80952000D01*
X122625000Y-80941000D01*
X122637000Y-80924000D01*
X122588000Y-80909000D01*
X122538000Y-80936000D01*
X122015480Y-80936000D01*
X122011000Y-80920000D01*
X121966000Y-80899000D01*
X121934648Y-80899000D01*
X121938000Y-80799000D01*
X121948000Y-80779000D01*
X121995000Y-80706000D01*
X122004000Y-80706000D01*
X122072000Y-80765000D01*
X122141000Y-80837000D01*
X122324000Y-80894000D01*
X122407000Y-80881000D01*
X122582000Y-80754000D01*
X122594000Y-80734000D01*
X122610000Y-80671000D01*
X122613091Y-80620000D01*
X122962000Y-80620000D01*
X122983000Y-80642000D01*
X122985000Y-80640000D01*
X122996000Y-80556000D01*
X122994000Y-80484000D01*
X122975000Y-80551000D01*
X122962000Y-80620000D01*
X122613091Y-80620000D01*
X122618000Y-80539000D01*
X122619347Y-80374000D01*
X122978000Y-80374000D01*
X122999000Y-80394000D01*
X123008000Y-80374000D01*
X122987000Y-80354000D01*
X122978000Y-80374000D01*
X122619347Y-80374000D01*
X122620000Y-80294000D01*
X122619000Y-80108000D01*
X122608000Y-79851000D01*
X122579000Y-79699000D01*
X122527000Y-79619000D01*
X122459000Y-79582000D01*
X122273000Y-79590000D01*
X122085000Y-79703000D01*
X122011000Y-79775000D01*
X121967000Y-79733000D01*
X121942000Y-79705000D01*
X121920477Y-79575000D01*
X122809000Y-79575000D01*
X122814000Y-79583000D01*
X122838000Y-79563000D01*
X122818000Y-79544000D01*
X122809000Y-79575000D01*
X121920477Y-79575000D01*
X121917000Y-79554000D01*
X122026000Y-79404000D01*
X122034750Y-79397000D01*
X122678000Y-79397000D01*
X122681000Y-79410000D01*
X122737000Y-79473000D01*
X122789000Y-79492000D01*
X122770000Y-79425000D01*
X122708000Y-79374000D01*
X122678000Y-79397000D01*
X122034750Y-79397000D01*
X122046000Y-79388000D01*
X122098000Y-79322000D01*
X122138000Y-79276000D01*
X122318000Y-79206000D01*
X122446000Y-79187000D01*
X122626000Y-79253000D01*
X122628000Y-79254000D01*
X122684000Y-79281000D01*
X122693000Y-79276000D01*
X122772000Y-79321000D01*
X122869000Y-79447000D01*
X122890000Y-79492000D01*
X122924000Y-79563000D01*
X122944000Y-79604000D01*
X122996000Y-79769000D01*
X123032000Y-79921000D01*
X123046000Y-80078000D01*
X123048000Y-80317000D01*
X123048000Y-80469000D01*
X123045000Y-80556000D01*
G37*
G36*
X122525000Y-79692000D02*
G01*
X122570000Y-79870000D01*
X122575000Y-79938000D01*
X122563000Y-80014000D01*
X122551000Y-79994000D01*
X122535000Y-79876000D01*
X122521000Y-79762000D01*
X122477000Y-79696000D01*
X122462000Y-79683000D01*
X122460000Y-79655000D01*
X122525000Y-79692000D01*
G37*
G36*
X121488000Y-79734000D02*
G01*
X121478000Y-80124000D01*
X121523000Y-80144000D01*
X121541000Y-80154000D01*
X121564000Y-80203000D01*
X121564000Y-80213000D01*
X121568000Y-80344000D01*
X121568000Y-80360000D01*
X121567000Y-80425000D01*
X121558000Y-80511000D01*
X121523000Y-80530000D01*
X121515000Y-80532000D01*
X121483000Y-80562000D01*
X121476000Y-80680000D01*
X121474000Y-80760000D01*
X121459000Y-80923000D01*
X121454000Y-80976000D01*
X121417000Y-81075000D01*
X121326000Y-81093000D01*
X121249000Y-81076000D01*
X121242000Y-81072000D01*
X121147000Y-81069000D01*
X121121000Y-81072000D01*
X121040000Y-81056000D01*
X121010000Y-80966000D01*
X121010000Y-80846000D01*
X121079000Y-80846000D01*
X121090000Y-80942000D01*
X121119000Y-80974000D01*
X121130000Y-80972000D01*
X121134390Y-80935000D01*
X121198000Y-80935000D01*
X121218000Y-80954000D01*
X121238000Y-80923000D01*
X121218000Y-80904000D01*
X121212000Y-80913000D01*
X121198000Y-80935000D01*
X121134390Y-80935000D01*
X121137000Y-80913000D01*
X121118000Y-80839000D01*
X121098000Y-80794000D01*
X121079000Y-80846000D01*
X121010000Y-80846000D01*
X121010000Y-80758000D01*
X121019000Y-80511000D01*
X120961000Y-80457000D01*
X120941167Y-80440000D01*
X121475000Y-80440000D01*
X121504000Y-80438000D01*
X121514000Y-80360000D01*
X121510000Y-80344000D01*
X121480000Y-80371000D01*
X121475000Y-80440000D01*
X120941167Y-80440000D01*
X120926000Y-80427000D01*
X120884000Y-80431000D01*
X120876000Y-80439000D01*
X120777000Y-80469000D01*
X120752000Y-80471000D01*
X120678000Y-80487000D01*
X120677000Y-80489000D01*
X120668000Y-80579000D01*
X120658000Y-80761000D01*
X120656000Y-80814000D01*
X120648000Y-81024000D01*
X120518000Y-81019000D01*
X120447000Y-81014000D01*
X120363000Y-80981000D01*
X120349000Y-80963000D01*
X120298000Y-80984000D01*
X120265000Y-81006000D01*
X120229000Y-80975000D01*
X120216000Y-80835000D01*
X120216836Y-80789000D01*
X120285000Y-80789000D01*
X120285000Y-80839000D01*
X120295000Y-80814000D01*
X120285000Y-80789000D01*
X120216836Y-80789000D01*
X120221000Y-80560000D01*
X120224000Y-80446000D01*
X120232000Y-80110000D01*
X120232325Y-80083000D01*
X120558000Y-80083000D01*
X120577000Y-80163000D01*
X120641000Y-80214000D01*
X120660000Y-80213000D01*
X120653000Y-80179000D01*
X120609000Y-80099000D01*
X120587000Y-80060000D01*
X120558000Y-80083000D01*
X120232325Y-80083000D01*
X120236000Y-79778000D01*
X120237906Y-79372000D01*
X120458000Y-79372000D01*
X120478000Y-79404000D01*
X120498000Y-79396000D01*
X120485500Y-79376000D01*
X120538000Y-79376000D01*
X120549000Y-79396000D01*
X120558000Y-79414000D01*
X120578000Y-79443000D01*
X120586000Y-79475000D01*
X120624000Y-79452000D01*
X120629000Y-79426000D01*
X120577000Y-79348000D01*
X120538000Y-79376000D01*
X120485500Y-79376000D01*
X120478000Y-79364000D01*
X120458000Y-79372000D01*
X120237906Y-79372000D01*
X120238000Y-79352000D01*
X120303000Y-79291000D01*
X120378000Y-79241000D01*
X120496000Y-79239000D01*
X120508000Y-79240000D01*
X120661000Y-79288000D01*
X120688000Y-79415000D01*
X120687000Y-79426000D01*
X120683000Y-79453000D01*
X120676000Y-79613000D01*
X120673000Y-79813000D01*
X120675000Y-79986000D01*
X120683000Y-80066000D01*
X120696000Y-80071000D01*
X120803000Y-80088000D01*
X120940000Y-80103000D01*
X121013000Y-80105000D01*
X121016000Y-80074000D01*
X121024000Y-79924000D01*
X121033000Y-79692000D01*
X121041000Y-79503000D01*
X121046376Y-79414000D01*
X121238000Y-79414000D01*
X121256000Y-79454000D01*
X121274000Y-79443000D01*
X121279842Y-79406000D01*
X121326000Y-79406000D01*
X121338000Y-79446000D01*
X121368000Y-79454000D01*
X121398000Y-79474000D01*
X121418000Y-79494000D01*
X121438000Y-79434000D01*
X121436000Y-79400000D01*
X121376000Y-79374000D01*
X121355000Y-79375000D01*
X121344000Y-79386000D01*
X121326000Y-79406000D01*
X121279842Y-79406000D01*
X121283000Y-79386000D01*
X121272000Y-79377000D01*
X121238000Y-79414000D01*
X121046376Y-79414000D01*
X121050000Y-79354000D01*
X121064000Y-79295000D01*
X121088000Y-79284000D01*
X121150000Y-79270000D01*
X121153000Y-79268000D01*
X121254000Y-79265000D01*
X121397000Y-79285000D01*
X121480000Y-79315000D01*
X121485000Y-79342000D01*
X121488000Y-79434000D01*
X121490000Y-79493000D01*
X121488000Y-79734000D01*
G37*
G36*
X102898000Y-79678000D02*
G01*
X102897000Y-79688000D01*
X102832000Y-79714000D01*
X102750000Y-79734000D01*
X102714000Y-79853000D01*
X102710000Y-79910000D01*
X102703000Y-79827000D01*
X102702000Y-79814000D01*
X102720000Y-79688000D01*
X102819000Y-79651000D01*
X102863000Y-79648000D01*
X102898000Y-79678000D01*
G37*
G36*
X113216000Y-79762000D02*
G01*
X113206000Y-79789000D01*
X113204000Y-79750000D01*
X113216000Y-79762000D01*
G37*
G36*
X111340000Y-79894000D02*
G01*
X111348000Y-79979000D01*
X111348000Y-80069000D01*
X111346000Y-80075000D01*
X111325000Y-80075000D01*
X111321000Y-79919000D01*
X111323000Y-79744000D01*
X111340000Y-79894000D01*
G37*
G36*
X112663000Y-79220000D02*
G01*
X112685000Y-79330000D01*
X112688000Y-79369000D01*
X112677000Y-79423000D01*
X112658000Y-79373000D01*
X112635000Y-79296000D01*
X112633000Y-79294000D01*
X112626000Y-79223000D01*
X112656000Y-79206000D01*
X112663000Y-79220000D01*
G37*
G36*
X104881000Y-79801000D02*
G01*
X104883000Y-79831000D01*
X104875000Y-79894000D01*
X104871000Y-79893000D01*
X104847000Y-79826000D01*
X104854000Y-79741000D01*
X104866000Y-79729000D01*
X104881000Y-79801000D01*
G37*
G36*
X117495000Y-79724000D02*
G01*
X117492000Y-79868000D01*
X117476000Y-79889000D01*
X117469000Y-79865000D01*
X117474000Y-79689000D01*
X117493000Y-79524000D01*
X117495000Y-79724000D01*
G37*
G36*
X109651000Y-80903000D02*
G01*
X109722000Y-80999000D01*
X109758000Y-81066000D01*
X109733000Y-81069000D01*
X109697000Y-81035000D01*
X109630000Y-80932000D01*
X109601000Y-80855000D01*
X109603000Y-80853000D01*
X109651000Y-80903000D01*
G37*
G36*
X110233000Y-79679000D02*
G01*
X110186000Y-79710000D01*
X110096000Y-79729000D01*
X110048000Y-79779000D01*
X110042000Y-79796000D01*
X110024000Y-79788000D01*
X110047000Y-79703000D01*
X110062000Y-79683000D01*
X110160000Y-79654000D01*
X110179000Y-79654000D01*
X110233000Y-79679000D01*
G37*
G36*
X99836000Y-79782000D02*
G01*
X99832000Y-79842000D01*
X99812000Y-79810000D01*
X99754000Y-79750000D01*
X99720000Y-79732000D01*
X99767000Y-79691000D01*
X99823000Y-79690000D01*
X99836000Y-79782000D01*
G37*
%TD*%
%LPC*%
D15*
%TO.C,D1*%
X96088200Y-109397800D03*
D16*
X96088200Y-111937800D03*
%TD*%
D15*
%TO.C,D2*%
X108331000Y-116962000D03*
D16*
X108331000Y-119502000D03*
%TD*%
D15*
%TO.C,D3*%
X121793000Y-112771000D03*
D16*
X121793000Y-115311000D03*
%TD*%
D17*
%TO.C,REF\u002A\u002A*%
X110871000Y-75819000D03*
%TD*%
D18*
%TO.C,BT1*%
X121716800Y-92583000D03*
X100634800Y-92583000D03*
D19*
X111175800Y-92583000D03*
%TD*%
D20*
%TO.C,SW1*%
X130433846Y-103288212D03*
X129407786Y-106107290D03*
X128381726Y-108926368D03*
%TD*%
M02*
